<svg width="75" height="75" viewBox="0 0 75 75" fill="none" xmlns="http://www.w3.org/2000/svg">
<path d="M54.7813 24.2812C54.5625 24.25 54.3438 24.25 54.125 24.2812C49.2812 24.125 45.4375 20.1562 45.4375 15.2812C45.4375 10.3125 49.4688 6.25 54.4688 6.25C59.4375 6.25 63.5 10.2812 63.5 15.2812C63.4688 20.1562 59.625 24.125 54.7813 24.2812Z" fill="#FFCC00"/>
<path d="M64.9688 45.9375C61.4688 48.2813 56.5625 49.1563 52.0312 48.5625C53.2187 46 53.8437 43.1563 53.875 40.1563C53.875 37.0313 53.1875 34.0625 51.875 31.4688C56.5 30.8438 61.4062 31.7188 64.9375 34.0625C69.875 37.3125 69.875 42.6563 64.9688 45.9375Z" fill="#FFCC00"/>
<path d="M20.125 24.2812C20.3437 24.25 20.5625 24.25 20.7812 24.2812C25.625 24.125 29.4688 20.1562 29.4688 15.2812C29.4688 10.2812 25.4375 6.25 20.4375 6.25C15.4687 6.25 11.4375 10.2812 11.4375 15.2812C11.4375 20.1562 15.2812 24.125 20.125 24.2812Z" fill="#FFCC00"/>
<path d="M20.4688 40.1561C20.4688 43.1874 21.125 46.0624 22.3125 48.6561C17.9062 49.1249 13.3125 48.1874 9.9375 45.9686C5 42.6874 5 37.3436 9.9375 34.0624C13.2813 31.8124 18 30.9061 22.4375 31.4061C21.1562 34.0311 20.4688 36.9999 20.4688 40.1561Z" fill="#FFCC00"/>
<path d="M37.875 49.5938C37.625 49.5625 37.3437 49.5625 37.0625 49.5938C31.3125 49.4062 26.7188 44.6875 26.7188 38.875C26.75 32.9375 31.5312 28.125 37.5 28.125C43.4375 28.125 48.25 32.9375 48.25 38.875C48.2187 44.6875 43.6562 49.4062 37.875 49.5938Z" fill="#FFCC00"/>
<path d="M27.7187 56.0625C23 59.2188 23 64.4063 27.7187 67.5313C33.0938 71.125 41.9063 71.125 47.2813 67.5313C52 64.375 52 59.1875 47.2813 56.0625C41.9375 52.4687 33.125 52.4687 27.7187 56.0625Z" fill="#FFCC00"/>
</svg>
