<svg width="75" height="75" viewBox="0 0 75 75" fill="none" xmlns="http://www.w3.org/2000/svg">
<path d="M63.6254 39.7812C62.4692 39.7812 61.5004 38.9062 61.3754 37.7499C60.6254 30.8749 56.9379 24.6874 51.2504 20.7499C50.2192 20.0312 49.9692 18.6249 50.6879 17.5937C51.4067 16.5624 52.8129 16.3124 53.8442 17.0312C60.6254 21.7499 65.0004 29.1249 65.9067 37.2812C66.0317 38.5312 65.1254 39.6562 63.8754 39.7812C63.7817 39.7812 63.7192 39.7812 63.6254 39.7812Z" fill="#FFCC00"/>
<path d="M11.6878 39.9373C11.6253 39.9373 11.5315 39.9373 11.469 39.9373C10.219 39.8123 9.31279 38.6873 9.43779 37.4373C10.2815 29.281 14.594 21.906 21.3128 17.156C22.3128 16.4373 23.7503 16.6873 24.469 17.6873C25.1878 18.7185 24.9378 20.1248 23.9378 20.8435C18.3128 24.8435 14.6565 31.031 13.969 37.8748C13.844 39.0623 12.844 39.9373 11.6878 39.9373Z" fill="#FFCC00"/>
<path d="M49.9689 65.9376C46.1251 67.7813 42.0001 68.7188 37.6876 68.7188C33.1876 68.7188 28.9064 67.7188 24.9064 65.6876C23.7814 65.1563 23.3439 63.7813 23.9064 62.6563C24.4376 61.5313 25.8126 61.0938 26.9376 61.6251C28.9064 62.6251 31.0001 63.3126 33.1251 63.7188C36.0001 64.2813 38.9376 64.3126 41.8126 63.8126C43.9376 63.4376 46.0314 62.7813 47.9689 61.8438C49.1251 61.3126 50.5001 61.7501 51.0001 62.9063C51.5626 64.0313 51.1251 65.4063 49.9689 65.9376Z" fill="#FFCC00"/>
<path d="M37.6567 6.28125C32.813 6.28125 28.8442 10.2188 28.8442 15.0938C28.8442 19.9688 32.7817 23.9063 37.6567 23.9063C42.5317 23.9063 46.4692 19.9688 46.4692 15.0938C46.4692 10.2188 42.5317 6.28125 37.6567 6.28125Z" fill="#FFCC00"/>
<path d="M15.7808 43.3438C10.937 43.3438 6.96826 47.2813 6.96826 52.1563C6.96826 57.0313 10.9058 60.9688 15.7808 60.9688C20.6558 60.9688 24.5933 57.0313 24.5933 52.1563C24.5933 47.2813 20.6245 43.3438 15.7808 43.3438Z" fill="#FFCC00"/>
<path d="M59.2192 43.3438C54.3755 43.3438 50.4067 47.2813 50.4067 52.1563C50.4067 57.0313 54.3442 60.9688 59.2192 60.9688C64.0942 60.9688 68.0317 57.0313 68.0317 52.1563C68.0317 47.2813 64.0942 43.3438 59.2192 43.3438Z" fill="#FFCC00"/>
</svg>
