<svg width="75" height="75" viewBox="0 0 75 75" fill="none" xmlns="http://www.w3.org/2000/svg">
<path d="M41.0938 48.0312C40.4062 47.0312 39.1875 46.4687 37.7812 46.4687H30.5C30.0312 46.4687 29.5625 46.2812 29.2812 45.9062C28.9688 45.5312 28.8438 45.0625 28.9062 44.5312L29.8125 38.7187C30.1875 37 29.0312 35.0312 27.3125 34.4375C25.6875 33.8437 23.8125 34.6562 23.0312 35.8125L15.8125 46.5625V45.2187C15.8125 42.5937 14.6875 41.5312 11.9375 41.5312H10.125C7.375 41.5625 6.25 42.625 6.25 45.25V63.0937C6.25 65.7187 7.375 66.7812 10.125 66.7812H11.9375C14.5625 66.7812 15.6562 65.75 15.75 63.375L21.2188 67.5937C22 68.3437 23.6562 68.75 24.8438 68.75H31.75C34.125 68.75 36.5 66.9687 37.0625 64.7812L41.4375 51.5C41.9062 50.2187 41.7812 49 41.0938 48.0312Z" fill="#FFCC00"/>
<path d="M65.9687 8.15625H64.1562C61.5312 8.15625 60.4374 9.1875 60.3124 11.5625L54.8437 7.34375C54.0937 6.59375 52.4062 6.1875 51.2187 6.1875H44.3124C41.9374 6.1875 39.5624 7.96875 38.9999 10.1562L34.6249 23.4375C34.1562 24.7188 34.3124 25.9375 34.9687 26.9062C35.6562 27.9062 36.8749 28.4687 38.2812 28.4687H45.5624C46.0312 28.4687 46.4999 28.6562 46.7812 29.0312C47.0937 29.4062 47.2187 29.875 47.1562 30.4062L46.2499 36.2188C45.8749 37.9375 47.0312 39.9062 48.7499 40.5C50.3749 41.0938 52.2499 40.2813 53.0312 39.125L60.2499 28.375V29.7188C60.2499 32.3438 61.3749 33.4062 64.1249 33.4062H65.9374C68.6874 33.4062 69.8124 32.3438 69.8124 29.7188V11.8125C69.8437 9.21875 68.7187 8.15625 65.9687 8.15625Z" fill="#FFCC00"/>
</svg>
