<svg width="75" height="75" viewBox="0 0 75 75" fill="none" xmlns="http://www.w3.org/2000/svg">
<path d="M46.875 71.0938C46.0312 71.0938 45.25 70.625 44.8437 69.9063C44.4375 69.1875 44.4375 68.2813 44.875 67.5625L48.1562 62.0938C48.8125 60.9688 50.25 60.625 51.375 61.2813C52.5 61.9375 52.8437 63.375 52.1875 64.5L51.3437 65.9062C59.9687 63.875 66.4375 56.125 66.4375 46.875C66.4375 45.5938 67.5 44.5312 68.7812 44.5312C70.0625 44.5312 71.125 45.5938 71.125 46.875C71.0937 60.2188 60.2187 71.0938 46.875 71.0938Z" fill="#FFCC00"/>
<path d="M6.25 30.4688C4.96875 30.4688 3.90625 29.4062 3.90625 28.125C3.90625 14.7812 14.7812 3.90625 28.125 3.90625C28.9688 3.90625 29.75 4.375 30.1562 5.09375C30.5625 5.8125 30.5625 6.71875 30.125 7.4375L26.8438 12.9375C26.1875 14.0312 24.75 14.4062 23.625 13.7188C22.5312 13.0625 22.1562 11.625 22.8438 10.5L23.6875 9.09375C15.0312 11.125 8.59375 18.875 8.59375 28.125C8.59375 29.4062 7.53125 30.4688 6.25 30.4688Z" fill="#FFCC00"/>
<path d="M33.3438 43.2813L23.5313 38C22.5 37.4375 21.25 37.4375 20.2187 38L10.4062 43.2813C9.6875 43.6563 9.25 44.4375 9.25 45.2812C9.25 46.125 9.6875 46.9063 10.4062 47.2813L20.2187 52.5625C20.75 52.8438 21.3125 52.9688 21.875 52.9688C22.4375 52.9688 23 52.8438 23.5313 52.5625L33.3438 47.2813C34.0625 46.9063 34.5 46.125 34.5 45.2812C34.5 44.4375 34.0312 43.6875 33.3438 43.2813Z" fill="#FFCC00"/>
<path d="M18.5937 54.4063L9.46875 49.8438C8.78125 49.5 7.96875 49.5312 7.28125 49.9375C6.65625 50.3437 6.25 51.0625 6.25 51.8438V60.4688C6.25 61.9688 7.0625 63.3125 8.40625 63.9687L17.5312 68.5313C17.8438 68.6563 18.1875 68.75 18.5312 68.75C18.9375 68.75 19.3438 68.625 19.7188 68.4062C20.375 68 20.7812 67.2813 20.7812 66.5V57.875C20.7812 56.4063 19.9375 55.0625 18.5937 54.4063Z" fill="#FFCC00"/>
<path d="M36.4375 49.9375C35.7812 49.5312 34.9688 49.5 34.25 49.8438L25.125 54.4063C23.7813 55.0625 22.9688 56.4063 22.9688 57.9063V66.5313C22.9688 67.3125 23.375 68.0312 24.0313 68.4375C24.4063 68.625 24.8125 68.75 25.2187 68.75C25.5625 68.75 25.9063 68.6562 26.2188 68.5L35.3438 63.9375C36.6875 63.2812 37.5 61.9375 37.5 60.4375V51.8125C37.5 51.0625 37.0938 50.3437 36.4375 49.9375Z" fill="#FFCC00"/>
<path d="M64.5938 11.9687L54.7813 6.6875C53.75 6.125 52.5 6.125 51.4687 6.6875L41.6562 11.9687C40.9375 12.3437 40.5 13.125 40.5 13.9687C40.5 14.8125 40.9375 15.5938 41.6562 15.9688L51.4687 21.25C52 21.5312 52.5625 21.6562 53.125 21.6562C53.6875 21.6562 54.25 21.5312 54.7813 21.25L64.5938 15.9688C65.3125 15.5938 65.75 14.8125 65.75 13.9687C65.75 13.0937 65.2812 12.3437 64.5938 11.9687Z" fill="#FFCC00"/>
<path d="M49.8437 23.0625L40.7187 18.5C40.0312 18.1563 39.2187 18.1875 38.5312 18.5937C37.9062 19 37.5 19.7188 37.5 20.5V29.125C37.5 30.625 38.3125 31.9687 39.6562 32.625L48.7812 37.1875C49.0937 37.3437 49.4375 37.4375 49.7813 37.4375C50.1875 37.4375 50.5937 37.3125 50.9687 37.0938C51.625 36.6875 52.0312 35.9688 52.0312 35.1875V26.5625C52.0312 25.0625 51.1875 23.7188 49.8437 23.0625Z" fill="#FFCC00"/>
<path d="M67.6875 18.5937C67.0312 18.1875 66.2187 18.1563 65.5 18.5L56.375 23.0625C55.0313 23.7188 54.2188 25.0625 54.2188 26.5625V35.1875C54.2188 35.9688 54.625 36.6875 55.2813 37.0938C55.6563 37.3125 56.0625 37.4375 56.4687 37.4375C56.8125 37.4375 57.1562 37.3437 57.4687 37.1875L66.5937 32.625C67.9375 31.9375 68.75 30.5937 68.75 29.125V20.5C68.75 19.7188 68.3437 19 67.6875 18.5937Z" fill="#FFCC00"/>
</svg>
