<svg width="472" height="439" viewBox="0 0 472 439" fill="none" xmlns="http://www.w3.org/2000/svg">
<path d="M237.591 438.739C345.439 438.739 432.867 427.348 432.867 413.296C432.867 399.244 345.439 387.853 237.591 387.853C129.743 387.853 42.3149 399.244 42.3149 413.296C42.3149 427.348 129.743 438.739 237.591 438.739Z" fill="#EBEBEB"/>
<path d="M58.4616 385.451C90.7491 385.451 116.923 379.181 116.923 371.447C116.923 363.712 90.7491 357.443 58.4616 357.443C26.1742 357.443 0 363.712 0 371.447C0 379.181 26.1742 385.451 58.4616 385.451Z" fill="#EBEBEB"/>
<path d="M3.18164 352.032L61.7839 351.772L120.386 351.674L237.591 351.501L354.795 351.674L413.398 351.772L472 352.032L413.398 352.302L354.795 352.399L237.591 352.573L120.386 352.399L61.7839 352.302L3.18164 352.032Z" fill="#263238"/>
<path d="M60.1824 164.612C60.1824 164.612 31.0815 160.543 37.8778 125.404C37.8778 125.404 70.3986 132.709 60.1824 164.612Z" fill="#FFC727"/>
<path opacity="0.1" d="M60.1824 164.612C60.1824 164.612 31.0815 160.543 37.8778 125.404C37.8778 125.404 70.3986 132.709 60.1824 164.612Z" fill="black"/>
<path d="M58.7105 157.275C58.142 155.499 57.481 153.755 56.7301 152.048C56.7301 151.821 56.7301 151.593 56.6543 151.377C56.6543 150.89 56.5677 150.414 56.5353 149.927C56.4487 148.845 56.3838 147.827 56.3188 146.777C56.1998 144.678 56.0699 142.578 56.0374 140.479C56.0374 140.36 55.8535 140.371 55.8535 140.479C55.8535 142.589 55.8535 144.689 55.8535 146.788C55.8535 147.871 55.9617 148.888 56.0266 149.938C56.0266 150.176 56.0266 150.403 56.0266 150.641C54.391 147.142 52.4346 143.801 50.1826 140.663C49.2338 139.264 48.2114 137.917 47.1199 136.626C45.962 135.295 44.7391 134.029 43.5594 132.719C43.4837 132.633 43.3646 132.719 43.4404 132.849C45.5301 135.161 47.4064 137.656 49.0463 140.306C49.9337 141.637 50.767 143.011 51.5679 144.407L51.2973 144.31L50.2151 143.888L47.8342 142.99C46.2758 142.405 44.7174 141.843 43.159 141.247C43.0616 141.247 42.9967 141.377 43.0941 141.41C44.6417 142.027 46.1676 142.676 47.7043 143.336L49.9554 144.31L51.0917 144.775C51.3354 144.897 51.5936 144.988 51.8601 145.046C52.4445 146.128 53.0289 147.156 53.57 148.238C54.9197 150.961 56.105 153.762 57.1197 156.626C57.1954 156.82 57.2604 157.026 57.3361 157.232C56.5674 156.789 55.7682 156.402 54.9444 156.074L51.9358 154.71C49.8904 153.769 47.8667 152.816 45.9079 151.712C45.8878 151.701 45.8639 151.698 45.8416 151.704C45.8193 151.71 45.8003 151.725 45.7888 151.745C45.7773 151.765 45.7743 151.789 45.7804 151.811C45.7865 151.833 45.8012 151.852 45.8213 151.864C47.8234 152.946 49.7822 154.126 51.7843 155.208C52.7908 155.749 53.7973 156.29 54.8254 156.777C55.6714 157.28 56.5919 157.645 57.5526 157.859C58.529 160.522 59.1724 163.296 59.4681 166.117C59.7928 170.089 59.7603 174.093 59.8577 178.075H59.9551C60.2473 174.461 60.4096 170.814 60.4313 167.188C60.3887 163.813 59.8079 160.467 58.7105 157.275Z" fill="#263238"/>
<path d="M54.2302 136.615C53.9492 138.67 53.8514 140.745 53.938 142.817C53.938 142.871 54.0246 142.871 54.0246 142.817C54.1436 140.76 54.1653 138.704 54.4033 136.659C54.4142 136.55 54.241 136.507 54.2302 136.615Z" fill="#263238"/>
<path d="M45.9079 138.379C44.6068 137.88 43.3535 137.264 42.1634 136.54C42.066 136.475 41.9794 136.637 42.0768 136.691C43.2428 137.478 44.5193 138.087 45.8646 138.498C45.9295 138.52 46.0377 138.412 45.9079 138.379Z" fill="#263238"/>
<path d="M61.1132 220.39C61.1132 217.144 61.0266 213.962 60.9941 210.748C60.9292 200.066 60.8426 189.385 60.6478 178.703C60.4963 170.218 60.2979 161.741 60.0526 153.271C60.0518 153.249 60.0455 153.227 60.0341 153.208C60.0228 153.189 60.0068 153.174 59.9876 153.163C59.9876 150.847 59.9876 148.531 59.9876 146.215C59.9876 146.15 59.9227 146.128 59.847 146.128C59.7712 146.128 59.7063 146.128 59.7171 146.215C59.7171 148.538 59.7171 150.857 59.7171 153.173C59.7171 153.173 59.6413 153.228 59.6413 153.271C59.2193 168.422 58.8405 183.454 58.7431 198.551C58.7431 201.624 58.7431 204.687 58.7431 207.761C58.6349 217.594 58.5952 227.435 58.624 237.284C58.624 238.842 58.624 240.411 58.624 241.981C58.624 250.985 58.7214 259.989 58.7214 269.036C58.7214 269.512 59.2626 269.761 59.8037 269.783C60.3448 269.804 61.1564 269.545 61.1564 268.993C61.1564 259.069 61.2214 249.134 61.2214 239.21C61.1889 232.912 61.1889 226.645 61.1132 220.39Z" fill="#263238"/>
<path d="M48.9598 210.618C48.9598 210.618 34.9558 200.25 21.677 207.241C8.3981 214.232 6.29858 241.266 6.29858 241.266C6.29858 241.266 25.7786 244.058 38.0943 232.36C49.9338 221.105 48.9598 210.618 48.9598 210.618Z" fill="#FFC727"/>
<path d="M52.7692 211.256C50.1982 210.231 47.4133 209.86 44.6634 210.174C44.0986 210.073 43.527 210.016 42.9535 210.001L40.973 209.849L36.8931 209.568C34.1334 209.362 31.3629 209.189 28.6032 208.908C28.5841 208.914 28.5676 208.927 28.5559 208.943C28.5442 208.96 28.5379 208.979 28.5379 209C28.5379 209.02 28.5442 209.04 28.5559 209.056C28.5676 209.073 28.5841 209.085 28.6032 209.092C31.3304 209.438 34.0144 209.828 36.774 210.098C38.1809 210.239 39.5878 210.39 41.0055 210.488L42.0228 210.585C41.6115 210.683 41.1895 210.78 40.7782 210.899C38.5818 211.538 36.4567 212.402 34.4364 213.475C33.3542 213.669 32.272 213.983 31.1898 214.232C29.4582 214.643 27.7375 215.087 26.0167 215.542C22.6186 216.429 19.2529 217.436 15.8763 218.42C15.7681 218.42 15.8222 218.615 15.8763 218.583C19.242 217.76 22.6402 217.003 26.0167 216.202L30.93 215.022L32.2179 214.719C28.4616 217.056 25.1038 219.978 22.2722 223.377C19.5472 226.731 17.2295 230.397 15.3677 234.297C15.3677 234.394 15.4543 234.491 15.5192 234.394C17.8238 230.408 20.6358 226.737 23.8848 223.474C23.8198 223.658 23.7657 223.853 23.7008 224.037L22.9216 226.505C22.4021 228.16 21.8394 229.805 21.3848 231.461C21.3848 231.569 21.5255 231.602 21.558 231.461C22.1532 229.86 22.716 228.215 23.2787 226.645C23.5493 225.855 23.8306 225.076 24.1012 224.286C24.2527 223.875 24.3934 223.464 24.5233 223.052C24.5233 222.933 24.6207 222.803 24.664 222.674C26.2241 221.159 27.8797 219.745 29.6205 218.442C31.932 216.751 34.4259 215.324 37.0554 214.189C37.0554 214.427 36.9688 214.676 36.9147 214.903C36.774 215.542 36.6333 216.18 36.5035 216.819C36.2329 218.139 35.9732 219.47 35.7134 220.801C35.1831 223.507 34.8585 226.212 34.3498 228.961C34.3498 229.08 34.5014 229.124 34.523 228.961C35.1507 226.234 35.9623 223.55 36.5684 220.823C36.8714 219.459 37.1744 218.096 37.4666 216.732L37.8562 214.806C37.9212 214.449 38.0077 214.092 38.051 213.724L38.8086 213.41C42.4773 212.046 46.5357 211.061 50.4533 211.819C52.3064 212.162 54.0458 212.958 55.5167 214.137C56.9876 215.315 58.1443 216.838 58.8838 218.572C59.0137 218.875 59.4898 218.68 59.4141 218.366C58.6565 215.055 55.8536 212.555 52.7692 211.256Z" fill="#263238"/>
<path d="M31.3411 222.793C30.9515 224.568 30.5511 226.342 30.1615 228.117C29.7193 229.817 29.3939 231.546 29.1875 233.29C29.1875 233.366 29.2741 233.366 29.2957 233.29C29.8111 231.584 30.2089 229.845 30.4862 228.085C30.8325 226.332 31.1788 224.578 31.5143 222.825C31.5359 222.728 31.3628 222.684 31.3411 222.793Z" fill="#263238"/>
<path d="M17.8026 227.305C16.0169 228.204 14.2962 229.232 12.3915 229.979C12.3808 229.983 12.3711 229.989 12.3629 229.997C12.3547 230.005 12.3481 230.015 12.3436 230.025C12.3391 230.036 12.3367 230.047 12.3366 230.059C12.3364 230.07 12.3385 230.082 12.3428 230.092C12.3471 230.103 12.3534 230.113 12.3614 230.121C12.3694 230.129 12.379 230.136 12.3895 230.14C12.4001 230.145 12.4114 230.147 12.4229 230.147C12.4344 230.147 12.4458 230.145 12.4564 230.141C14.3194 229.316 16.1365 228.391 17.9 227.37C17.9 227.37 17.9 227.284 17.8026 227.305Z" fill="#263238"/>
<path d="M52.109 191.571C52.109 191.571 34.9991 192.653 27.034 181.387C19.0688 170.121 20.8653 153.985 20.8653 153.985C20.8653 153.985 38.841 156.15 45.9728 164.277C53.1047 172.405 52.109 191.571 52.109 191.571Z" fill="#FFC727"/>
<path d="M60.1066 208.453C59.5113 206.624 58.7754 204.817 58.0828 203.042C57.3902 201.267 56.7084 199.601 55.9184 197.913C54.3946 194.464 52.6858 191.101 50.7994 187.837C49.5874 185.759 48.2887 183.735 46.9576 181.744C46.9576 181.441 46.871 181.138 46.8277 180.835C46.7519 180.305 46.6762 179.753 46.5896 179.244C46.4165 178.162 46.2325 177.08 46.0485 175.998C45.6589 173.628 45.1719 171.279 44.7931 168.92C44.7931 168.812 44.5983 168.812 44.62 168.92C44.9555 171.257 45.1935 173.606 45.5182 175.943C45.6805 177.091 45.8321 178.238 46.0052 179.385L46.2 180.63C43.5904 176.81 40.7648 173.142 37.737 169.645L36.5574 168.281C36.5574 168.151 36.4492 168.022 36.3951 167.892C36.2652 167.567 36.1462 167.242 36.0271 166.907C35.7674 166.236 35.5293 165.554 35.2804 164.872C34.8042 163.53 34.3713 162.178 34.0034 160.803C34.0034 160.695 33.8086 160.749 33.841 160.803C34.1873 162.21 34.5445 163.606 34.9233 164.991C35.1289 165.662 35.3453 166.323 35.5834 166.983C35.5834 167.091 35.6592 167.199 35.7025 167.307C33.538 164.926 31.2329 162.632 28.9278 160.359C28.852 160.284 28.733 160.36 28.8087 160.489C33.2298 165.115 37.2824 170.08 40.9296 175.337C40.5146 175.206 40.0917 175.101 39.6634 175.024C38.3431 174.764 37.0228 174.58 35.6916 174.407C32.8995 174.05 30.1182 173.703 27.3477 173.26C27.2287 173.26 27.1854 173.411 27.3477 173.433C29.9992 173.952 32.6181 174.515 35.2588 175.164C36.5033 175.446 37.7479 175.684 38.9924 175.933C40.0132 176.15 41.0183 176.436 42.001 176.788C42.2715 177.188 42.5637 177.578 42.8343 177.978C44.0897 179.796 45.2909 181.668 46.4706 183.541L44.7282 183.205C43.4079 182.945 42.0767 182.707 40.7564 182.491C38.1483 182.058 35.5293 181.604 32.9536 181.019C32.8454 181.019 32.8021 181.171 32.9536 181.192C35.5726 181.809 38.1591 182.523 40.7564 183.216C42.0118 183.552 43.278 183.855 44.5442 184.136L46.4381 184.547C46.6933 184.614 46.9541 184.658 47.2173 184.677C49.7172 188.725 52.0548 192.88 54.2301 197.112C55.1824 198.973 56.1023 200.856 56.9898 202.739C57.8772 204.622 58.6888 206.668 59.533 208.637C59.652 209.049 60.2689 208.886 60.1066 208.453Z" fill="#263238"/>
<path d="M42.618 169.136C42.2933 167.502 41.947 165.889 41.5357 164.244C41.5357 164.136 41.3409 164.19 41.3626 164.244C41.6872 165.846 42.0011 167.491 42.2933 169.06C42.532 170.674 42.8535 172.274 43.2565 173.854C43.1544 172.269 42.941 170.692 42.618 169.136Z" fill="#263238"/>
<path d="M32.6399 168.66C31.8499 168.26 31.0057 167.946 30.1833 167.578L28.8846 167.069L28.2244 166.81C27.9716 166.728 27.7284 166.619 27.4993 166.485C27.3695 166.398 27.2937 166.615 27.4236 166.636C27.6774 166.706 27.9212 166.807 28.1487 166.939L28.798 167.232L30.0534 167.784C30.8734 168.168 31.7154 168.504 32.575 168.79C32.6724 168.866 32.7373 168.704 32.6399 168.66Z" fill="#263238"/>
<path d="M69.6194 178.118C69.6194 178.118 79.9762 158.779 95.7226 155.781C111.469 152.784 121.122 168.995 121.122 168.995C121.122 168.995 109.629 183.67 95.149 186.235C80.6689 188.8 69.6194 178.118 69.6194 178.118Z" fill="#FFC727"/>
<path d="M106.285 164.45C102.18 163.894 98.016 163.945 93.9261 164.602L94.6295 164.223L98.1251 162.427C100.527 161.098 102.994 159.892 105.517 158.812C105.636 158.758 105.517 158.595 105.452 158.65C102.984 159.797 100.43 160.814 97.9627 161.896C96.7182 162.459 95.5061 163.054 94.3048 163.693C93.5256 164.104 92.6707 164.494 91.9023 164.991C88.4422 165.685 85.0802 166.801 81.8917 168.314L83.8614 166.149C85.3224 164.537 86.7726 162.849 88.3851 161.388C88.4717 161.312 88.3851 161.193 88.2552 161.269C86.6102 162.762 84.8679 164.147 83.2662 165.706C82.4978 166.463 81.7511 167.242 81.026 168.054C80.6688 168.454 80.3009 168.866 79.9438 169.299C74.5338 172.195 69.8333 176.255 66.1805 181.186C62.5277 186.117 60.0135 191.796 58.8188 197.815C58.8188 197.923 58.9595 197.977 58.9919 197.869C61.2105 190.496 65.184 183.771 70.5717 178.27C76.3781 172.375 83.6814 168.173 91.6967 166.117C96.4512 164.905 101.368 164.46 106.263 164.797C106.309 164.799 106.354 164.784 106.389 164.754C106.423 164.723 106.444 164.68 106.447 164.634C106.45 164.588 106.435 164.543 106.404 164.509C106.374 164.474 106.331 164.453 106.285 164.45Z" fill="#263238"/>
<path opacity="0.1" d="M121.122 168.996C121.122 168.996 109.629 183.67 95.149 186.235C84.1211 188.183 75.0521 182.437 71.3401 179.601L70.5392 178.292C70.5392 178.292 77.9958 172.015 92.1079 168.39C106.22 164.764 121.122 168.996 121.122 168.996Z" fill="black"/>
<path d="M97.1294 157.556C95.9238 158.261 94.7569 159.031 93.6339 159.861C92.5394 160.696 91.5217 161.627 90.5928 162.643C90.5808 162.662 90.5758 162.685 90.5788 162.707C90.5818 162.73 90.5926 162.751 90.6093 162.766C90.626 162.781 90.6475 162.791 90.6702 162.792C90.6929 162.793 90.7153 162.786 90.7335 162.773C91.8157 161.864 92.8222 160.954 93.9152 160.1C94.9679 159.234 96.074 158.435 97.2268 157.708C97.2368 157.701 97.2454 157.693 97.2521 157.683C97.2589 157.674 97.2636 157.663 97.2661 157.651C97.2687 157.64 97.2689 157.628 97.2668 157.616C97.2647 157.604 97.2603 157.593 97.2539 157.583C97.2475 157.573 97.2392 157.565 97.2295 157.558C97.2198 157.551 97.2088 157.547 97.1973 157.544C97.1857 157.542 97.1738 157.541 97.1621 157.543C97.1505 157.546 97.1394 157.55 97.1294 157.556Z" fill="#263238"/>
<path d="M105.776 160.825C105.192 161.074 104.597 161.279 104.012 161.528L102.259 162.253C102.14 162.253 102.194 162.513 102.324 162.459L104.077 161.745C104.673 161.507 105.246 161.236 105.831 160.998C105.939 160.955 105.885 160.781 105.776 160.825Z" fill="#263238"/>
<path d="M67.5523 202.458C67.5523 202.458 70.3228 221.646 84.7488 228.355C99.1748 235.065 116.761 228.355 116.761 228.355C116.761 228.355 109.889 186.852 67.5523 202.458Z" fill="#FFC727"/>
<path d="M106.815 215.899C105.495 215.748 104.164 215.52 102.854 215.282L100.906 214.914L99.8999 214.709C99.5103 214.352 99.1316 213.984 98.7311 213.626C95.9912 211.226 93.035 209.085 89.9002 207.23C88.1956 206.22 86.4321 205.313 84.619 204.514H84.8895L89.6405 204.72C92.8006 204.871 95.9715 204.936 99.1315 205.142C99.2506 205.142 99.2398 204.979 99.1315 204.969C95.9498 204.752 92.7897 204.406 89.6188 204.135L85.0086 203.724L82.6277 203.518L82.0216 203.454C81.1991 203.14 80.3767 202.847 79.5325 202.588C75.6003 201.238 71.3706 201.006 67.3142 201.917C63.6888 202.847 60.0634 205.228 59.1218 209.049C59.1218 209.179 59.295 209.276 59.3491 209.146C60.7019 205.899 64.2516 204.33 67.4549 203.67C69.5969 203.264 71.7918 203.22 73.9483 203.54C74.0938 204.528 74.3366 205.5 74.6733 206.44C75.0738 207.793 75.4634 209.146 75.8746 210.488C76.6971 213.183 77.5953 215.899 78.3962 218.551C78.3962 218.574 78.4053 218.596 78.4215 218.612C78.4378 218.628 78.4598 218.637 78.4828 218.637C78.5057 218.637 78.5278 218.628 78.544 218.612C78.5602 218.596 78.5693 218.574 78.5693 218.551C77.8984 215.856 77.3248 213.139 76.6755 210.434C76.3616 209.114 76.0261 207.793 75.7015 206.473C75.5129 205.551 75.2708 204.64 74.9764 203.746C76.2403 203.966 77.4905 204.259 78.7209 204.622C80.934 205.285 83.1028 206.087 85.2142 207.025C85.4198 208.388 85.7337 209.741 86.0475 211.094C86.4371 212.782 86.8808 214.46 87.4111 216.116C87.4172 216.132 87.4283 216.146 87.4428 216.156C87.4573 216.167 87.4746 216.172 87.4923 216.172C87.5099 216.172 87.5272 216.167 87.5417 216.156C87.5562 216.146 87.5673 216.132 87.5734 216.116L87.5085 215.802C87.1838 214.232 86.8375 212.663 86.502 211.094C86.2423 209.828 85.9934 208.562 85.7228 207.306C87.5197 208.105 89.2751 208.993 90.9824 209.968C90.9824 210.358 91.1123 210.759 91.1664 211.116C91.2746 211.765 91.3937 212.425 91.5127 213.085C91.7833 214.557 92.0755 216.04 92.4326 217.501C93.0855 220.331 93.9132 223.117 94.9109 225.845C94.8986 225.86 94.8919 225.879 94.8919 225.899C94.8919 225.918 94.8986 225.938 94.9109 225.953L94.9975 226.05C95.0624 226.126 95.1598 226.05 95.1382 225.964C94.478 223.117 93.7096 220.293 93.0819 217.447C92.7789 216.018 92.4651 214.59 92.1729 213.118C92.0322 212.404 91.9023 211.689 91.7616 210.953L91.6642 210.315C93.6073 211.453 95.4827 212.704 97.2809 214.059C100.395 216.391 103.276 219.019 105.885 221.905C105.982 222.024 106.188 221.905 106.09 221.732C105.019 220.278 103.874 218.88 102.66 217.544C101.935 216.765 101.177 216.007 100.409 215.271H100.647C101.328 215.39 101.999 215.488 102.681 215.574C104.012 215.758 105.354 215.888 106.696 216.04C106.891 216.061 106.934 215.899 106.815 215.899Z" fill="#263238"/>
<path d="M96.6858 222.392C96.6858 222.23 96.6857 222.057 96.5992 221.894C96.5126 221.732 96.4585 221.483 96.426 221.267C96.1338 219.979 95.8849 218.691 95.6468 217.392C95.6468 217.306 95.4953 217.327 95.4953 217.392C95.5832 219.11 95.9487 220.802 96.5775 222.403C96.5775 222.457 96.6966 222.403 96.6858 222.403V222.392Z" fill="#263238"/>
<path d="M84.6081 222.078C84.6081 222.078 84.6081 221.992 84.5215 221.992C84.1103 220.293 83.7207 218.594 83.3744 216.884C83.1904 215.986 83.0064 215.087 82.8333 214.189C82.7359 213.702 82.6493 213.215 82.5627 212.728C82.525 212.299 82.419 211.879 82.2489 211.483C82.2427 211.467 82.2316 211.453 82.2171 211.443C82.2026 211.432 82.1854 211.427 82.1677 211.427C82.15 211.427 82.1328 211.432 82.1183 211.443C82.1038 211.453 82.0927 211.467 82.0865 211.483C82.0752 212.356 82.1993 213.225 82.4545 214.059C82.6276 214.99 82.8116 215.931 83.0172 216.862C83.4393 218.756 83.9047 220.639 84.4458 222.5C84.4524 222.52 84.4649 222.536 84.4813 222.548C84.4978 222.56 84.5175 222.566 84.5378 222.566C84.558 222.566 84.5777 222.56 84.5942 222.548C84.6107 222.536 84.6231 222.52 84.6298 222.5L84.6081 222.078Z" fill="#263238"/>
<path d="M105.56 210.347C102.919 209.99 100.289 209.611 97.6488 209.265C97.5406 209.265 97.4973 209.427 97.6488 209.438C100.279 209.828 102.919 210.152 105.56 210.52C105.56 210.542 105.614 210.369 105.56 210.347Z" fill="#263238"/>
<path d="M60.1607 157.459C60.1607 157.459 51.3298 118.737 92.9412 103.056C92.9412 103.056 104.478 154.039 60.1607 157.459Z" fill="#FFC727"/>
<path d="M69.1432 135.501L69.5869 135.23L71.9461 133.91L76.7729 131.215C79.9438 129.43 83.0822 127.59 86.2748 125.804C86.383 125.804 86.2748 125.598 86.1882 125.653C82.9415 127.395 79.6949 129.029 76.5023 130.728L71.7297 133.25L69.7817 134.332C71.1669 131.702 72.6496 129.127 74.2837 126.637C76.4482 123.315 78.8399 120.144 81.3182 117.071C81.344 117.043 81.358 117.007 81.3569 116.969C81.3559 116.932 81.34 116.896 81.3128 116.87C81.2855 116.845 81.2491 116.831 81.2115 116.832C81.174 116.833 81.1384 116.849 81.1126 116.876C77.4586 120.421 74.2298 124.38 71.4916 128.672C71.4916 128.531 71.4916 128.391 71.4916 128.261C71.4916 127.298 71.5674 126.334 71.5782 125.371C71.5782 123.477 71.5133 121.583 71.5782 119.7C71.5782 119.581 71.405 119.592 71.3942 119.7C71.3185 121.562 71.0912 123.423 70.983 125.285C70.983 126.205 70.8964 127.135 70.8639 128.066C70.8639 128.564 70.8639 129.148 70.8639 129.689C70.0126 131.053 69.1937 132.435 68.4073 133.834C67.0127 136.359 65.7695 138.965 64.6844 141.637C64.6844 140.674 64.587 139.711 64.5329 138.747C64.4031 136.583 64.1542 134.516 64.0568 132.395C64.0568 132.372 64.0476 132.35 64.0314 132.334C64.0152 132.317 63.9931 132.308 63.9702 132.308C63.9472 132.308 63.9252 132.317 63.9089 132.334C63.8927 132.35 63.8836 132.372 63.8836 132.395C63.8836 134.559 63.8836 136.637 63.8836 138.758C63.8836 139.841 63.9485 140.923 64.0135 141.94C64.0135 142.33 64.0135 142.73 64.0892 143.12C62.7662 146.582 61.7168 150.142 60.9508 153.769C60.229 157.638 59.7124 161.543 59.4032 165.468C59.8226 161.938 60.5468 158.451 61.5676 155.046C62.0763 153.217 62.6499 151.399 63.2126 149.635C64.9442 148.823 66.6 147.806 68.2666 146.875L73.4937 144.018C76.9677 142.113 80.4308 140.176 84.0129 138.499C84.1103 138.499 84.0129 138.293 83.9155 138.347C80.2901 139.981 76.6322 141.594 73.0933 143.336C71.3185 144.234 69.5761 145.187 67.8445 146.161C66.4052 146.972 64.9117 147.784 63.5156 148.726C63.9161 147.513 64.3381 146.312 64.8035 145.133C66.0804 141.848 67.529 138.633 69.1432 135.501Z" fill="#263238"/>
<path d="M65.6368 126.637C65.6301 126.618 65.6177 126.602 65.6012 126.59C65.5848 126.578 65.565 126.572 65.5448 126.572C65.5246 126.572 65.5049 126.578 65.4884 126.59C65.4719 126.602 65.4595 126.618 65.4528 126.637C65.6043 128.802 65.6801 131.053 65.9182 133.261C65.9182 133.286 65.9284 133.311 65.9467 133.329C65.965 133.348 65.9897 133.358 66.0156 133.358C66.0414 133.358 66.0662 133.348 66.0844 133.329C66.1027 133.311 66.113 133.286 66.113 133.261C66.0372 131.053 65.7991 128.856 65.6368 126.637Z" fill="#263238"/>
<path d="M85.5821 134.04C82.9848 135.122 80.355 136.085 77.7577 137.167C77.6927 137.167 77.7577 137.319 77.7577 137.286C80.3875 136.301 82.974 135.23 85.593 134.213C85.7445 134.169 85.6904 133.996 85.5821 134.04Z" fill="#263238"/>
<path d="M89.5431 116.172C86.9955 117.341 84.5233 118.668 82.1407 120.144C82.1235 120.163 82.1129 120.187 82.1105 120.213C82.1081 120.238 82.1141 120.264 82.1275 120.286C82.1408 120.308 82.161 120.325 82.1848 120.334C82.2086 120.344 82.2349 120.345 82.2597 120.339C84.6731 118.921 87.1297 117.568 89.6296 116.324C89.7379 116.335 89.6405 116.129 89.5431 116.172Z" fill="#263238"/>
<path d="M88.9045 241.212H28.8953V304.468H88.9045V241.212Z" fill="#455A64"/>
<path d="M27.8455 263.603H24.772V371.955H27.8455V263.603Z" fill="#263238"/>
<path d="M92.7247 263.603H89.6512V371.955H92.7247V263.603Z" fill="#263238"/>
<path d="M61.9139 263.603H58.8404V371.955H61.9139V263.603Z" fill="#263238"/>
<path d="M91.1881 300.42H26.3089V309.176H91.1881V300.42Z" fill="#263238"/>
<path d="M330.261 336.567C330.261 336.567 330.261 383.178 330.261 383.21C330.261 392.117 330.186 399.931 329.742 403.967C329.748 403.977 329.751 403.988 329.751 404C329.751 404.011 329.748 404.022 329.742 404.032C329.742 404.99 329.52 405.935 329.093 406.792L329.039 406.846C326.398 408.653 255.188 411.099 252.677 410.342C250.166 409.584 252.103 402.377 254.841 400.071C257.579 397.766 284.386 384.65 284.386 384.65L284.83 338.06L330.261 336.567Z" fill="#AD6359"/>
<path d="M330.251 373.633V383.21C330.251 392.117 330.175 399.931 329.731 403.967C329.737 403.977 329.74 403.988 329.74 404C329.74 404.011 329.737 404.022 329.731 404.032C329.619 404.974 329.401 405.899 329.082 406.792L329.028 406.846C326.387 408.653 255.177 411.099 252.666 410.342C250.155 409.584 252.093 402.376 254.831 400.071C257.569 397.766 284.375 384.65 284.375 384.65L284.245 374.91L330.251 373.633Z" fill="#C7C7C7"/>
<path d="M252.666 410.342C255.177 411.099 326.387 408.664 329.039 406.846C330.056 406.175 330.305 395.775 330.251 383.21V382.81L284.289 383.892L284.343 384.671C284.343 384.671 257.504 397.799 254.798 400.104C252.093 402.409 250.145 409.617 252.666 410.342Z" fill="#263238"/>
<path d="M253.37 407.56C265.371 406.846 313.812 405.136 325.716 405.396C325.813 405.396 325.813 405.461 325.716 405.472C313.812 406.424 265.393 407.755 253.38 407.798C253.132 407.755 253.121 407.571 253.37 407.56Z" fill="#455A64"/>
<path d="M280.468 384.92C285.165 383.838 290.966 384.401 294.689 387.647C294.84 387.777 294.689 387.972 294.505 387.929C289.94 386.629 285.249 385.82 280.512 385.515C280.441 385.508 280.375 385.476 280.325 385.425C280.276 385.374 280.246 385.307 280.24 385.236C280.235 385.165 280.255 385.094 280.297 385.037C280.339 384.979 280.399 384.938 280.468 384.92Z" fill="#455A64"/>
<path d="M277.135 387.096C281.821 386.013 287.633 386.576 291.356 389.823C291.496 389.942 291.356 390.147 291.161 390.104C286.596 388.802 281.905 387.993 277.168 387.691C277.097 387.682 277.032 387.648 276.984 387.597C276.936 387.545 276.907 387.477 276.903 387.407C276.9 387.336 276.921 387.266 276.963 387.209C277.005 387.152 277.066 387.112 277.135 387.096Z" fill="#455A64"/>
<path d="M273.791 389.26C278.488 388.178 284.289 388.751 288.012 391.987C288.163 392.117 288.012 392.322 287.828 392.279C283.263 390.976 278.572 390.163 273.834 389.855C273.764 389.848 273.698 389.816 273.648 389.765C273.598 389.714 273.568 389.647 273.563 389.576C273.558 389.505 273.578 389.434 273.62 389.376C273.661 389.318 273.722 389.277 273.791 389.26Z" fill="#455A64"/>
<path d="M334.341 163.768L334.298 166.853L332.556 303.061L332.545 303.581L331.517 385.169L281.67 384.174L291.291 163.931L291.42 160.987L291.907 135.436H334.006L334.341 163.768Z" fill="#455A64"/>
<path d="M283.758 375.862C291.54 375.786 289.299 375.7 297.081 375.721C300.89 375.721 325.922 375.819 329.471 376.446C329.547 376.446 329.547 376.598 329.471 376.609C325.9 377.15 300.879 376.609 297.07 376.544C289.289 376.381 291.529 376.338 283.748 376.089C283.724 376.08 283.703 376.064 283.689 376.043C283.675 376.022 283.668 375.997 283.669 375.971C283.67 375.946 283.68 375.922 283.696 375.902C283.712 375.882 283.734 375.868 283.758 375.862Z" fill="#263238"/>
<path d="M306.085 178.097C306.085 178.074 306.075 178.052 306.059 178.036C306.043 178.019 306.021 178.01 305.998 178.01C305.975 178.01 305.953 178.019 305.937 178.036C305.921 178.052 305.911 178.074 305.911 178.097C305.911 191.138 305.381 198.443 305.067 211.473C304.753 224.502 304.375 237.532 303.985 250.552C303.282 276.601 302.232 302.628 301.269 328.666C300.728 343.269 300.053 357.865 299.245 372.453C299.245 372.473 299.253 372.492 299.267 372.507C299.281 372.521 299.301 372.529 299.321 372.529C299.341 372.529 299.36 372.521 299.374 372.507C299.388 372.492 299.396 372.473 299.396 372.453C301.29 346.48 303.098 320.42 304.137 294.371C305.175 268.322 305.911 242.283 306.03 216.234C306.139 201.613 306.052 192.718 306.085 178.097Z" fill="#263238"/>
<path d="M334.331 163.768L332.556 303.061L299.148 135.436H333.995L334.331 163.768Z" fill="#263238"/>
<path d="M386.169 334.045C386.169 334.045 392.446 380.223 392.446 380.256C393.701 389.087 394.61 396.846 394.74 400.905C394.74 400.905 394.74 400.905 394.74 400.969C394.867 401.915 394.778 402.877 394.48 403.783C394.479 403.805 394.479 403.827 394.48 403.848C392.1 406.013 321.863 418.025 319.277 417.614C316.69 417.203 317.643 409.8 319.991 407.149C322.34 404.498 347.187 387.885 347.187 387.885L341.343 341.664L386.169 334.045Z" fill="#AD6359"/>
<path d="M391.158 370.775C391.158 370.775 392.446 380.223 392.446 380.256C393.701 389.087 394.61 396.846 394.74 400.904C394.74 400.904 394.74 400.904 394.74 400.969C394.76 401.914 394.673 402.858 394.48 403.783C394.479 403.805 394.479 403.826 394.48 403.848C392.1 406.013 321.863 418.025 319.277 417.614C316.69 417.203 317.643 409.8 319.991 407.149C322.34 404.497 347.187 387.885 347.187 387.885L345.705 378.232L391.158 370.775Z" fill="#C7C7C7"/>
<path d="M319.234 417.614C321.831 418.025 392.056 406.002 394.437 403.848C395.357 403.037 394.199 392.712 392.446 380.256L392.381 379.866L346.993 387.117L347.144 387.885C347.144 387.885 322.318 404.508 319.948 407.16C317.578 409.811 316.593 417.192 319.234 417.614Z" fill="#263238"/>
<path d="M319.558 414.757C331.354 412.441 379.08 404.205 390.985 402.853C391.082 402.853 391.093 402.907 390.985 402.928C379.351 405.482 331.528 413.328 319.623 414.995C319.342 415.028 319.309 414.811 319.558 414.757Z" fill="#455A64"/>
<path d="M343.356 388.675C347.869 387.009 353.691 386.749 357.815 389.455C357.977 389.563 357.815 389.79 357.663 389.769C352.966 389.091 348.209 388.92 343.475 389.26C343.404 389.261 343.335 389.238 343.279 389.194C343.224 389.149 343.186 389.087 343.172 389.017C343.157 388.948 343.168 388.875 343.202 388.813C343.236 388.75 343.29 388.702 343.356 388.675Z" fill="#455A64"/>
<path d="M340.337 391.273C344.85 389.606 350.672 389.346 354.795 392.063C354.958 392.16 354.795 392.387 354.644 392.366C349.946 391.693 345.19 391.522 340.456 391.857C340.385 391.859 340.316 391.835 340.26 391.791C340.205 391.747 340.166 391.684 340.152 391.615C340.138 391.545 340.149 391.473 340.183 391.41C340.216 391.348 340.271 391.299 340.337 391.273Z" fill="#455A64"/>
<path d="M337.328 393.881C341.841 392.214 347.653 391.955 351.787 394.66C351.949 394.768 351.787 394.996 351.635 394.974C346.938 394.291 342.181 394.12 337.447 394.465C337.376 394.467 337.307 394.444 337.252 394.399C337.196 394.355 337.158 394.293 337.144 394.223C337.129 394.153 337.14 394.081 337.174 394.019C337.208 393.956 337.262 393.907 337.328 393.881Z" fill="#455A64"/>
<path d="M296.193 135.393C296.377 136.258 299.321 149.916 302.373 161.647C304.591 170.218 306.875 177.751 308.184 178.53C309.667 179.407 316.896 182.61 319.32 183.616L330.391 289.49L345.358 387.518L394.296 379.942L359.471 165.403L353.8 135.393H296.193Z" fill="#455A64"/>
<path d="M345.651 377.68C353.334 376.446 351.062 376.684 358.81 375.516C362.577 374.953 387.338 371.284 390.942 371.382C391.017 371.382 391.039 371.511 390.942 371.533C387.5 372.615 362.674 375.862 358.897 376.338C351.181 377.334 353.389 376.966 345.661 377.886C345.643 377.876 345.627 377.862 345.616 377.844C345.604 377.827 345.598 377.807 345.597 377.786C345.596 377.765 345.6 377.744 345.61 377.726C345.619 377.707 345.633 377.691 345.651 377.68Z" fill="#263238"/>
<path d="M373.951 348.406C372.728 341.61 371.516 334.813 370.26 328.017C367.757 314.424 365.232 300.835 362.685 287.25C357.577 260.057 352.526 232.843 347.534 205.607C344.742 190.239 344.806 191.679 342.371 176.236C342.371 176.138 342.177 176.149 342.198 176.236C344.536 189.958 343.432 186.95 345.64 200.694C347.848 214.438 350.163 227.89 352.598 241.45C357.49 268.711 362.62 295.929 367.804 323.136C369.247 330.77 370.722 338.392 372.23 346.004C373.745 353.774 375.477 361.501 377.078 369.25C377.078 369.423 377.392 369.412 377.36 369.25C376.234 362.313 375.217 355.343 373.951 348.406Z" fill="#263238"/>
<path d="M360.499 177.253C359.2 176.917 357.804 176.809 356.484 176.603C355.401 176.43 354.319 176.235 353.237 176.008C351.2 175.644 349.271 174.831 347.588 173.627C345.748 172.199 344.807 170.023 343.919 167.935C343.385 166.701 342.844 165.467 342.296 164.234L341.484 162.448C341.106 161.747 340.77 161.024 340.478 160.283C340.478 160.175 340.272 160.283 340.315 160.283C340.499 160.789 340.651 161.306 340.77 161.831C340.954 162.426 341.116 163.021 341.3 163.617C341.636 164.699 341.96 165.781 342.307 166.863C342.833 168.816 343.593 170.698 344.568 172.469C346.538 175.586 350.044 176.852 353.551 177.296C354.557 177.415 355.575 177.491 356.592 177.545C357.866 177.659 359.148 177.659 360.423 177.545C360.453 177.537 360.48 177.521 360.501 177.5C360.523 177.478 360.539 177.451 360.546 177.421C360.554 177.391 360.554 177.36 360.545 177.33C360.537 177.301 360.521 177.274 360.499 177.253Z" fill="#263238"/>
<path d="M304.342 176.657C309.504 178.532 314.49 180.857 319.244 183.605C319.285 183.624 319.316 183.658 319.331 183.699C319.346 183.741 319.344 183.787 319.326 183.827C319.307 183.867 319.273 183.898 319.231 183.914C319.19 183.929 319.144 183.927 319.104 183.908C314.082 181.744 308.963 179.688 304.072 177.263C304.004 177.22 303.954 177.154 303.931 177.077C303.908 177 303.913 176.917 303.946 176.844C303.978 176.77 304.036 176.711 304.109 176.677C304.182 176.643 304.265 176.636 304.342 176.657Z" fill="#263238"/>
<path d="M302.827 142.308C302.827 142.135 303.152 142.091 303.152 142.308C303.148 147.91 303.43 153.509 303.996 159.082C304.223 161.669 306.301 175.954 310.792 174.915C311.539 174.742 311.875 173.995 312.037 172.87C312.021 171.39 311.821 169.917 311.442 168.487C310.944 165.489 310.543 162.491 310.294 159.472C309.766 153.846 309.827 148.18 310.478 142.567C310.478 142.53 310.493 142.494 310.52 142.468C310.546 142.442 310.582 142.427 310.619 142.427C310.656 142.427 310.692 142.442 310.719 142.468C310.745 142.494 310.76 142.53 310.76 142.567C310.634 150.372 311.09 158.174 312.123 165.911C312.686 169.623 314.558 175.218 310.673 175.792C306.788 176.365 304.18 167.004 303.671 164.439C302.432 157.13 302.148 149.69 302.827 142.308Z" fill="#263238"/>
<path d="M310.673 175.24C311.068 176.207 311.404 177.197 311.68 178.205C311.969 178.984 312.112 179.809 312.102 180.64C312.095 180.674 312.079 180.705 312.055 180.73C312.031 180.754 312 180.771 311.967 180.778C311.933 180.785 311.898 180.782 311.866 180.769C311.834 180.756 311.807 180.734 311.788 180.705C311.305 179.977 310.94 179.177 310.706 178.335C310.359 177.426 310.002 176.506 309.688 175.586C309.643 175.456 309.65 175.312 309.71 175.187C309.77 175.063 309.877 174.967 310.008 174.921C310.138 174.875 310.282 174.883 310.407 174.942C310.531 175.002 310.627 175.109 310.673 175.24Z" fill="#263238"/>
<path d="M359.979 168.552C354.049 168.162 291.42 160.976 291.42 160.976L291.907 135.425H296.236H353.843L359.514 165.435L359.979 168.552Z" fill="#263238"/>
<path d="M316.117 76.7467C308.952 99.1703 296.821 122.319 293.314 126.875C283.91 139.126 255.653 151.193 247.028 152.751C243.294 153.422 234.344 129.343 236.66 126.031C238.976 122.719 274.094 109.3 275.815 107.514C277.005 106.27 291.821 87.1793 301.788 75.6645C314.245 61.3467 318 70.8811 316.117 76.7467Z" fill="#AD6359"/>
<path d="M244.16 121.356L258.034 149.494C258.034 149.494 287.525 136.713 294.548 127.59C301.572 118.466 314.299 87.5473 316.193 77.6991C318.086 67.8509 314.818 60.8165 301.626 75.21C288.434 89.6036 277.503 103.943 275.144 106.346C272.785 108.748 244.16 121.356 244.16 121.356Z" fill="#EBEBEB"/>
<path d="M245.329 119.927L261.952 149.083C261.952 149.083 287.925 136.669 294.548 128.52C301.171 120.371 312.091 95.3502 315.511 81.8441C318.931 68.338 316.928 58.7603 301.637 75.2858C286.345 91.8114 277.698 103.813 274.581 106.508C273.098 107.677 245.329 119.927 245.329 119.927Z" fill="#37474F"/>
<path d="M252.331 122.622C253.173 122.622 253.857 121.939 253.857 121.096C253.857 120.253 253.173 119.57 252.331 119.57C251.488 119.57 250.805 120.253 250.805 121.096C250.805 121.939 251.488 122.622 252.331 122.622Z" fill="#263238"/>
<path d="M259.527 119.31C260.37 119.31 261.053 118.627 261.053 117.784C261.053 116.942 260.37 116.259 259.527 116.259C258.685 116.259 258.001 116.942 258.001 117.784C258.001 118.627 258.685 119.31 259.527 119.31Z" fill="#263238"/>
<path d="M315.511 81.8006C312.091 95.3067 301.182 120.284 294.548 128.477C291.713 131.972 285.371 136.236 279.018 139.981L312.491 66.6712C317.675 65.2643 317.838 72.6234 315.511 81.8006Z" fill="#263238"/>
<path d="M363.248 157.827C363.074 158.022 288.206 158.249 287.492 157.481C286.529 156.398 303.444 75.2317 311.128 65.2644C312.762 63.1 318.184 62.5264 322.794 63.1C323.997 63.2356 325.184 63.4783 326.344 63.8251H326.474C327.409 64.1009 328.291 64.5326 329.082 65.1021C341.895 75.3399 352.696 111.129 355.217 121.875C359.438 139.613 363.864 157.123 363.248 157.827Z" fill="#EBEBEB"/>
<path d="M328.865 64.1499C328.865 64.1499 322.772 97.3741 321.712 106.01C320.651 114.646 322.21 160.262 322.21 160.262L369.221 163.736C369.221 163.736 359.059 133.542 358.94 131.626C358.94 131.626 350.499 95.4586 342.588 80.3508C339.132 74.0945 334.468 68.5875 328.865 64.1499Z" fill="#37474F"/>
<path d="M369.221 163.736L347.902 162.156L332.686 67.4939V67.5588L342.231 79.7879C342.339 79.9827 342.447 80.1775 342.545 80.3723C350.456 95.5234 358.897 131.648 358.897 131.648C359.059 133.542 369.221 163.736 369.221 163.736Z" fill="#263238"/>
<path d="M310.673 64.8748C310.673 64.8748 305.684 98.521 305.143 101.302C304.602 104.084 297.048 158.952 297.048 158.952L285.284 159.32L291.421 134.234C291.421 134.234 305.067 72.0391 310.673 64.8748Z" fill="#37474F"/>
<path d="M317.545 83.3376L314.212 76.8442L309.905 81.5411L310.965 86.2163L315.208 86.7682L317.545 83.3376Z" fill="#263238"/>
<path d="M315.208 86.7682L317.242 134.538L308.292 150.338L303.639 132.557L310.965 86.2163L315.208 86.7682Z" fill="#263238"/>
<path d="M313.332 218.794L313.273 274.896L405.868 274.993L405.927 218.891L313.332 218.794Z" fill="#FFC727"/>
<path opacity="0.1" d="M313.327 218.8L313.3 245.217L405.895 245.314L405.922 218.897L313.327 218.8Z" fill="black"/>
<path d="M311.122 236.714L408.1 236.815L408.127 210.636L311.149 210.535L311.122 236.714Z" fill="#FFC727"/>
<path d="M339.233 195.64L339.211 210.563L346.235 210.574L346.246 202.079L373.031 202.111L373.02 210.607H380.044L380.054 195.672L339.233 195.64Z" fill="#263238"/>
<path d="M388.457 243.037L394.777 243.043L394.79 230.533L388.47 230.526L388.457 243.037Z" fill="#263238"/>
<path d="M324.422 242.985L330.742 242.991L330.755 230.481L324.435 230.474L324.422 242.985Z" fill="#263238"/>
<path d="M339.211 74.1279C360.098 93.0776 373.355 120.144 374.254 125.609C376.418 138.823 379.156 161.983 378.691 172.145C378.518 175.911 349.979 171.344 350.034 167.318C350.218 154.721 348.54 127.016 348.464 126.529C347.956 123.142 341.744 107.915 335.478 91.4002C329.212 74.8855 330.424 66.1736 339.211 74.1279Z" fill="#AD6359"/>
<path d="M347.025 206.797C347.857 207.176 348.786 207.291 349.685 207.126C350.585 206.962 351.413 206.526 352.057 205.877C352.872 207.2 354.124 208.196 355.596 208.691C358.226 209.449 360.564 205.65 360.564 205.65C361.697 206.847 363.164 207.676 364.773 208.031C367.36 208.496 370.271 205.001 370.271 205.001C371.917 205.519 373.693 205.435 375.282 204.763C377.977 203.497 380.26 195.77 380.823 191.322C381.386 186.874 378.799 173.725 378.561 171.171L350.034 167.34C350.034 167.34 341.852 186.581 341.939 191.906C342.014 196.419 343.887 205.239 347.025 206.797Z" fill="#AD6359"/>
<path d="M351.624 205.618C350.402 200.867 350.65 196.008 350.629 191.159C350.629 191.136 350.638 191.114 350.654 191.098C350.67 191.082 350.692 191.073 350.715 191.073C350.738 191.073 350.76 191.082 350.777 191.098C350.793 191.114 350.802 191.136 350.802 191.159C350.802 195.986 351.689 200.759 351.884 205.585C351.888 205.62 351.879 205.655 351.858 205.682C351.836 205.709 351.805 205.727 351.771 205.731C351.736 205.736 351.701 205.726 351.674 205.705C351.647 205.684 351.629 205.652 351.624 205.618Z" fill="#263238"/>
<path d="M360.206 205.51C360.031 204.404 360.002 203.279 360.12 202.166C360.12 200.986 360.25 199.796 360.347 198.616C360.535 196.249 360.776 193.89 361.072 191.538C361.072 191.43 361.245 191.43 361.235 191.538C361.061 193.897 360.921 196.257 360.834 198.616C360.834 199.806 360.769 200.986 360.748 202.166C360.795 203.285 360.722 204.406 360.531 205.51C360.519 205.543 360.497 205.571 360.468 205.592C360.439 205.612 360.404 205.623 360.369 205.623C360.333 205.623 360.299 205.612 360.27 205.592C360.241 205.571 360.219 205.543 360.206 205.51Z" fill="#263238"/>
<path d="M370.271 204.904C370.132 203.899 370.162 202.879 370.358 201.884C370.466 200.802 370.563 199.72 370.661 198.637C370.856 196.473 371.04 194.309 371.148 192.144C371.148 192.036 371.321 192.036 371.321 192.144C371.213 194.309 371.137 196.538 371.018 198.735L370.823 201.982C370.846 202.97 370.696 203.956 370.379 204.893C370.374 204.902 370.367 204.91 370.358 204.917C370.349 204.923 370.339 204.926 370.328 204.927C370.317 204.929 370.307 204.927 370.297 204.923C370.287 204.919 370.278 204.912 370.271 204.904Z" fill="#263238"/>
<path d="M348.638 167.47L380.271 169.179C380.271 169.179 377.933 134.548 375.423 124.927C372.912 115.307 351.484 83.2403 338.833 71.6172C326.928 60.676 326.928 69.7775 331.441 82.6018C335.954 95.4261 347.122 126.421 347.501 128.683C347.88 130.945 348.638 167.47 348.638 167.47Z" fill="#37474F"/>
<path d="M350.055 161.084C351.267 160.976 352.49 161.084 353.702 161.084C354.914 161.084 356.127 161.138 357.339 161.192C359.676 161.29 362.014 161.431 364.351 161.582L371.353 162.047C373.767 162.21 376.234 162.253 378.626 162.61C378.643 162.616 378.657 162.627 378.667 162.642C378.677 162.656 378.682 162.674 378.682 162.691C378.682 162.709 378.677 162.726 378.667 162.741C378.657 162.755 378.643 162.766 378.626 162.772C376.213 162.87 373.756 162.653 371.343 162.567L364.2 162.275C361.819 162.166 359.438 162.047 357.057 161.896C355.888 161.831 354.72 161.744 353.562 161.615C352.404 161.485 351.192 161.474 350.044 161.247C349.936 161.225 349.969 161.095 350.055 161.084Z" fill="#263238"/>
<path d="M315.338 75.9785C316.571 75.9244 324.764 69.4852 327.242 64.5286C327.415 64.1823 326.777 60.6543 326.214 56.3362C325.878 53.7172 325.565 50.7844 325.478 48.0897C325.478 47.5378 323.617 48.62 323.617 48.62L320.153 49.5723L308.725 52.7541C309.802 56.0908 310.463 59.5475 310.695 63.046C310.707 63.4084 310.682 63.7711 310.619 64.1282C310.624 64.1894 310.624 64.2509 310.619 64.3122C310.37 66.4442 313.346 76.0543 315.338 75.9785Z" fill="#AD6359"/>
<path d="M310.662 64.1497C310.667 64.211 310.667 64.2725 310.662 64.3337C311.242 64.3887 311.825 64.3887 312.405 64.3337C323.768 63.706 324.71 49.1826 324.71 49.1826L320.218 49.5289L308.79 52.7107C309.867 56.0474 310.528 59.5041 310.76 63.0026C310.77 63.3874 310.737 63.7721 310.662 64.1497Z" fill="#263238"/>
<path d="M325.056 25.2547C327.783 30.8931 327.329 48.49 323.703 52.9596C318.465 59.4529 308.552 61.52 302.708 54.9076C297.048 48.5117 298.055 25.5902 302.221 21.3587C308.357 15.2117 321.03 16.9216 325.056 25.2547Z" fill="#AD6359"/>
<path d="M309.97 38.0898C309.97 38.0898 310.056 38.0899 310.056 38.1981C309.991 39.3777 310.121 40.7521 311.139 41.1634C311.139 41.1634 311.139 41.2391 311.139 41.2283C309.872 41.0227 309.721 39.2045 309.97 38.0898Z" fill="#263238"/>
<path d="M311.052 36.8777C312.957 36.7695 313.033 40.6006 311.258 40.698C309.483 40.7954 309.45 36.9643 311.052 36.8777Z" fill="#263238"/>
<path d="M303.109 38.4146C303.109 38.4146 303.022 38.4687 303.022 38.5228C303.076 39.7024 302.946 41.0768 301.875 41.4881V41.553C303.195 41.3366 303.357 39.4968 303.109 38.4146Z" fill="#263238"/>
<path d="M302.026 37.1807C300.122 37.0725 300.035 40.9036 301.81 41.001C303.585 41.0984 303.606 37.3322 302.026 37.1807Z" fill="#263238"/>
<path d="M312.535 35.103C312.004 34.9731 311.539 34.7783 311.041 34.6052C310.488 34.507 309.985 34.2248 309.613 33.8043C309.52 33.6523 309.481 33.4734 309.503 33.2966C309.524 33.1198 309.605 32.9555 309.732 32.8303C310.015 32.6134 310.35 32.4759 310.704 32.4321C311.058 32.3884 311.417 32.4399 311.745 32.5814C312.453 32.7687 313.066 33.2122 313.465 33.826C313.548 33.971 313.587 34.1368 313.578 34.3036C313.569 34.4704 313.512 34.6309 313.414 34.7659C313.315 34.9009 313.18 35.0046 313.024 35.0644C312.868 35.1242 312.698 35.1376 312.535 35.103Z" fill="#263238"/>
<path d="M300.511 35.2871C301.024 35.1744 301.529 35.0335 302.026 34.865C302.579 34.788 303.092 34.5335 303.487 34.1399C303.588 33.9921 303.636 33.8148 303.625 33.6363C303.613 33.4578 303.542 33.2884 303.422 33.1551C303.15 32.923 302.821 32.7683 302.469 32.7074C302.116 32.6464 301.754 32.6815 301.42 32.8088C300.705 32.9601 300.072 33.373 299.645 33.9668C299.556 34.1074 299.509 34.2709 299.51 34.4376C299.511 34.6044 299.56 34.7673 299.652 34.9067C299.743 35.0462 299.873 35.1562 300.025 35.2237C300.178 35.2912 300.346 35.3132 300.511 35.2871Z" fill="#263238"/>
<path d="M309.948 45.5466C309.656 46.0207 309.268 46.4291 308.81 46.7458C308.352 47.0624 307.833 47.2806 307.286 47.3864C306.81 47.4894 306.321 47.5223 305.836 47.4838C305.742 47.495 305.648 47.495 305.554 47.4838H305.295C305.232 47.4723 305.175 47.4407 305.132 47.3938C305.089 47.3469 305.063 47.2873 305.057 47.224C305.051 47.1845 305.051 47.1445 305.057 47.105V46.9968C305.057 46.0877 305.057 44.7025 305.057 44.7025C304.721 44.8756 303.033 45.6656 303.054 45.1895C303.09 41.0742 303.543 36.9732 304.407 32.9495C304.407 32.9208 304.419 32.8933 304.439 32.873C304.459 32.8527 304.487 32.8413 304.515 32.8413C304.544 32.8413 304.572 32.8527 304.592 32.873C304.612 32.8933 304.624 32.9208 304.624 32.9495C304.624 36.7589 303.931 40.5251 303.866 44.3561C304.465 44.0631 305.103 43.8554 305.76 43.7393C305.89 43.7393 305.587 46.4232 305.641 46.8344C306.389 46.8962 307.141 46.8062 307.854 46.5701C308.566 46.3339 309.223 45.9563 309.786 45.46C309.927 45.3734 310.013 45.4492 309.948 45.5466Z" fill="#263238"/>
<path d="M306.366 47.0073C306.874 47.6516 307.542 48.1516 308.303 48.4575C308.722 48.614 309.18 48.6367 309.613 48.5224C310.565 48.2519 310.565 47.4402 310.381 46.6394C310.275 46.2629 310.126 45.8998 309.937 45.5571C308.931 46.4076 307.68 46.9156 306.366 47.0073Z" fill="#263238"/>
<path d="M308.303 48.4575C308.722 48.614 309.18 48.6367 309.613 48.5225C310.565 48.2519 310.565 47.4402 310.381 46.6394C309.882 46.6687 309.407 46.8633 309.031 47.1925C308.654 47.5217 308.398 47.9668 308.303 48.4575Z" fill="#FF9ABB"/>
<path d="M299.797 27.2459C300.414 25.7308 301.139 24.2048 302.037 23.8802C302.935 23.5555 303.574 25.7632 305.641 25.8606C308.422 26.0013 309.721 23.4256 313.606 23.0793C319.179 22.5815 321.723 27.2026 322.015 35.1244C322.264 42.1914 326.56 42.7757 326.56 42.7757C326.56 42.7757 328.855 27.1268 324.396 22.0404C319.937 16.954 309.764 14.8653 303.076 19.8759C300.598 21.7698 299.797 27.2459 299.797 27.2459Z" fill="#263238"/>
<path d="M322.935 40.0594C322.935 40.0594 326.062 33.9881 328.768 35.0271C331.474 36.066 329.645 44.5073 326.831 46.0116C326.484 46.2281 326.096 46.372 325.692 46.4347C325.288 46.4974 324.875 46.4776 324.479 46.3764C324.082 46.2753 323.71 46.095 323.385 45.8463C323.061 45.5976 322.79 45.2857 322.589 44.9294L322.935 40.0594Z" fill="#AD6359"/>
<path d="M328.184 37.4404C328.184 37.4404 328.248 37.4945 328.184 37.5162C326.225 38.5984 325.391 40.6979 324.937 42.7974C325.028 42.5723 325.167 42.3699 325.345 42.2042C325.523 42.0386 325.734 41.9138 325.965 41.8385C326.196 41.7632 326.441 41.7394 326.682 41.7685C326.923 41.7977 327.155 41.8792 327.361 42.0074C327.415 42.0074 327.361 42.1265 327.361 42.1265C326.981 42.0589 326.589 42.1111 326.24 42.276C325.891 42.4408 325.602 42.71 325.413 43.0463C325.097 43.6086 324.843 44.2037 324.656 44.8212C324.591 45.0268 324.233 44.9727 324.277 44.7454C323.822 42.0615 325.381 38.0898 328.184 37.4404Z" fill="#263238"/>
<path d="M310.608 64.561L314.688 74.5824L327.069 61.9204L330.597 65.9679C330.597 65.9679 318.498 86.0323 318.422 85.1557L314.288 76.5629L308.368 82.5584L308.812 67.5263L310.608 64.561Z" fill="#EBEBEB"/>
<path d="M308.162 75.1235C308.325 72.6452 308.411 70.1345 308.682 67.667C308.682 67.5804 308.833 67.548 308.855 67.667C309.353 70.0587 308.704 79.5715 308.714 81.8117C308.963 81.5519 314.201 76.5412 314.255 76.617C315.154 77.9806 318.184 84.1925 318.39 84.8094C320.305 81.6168 327.632 70.0154 329.904 66.996C329.918 66.984 329.936 66.9766 329.954 66.9751C329.972 66.9736 329.991 66.978 330.006 66.9877C330.022 66.9973 330.034 67.0118 330.041 67.0288C330.048 67.0459 330.05 67.0648 330.045 67.0826C328.389 70.3942 318.693 86.0323 318.541 86.0323C316.945 83.0775 315.5 80.0434 314.212 76.9417C313.325 78.0239 308.033 83.7055 308.011 83.3376C307.919 80.5988 307.969 77.8571 308.162 75.1235Z" fill="#263238"/>
<path d="M170.818 74.8855C184.432 101.757 198.263 166.398 199.551 175.045C200.427 180.922 169.53 186.235 169.53 182.166C169.53 176.95 163.296 115.934 163.892 91.8223C164.216 78.5218 168.004 69.3337 170.818 74.8855Z" fill="#EB9481"/>
<path d="M169.411 179.59C168.913 183.129 170.093 195.391 172.409 204.481C173.491 208.918 178.123 221.31 181.597 220.715C185.071 220.119 184.042 216.386 184.042 216.386C184.042 216.386 186.77 221.321 190.2 220.401C193.631 219.481 191.867 213.702 191.867 213.702C191.867 213.702 195.027 218.583 198.36 217.414C201.694 216.245 198.956 210.737 198.956 210.737C198.956 210.737 201.65 215.336 204.009 213.204C206.856 210.639 200.947 202.739 199.951 197.772C199.724 196.689 196.964 174.59 196.964 174.59L169.411 179.59Z" fill="#EB9481"/>
<path d="M198.999 210.661C194.67 204.839 193.783 201.538 193.241 194.428C193.234 194.404 193.219 194.382 193.198 194.367C193.178 194.352 193.153 194.344 193.128 194.344C193.102 194.344 193.078 194.352 193.057 194.367C193.037 194.382 193.022 194.404 193.014 194.428C192.917 201.451 193.436 205.748 198.728 210.91C198.988 211.137 199.204 210.932 198.999 210.661Z" fill="#263238"/>
<path d="M191.954 214.016C187.982 207.577 186.986 204.005 185.861 196.592C185.861 196.484 185.666 196.495 185.677 196.592C186.164 203.962 186.759 208.237 191.596 214.157C191.813 214.438 192.138 214.308 191.954 214.016Z" fill="#263238"/>
<path d="M183.729 215.899C180.341 209.405 179.086 205.52 178.924 198.183C178.915 198.153 178.897 198.128 178.873 198.109C178.849 198.091 178.819 198.081 178.788 198.081C178.758 198.081 178.728 198.091 178.704 198.109C178.679 198.128 178.661 198.153 178.653 198.183C178.09 205.683 179.627 210.52 183.523 215.996C183.794 216.31 183.945 216.267 183.729 215.899Z" fill="#263238"/>
<path d="M199.356 173.508C199.356 173.508 204.334 181.084 205.784 184.947C207.235 188.811 207.397 205.012 203.89 205.25C199.367 205.553 197.397 196.192 197.072 191.484C197.072 191.484 186.597 192.187 183.761 185.77C180.926 179.352 199.356 173.508 199.356 173.508Z" fill="#EB9481"/>
<path d="M202.624 204.914C198.295 202.22 198.23 196.008 197.549 191.462C197.542 191.395 197.518 191.33 197.481 191.273C197.443 191.216 197.393 191.169 197.333 191.136C197.274 191.103 197.207 191.085 197.139 191.084C197.071 191.082 197.004 191.097 196.943 191.127C192.538 191.127 186.315 189.85 183.653 186.04C183.647 186.026 183.639 186.012 183.627 186.001C183.616 185.99 183.602 185.982 183.588 185.977C183.573 185.972 183.557 185.97 183.541 185.971C183.526 185.973 183.511 185.978 183.497 185.986C183.483 185.994 183.472 186.004 183.463 186.017C183.454 186.03 183.448 186.045 183.445 186.061C183.442 186.076 183.443 186.092 183.447 186.107C183.451 186.122 183.459 186.136 183.469 186.149C185.763 190.629 191.78 192.382 196.607 192.068C197.235 196.733 197.57 202.966 202.592 204.958C202.624 204.968 202.646 204.936 202.624 204.914Z" fill="#263238"/>
<path d="M202.516 171.69L167.42 177.101C167.42 177.101 161.824 111.941 161.619 90.0692C161.413 68.1975 169.27 62.8405 177.701 85.21C186.131 107.58 202.516 171.69 202.516 171.69Z" fill="#FFC727"/>
<path d="M167.246 171.614C181.607 168.368 197.181 167.167 199.886 166.766C200.016 166.766 200.027 166.95 199.886 166.961C197.224 167.221 179.562 170.543 167.246 171.831C167.149 171.842 167.138 171.636 167.246 171.614Z" fill="#263238"/>
<path d="M245.036 410.287C242.601 411.077 171.229 410.006 168.61 408.285C168.296 408.091 168.253 401.641 168.339 392.799L164.866 340.279L210.027 340.408L213.598 385.862C213.598 385.862 223.728 390.537 232.082 394.628C235.738 396.289 239.29 398.168 242.721 400.255C245.415 402.506 247.471 409.508 245.036 410.287Z" fill="#EB9481"/>
<path d="M245.037 410.287C242.602 411.077 171.229 410.006 168.61 408.285C168.296 408.09 168.253 401.64 168.34 392.799C185.969 396.727 232.981 403.091 234.355 399.4C234.907 397.917 233.781 396.24 232.104 394.692C235.76 396.354 239.312 398.233 242.742 400.32C245.415 402.506 247.472 409.508 245.037 410.287Z" fill="#263238"/>
<path d="M145.797 149.126C145.797 149.126 158.589 284.858 158.87 286.503C158.87 286.719 159.011 289.23 159.13 293.31C159.844 315.701 161.597 385.526 161.597 385.526H215.254C215.254 385.526 211.758 302.823 209.745 283.538C207.18 258.917 191.412 149.126 191.412 149.126H145.797Z" fill="#37474F"/>
<path d="M165.266 291.092C163.614 262.911 161.128 234.773 157.809 206.678C155.926 190.878 153.654 175.132 151.403 159.374C151.403 159.234 151.165 159.245 151.186 159.374C155.342 187.415 158.275 215.65 160.807 243.907C163.34 272.164 165.136 300.355 166.218 328.645C166.878 344.662 167.376 360.7 167.885 376.728C167.898 376.797 167.935 376.859 167.989 376.904C168.044 376.949 168.112 376.974 168.183 376.974C168.253 376.974 168.321 376.949 168.376 376.904C168.43 376.859 168.467 376.797 168.48 376.728C167.766 348.2 166.943 319.63 165.266 291.092Z" fill="#263238"/>
<path d="M211.866 376.879C210.46 376.695 208.934 376.75 207.538 376.706C205.936 376.706 204.291 376.631 202.711 376.576C199.605 376.457 196.488 376.371 193.382 376.328C187.116 376.219 180.839 376.263 174.584 376.457L169.411 376.641C167.571 376.706 165.731 376.879 163.892 376.869C163.762 376.869 163.762 377.031 163.892 377.031C167.041 377.031 170.233 377.302 173.393 377.421C176.554 377.54 179.605 377.583 182.711 377.626C188.977 377.713 195.265 377.626 201.52 377.431C203.241 377.366 204.962 377.345 206.683 377.291L209.453 377.15C210.276 377.15 211.087 377.15 211.91 377.074C212.018 377.074 212.007 376.901 211.866 376.879Z" fill="#263238"/>
<path d="M184.562 149.126L160.05 325.917C159.703 312.736 159.357 300.55 159.13 293.31C159.011 289.23 158.913 286.719 158.87 286.503C158.567 284.858 145.797 149.126 145.797 149.126H184.562Z" fill="#263238"/>
<path d="M155.147 419.703C152.593 419.497 87.1188 391.056 85.3656 388.459C85.1491 388.167 87.53 382.193 91.0689 374.066L105.506 323.201L147.279 339.965L135.494 385.126C135.494 385.126 143.07 393.34 149.195 400.277C151.931 403.221 154.489 406.326 156.857 409.573C158.491 412.658 157.69 419.919 155.147 419.703Z" fill="#EB9481"/>
<path d="M155.147 419.703C152.593 419.497 87.1188 391.056 85.3656 388.459C85.1491 388.167 87.53 382.193 91.0689 374.065C105.841 384.476 146.782 408.415 149.509 405.536C150.591 404.389 150.191 402.398 149.238 400.32C151.974 403.264 154.533 406.369 156.9 409.616C158.491 412.657 157.69 419.919 155.147 419.703Z" fill="#263238"/>
<path d="M86.372 368.828L138.719 385.061C138.719 385.061 164.281 295.399 166.24 274.339C168.177 253.463 170.049 210.812 170.883 179.872C170.883 179.872 179.627 174.699 181.846 171.874C184.064 169.05 186.055 158.887 190.428 149.147H126.382C111.079 178.876 122.594 192.101 122.594 198.583C122.594 229.881 117.865 271.428 116.36 277.585C113.222 290.421 86.372 368.828 86.372 368.828Z" fill="#37474F"/>
<path d="M138.6 373.611C137.29 373.07 135.808 372.734 134.444 372.312C132.897 371.847 131.338 371.414 129.802 370.938C126.836 370.018 123.849 369.142 120.862 368.297C114.838 366.58 108.77 365 102.659 363.557L97.6163 362.399C95.8306 361.988 94.0017 361.674 92.2052 361.198C92.0645 361.198 92.032 361.317 92.2052 361.36C95.257 362.161 98.2656 363.254 101.285 364.185C104.304 365.116 107.248 365.949 110.235 366.804C116.263 368.503 122.345 370.051 128.449 371.468C130.137 371.847 131.804 372.269 133.481 372.67L136.176 373.265C136.977 373.449 137.756 373.708 138.568 373.828C138.596 373.832 138.625 373.825 138.649 373.807C138.672 373.79 138.688 373.764 138.692 373.736C138.696 373.707 138.689 373.678 138.672 373.654C138.654 373.631 138.629 373.615 138.6 373.611Z" fill="#263238"/>
<path d="M183.339 171.171C180.283 172.575 177.381 174.294 174.681 176.3C171.813 178.27 169.173 180.532 166.413 182.642C166.305 182.729 166.413 182.902 166.521 182.826C169.433 180.965 172.484 179.331 175.363 177.415C178.254 175.662 180.978 173.648 183.501 171.398C183.577 171.311 183.48 171.117 183.339 171.171Z" fill="#263238"/>
<path d="M183.74 153.13C183.372 155.121 182.885 157.102 182.452 159.082C182.019 161.063 181.748 162.838 181.261 164.677C180.859 166.457 179.953 168.083 178.653 169.363C177.928 170.045 177.116 170.64 176.337 171.268C175.926 171.604 175.471 171.917 175.038 172.264C175.093 171.993 175.136 171.733 175.179 171.452C175.32 170.705 175.45 169.948 175.569 169.19C175.85 167.513 176.121 165.824 176.38 164.147C176.889 160.835 177.354 157.491 178.047 154.212C178.054 154.184 178.05 154.153 178.034 154.128C178.019 154.102 177.995 154.084 177.966 154.077C177.937 154.07 177.907 154.074 177.881 154.089C177.856 154.105 177.838 154.129 177.831 154.158C177.008 157.405 176.099 160.651 175.385 163.898C175.028 165.5 173.772 173.422 173.718 173.984C173.664 174.547 173.61 175.142 173.588 175.727C173.518 176.32 173.518 176.919 173.588 177.512C173.588 177.653 173.805 177.631 173.859 177.512C174.101 176.963 174.272 176.385 174.367 175.792C174.508 175.229 174.638 174.655 174.735 174.082C174.735 173.876 174.8 173.66 174.833 173.443C175.612 172.967 176.337 172.361 177.073 171.82C177.809 171.279 178.653 170.738 179.4 170.067C180.776 168.905 181.768 167.355 182.246 165.619C182.727 163.749 183.042 161.841 183.188 159.916C183.436 157.664 183.62 155.403 183.934 153.162C183.967 153.13 183.761 153.022 183.74 153.13Z" fill="#263238"/>
<path d="M182.398 66.8336C181.369 79.5497 180.092 92.623 177.127 105.047C174.811 114.722 169.552 122.243 159.054 123.25C149.314 124.181 135.84 122.168 128.698 114.798C125.364 111.367 124.639 107.06 125.516 102.471C126.739 96.0969 136.663 61.5957 139.682 50.8168C141.522 44.2585 143.34 37.6028 146.327 31.4342C152.582 18.4475 159.314 19.5297 160.244 19.3674C161.121 18.9562 166.575 17.3761 173.588 20.7094C175.433 21.5707 177.076 22.8123 178.407 24.3529C179.739 25.8934 180.73 27.6981 181.315 29.6485C185.038 41.2499 183.393 54.9292 182.398 66.8336Z" fill="#263238"/>
<path d="M157.928 20.9582C149.346 23.6204 146.208 32.17 143.178 39.7888C138.957 50.4054 134.91 61.0977 131.382 71.9741C129.693 77.2012 128.135 82.4716 126.696 87.7745C125.343 92.8609 123.579 98.2396 123.211 103.51C122.605 112.168 129.964 117.233 137.453 119.516C137.527 119.54 137.609 119.534 137.679 119.499C137.749 119.463 137.802 119.401 137.826 119.327C137.851 119.252 137.844 119.171 137.809 119.101C137.773 119.031 137.711 118.978 137.637 118.953C133.395 117.492 129.12 115.707 126.317 111.995C122.713 107.276 123.947 101.93 125.17 96.6054C127.269 87.5364 129.877 78.6081 132.745 69.7772C135.613 60.9462 138.925 52.2019 142.301 43.5333C145.548 35.2759 148.546 24.2373 157.907 21.0988C158.048 21.0988 158.015 20.9257 157.928 20.9582Z" fill="#263238"/>
<path d="M183.707 39.3775C183.079 32.5703 180.525 25.6657 173.848 22.7979C182.441 26.8886 183.285 37.0074 183.35 45.3622C183.422 54.1714 183.173 62.9663 182.603 71.7467C182.062 80.1989 181.326 88.6943 180.017 97.0599C178.599 106.086 175.796 114.375 169.433 121.074C169.418 121.087 169.407 121.103 169.399 121.12C169.39 121.137 169.386 121.156 169.385 121.175C169.384 121.194 169.386 121.213 169.393 121.231C169.399 121.249 169.409 121.266 169.422 121.28C169.435 121.294 169.45 121.306 169.467 121.314C169.484 121.322 169.503 121.327 169.522 121.328C169.541 121.329 169.56 121.326 169.579 121.32C169.597 121.313 169.613 121.304 169.627 121.291C175.72 115.977 178.61 107.904 180.092 100.177C181.881 89.9186 182.991 79.5536 183.415 69.1494C183.978 59.3553 184.616 49.2365 183.707 39.3775Z" fill="#263238"/>
<path d="M157.42 68.565C157.831 69.6472 164.14 76.2488 169.249 75.3506C170.904 75.0475 169.681 65.9028 169.681 65.9028L169.746 65.2101L170.634 55.4701L158.589 49.7777L156.868 49.0417C156.868 49.0417 156.792 51.7257 156.749 55.0589C156.749 55.2212 156.749 55.3727 156.749 55.5351C156.738 55.7189 156.738 55.9032 156.749 56.087C156.749 56.5848 156.749 57.0935 156.749 57.6021C156.749 58.1108 156.749 58.3597 156.749 58.7601C156.749 59.1605 156.749 59.5718 156.749 59.9722C156.777 62.8484 157.002 65.7193 157.42 68.565Z" fill="#EB9481"/>
<path d="M156.749 55.0589C158.048 57.5916 159.882 59.8115 162.125 61.5644C164.367 63.3173 166.964 64.5613 169.736 65.2101L170.623 55.4701L158.589 49.7777L156.868 49.0417C156.868 49.0417 156.792 51.7257 156.749 55.0589Z" fill="#263238"/>
<path d="M183.014 41.131C184.378 58.2301 174.292 60.9789 170.601 61.2711C167.246 61.5308 155.807 62.007 152.691 45.1243C149.574 28.2417 157.095 22.1813 164.725 21.2073C172.355 20.2333 181.662 24.021 183.014 41.131Z" fill="#EB9481"/>
<path d="M180.136 37.4947C179.746 37.4372 179.359 37.3577 178.978 37.2566C178.555 37.2311 178.152 37.0676 177.831 36.7912C177.749 36.6839 177.705 36.5527 177.705 36.4179C177.705 36.283 177.749 36.1518 177.831 36.0445C178.024 35.8583 178.262 35.7262 178.523 35.6616C178.783 35.597 179.056 35.6022 179.313 35.6765C179.865 35.7459 180.369 36.025 180.72 36.4557C180.797 36.5566 180.842 36.6777 180.851 36.8041C180.86 36.9305 180.831 37.0568 180.769 37.1672C180.707 37.2777 180.614 37.3675 180.501 37.4257C180.389 37.4839 180.262 37.5079 180.136 37.4947Z" fill="#263238"/>
<path d="M168.751 37.7325C169.151 37.6784 169.508 37.5702 169.909 37.4836C170.312 37.4385 170.69 37.2682 170.991 36.9966C171.074 36.89 171.12 36.7586 171.12 36.6232C171.12 36.4879 171.074 36.3565 170.991 36.2499C170.795 36.0645 170.554 35.9348 170.291 35.8739C170.029 35.813 169.755 35.8233 169.497 35.9036C168.953 35.9909 168.46 36.276 168.112 36.7044C168.034 36.809 167.989 36.9349 167.983 37.0656C167.977 37.1963 168.011 37.3257 168.08 37.4368C168.149 37.5479 168.25 37.6356 168.37 37.6884C168.489 37.7411 168.622 37.7565 168.751 37.7325Z" fill="#263238"/>
<path d="M171.424 42.0508C171.424 42.0508 171.337 42.0508 171.337 42.1482C171.413 43.317 171.337 44.6698 170.255 45.0918C170.255 45.0918 170.255 45.1676 170.255 45.1568C171.575 44.9078 171.684 43.1438 171.424 42.0508Z" fill="#263238"/>
<path d="M170.342 40.8603C168.458 40.7845 168.437 44.5506 170.179 44.6264C171.922 44.7021 171.922 40.9252 170.342 40.8603Z" fill="#263238"/>
<path d="M169.606 41.0553C169.27 41.2717 168.946 41.6396 168.523 41.6829C168.101 41.7262 167.723 41.3258 167.441 40.947H167.376C167.376 41.6613 167.625 42.408 168.459 42.5162C169.292 42.6245 169.681 41.986 169.865 41.2609C169.855 41.1743 169.736 40.9687 169.606 41.0553Z" fill="#263238"/>
<path d="M177.917 41.791C177.917 41.791 178.004 41.791 178.004 41.8884C177.95 43.0572 178.079 44.41 179.14 44.8104C179.14 44.8104 179.14 44.8862 179.14 44.8753C177.841 44.6805 177.679 42.8841 177.917 41.791Z" fill="#263238"/>
<path d="M178.978 40.5789C180.85 40.4707 180.947 44.2369 179.205 44.3451C177.463 44.4533 177.398 40.6763 178.978 40.5789Z" fill="#263238"/>
<path d="M179.768 40.8172C180.071 41.0012 180.374 41.3583 180.731 41.3799C181.088 41.4016 181.434 40.9795 181.694 40.5791H181.748C181.748 41.2934 181.564 42.0509 180.882 42.2024C180.201 42.3539 179.8 41.7371 179.584 41.0336C179.551 40.9362 179.649 40.7306 179.768 40.8172Z" fill="#263238"/>
<path d="M176.207 47.0722C176.207 47.0722 176.456 48.8146 176.456 49.6371C176.456 49.7237 176.261 49.7561 175.98 49.7778C175.274 49.9113 174.545 49.8476 173.873 49.5937C173.201 49.3398 172.612 48.9054 172.171 48.3384C172.155 48.3212 172.146 48.2984 172.147 48.2751C172.148 48.2517 172.159 48.2298 172.176 48.214C172.193 48.1982 172.216 48.1899 172.239 48.1909C172.263 48.1919 172.285 48.2022 172.3 48.2194C173.35 48.9339 174.604 49.2872 175.872 49.2258C175.926 48.9986 175.341 46.2497 175.471 46.2389C176.111 46.2902 176.741 46.4286 177.344 46.6502C176.932 43.0031 175.937 39.4534 175.569 35.8279C175.569 35.7992 175.58 35.7717 175.6 35.7514C175.621 35.7311 175.648 35.7197 175.677 35.7197C175.706 35.7197 175.733 35.7311 175.753 35.7514C175.774 35.7717 175.785 35.7992 175.785 35.8279C176.972 39.6019 177.78 43.4846 178.199 47.4185C178.231 47.7865 176.532 47.1804 176.207 47.0722Z" fill="#263238"/>
<path d="M177.528 42.9273C177.268 40.1351 178.556 37.7326 180.395 37.5161C182.235 37.2997 183.956 39.4642 184.216 42.2563C184.475 45.0484 183.133 47.4509 181.348 47.6674C179.562 47.8838 177.787 45.7194 177.528 42.9273ZM178.209 42.8623C178.437 45.2757 179.811 47.1263 181.283 46.9964C182.755 46.8665 183.772 44.7779 183.545 42.3645C183.317 39.9511 181.932 38.1006 180.46 38.2304C178.989 38.3603 177.982 40.449 178.209 42.8623Z" fill="#263238"/>
<path d="M164.811 44.1287C164.788 43.2038 165.036 42.2922 165.523 41.5059C166.011 40.7196 166.718 40.0928 167.557 39.7025C168.396 39.3121 169.33 39.1753 170.246 39.3087C171.161 39.4421 172.018 39.8399 172.711 40.4534C173.403 41.0668 173.902 41.8692 174.145 42.762C174.388 43.6547 174.365 44.5991 174.079 45.479C173.793 46.3589 173.256 47.1361 172.535 47.7153C171.813 48.2944 170.938 48.6502 170.017 48.739C168.716 48.8131 167.439 48.37 166.464 47.5064C165.489 46.6428 164.895 45.4286 164.811 44.1287ZM165.493 44.0638C165.631 44.8419 165.992 45.5631 166.533 46.1393C167.074 46.7154 167.771 47.1216 168.539 47.3083C169.307 47.4949 170.112 47.454 170.857 47.1904C171.602 46.9268 172.254 46.452 172.734 45.8239C173.214 45.1958 173.5 44.4417 173.558 43.6536C173.616 42.8655 173.444 42.0776 173.061 41.3859C172.679 40.6943 172.104 40.1289 171.406 39.7589C170.707 39.3888 169.916 39.2301 169.129 39.302C168.017 39.4527 167.009 40.0386 166.327 40.9313C165.645 41.8239 165.346 42.9504 165.493 44.0638Z" fill="#263238"/>
<path d="M173.989 42.7974C176.434 41.7152 177.657 42.397 177.668 42.4078L178.036 41.8343C177.982 41.8343 176.532 40.8819 173.707 42.1806L173.989 42.7974Z" fill="#263238"/>
<path d="M165.082 43.6525L165.147 42.9707C164.692 42.9707 154.195 41.9967 153.069 42.04C151.944 42.0833 149.271 43.8906 148.979 44.0962L149.368 44.6589C150.48 43.8182 151.723 43.1673 153.048 42.7326H153.178C154 42.7434 161.348 43.317 165.082 43.6525Z" fill="#263238"/>
<path d="M153.178 43.9013C155.028 43.7931 159.855 38.6742 160.006 29.7134C160.006 29.7134 159.314 37.7543 158.719 38.9339C158.123 40.1135 161.413 36.0552 161.63 28.8368C163.91 30.4632 166.409 31.7568 169.054 32.6787C172.463 33.631 174.551 33.5986 174.8 33.3497C175.049 33.1007 170.017 31.5207 168.653 29.9623C168.653 29.9623 177.744 34.1721 181.921 34.4968C182.408 34.4968 183.004 24.5728 176.51 20.3522C170.017 16.1315 159.79 20.6985 157.03 23.3608C157.03 23.3608 153.784 23.8153 150.288 28.6095C146.792 33.4038 151.186 44.0204 153.178 43.9013Z" fill="#263238"/>
<path d="M155.515 46.2281C155.515 46.2281 151.803 40.817 149.368 42.159C146.933 43.5009 149.682 51.2605 152.528 52.3427C152.884 52.5066 153.269 52.5971 153.66 52.6088C154.052 52.6205 154.441 52.5531 154.806 52.4106C155.171 52.2681 155.503 52.0535 155.783 51.7797C156.063 51.5058 156.285 51.1783 156.435 50.8167L155.515 46.2281Z" fill="#EB9481"/>
<path d="M150.212 44.3667V44.4425C152.204 45.2758 153.243 47.1372 153.968 49.0635C153.854 48.8613 153.698 48.6864 153.509 48.551C153.321 48.4155 153.105 48.3229 152.878 48.2796C152.65 48.2363 152.415 48.2434 152.19 48.3003C151.965 48.3572 151.756 48.4625 151.576 48.609C151.576 48.609 151.576 48.728 151.63 48.7172C151.982 48.6066 152.36 48.6087 152.712 48.7232C153.063 48.8376 153.369 49.0587 153.589 49.3557C153.955 49.8514 154.267 50.3847 154.52 50.9466C154.606 51.1306 154.931 51.0332 154.866 50.8276C154.909 48.2302 152.95 44.6481 150.212 44.3667Z" fill="#263238"/>
<path d="M154.92 51.9531C154.922 52.2018 154.85 52.4456 154.714 52.6534C154.577 52.8613 154.382 53.0239 154.152 53.1206C153.923 53.2172 153.671 53.2436 153.426 53.1964C153.182 53.1492 152.957 53.0305 152.781 52.8554C152.604 52.6803 152.483 52.4566 152.434 52.2128C152.385 51.969 152.409 51.716 152.504 51.486C152.598 51.256 152.759 51.0593 152.966 50.9208C153.173 50.7824 153.416 50.7085 153.665 50.7085C153.996 50.7085 154.313 50.8393 154.548 51.0724C154.784 51.3054 154.917 51.622 154.92 51.9531Z" fill="white"/>
<path d="M193.22 154.916C193.22 154.916 135.581 155.771 121.274 154.764C121.274 154.764 132.94 88.6404 148.329 71.9309C148.902 71.3032 149.509 70.7071 150.147 70.1453C151.089 69.3553 150.959 63.0459 151.403 62.5697C151.846 62.0936 170.547 64.5502 170.785 65.0047C171.023 65.4593 171.987 71.4115 171.987 71.4115C176.229 76.8226 189.876 95.5234 191.467 103.24C193.057 110.956 188.047 119.473 188.047 119.473L193.22 154.916Z" fill="#FFC727"/>
<path d="M143.925 83.7273C140.516 100.155 142.539 135.674 150.418 142.167C163.405 152.795 194.616 155.901 203.328 156.929C207.083 157.372 214.561 132.795 211.985 129.624C209.41 126.453 171.045 121.518 169.216 119.884C167.95 118.715 161.987 97.2551 156.846 85.1558C149.931 68.7818 145.169 77.6668 143.925 83.7273Z" fill="#EB9481"/>
<path d="M205.492 127.644C205.492 127.644 217.007 127.525 224.539 127.806C228.749 127.958 235.924 128.888 238.965 130.403C243.5 132.687 261.032 145.132 258.099 149.45C255.448 153.357 250.231 148.217 250.231 148.217C250.231 148.217 256.465 153.292 252.645 156.366C248.824 159.439 242.645 152.102 242.645 152.102C242.645 152.102 249.636 157.037 245.242 159.916C241.433 162.426 233.435 154.721 233.435 154.721C233.435 154.721 241.346 159.05 237.688 162.047C233.652 165.294 220.21 155.251 220.21 155.251C210.579 157.416 204.507 157.416 197.43 156.258C196.131 156.041 205.492 127.644 205.492 127.644Z" fill="#EB9481"/>
<path d="M244.571 153.812L243.002 152.156C242.031 151.059 240.997 150.018 239.907 149.039C238.825 148.109 237.742 147.221 236.552 146.377C235.361 145.533 234.02 144.689 232.829 143.769C232.732 143.693 232.623 143.834 232.732 143.899C233.914 144.81 235.048 145.782 236.13 146.81C237.212 147.784 238.294 148.78 239.377 149.764C240.459 150.749 241.541 151.626 242.623 152.567C243.153 153.033 243.705 153.52 244.192 154.007C244.654 154.507 245.157 154.967 245.697 155.381C245.751 155.381 245.816 155.381 245.783 155.295C245.433 154.758 245.027 154.261 244.571 153.812Z" fill="#263238"/>
<path d="M251.508 149.299C249.772 147.201 247.891 145.227 245.881 143.39C243.845 141.566 241.629 139.952 239.268 138.574C239.182 138.574 239.095 138.639 239.16 138.704C241.195 140.533 243.262 142.33 245.329 144.115C246.335 144.992 250.794 149.126 251.313 149.526C251.432 149.591 251.584 149.418 251.508 149.299Z" fill="#263238"/>
<path d="M238.154 158.227C236.469 156.291 234.662 154.465 232.742 152.762C230.631 151.207 228.406 149.81 226.087 148.585C226 148.585 225.914 148.671 225.989 148.725C228.089 150.284 230.21 151.788 232.234 153.444C233.229 154.256 236.974 157.697 237.991 158.379C238.099 158.444 238.218 158.314 238.154 158.227Z" fill="#263238"/>
<path d="M194.692 157.946L208.425 125.923C208.425 125.923 170.807 119.7 169.649 118.943C168.491 118.185 161.63 93.2075 157.225 83.4025C152.82 73.5976 145.256 67.8402 142.334 88.8894C139.412 109.939 143.643 135.641 147.875 140.988C153.004 147.459 173.318 155.652 194.692 157.946Z" fill="#FFC727"/>
<path d="M175.363 153.898C169.736 152.372 164.249 149.71 158.87 147.405C154.249 145.468 149.53 143.076 146.966 138.542C145.77 136.233 144.934 133.755 144.487 131.193C143.892 128.336 143.405 125.447 142.994 122.536C142.496 119.217 142.049 115.891 141.652 112.558C141.457 110.848 141.262 109.138 141.089 107.428C140.916 105.718 140.602 104.008 140.537 102.287C140.537 102.264 140.528 102.242 140.512 102.226C140.496 102.21 140.474 102.201 140.451 102.201C140.428 102.201 140.406 102.21 140.389 102.226C140.373 102.242 140.364 102.264 140.364 102.287C140.483 103.867 140.364 105.458 140.494 107.049C140.494 108.131 140.624 109.127 140.7 110.166L140.397 109.506C140.063 108.748 139.809 107.957 139.639 107.146C139.639 107.049 139.455 107.092 139.477 107.146C139.671 107.958 139.866 108.781 140.093 109.581C140.202 109.971 140.332 110.361 140.483 110.75C140.574 111.012 140.678 111.268 140.797 111.519C141.057 114.628 141.392 117.723 141.803 120.804C142.204 123.791 142.669 126.756 143.199 129.722C143.592 132.344 144.289 134.912 145.277 137.373C146.26 139.693 147.763 141.755 149.671 143.401C151.648 145.024 153.832 146.378 156.164 147.427C161.439 149.864 166.891 151.897 172.474 153.509C179.151 155.608 181.185 155.468 175.363 153.898Z" fill="#263238"/>
<path d="M189.486 122.59C188.101 122.406 171.727 118.964 171.088 118.78C170.769 118.683 170.48 118.504 170.25 118.261C170.021 118.018 169.858 117.72 169.779 117.395C169.27 116.075 168.827 114.722 168.35 113.391C167.528 111.097 166.691 108.813 165.84 106.54C165.84 106.032 165.742 105.458 165.688 105.014C165.634 104.571 165.526 103.802 165.428 103.196C165.212 101.887 164.822 100.599 164.66 99.2895C164.66 99.1597 164.454 99.203 164.487 99.2895C164.817 100.579 165.012 101.899 165.071 103.229C165.125 103.748 165.158 104.311 165.19 104.798C164.692 103.467 164.184 102.136 163.653 100.815C163.037 99.2787 162.333 97.7311 161.835 96.1511C161.835 96.0429 161.641 96.097 161.673 96.1511C162.236 97.5688 162.636 99.0731 163.08 100.48C163.524 101.887 164 103.402 164.476 104.863C165.407 107.731 166.392 110.577 167.387 113.434C167.863 114.809 168.329 116.205 168.837 117.568C168.977 118.079 169.252 118.542 169.633 118.91C170.014 119.278 170.487 119.536 171.002 119.657C173.848 120.425 187.765 122.73 189.454 122.795C189.627 122.904 189.67 122.611 189.486 122.59Z" fill="#263238"/>
<path d="M201.466 126.421C199.302 131.02 197.137 135.587 195.179 140.284C193.197 144.905 191.459 149.626 189.973 154.429C189.964 154.45 189.965 154.474 189.974 154.496C189.983 154.517 190 154.534 190.022 154.542C190.043 154.551 190.067 154.551 190.089 154.541C190.11 154.532 190.127 154.515 190.135 154.494C192.3 149.981 194.194 145.295 196.109 140.652C198.025 136.009 199.767 131.237 201.704 126.583C201.802 126.388 201.553 126.237 201.466 126.421Z" fill="#263238"/>
<path d="M241.92 122.763C240.264 123.694 230.784 121.075 226.942 123.953C224.399 125.858 221.909 130.447 221.368 136.431C220.816 142.611 225.697 142.297 227.505 139.678C229.707 136.23 231.628 132.611 233.251 128.856C234.989 129.202 236.703 129.661 238.381 130.23L241.92 122.763Z" fill="#AD6359"/>
<path d="M230.297 144.332C227.364 141.258 212.711 152.524 217.31 157.643C221.909 162.762 233.608 147.816 230.297 144.332Z" fill="#AD6359"/>
<path d="M235.188 148.736C232.255 145.663 217.602 156.929 222.202 162.047C226.801 167.166 238.5 152.221 235.188 148.736Z" fill="#AD6359"/>
<path d="M239.041 150.295C235.957 147.903 224.204 160.186 229.128 164.19C234.052 168.195 242.537 153 239.041 150.295Z" fill="#AD6359"/>
<path d="M243.229 150.966C239.69 149.613 232.234 164.331 237.937 166.658C243.64 168.985 247.244 152.448 243.229 150.966Z" fill="#AD6359"/>
<path d="M229.864 149.396C229.05 149.941 228.282 150.553 227.569 151.225C226.779 151.918 226 152.621 225.286 153.39C224.589 154.116 223.935 154.882 223.327 155.684C222.689 156.55 222.158 157.491 221.509 158.335C221.497 158.343 221.488 158.353 221.481 158.365C221.474 158.378 221.47 158.391 221.469 158.405C221.469 158.419 221.472 158.433 221.478 158.446C221.484 158.458 221.493 158.469 221.504 158.478C221.515 158.486 221.528 158.491 221.542 158.494C221.556 158.496 221.57 158.495 221.583 158.49C221.596 158.486 221.608 158.479 221.618 158.469C221.628 158.458 221.635 158.446 221.639 158.433C222.28 157.617 222.978 156.846 223.728 156.128C224.431 155.392 225.091 154.623 225.795 153.877C226.498 153.13 227.126 152.405 227.818 151.712C228.511 151.02 229.29 150.305 229.983 149.548C230.015 149.45 229.94 149.353 229.864 149.396Z" fill="#263238"/>
<path d="M235.686 150.771C235.058 151.734 232.861 155.468 232.191 156.409C231.52 157.351 230.816 158.292 230.102 159.212C229.388 160.132 228.695 161.138 227.883 162.004C227.818 162.08 227.937 162.199 228.013 162.123C228.825 161.257 229.712 160.467 230.481 159.558C231.249 158.649 231.952 157.729 232.645 156.766C233.847 154.857 234.931 152.877 235.892 150.836C235.892 150.738 235.74 150.684 235.686 150.771Z" fill="#263238"/>
<path d="M239.755 152.87C239.106 154.299 238.543 155.781 237.883 157.199C237.558 157.903 237.223 158.606 236.898 159.364L236.444 160.392C236.301 160.801 236.12 161.196 235.903 161.571C235.838 161.658 236.011 161.755 236.054 161.636C236.271 161.208 236.525 160.799 236.812 160.413C236.996 160.089 237.19 159.764 237.364 159.439C237.732 158.718 238.067 158.014 238.37 157.329C239.002 155.927 239.53 154.48 239.95 153C239.967 152.974 239.974 152.943 239.967 152.912C239.961 152.882 239.943 152.855 239.918 152.838C239.892 152.821 239.86 152.814 239.83 152.82C239.799 152.826 239.773 152.844 239.755 152.87Z" fill="#263238"/>
<path d="M249.311 29.8649C248.794 34.8085 246.913 39.5111 243.879 43.4481C240.844 47.3851 236.776 50.4018 232.127 52.1616C227.479 53.9214 222.433 54.3552 217.552 53.4145C212.671 52.4738 208.147 50.1956 204.486 46.8341L191.055 48.8038L197.776 37.2023C196.03 32.9106 195.425 28.2397 196.02 23.6446C196.615 19.0495 198.39 14.6869 201.172 10.9817C203.955 7.27645 207.649 4.35496 211.896 2.50175C216.142 0.648546 220.797 -0.0732015 225.405 0.406814C232.48 1.14632 238.972 4.66442 243.455 10.1881C247.938 15.7117 250.044 22.789 249.311 29.8649Z" fill="white"/>
<path d="M249.311 29.865C248.79 34.8068 246.918 39.5097 243.9 43.4577C243.154 44.4436 242.344 45.3799 241.476 46.2606C240.581 47.1159 239.634 47.9147 238.641 48.6523C236.66 50.1584 234.473 51.3721 232.147 52.2561C229.835 53.1677 227.404 53.7471 224.929 53.9769C223.692 54.0939 222.447 54.1192 221.206 54.0526C219.96 54.021 218.719 53.8907 217.494 53.663C212.551 52.7731 207.953 50.5247 204.215 47.1697L204.54 47.2671L191.142 49.2367L190.168 49.3883L190.655 48.5333L197.332 36.9102V37.3648C195.767 33.5302 195.099 29.3883 195.38 25.2559C195.662 21.1236 196.885 17.1104 198.956 13.5234C201.044 9.94465 203.915 6.88489 207.354 4.57347C211.628 1.71203 216.629 0.128136 221.771 0.0074512C226.913 -0.113234 231.983 1.23428 236.386 3.89206C240.79 6.54984 244.344 10.4078 246.633 15.0136C248.923 19.6195 249.852 24.7825 249.311 29.8974V29.865ZM249.311 29.865C249.739 25.825 249.234 21.7408 247.835 17.9268C246.436 14.1128 244.18 10.6708 241.241 7.86582C238.302 5.06086 234.759 2.9678 230.884 1.74782C227.009 0.527843 222.906 0.213486 218.89 0.828976C214.916 1.41273 211.126 2.89305 207.808 5.15786C204.531 7.4596 201.795 10.4472 199.789 13.913C197.807 17.3898 196.641 21.2719 196.38 25.2655C196.134 29.2494 196.777 33.2381 198.263 36.9427L198.36 37.1808L198.231 37.4081L191.477 48.9878L191.001 48.2736L204.432 46.3905H204.616L204.756 46.5095C208.338 49.8639 212.782 52.1569 217.591 53.1327C218.794 53.3724 220.013 53.5207 221.239 53.5765C222.46 53.6629 223.686 53.6629 224.907 53.5765C227.357 53.3871 229.769 52.8553 232.072 51.9964C234.398 51.1649 236.586 49.9904 238.565 48.5117C240.578 47.0864 242.356 45.3557 243.835 43.3819C246.864 39.4625 248.758 34.7869 249.311 29.865Z" fill="#263238"/>
<path d="M219.485 42.3754L208.036 30.774L211.877 26.9754L218.576 33.7501L232.483 11.9434L237.039 14.8545L219.485 42.3754Z" fill="#FFC727"/>
</svg>
