<svg width="221" height="231" viewBox="0 0 221 231" fill="none" xmlns="http://www.w3.org/2000/svg">
<path d="M61.5879 22.9687L68.042 26.9705L69.2682 24.9974C69.4439 24.7182 69.6925 24.4922 69.9871 24.3439C70.2818 24.1956 70.6114 24.1306 70.9403 24.1558C71.311 24.1876 71.683 24.2006 72.055 24.1949C72.3886 24.1845 72.7185 24.2671 73.0079 24.4335C73.2972 24.5998 73.5347 24.8433 73.6936 25.1368L74.8084 27.1879L81.4966 23.5929L80.3819 21.5418C80.2253 21.2474 80.1539 20.9152 80.1755 20.5825C80.1972 20.2497 80.3111 19.9296 80.5045 19.658C80.7223 19.3467 80.9214 19.0229 81.1009 18.6882C81.2673 18.3885 81.5155 18.1424 81.8165 17.9786C82.1175 17.8148 82.4589 17.74 82.8008 17.763L85.1306 17.841L85.3703 10.2163L83.0349 10.1439C82.701 10.1285 82.3778 10.0215 82.1006 9.83476C81.8234 9.64799 81.6029 9.38859 81.4632 9.08491C81.3852 8.91771 81.3016 8.7505 81.2124 8.58329C81.1232 8.42166 81.034 8.26003 80.9337 8.09839C80.7591 7.81523 80.6666 7.48912 80.6666 7.15646C80.6666 6.8238 80.7591 6.49768 80.9337 6.21453L82.1655 4.21919L75.7113 0.217369L74.4795 2.19598C74.3014 2.4791 74.0481 2.70719 73.748 2.85481C73.4478 3.00243 73.1126 3.06378 72.7796 3.03202C72.4089 3.00011 72.0369 2.98709 71.6649 2.993C71.3311 3.00397 71.001 2.92163 70.7115 2.75522C70.422 2.58882 70.1847 2.34497 70.0262 2.05107L68.9115 0L62.2232 3.59495L63.338 5.64602C63.4945 5.94042 63.566 6.27263 63.5444 6.60538C63.5227 6.93813 63.4088 7.25827 63.2153 7.52989C62.998 7.84201 62.8029 8.16527 62.619 8.49411C62.462 8.79009 62.2253 9.03622 61.9358 9.20465C61.6462 9.37309 61.3152 9.45711 60.9803 9.4472L58.6171 9.40261L58.3831 16.9994L60.7128 17.0718C61.0464 17.0858 61.3695 17.1922 61.6461 17.3792C61.9227 17.5662 62.1418 17.8264 62.279 18.1308C62.3626 18.298 62.4462 18.4652 62.5354 18.6324C62.6245 18.7996 62.7137 18.9613 62.814 19.1173C62.9889 19.4035 63.0814 19.7323 63.0814 20.0676C63.0814 20.403 62.9889 20.7318 62.814 21.0179L61.5879 22.9687ZM66.3811 16.5368C65.7995 15.4514 65.5528 14.218 65.6722 12.9924C65.7915 11.7669 66.2717 10.6042 67.0519 9.65157C67.832 8.6989 68.8772 7.99898 70.0552 7.64032C71.2331 7.28167 72.491 7.28039 73.6697 7.63665C74.8484 7.99291 75.895 8.69071 76.6771 9.64179C77.4592 10.5929 77.9417 11.7545 78.0636 12.9799C78.1855 14.2052 77.9413 15.4391 77.3618 16.5256C76.7824 17.6121 75.8938 18.5024 74.8084 19.0839C73.3527 19.862 71.6479 20.0308 70.0679 19.5533C68.488 19.0757 67.1621 17.9909 66.3811 16.5368Z" fill="#EBEBEB"/>
<path d="M148.296 34.5282L150.024 37.4934L150.927 36.9694C151.058 36.8959 151.206 36.8596 151.357 36.8646C151.507 36.8695 151.653 36.9154 151.779 36.9973C151.923 37.0902 152.072 37.1758 152.225 37.2537C152.36 37.3213 152.473 37.4247 152.553 37.5525C152.632 37.6804 152.675 37.8277 152.677 37.9783V39.0261H156.099V37.9783C156.099 37.8274 156.141 37.6795 156.221 37.5515C156.301 37.4234 156.415 37.3203 156.55 37.2537C156.702 37.177 156.849 37.0914 156.991 36.9973C157.117 36.9154 157.263 36.8695 157.413 36.8646C157.563 36.8596 157.712 36.8959 157.843 36.9694L158.752 37.4934L160.463 34.5282L159.549 34.0043C159.419 33.9285 159.313 33.8178 159.243 33.6848C159.173 33.5518 159.142 33.4018 159.153 33.2519C159.153 33.1683 159.153 33.0847 159.153 33.0011C159.153 32.9175 159.153 32.8283 159.153 32.7447C159.142 32.5956 159.174 32.4465 159.244 32.3145C159.314 32.1824 159.419 32.0727 159.549 31.9978L160.463 31.4405L158.752 28.4753L157.843 28.9992C157.715 29.0787 157.568 29.1209 157.417 29.1209C157.266 29.1209 157.119 29.0787 156.991 28.9992C156.847 28.9052 156.698 28.8196 156.545 28.7429C156.411 28.675 156.298 28.5714 156.219 28.4435C156.141 28.3156 156.099 28.1684 156.099 28.0183V26.9705H152.677V28.0183C152.675 28.1689 152.632 28.3162 152.553 28.444C152.473 28.5718 152.36 28.6752 152.225 28.7429C152.073 28.8196 151.926 28.9052 151.785 28.9992C151.657 29.0787 151.509 29.1209 151.358 29.1209C151.208 29.1209 151.06 29.0787 150.932 28.9992L150.024 28.5032L148.312 31.4683L149.221 31.9922C149.35 32.0685 149.456 32.1793 149.526 32.3122C149.596 32.4451 149.627 32.5949 149.617 32.7447C149.617 32.8283 149.617 32.9119 149.617 33.0011C149.617 33.0902 149.617 33.1683 149.617 33.2519C149.628 33.4018 149.597 33.5518 149.527 33.6848C149.457 33.8178 149.351 33.9285 149.221 34.0043L148.296 34.5282ZM151.567 33.0011C151.567 32.4499 151.731 31.9111 152.037 31.4528C152.343 30.9945 152.779 30.6373 153.288 30.4264C153.797 30.2155 154.357 30.1603 154.898 30.2678C155.439 30.3754 155.935 30.6408 156.325 31.0305C156.715 31.4202 156.98 31.9168 157.087 32.4574C157.195 32.998 157.14 33.5583 156.929 34.0675C156.718 34.5767 156.361 35.012 155.903 35.3182C155.444 35.6244 154.905 35.7878 154.354 35.7878C153.615 35.7878 152.906 35.4942 152.384 34.9716C151.861 34.449 151.567 33.7402 151.567 33.0011Z" fill="#EBEBEB"/>
<path d="M197.293 179.558L185.371 178.9L185.176 182.551C185.142 183.073 184.964 183.575 184.662 184.002C184.36 184.429 183.946 184.764 183.465 184.97C182.92 185.211 182.388 185.481 181.871 185.778C181.419 186.044 180.901 186.179 180.376 186.167C179.852 186.155 179.341 185.997 178.9 185.711L175.841 183.716L169.308 193.732L172.368 195.733C172.806 196.021 173.155 196.426 173.377 196.901C173.598 197.376 173.683 197.904 173.622 198.425C173.56 199.017 173.529 199.612 173.528 200.208C173.532 200.734 173.389 201.251 173.117 201.701C172.844 202.15 172.452 202.516 171.984 202.755L168.723 204.427L174.118 215.067L177.39 213.395C177.861 213.162 178.388 213.064 178.911 213.112C179.435 213.161 179.935 213.353 180.355 213.668C180.589 213.841 180.835 214.008 181.08 214.17C181.325 214.332 181.576 214.482 181.827 214.633C182.283 214.888 182.659 215.265 182.913 215.722C183.168 216.178 183.292 216.696 183.27 217.219L183.07 220.897L194.986 221.555L195.192 217.899C195.222 217.374 195.399 216.868 195.701 216.437C196.003 216.007 196.42 215.67 196.903 215.463C197.447 215.225 197.977 214.957 198.492 214.66C198.945 214.396 199.462 214.262 199.986 214.274C200.511 214.286 201.022 214.443 201.462 214.727L204.522 216.723L211.054 206.707L207.989 204.712C207.553 204.421 207.205 204.016 206.984 203.542C206.763 203.067 206.677 202.54 206.735 202.02C206.8 201.429 206.831 200.836 206.83 200.242C206.826 199.716 206.968 199.199 207.24 198.749C207.513 198.299 207.905 197.934 208.374 197.694L211.64 196.022L206.244 185.377L202.973 187.049C202.503 187.282 201.978 187.379 201.456 187.329C200.934 187.28 200.437 187.087 200.019 186.77C199.779 186.598 199.539 186.43 199.289 186.269C199.038 186.107 198.793 185.957 198.542 185.806C198.083 185.549 197.704 185.17 197.448 184.71C197.192 184.251 197.069 183.729 197.093 183.203L197.293 179.558ZM195.526 192.037C197.146 193.096 198.415 194.61 199.174 196.39C199.933 198.17 200.147 200.134 199.789 202.036C199.431 203.937 198.517 205.689 197.163 207.071C195.809 208.453 194.076 209.403 192.182 209.8C190.289 210.196 188.32 210.023 186.525 209.301C184.73 208.578 183.19 207.34 182.099 205.743C181.007 204.145 180.415 202.26 180.395 200.325C180.375 198.391 180.93 196.494 181.988 194.874C182.69 193.798 183.597 192.871 184.658 192.145C185.718 191.42 186.911 190.911 188.169 190.648C189.426 190.384 190.724 190.371 191.986 190.61C193.249 190.848 194.452 191.333 195.526 192.037Z" fill="#EBEBEB"/>
<path d="M22.7179 175.495L17.1053 175.188L17.0106 176.905C16.996 177.152 16.9133 177.39 16.7716 177.592C16.6299 177.795 16.4348 177.955 16.208 178.053C15.9506 178.166 15.6994 178.292 15.4555 178.432C15.2422 178.557 14.9984 178.62 14.7513 178.614C14.5043 178.608 14.2637 178.533 14.0566 178.399L12.613 177.462L9.56985 182.183L11.0078 183.119C11.2142 183.256 11.3787 183.447 11.483 183.671C11.5873 183.896 11.6273 184.144 11.5986 184.39C11.5986 184.669 11.554 184.948 11.554 185.232C11.5564 185.479 11.4899 185.722 11.3619 185.934C11.234 186.145 11.0496 186.317 10.8295 186.43L9.26331 187.199L11.7993 192.215L13.3376 191.435C13.56 191.326 13.8083 191.28 14.0551 191.303C14.3019 191.325 14.5376 191.416 14.7365 191.563C14.848 191.647 14.9595 191.725 15.0765 191.797L15.4277 192.015C15.6429 192.135 15.8205 192.313 15.9405 192.529C16.0606 192.744 16.1185 192.989 16.1076 193.235L16.0129 194.969L21.6255 195.275L21.7258 193.553C21.7401 193.307 21.8228 193.07 21.9646 192.868C22.1064 192.666 22.3016 192.508 22.5284 192.411C22.7848 192.294 23.0356 192.171 23.2808 192.032C23.493 191.907 23.7355 191.844 23.9815 191.849C24.2274 191.854 24.4672 191.927 24.6742 192.059L26.1178 193.001L29.1944 188.292L27.7508 187.35C27.544 187.215 27.379 187.025 27.2746 186.802C27.1702 186.578 27.1305 186.33 27.16 186.085C27.1879 185.806 27.2046 185.527 27.2046 185.249C27.2022 185.001 27.2688 184.758 27.3967 184.546C27.5247 184.335 27.7091 184.163 27.9292 184.05L29.4675 183.27L26.9259 178.254L25.3876 179.034C25.1658 179.143 24.918 179.188 24.672 179.165C24.4259 179.141 24.1912 179.05 23.9942 178.9L23.6543 178.666C23.5372 178.588 23.4202 178.516 23.2975 178.449C23.0823 178.327 22.9049 178.148 22.7849 177.931C22.6649 177.715 22.607 177.47 22.6176 177.223L22.7179 175.495ZM21.8874 181.364C22.6489 181.863 23.2455 182.576 23.6016 183.414C23.9578 184.252 24.0575 185.176 23.8883 186.071C23.719 186.965 23.2884 187.789 22.6508 188.439C22.0133 189.089 21.1973 189.535 20.3062 189.721C19.4151 189.907 18.4888 189.825 17.6444 189.485C16.8 189.145 16.0754 188.562 15.5622 187.81C15.049 187.058 14.7703 186.171 14.7612 185.261C14.7522 184.35 15.0132 183.458 15.5113 182.696C15.8423 182.189 16.2698 181.753 16.7695 181.412C17.2692 181.071 17.8311 180.832 18.4233 180.708C19.0154 180.585 19.6262 180.579 20.2206 180.691C20.815 180.804 21.3814 181.032 21.8874 181.364Z" fill="#DBDBDB"/>
<path d="M120.328 104.906H38.8701V186.363H120.328V104.906Z" fill="#EBEBEB"/>
<path d="M43.4292 99.2263H40.5867V104.906H43.4292V99.2263Z" fill="#EBEBEB"/>
<path d="M48.4399 99.2263H45.5974V104.906H48.4399V99.2263Z" fill="#EBEBEB"/>
<path d="M53.4507 99.2263H50.6082V104.906H53.4507V99.2263Z" fill="#EBEBEB"/>
<path d="M58.4668 99.2263H55.6243V104.906H58.4668V99.2263Z" fill="#EBEBEB"/>
<path d="M63.4774 99.2263H60.6349V104.906H63.4774V99.2263Z" fill="#EBEBEB"/>
<path d="M68.4936 99.2263H65.6511V104.906H68.4936V99.2263Z" fill="#EBEBEB"/>
<path d="M73.5043 99.2263H70.6617V104.906H73.5043V99.2263Z" fill="#EBEBEB"/>
<path d="M78.5149 99.2263H75.6724V104.906H78.5149V99.2263Z" fill="#EBEBEB"/>
<path d="M83.5311 99.2263H80.6886V104.906H83.5311V99.2263Z" fill="#EBEBEB"/>
<path d="M88.5419 99.2263H85.6993V104.906H88.5419V99.2263Z" fill="#EBEBEB"/>
<path d="M93.5579 99.2263H90.7153V104.906H93.5579V99.2263Z" fill="#EBEBEB"/>
<path d="M98.5686 99.2263H95.7261V104.906H98.5686V99.2263Z" fill="#EBEBEB"/>
<path d="M103.579 99.2263H100.737V104.906H103.579V99.2263Z" fill="#EBEBEB"/>
<path d="M108.595 99.2263H105.753V104.906H108.595V99.2263Z" fill="#EBEBEB"/>
<path d="M113.606 99.2263H110.764V104.906H113.606V99.2263Z" fill="#EBEBEB"/>
<path d="M118.622 99.2263H115.78V104.906H118.622V99.2263Z" fill="#EBEBEB"/>
<path d="M33.1907 181.81V184.652H38.8701V181.81H33.1907Z" fill="#EBEBEB"/>
<path d="M33.1851 176.799V179.642H38.8645V176.799H33.1851Z" fill="#EBEBEB"/>
<path d="M33.1907 171.783V174.625H38.8701V171.783H33.1907Z" fill="#EBEBEB"/>
<path d="M33.1907 166.772V169.615H38.8701V166.772H33.1907Z" fill="#EBEBEB"/>
<path d="M33.1907 161.756V164.598H38.8701V161.756H33.1907Z" fill="#EBEBEB"/>
<path d="M33.1907 156.745V159.588H38.8701V156.745H33.1907Z" fill="#EBEBEB"/>
<path d="M33.1907 151.735V154.577H38.8701V151.735H33.1907Z" fill="#EBEBEB"/>
<path d="M33.1907 146.719V149.561H38.8701V146.719H33.1907Z" fill="#EBEBEB"/>
<path d="M33.1907 141.708V144.55H38.8701V141.708H33.1907Z" fill="#EBEBEB"/>
<path d="M33.1907 136.692V139.534H38.8701V136.692H33.1907Z" fill="#EBEBEB"/>
<path d="M33.1907 131.681V134.524H38.8701V131.681H33.1907Z" fill="#EBEBEB"/>
<path d="M33.1907 126.67V129.513H38.8701V126.67H33.1907Z" fill="#EBEBEB"/>
<path d="M33.1907 121.654V124.497H38.8701V121.654H33.1907Z" fill="#EBEBEB"/>
<path d="M33.1851 116.644V119.486H38.8645V116.644H33.1851Z" fill="#EBEBEB"/>
<path d="M33.1907 111.627V114.47H38.8701V111.627H33.1907Z" fill="#EBEBEB"/>
<path d="M33.1907 106.617V109.459H38.8701V106.617H33.1907Z" fill="#EBEBEB"/>
<path d="M115.774 192.048H118.617V186.369H115.774V192.048Z" fill="#EBEBEB"/>
<path d="M110.764 192.048H113.606V186.369H110.764V192.048Z" fill="#EBEBEB"/>
<path d="M105.747 192.048H108.59V186.369H105.747V192.048Z" fill="#EBEBEB"/>
<path d="M100.742 192.048H103.585V186.369H100.742V192.048Z" fill="#EBEBEB"/>
<path d="M95.7261 192.048H98.5686V186.369H95.7261V192.048Z" fill="#EBEBEB"/>
<path d="M90.7098 192.048H93.5524V186.369H90.7098V192.048Z" fill="#EBEBEB"/>
<path d="M85.6992 192.048H88.5417V186.369H85.6992V192.048Z" fill="#EBEBEB"/>
<path d="M80.683 192.048H83.5255V186.369H80.683V192.048Z" fill="#EBEBEB"/>
<path d="M75.6723 192.048H78.5148V186.369H75.6723V192.048Z" fill="#EBEBEB"/>
<path d="M70.6616 192.048H73.5042V186.369H70.6616V192.048Z" fill="#EBEBEB"/>
<path d="M65.6454 192.048H68.4879V186.369H65.6454V192.048Z" fill="#EBEBEB"/>
<path d="M60.6349 192.048H63.4774V186.369H60.6349V192.048Z" fill="#EBEBEB"/>
<path d="M55.6187 192.048H58.4612V186.369H55.6187V192.048Z" fill="#EBEBEB"/>
<path d="M50.608 192.048H53.4506V186.369H50.608V192.048Z" fill="#EBEBEB"/>
<path d="M45.5974 192.048H48.4399V186.369H45.5974V192.048Z" fill="#EBEBEB"/>
<path d="M40.5812 192.048H43.4237V186.369H40.5812V192.048Z" fill="#EBEBEB"/>
<path d="M126.013 109.465V106.622H120.333V109.465H126.013Z" fill="#EBEBEB"/>
<path d="M126.013 114.476V111.633H120.333V114.476H126.013Z" fill="#EBEBEB"/>
<path d="M126.013 119.492V116.649H120.333V119.492H126.013Z" fill="#EBEBEB"/>
<path d="M126.013 124.502V121.66H120.333V124.502H126.013Z" fill="#EBEBEB"/>
<path d="M126.013 129.519V126.676H120.333V129.519H126.013Z" fill="#EBEBEB"/>
<path d="M126.013 134.529V131.687H120.333V134.529H126.013Z" fill="#EBEBEB"/>
<path d="M126.013 139.54V136.697H120.333V139.54H126.013Z" fill="#EBEBEB"/>
<path d="M126.013 144.556V141.713H120.333V144.556H126.013Z" fill="#EBEBEB"/>
<path d="M126.013 149.567V146.724H120.333V149.567H126.013Z" fill="#EBEBEB"/>
<path d="M126.013 154.583V151.74H120.333V154.583H126.013Z" fill="#EBEBEB"/>
<path d="M126.013 159.593V156.751H120.333V159.593H126.013Z" fill="#EBEBEB"/>
<path d="M126.013 164.604V161.762H120.333V164.604H126.013Z" fill="#EBEBEB"/>
<path d="M126.013 169.62V166.778H120.333V169.62H126.013Z" fill="#EBEBEB"/>
<path d="M126.013 174.631V171.789H120.333V174.631H126.013Z" fill="#EBEBEB"/>
<path d="M126.013 179.647V176.805H120.333V179.647H126.013Z" fill="#EBEBEB"/>
<path d="M126.013 184.658V181.815H120.333V184.658H126.013Z" fill="#EBEBEB"/>
<path d="M47.6653 179.642C47.6664 179.079 47.5006 178.529 47.1889 178.061C46.8773 177.593 46.4337 177.228 45.9144 177.012C45.3951 176.796 44.8234 176.739 44.2716 176.848C43.7199 176.957 43.2128 177.227 42.8148 177.624C42.4167 178.022 42.1454 178.528 42.0353 179.08C41.9251 179.631 41.9811 180.203 42.1961 180.723C42.411 181.242 42.7754 181.687 43.2429 181.999C43.7105 182.312 44.2603 182.479 44.8227 182.479C45.5757 182.479 46.2978 182.18 46.8307 181.648C47.3636 181.116 47.6638 180.395 47.6653 179.642Z" fill="#EBEBEB"/>
<path d="M131.737 182.729H126.013V183.738H131.319L143.725 196.145L144.433 195.431L131.737 182.729Z" fill="#EBEBEB"/>
<path d="M132.818 177.719H126.013V178.722H132.406L149.94 196.256L150.648 195.549L132.818 177.719Z" fill="#EBEBEB"/>
<path d="M135.254 107.536H126.013V108.54H134.836L142.538 116.242H177.953V115.239H142.956L135.254 107.536Z" fill="#EBEBEB"/>
<path d="M132.155 112.547H126.013V113.556H131.737L143.525 125.344H177.953V124.341H143.943L132.155 112.547Z" fill="#EBEBEB"/>
<path d="M191.976 112.586H177.953V118.895H191.976V112.586Z" fill="#EBEBEB"/>
<path opacity="0.2" d="M191.976 112.586H177.953V118.895H191.976V112.586Z" fill="#EBEBEB"/>
<path opacity="0.2" d="M180.907 112.586H177.953V118.895H180.907V112.586Z" fill="#EBEBEB"/>
<path opacity="0.2" d="M191.97 112.586H189.016V118.895H191.97V112.586Z" fill="#EBEBEB"/>
<path d="M191.976 121.688H177.953V127.997H191.976V121.688Z" fill="#EBEBEB"/>
<path opacity="0.2" d="M191.976 121.688H177.953V127.997H191.976V121.688Z" fill="#EBEBEB"/>
<path opacity="0.2" d="M180.907 121.688H177.953V127.997H180.907V121.688Z" fill="#EBEBEB"/>
<path opacity="0.2" d="M191.97 121.688H189.016V127.997H191.97V121.688Z" fill="#EBEBEB"/>
<path d="M0 152.498L0 172.78H6.30928L6.30928 152.498H0Z" fill="#EBEBEB"/>
<path opacity="0.2" d="M0 152.498L0 172.78H6.30928L6.30928 152.498H0Z" fill="#EBEBEB"/>
<path opacity="0.2" d="M0 168.505L0 172.78H6.30928V168.505H0Z" fill="#EBEBEB"/>
<path opacity="0.2" d="M0 152.498L0 156.773H6.30928V152.498H0Z" fill="#EBEBEB"/>
<path d="M0 106.761L0 127.044H6.30927L6.30927 106.761H0Z" fill="#EBEBEB"/>
<path opacity="0.2" d="M0 106.761L0 127.044H6.30927L6.30927 106.761H0Z" fill="#EBEBEB"/>
<path opacity="0.2" d="M0 122.769L0 127.044H6.30928V122.769H0Z" fill="#EBEBEB"/>
<path opacity="0.2" d="M0 106.756L0 111.031H6.30927V106.756H0Z" fill="#EBEBEB"/>
<path d="M191.976 130.789H177.953V137.099H191.976V130.789Z" fill="#EBEBEB"/>
<path opacity="0.2" d="M191.976 130.789H177.953V137.099H191.976V130.789Z" fill="#EBEBEB"/>
<path opacity="0.2" d="M180.907 130.789H177.953V137.099H180.907V130.789Z" fill="#EBEBEB"/>
<path opacity="0.2" d="M191.97 130.789H189.016V137.099H191.97V130.789Z" fill="#EBEBEB"/>
<path d="M191.976 139.891H177.953V146.2H191.976V139.891Z" fill="#EBEBEB"/>
<path opacity="0.2" d="M191.976 139.891H177.953V146.2H191.976V139.891Z" fill="#EBEBEB"/>
<path opacity="0.2" d="M180.907 139.891H177.953V146.2H180.907V139.891Z" fill="#EBEBEB"/>
<path opacity="0.2" d="M191.97 139.891H189.016V146.2H191.97V139.891Z" fill="#EBEBEB"/>
<path d="M191.976 148.993H177.953V155.302H191.976V148.993Z" fill="#EBEBEB"/>
<path opacity="0.2" d="M191.976 148.993H177.953V155.302H191.976V148.993Z" fill="#EBEBEB"/>
<path opacity="0.2" d="M180.907 148.993H177.953V155.302H180.907V148.993Z" fill="#EBEBEB"/>
<path opacity="0.2" d="M191.97 148.993H189.016V155.302H191.97V148.993Z" fill="#EBEBEB"/>
<path d="M50.6137 63.043V15.8181H27.004V63.043H35.6375C35.6718 62.2241 36.0212 61.4502 36.6127 60.883C37.2043 60.3158 37.9921 59.9991 38.8116 59.9991C39.6312 59.9991 40.419 60.3158 41.0105 60.883C41.602 61.4502 41.9515 62.2241 41.9858 63.043H50.6137Z" fill="#EBEBEB"/>
<path d="M21.3245 58.0654V60.908H27.0039V58.0654H21.3245Z" fill="#EBEBEB"/>
<path d="M21.319 53.0491V55.8916H26.9984V53.0491H21.319Z" fill="#EBEBEB"/>
<path d="M21.3245 48.0383V50.8809H27.0039V48.0383H21.3245Z" fill="#EBEBEB"/>
<path d="M21.3245 43.0281V45.8706H27.0039V43.0281H21.3245Z" fill="#EBEBEB"/>
<path d="M21.319 38.0117V40.8542H26.9984V38.0117H21.319Z" fill="#EBEBEB"/>
<path d="M21.3245 33.0012V35.8438H27.0039V33.0012H21.3245Z" fill="#EBEBEB"/>
<path d="M21.319 27.9849V30.8274H26.9984V27.9849H21.319Z" fill="#EBEBEB"/>
<path d="M21.3245 22.9744V25.8169H27.0039V22.9744H21.3245Z" fill="#EBEBEB"/>
<path d="M21.3245 17.9636V20.8062H27.0039V17.9636H21.3245Z" fill="#EBEBEB"/>
<path d="M50.6136 58.0654V60.908H56.2931V58.0654H50.6136Z" fill="#EBEBEB"/>
<path d="M50.608 53.0491V55.8916H56.2875V53.0491H50.608Z" fill="#EBEBEB"/>
<path d="M50.608 48.0383V50.8809H56.2875V48.0383H50.608Z" fill="#EBEBEB"/>
<path d="M50.6136 43.0225V45.865H56.2931V43.0225H50.6136Z" fill="#EBEBEB"/>
<path d="M50.6082 38.0117V40.8542H56.2876V38.0117H50.6082Z" fill="#EBEBEB"/>
<path d="M50.6136 33.0012V35.8438H56.2931V33.0012H50.6136Z" fill="#EBEBEB"/>
<path d="M50.6082 27.9849V30.8274H56.2876V27.9849H50.6082Z" fill="#EBEBEB"/>
<path d="M50.6136 22.9744V25.8169H56.2931V22.9744H50.6136Z" fill="#EBEBEB"/>
<path d="M50.6136 17.958V20.8005H56.2931V17.958H50.6136Z" fill="#EBEBEB"/>
<path d="M198.937 69.073H172.892V95.1183H198.937V69.073Z" fill="#EBEBEB"/>
<path d="M204.622 73.4985V70.656H198.943V73.4985H204.622Z" fill="#EBEBEB"/>
<path d="M204.622 78.509V75.6665H198.943V78.509H204.622Z" fill="#EBEBEB"/>
<path d="M204.622 83.5198V80.6772H198.943V83.5198H204.622Z" fill="#EBEBEB"/>
<path d="M204.622 88.5361V85.6936H198.943V88.5361H204.622Z" fill="#EBEBEB"/>
<path d="M204.622 93.5469V90.7043H198.943V93.5469H204.622Z" fill="#EBEBEB"/>
<path d="M172.898 73.4929V70.6504H167.218V73.4929H172.898Z" fill="#EBEBEB"/>
<path d="M172.892 78.509V75.6665H167.213V78.509H172.892Z" fill="#EBEBEB"/>
<path d="M172.892 83.5198V80.6772H167.213V83.5198H172.892Z" fill="#EBEBEB"/>
<path d="M172.892 88.5361V85.6936H167.213V88.5361H172.892Z" fill="#EBEBEB"/>
<path d="M172.892 93.5469V90.7043H167.213V93.5469H172.892Z" fill="#EBEBEB"/>
<path d="M198.937 35.6541H172.892V61.6993H198.937V35.6541Z" fill="#EBEBEB"/>
<path d="M204.622 40.0796V37.2371H198.943V40.0796H204.622Z" fill="#EBEBEB"/>
<path d="M204.622 45.0903V42.2478H198.943V45.0903H204.622Z" fill="#EBEBEB"/>
<path d="M204.622 50.1008V47.2583H198.943V50.1008H204.622Z" fill="#EBEBEB"/>
<path d="M204.628 55.1169V52.2744H198.948V55.1169H204.628Z" fill="#EBEBEB"/>
<path d="M204.622 60.1277V57.2852H198.943V60.1277H204.622Z" fill="#EBEBEB"/>
<path d="M172.898 40.074V37.2314H167.218V40.074H172.898Z" fill="#EBEBEB"/>
<path d="M172.892 45.0903V42.2478H167.213V45.0903H172.892Z" fill="#EBEBEB"/>
<path d="M172.892 50.1008V47.2583H167.213V50.1008H172.892Z" fill="#EBEBEB"/>
<path d="M172.892 55.1169V52.2744H167.213V55.1169H172.892Z" fill="#EBEBEB"/>
<path d="M172.892 60.1277V57.2852H167.213V60.1277H172.892Z" fill="#EBEBEB"/>
<path d="M128.922 117.675H126.013V118.683H128.504L144.272 134.445H177.953V133.442H144.684L128.922 117.675Z" fill="#EBEBEB"/>
<path d="M133.609 142.354H126.013V143.358H133.197L142.488 152.649H177.953V151.646H142.901L133.609 142.354Z" fill="#EBEBEB"/>
<path d="M134.602 132.272H126.013V133.275H134.184L144.272 143.358H177.953V142.355H144.684L134.602 132.272Z" fill="#EBEBEB"/>
<path d="M146.819 196.936C146.819 197.309 146.709 197.673 146.502 197.983C146.295 198.293 146 198.534 145.656 198.677C145.312 198.819 144.933 198.857 144.568 198.784C144.202 198.711 143.867 198.532 143.603 198.268C143.34 198.005 143.16 197.669 143.087 197.304C143.015 196.938 143.052 196.56 143.195 196.215C143.337 195.871 143.579 195.577 143.889 195.37C144.198 195.163 144.563 195.052 144.935 195.052C145.435 195.052 145.914 195.251 146.267 195.604C146.621 195.958 146.819 196.437 146.819 196.936ZM145.816 196.936C145.817 196.762 145.766 196.591 145.67 196.446C145.574 196.3 145.437 196.186 145.276 196.119C145.115 196.051 144.938 196.033 144.767 196.066C144.596 196.1 144.438 196.183 144.314 196.306C144.191 196.429 144.106 196.586 144.072 196.757C144.037 196.928 144.055 197.105 144.121 197.266C144.188 197.428 144.3 197.566 144.445 197.663C144.59 197.76 144.761 197.811 144.935 197.811C145.051 197.812 145.165 197.79 145.272 197.746C145.379 197.703 145.476 197.638 145.558 197.557C145.639 197.476 145.704 197.379 145.749 197.273C145.793 197.166 145.816 197.052 145.816 196.936Z" fill="#EBEBEB"/>
<path d="M153.033 196.842C153.033 197.214 152.923 197.578 152.716 197.888C152.509 198.198 152.215 198.439 151.87 198.582C151.526 198.725 151.147 198.762 150.782 198.689C150.417 198.617 150.081 198.437 149.817 198.174C149.554 197.91 149.375 197.575 149.302 197.209C149.229 196.844 149.266 196.465 149.409 196.121C149.552 195.776 149.793 195.482 150.103 195.275C150.413 195.068 150.777 194.958 151.149 194.958C151.649 194.959 152.127 195.158 152.48 195.511C152.833 195.864 153.032 196.342 153.033 196.842ZM152.025 196.842C152.025 196.669 151.973 196.499 151.877 196.355C151.781 196.212 151.644 196.099 151.484 196.033C151.324 195.967 151.149 195.95 150.979 195.983C150.809 196.017 150.653 196.1 150.531 196.223C150.408 196.345 150.325 196.501 150.291 196.671C150.257 196.841 150.275 197.017 150.341 197.176C150.407 197.336 150.519 197.473 150.663 197.569C150.807 197.665 150.976 197.717 151.149 197.717C151.382 197.717 151.604 197.624 151.768 197.46C151.932 197.296 152.025 197.074 152.025 196.842Z" fill="#EBEBEB"/>
<path d="M21.4304 113.071C21.4304 113.444 21.3198 113.808 21.1126 114.118C20.9053 114.428 20.6108 114.67 20.2662 114.812C19.9217 114.955 19.5426 114.992 19.177 114.918C18.8114 114.845 18.4758 114.665 18.2125 114.401C17.9493 114.137 17.7703 113.801 17.6982 113.435C17.6262 113.069 17.6643 112.69 17.8077 112.346C17.9512 112.002 18.1935 111.708 18.504 111.502C18.8146 111.296 19.1793 111.186 19.5522 111.187C19.7993 111.187 20.044 111.236 20.2722 111.331C20.5005 111.426 20.7078 111.564 20.8823 111.739C21.0568 111.914 21.195 112.122 21.2891 112.351C21.3831 112.579 21.4312 112.824 21.4304 113.071ZM20.4272 113.071C20.4272 112.898 20.3759 112.729 20.2797 112.585C20.1836 112.441 20.0469 112.329 19.887 112.263C19.7271 112.196 19.5512 112.179 19.3814 112.213C19.2117 112.247 19.0558 112.33 18.9334 112.452C18.811 112.575 18.7277 112.731 18.6939 112.9C18.6602 113.07 18.6775 113.246 18.7437 113.406C18.8099 113.566 18.9221 113.703 19.066 113.799C19.2099 113.895 19.3791 113.946 19.5522 113.946C19.7842 113.946 20.0068 113.854 20.1709 113.69C20.335 113.526 20.4272 113.303 20.4272 113.071Z" fill="#EBEBEB"/>
<path d="M21.4304 102.526C21.4304 102.899 21.3198 103.263 21.1126 103.573C20.9053 103.883 20.6108 104.124 20.2662 104.267C19.9217 104.409 19.5426 104.446 19.177 104.373C18.8114 104.3 18.4758 104.12 18.2125 103.856C17.9493 103.592 17.7703 103.256 17.6982 102.89C17.6262 102.524 17.6643 102.145 17.8077 101.801C17.9512 101.457 18.1935 101.163 18.504 100.957C18.8146 100.75 19.1793 100.641 19.5522 100.642C19.7993 100.642 20.044 100.691 20.2722 100.785C20.5005 100.88 20.7078 101.019 20.8823 101.194C21.0568 101.369 21.195 101.577 21.2891 101.805C21.3831 102.034 21.4312 102.279 21.4304 102.526ZM20.4272 102.526C20.4272 102.353 20.3759 102.183 20.2797 102.04C20.1836 101.896 20.0469 101.784 19.887 101.717C19.7271 101.651 19.5512 101.634 19.3814 101.667C19.2117 101.701 19.0558 101.785 18.9334 101.907C18.811 102.029 18.7277 102.185 18.6939 102.355C18.6602 102.525 18.6775 102.701 18.7437 102.861C18.8099 103.02 18.9221 103.157 19.066 103.253C19.2099 103.349 19.3791 103.401 19.5522 103.401C19.7842 103.401 20.0068 103.309 20.1709 103.144C20.335 102.98 20.4272 102.758 20.4272 102.526Z" fill="#EBEBEB"/>
<path d="M52.4864 74.2008C52.4875 74.5736 52.3779 74.9384 52.1716 75.2489C51.9653 75.5595 51.6714 75.8018 51.3273 75.9452C50.9831 76.0887 50.6042 76.1268 50.2384 76.0547C49.8726 75.9827 49.5364 75.8037 49.2724 75.5404C49.0084 75.2772 48.8284 74.9415 48.7552 74.576C48.6821 74.2104 48.7191 73.8313 48.8615 73.4867C49.0039 73.1422 49.2454 72.8476 49.5553 72.6404C49.8652 72.4331 50.2297 72.3225 50.6025 72.3225C51.1007 72.324 51.5782 72.5222 51.931 72.8739C52.2838 73.2257 52.4834 73.7026 52.4864 74.2008ZM51.4775 74.2008C51.4775 74.0277 51.4262 73.8586 51.3301 73.7147C51.2339 73.5707 51.0972 73.4586 50.9374 73.3924C50.7775 73.3261 50.6015 73.3088 50.4318 73.3426C50.262 73.3763 50.1061 73.4597 49.9837 73.582C49.8614 73.7044 49.778 73.8603 49.7443 74.0301C49.7105 74.1998 49.7278 74.3758 49.794 74.5357C49.8603 74.6956 49.9724 74.8322 50.1163 74.9284C50.2602 75.0245 50.4294 75.0759 50.6025 75.0759C50.7179 75.0766 50.8323 75.0545 50.9391 75.0109C51.0459 74.9672 51.143 74.9029 51.2249 74.8215C51.3067 74.7402 51.3717 74.6435 51.416 74.537C51.4603 74.4304 51.4831 74.3162 51.4831 74.2008H51.4775Z" fill="#EBEBEB"/>
<path d="M61.8054 74.2008C61.8065 74.5739 61.6969 74.9389 61.4903 75.2495C61.2837 75.5602 60.9895 75.8025 60.6451 75.9458C60.3006 76.089 59.9214 76.1268 59.5554 76.0543C59.1895 75.9818 58.8533 75.8023 58.5895 75.5385C58.3257 75.2747 58.1462 74.9385 58.0736 74.5725C58.0011 74.2066 58.0389 73.8273 58.1822 73.4829C58.3255 73.1384 58.5678 72.8443 58.8784 72.6377C59.1891 72.4311 59.5541 72.3214 59.9272 72.3225C60.4249 72.324 60.9018 72.5223 61.2537 72.8743C61.6056 73.2262 61.804 73.7031 61.8054 74.2008ZM60.8022 74.2008C60.8022 74.0277 60.7509 73.8586 60.6547 73.7147C60.5586 73.5708 60.4219 73.4586 60.262 73.3924C60.1021 73.3261 59.9262 73.3088 59.7564 73.3426C59.5867 73.3763 59.4308 73.4597 59.3084 73.5821C59.186 73.7044 59.1027 73.8604 59.0689 74.0301C59.0351 74.1998 59.0525 74.3758 59.1187 74.5357C59.1849 74.6956 59.2971 74.8322 59.441 74.9284C59.5849 75.0245 59.7541 75.0759 59.9272 75.0759C60.1588 75.0744 60.3805 74.9817 60.5443 74.818C60.7081 74.6542 60.8007 74.4324 60.8022 74.2008Z" fill="#EBEBEB"/>
<path d="M76.1796 65.6119C76.1796 65.9845 76.0691 66.3487 75.8621 66.6585C75.6551 66.9683 75.3609 67.2098 75.0167 67.3524C74.6724 67.4949 74.2936 67.5322 73.9282 67.4596C73.5628 67.3869 73.2271 67.2074 72.9636 66.944C72.7002 66.6805 72.5208 66.3448 72.4481 65.9794C72.3754 65.614 72.4127 65.2352 72.5553 64.891C72.6979 64.5467 72.9393 64.2525 73.2491 64.0455C73.5589 63.8385 73.9231 63.728 74.2957 63.728C74.7954 63.728 75.2745 63.9265 75.6278 64.2798C75.9811 64.6331 76.1796 65.1123 76.1796 65.6119ZM75.1708 65.6119C75.1708 65.4388 75.1195 65.2696 75.0233 65.1257C74.9272 64.9818 74.7905 64.8697 74.6306 64.8034C74.4707 64.7372 74.2948 64.7199 74.125 64.7537C73.9553 64.7874 73.7994 64.8708 73.677 64.9931C73.5546 65.1155 73.4713 65.2714 73.4375 65.4412C73.4037 65.6109 73.4211 65.7869 73.4873 65.9468C73.5535 66.1066 73.6657 66.2433 73.8096 66.3395C73.9535 66.4356 74.1227 66.4869 74.2957 66.4869C74.5278 66.4869 74.7504 66.3948 74.9145 66.2306C75.0786 66.0665 75.1708 65.844 75.1708 65.6119Z" fill="#EBEBEB"/>
<path d="M83.4475 65.6119C83.4475 65.9845 83.3371 66.3487 83.13 66.6585C82.923 66.9683 82.6288 67.2098 82.2846 67.3524C81.9404 67.4949 81.5616 67.5322 81.1961 67.4596C80.8307 67.3869 80.495 67.2074 80.2316 66.944C79.9681 66.6805 79.7887 66.3448 79.716 65.9794C79.6433 65.614 79.6806 65.2352 79.8232 64.891C79.9658 64.5467 80.2073 64.2525 80.5171 64.0455C80.8269 63.8385 81.1911 63.728 81.5637 63.728C82.0633 63.728 82.5425 63.9265 82.8958 64.2798C83.2491 64.6331 83.4475 65.1123 83.4475 65.6119ZM82.4387 65.6119C82.4387 65.4388 82.3874 65.2696 82.2912 65.1257C82.1951 64.9818 82.0584 64.8697 81.8985 64.8034C81.7386 64.7372 81.5627 64.7199 81.393 64.7537C81.2232 64.7874 81.0673 64.8708 80.9449 64.9931C80.8225 65.1155 80.7392 65.2714 80.7054 65.4412C80.6717 65.6109 80.689 65.7869 80.7552 65.9468C80.8215 66.1066 80.9336 66.2433 81.0775 66.3395C81.2214 66.4356 81.3906 66.4869 81.5637 66.4869C81.7958 66.4869 82.0183 66.3948 82.1824 66.2306C82.3465 66.0665 82.4387 65.844 82.4387 65.6119Z" fill="#EBEBEB"/>
<path d="M90.7154 65.6119C90.7154 65.9845 90.6049 66.3487 90.3979 66.6585C90.1909 66.9683 89.8967 67.2098 89.5524 67.3524C89.2082 67.495 88.8294 67.5323 88.464 67.4596C88.0985 67.3869 87.7629 67.2075 87.4994 66.944C87.2359 66.6805 87.0565 66.3449 86.9838 65.9794C86.9111 65.614 86.9484 65.2352 87.091 64.891C87.2336 64.5467 87.4751 64.2525 87.7849 64.0455C88.0947 63.8385 88.4589 63.728 88.8315 63.728C89.0791 63.7273 89.3244 63.7755 89.5533 63.8699C89.7822 63.9643 89.9902 64.1031 90.1652 64.2782C90.3403 64.4532 90.4791 64.6612 90.5735 64.8901C90.6679 65.119 90.7161 65.3643 90.7154 65.6119ZM89.7121 65.6119C89.7132 65.4375 89.6625 65.2667 89.5664 65.1211C89.4703 64.9756 89.3332 64.8619 89.1724 64.7943C89.0116 64.7268 88.8343 64.7086 88.6631 64.742C88.4919 64.7753 88.3345 64.8587 88.2108 64.9817C88.0871 65.1046 88.0027 65.2615 87.9682 65.4325C87.9338 65.6034 87.9509 65.7808 88.0174 65.942C88.0839 66.1033 88.1967 66.2411 88.3417 66.3381C88.4866 66.4352 88.6571 66.4869 88.8315 66.4869C88.9469 66.4877 89.0613 66.4656 89.1681 66.4219C89.2749 66.3783 89.372 66.314 89.4539 66.2326C89.5357 66.1513 89.6007 66.0546 89.645 65.9481C89.6893 65.8415 89.7121 65.7273 89.7121 65.6119Z" fill="#EBEBEB"/>
<path d="M149.277 42.2479C149.277 42.6205 149.166 42.9847 148.959 43.2945C148.752 43.6043 148.458 43.8458 148.114 43.9883C147.77 44.1309 147.391 44.1682 147.026 44.0955C146.66 44.0229 146.324 43.8434 146.061 43.58C145.797 43.3165 145.618 42.9808 145.545 42.6154C145.473 42.25 145.51 41.8712 145.653 41.527C145.795 41.1827 146.037 40.8885 146.346 40.6815C146.656 40.4745 147.02 40.364 147.393 40.364C147.893 40.364 148.372 40.5625 148.725 40.9158C149.078 41.2691 149.277 41.7482 149.277 42.2479ZM148.268 42.2479C148.268 42.0748 148.217 41.9056 148.121 41.7617C148.024 41.6178 147.888 41.5057 147.728 41.4394C147.568 41.3732 147.392 41.3559 147.222 41.3896C147.053 41.4234 146.897 41.5067 146.774 41.6291C146.652 41.7515 146.569 41.9074 146.535 42.0772C146.501 42.2469 146.518 42.4229 146.585 42.5827C146.651 42.7426 146.763 42.8793 146.907 42.9755C147.051 43.0716 147.22 43.1229 147.393 43.1229C147.625 43.1229 147.848 43.0307 148.012 42.8666C148.176 42.7025 148.268 42.48 148.268 42.2479Z" fill="#EBEBEB"/>
<path d="M9.78726 59.4867C9.78726 59.859 9.67691 60.223 9.47016 60.5327C9.2634 60.8424 8.96951 61.0839 8.6256 61.2266C8.2817 61.3694 7.9032 61.407 7.53792 61.3347C7.17264 61.2625 6.83696 61.0836 6.57327 60.8207C6.30959 60.5578 6.12973 60.2227 6.05641 59.8576C5.98309 59.4925 6.01961 59.1139 6.16134 58.7696C6.30307 58.4253 6.54366 58.1307 6.85273 57.923C7.16179 57.7153 7.52547 57.6039 7.89782 57.6028C8.14589 57.6013 8.39179 57.649 8.62133 57.7431C8.85087 57.8372 9.0595 57.9758 9.23517 58.151C9.41084 58.3261 9.55008 58.5343 9.64484 58.7636C9.7396 58.9929 9.788 59.2386 9.78726 59.4867ZM8.78402 59.4867C8.784 59.3141 8.73296 59.1454 8.63729 59.0017C8.54162 58.8581 8.40561 58.7459 8.24636 58.6794C8.08712 58.6128 7.91175 58.5949 7.74232 58.6277C7.57289 58.6606 7.41696 58.7428 7.29415 58.8641C7.17134 58.9854 7.08713 59.1402 7.05211 59.3092C7.0171 59.4782 7.03285 59.6538 7.09738 59.8139C7.1619 59.974 7.27232 60.1114 7.41475 60.2089C7.55717 60.3064 7.72525 60.3595 7.89782 60.3617C8.01347 60.3625 8.12813 60.3404 8.23525 60.2968C8.34237 60.2533 8.43987 60.189 8.52216 60.1077C8.60445 60.0265 8.66993 59.9298 8.71486 59.8233C8.75979 59.7167 8.78329 59.6023 8.78402 59.4867Z" fill="#EBEBEB"/>
<path d="M9.78726 34.4225C9.78726 34.7948 9.67691 35.1588 9.47016 35.4685C9.2634 35.7782 8.96951 36.0196 8.6256 36.1624C8.2817 36.3051 7.9032 36.3428 7.53792 36.2705C7.17264 36.1983 6.83696 36.0194 6.57327 35.7565C6.30959 35.4936 6.12973 35.1585 6.05641 34.7934C5.98309 34.4283 6.01961 34.0497 6.16134 33.7054C6.30307 33.3611 6.54366 33.0665 6.85273 32.8588C7.16179 32.6511 7.52547 32.5397 7.89782 32.5386C8.14589 32.5371 8.39179 32.5848 8.62133 32.6789C8.85087 32.773 9.0595 32.9116 9.23517 33.0868C9.41084 33.2619 9.55008 33.4701 9.64484 33.6994C9.7396 33.9286 9.788 34.1744 9.78726 34.4225ZM8.78402 34.4225C8.784 34.2499 8.73296 34.0811 8.63729 33.9375C8.54162 33.7938 8.40561 33.6817 8.24636 33.6152C8.08712 33.5486 7.91175 33.5306 7.74232 33.5635C7.57289 33.5964 7.41696 33.6786 7.29415 33.7999C7.17134 33.9211 7.08713 34.076 7.05211 34.245C7.0171 34.414 7.03285 34.5896 7.09738 34.7497C7.1619 34.9098 7.27232 35.0472 7.41475 35.1447C7.55717 35.2421 7.72525 35.2953 7.89782 35.2975C8.01347 35.2983 8.12813 35.2762 8.23525 35.2326C8.34237 35.189 8.43987 35.1248 8.52216 35.0435C8.60445 34.9623 8.66993 34.8656 8.71486 34.759C8.75979 34.6525 8.78329 34.5381 8.78402 34.4225Z" fill="#EBEBEB"/>
<path d="M4.66507 12.9586C4.66507 13.3314 4.55444 13.6959 4.34719 14.0058C4.13994 14.3157 3.84539 14.5572 3.50084 14.6996C3.15628 14.842 2.77721 14.879 2.41163 14.8058C2.04604 14.7327 1.71038 14.5527 1.44714 14.2887C1.1839 14.0247 1.00492 13.6885 0.932861 13.3227C0.860802 12.9569 0.898904 12.5779 1.04234 12.2338C1.18579 11.8897 1.42811 11.5958 1.73865 11.3895C2.04918 11.1832 2.41395 11.0736 2.78678 11.0747C3.03391 11.0747 3.27861 11.1235 3.50686 11.2182C3.73511 11.313 3.94242 11.4518 4.11691 11.6268C4.29139 11.8018 4.42963 12.0095 4.5237 12.2381C4.61776 12.4666 4.6658 12.7115 4.66507 12.9586ZM3.66183 12.9586C3.65636 12.7868 3.60042 12.6204 3.501 12.4803C3.40158 12.3401 3.26309 12.2323 3.10279 12.1703C2.94249 12.1083 2.76749 12.0949 2.59962 12.1317C2.43176 12.1686 2.27845 12.2541 2.15885 12.3775C2.03924 12.5009 1.95863 12.6568 1.92706 12.8257C1.89549 12.9947 1.91437 13.1692 1.98134 13.3274C2.04832 13.4857 2.16041 13.6208 2.30365 13.7157C2.44688 13.8107 2.61492 13.8614 2.78678 13.8615C2.90386 13.8608 3.01962 13.8368 3.12729 13.7908C3.23496 13.7448 3.33239 13.6778 3.41387 13.5938C3.49534 13.5097 3.55924 13.4102 3.60182 13.3011C3.64439 13.1921 3.6648 13.0756 3.66183 12.9586Z" fill="#EBEBEB"/>
<path d="M11.9887 12.9587C11.9887 13.3322 11.8776 13.6973 11.6696 14.0076C11.4616 14.3179 11.166 14.5593 10.8205 14.7012C10.475 14.8431 10.095 14.8791 9.72901 14.8046C9.36298 14.7301 9.02737 14.5484 8.76481 14.2827C8.50226 14.017 8.32462 13.6793 8.25447 13.3124C8.18432 12.9455 8.22482 12.566 8.37083 12.2222C8.51684 11.8784 8.76176 11.5857 9.07448 11.3814C9.3872 11.1771 9.7536 11.0704 10.1271 11.0748C10.6233 11.0793 11.0976 11.2799 11.4464 11.6328C11.7952 11.9858 11.9902 12.4625 11.9887 12.9587ZM10.9854 12.9587C10.9799 12.7862 10.9235 12.6192 10.8233 12.4787C10.7231 12.3382 10.5837 12.2305 10.4224 12.169C10.2611 12.1076 10.0853 12.0952 9.91702 12.1334C9.74874 12.1716 9.59552 12.2588 9.47662 12.3838C9.35772 12.5089 9.27846 12.6663 9.2488 12.8363C9.21915 13.0063 9.24042 13.1813 9.30994 13.3393C9.37946 13.4972 9.49414 13.6311 9.63953 13.724C9.78493 13.817 9.95457 13.8648 10.1271 13.8616C10.243 13.8595 10.3573 13.8343 10.4634 13.7876C10.5695 13.7409 10.6652 13.6736 10.7451 13.5896C10.8249 13.5056 10.8873 13.4066 10.9285 13.2983C10.9698 13.19 10.9891 13.0745 10.9854 12.9587Z" fill="#EBEBEB"/>
<path d="M220.903 62.201C220.904 62.5739 220.794 62.9386 220.588 63.2492C220.382 63.5597 220.088 63.802 219.744 63.9455C219.4 64.0889 219.021 64.127 218.655 64.055C218.289 63.9829 217.953 63.8039 217.689 63.5407C217.425 63.2774 217.245 62.9418 217.172 62.5762C217.098 62.2106 217.135 61.8315 217.278 61.487C217.42 61.1424 217.662 60.8479 217.972 60.6406C218.282 60.4334 218.646 60.3228 219.019 60.3228C219.518 60.3228 219.996 60.5205 220.349 60.8725C220.702 61.2246 220.901 61.7024 220.903 62.201ZM219.899 62.201C219.899 62.0269 219.848 61.8566 219.751 61.7118C219.654 61.567 219.517 61.4541 219.356 61.3875C219.195 61.3208 219.018 61.3034 218.847 61.3373C218.676 61.3713 218.519 61.4552 218.396 61.5784C218.273 61.7015 218.189 61.8584 218.155 62.0292C218.121 62.2001 218.139 62.3771 218.205 62.538C218.272 62.699 218.385 62.8365 218.53 62.9333C218.674 63.03 218.845 63.0817 219.019 63.0817C219.252 63.0817 219.476 62.9889 219.642 62.8237C219.807 62.6586 219.899 62.4346 219.899 62.201Z" fill="#EBEBEB"/>
<path d="M106.132 210.608C106.132 211.38 105.903 212.134 105.474 212.776C105.046 213.417 104.436 213.918 103.723 214.213C103.01 214.508 102.226 214.585 101.469 214.435C100.712 214.284 100.017 213.913 99.4716 213.367C98.9259 212.821 98.5544 212.126 98.4038 211.369C98.2533 210.613 98.3305 209.828 98.6258 209.115C98.9211 208.402 99.4212 207.793 100.063 207.364C100.704 206.936 101.459 206.707 102.23 206.707C103.265 206.707 104.257 207.118 104.989 207.85C105.721 208.581 106.132 209.574 106.132 210.608ZM104.125 210.608C104.126 210.233 104.016 209.866 103.809 209.554C103.601 209.242 103.306 208.998 102.959 208.854C102.613 208.709 102.232 208.671 101.864 208.743C101.496 208.816 101.158 208.996 100.892 209.261C100.627 209.526 100.446 209.863 100.372 210.231C100.299 210.599 100.336 210.98 100.479 211.327C100.622 211.673 100.865 211.969 101.177 212.178C101.489 212.386 101.855 212.498 102.23 212.498C102.732 212.498 103.213 212.299 103.568 211.945C103.924 211.59 104.124 211.11 104.125 210.608Z" fill="#EBEBEB"/>
<path d="M106.132 220.083C106.132 220.855 105.903 221.609 105.474 222.251C105.046 222.893 104.436 223.393 103.723 223.688C103.01 223.983 102.226 224.06 101.469 223.91C100.712 223.759 100.017 223.388 99.4716 222.842C98.9259 222.297 98.5544 221.601 98.4038 220.845C98.2533 220.088 98.3305 219.303 98.6258 218.59C98.9211 217.877 99.4212 217.268 100.063 216.839C100.704 216.411 101.459 216.182 102.23 216.182C103.265 216.182 104.257 216.593 104.989 217.325C105.721 218.056 106.132 219.049 106.132 220.083ZM104.125 220.083C104.126 219.708 104.016 219.341 103.809 219.029C103.601 218.717 103.306 218.473 102.959 218.329C102.613 218.184 102.232 218.146 101.864 218.219C101.496 218.291 101.158 218.471 100.892 218.736C100.627 219.001 100.446 219.338 100.372 219.706C100.299 220.074 100.336 220.455 100.479 220.802C100.622 221.148 100.865 221.445 101.177 221.653C101.489 221.862 101.855 221.973 102.23 221.973C102.732 221.973 103.213 221.774 103.568 221.42C103.924 221.066 104.124 220.585 104.125 220.083Z" fill="#EBEBEB"/>
<path d="M115.429 210.608C115.429 211.38 115.2 212.134 114.771 212.776C114.342 213.417 113.733 213.918 113.02 214.213C112.307 214.508 111.523 214.585 110.766 214.435C110.009 214.284 109.314 213.913 108.768 213.367C108.223 212.821 107.851 212.126 107.701 211.369C107.55 210.613 107.627 209.828 107.923 209.115C108.218 208.402 108.718 207.793 109.36 207.364C110.001 206.936 110.755 206.707 111.527 206.707C112.562 206.707 113.554 207.118 114.286 207.85C115.018 208.581 115.429 209.574 115.429 210.608ZM113.417 210.608C113.418 210.233 113.307 209.866 113.1 209.553C112.892 209.241 112.596 208.997 112.249 208.853C111.903 208.709 111.521 208.671 111.153 208.744C110.785 208.817 110.447 208.997 110.182 209.263C109.916 209.528 109.736 209.866 109.663 210.234C109.59 210.603 109.628 210.984 109.772 211.33C109.916 211.677 110.16 211.973 110.472 212.181C110.785 212.388 111.152 212.499 111.527 212.498C112.028 212.496 112.507 212.297 112.862 211.943C113.216 211.589 113.415 211.109 113.417 210.608Z" fill="#EBEBEB"/>
<path d="M115.429 220.083C115.429 220.855 115.2 221.609 114.771 222.251C114.342 222.893 113.733 223.393 113.02 223.688C112.307 223.983 111.523 224.06 110.766 223.91C110.009 223.759 109.314 223.388 108.768 222.842C108.223 222.297 107.851 221.601 107.701 220.845C107.55 220.088 107.627 219.303 107.923 218.59C108.218 217.877 108.718 217.268 109.36 216.839C110.001 216.411 110.755 216.182 111.527 216.182C112.562 216.182 113.554 216.593 114.286 217.325C115.018 218.056 115.429 219.049 115.429 220.083ZM113.417 220.083C113.418 219.708 113.307 219.341 113.1 219.028C112.892 218.716 112.596 218.472 112.249 218.328C111.903 218.184 111.521 218.146 111.153 218.219C110.785 218.292 110.447 218.472 110.182 218.738C109.916 219.003 109.736 219.341 109.663 219.709C109.59 220.078 109.628 220.459 109.772 220.806C109.916 221.152 110.16 221.448 110.472 221.656C110.785 221.864 111.152 221.974 111.527 221.973C112.028 221.973 112.509 221.774 112.863 221.419C113.217 221.065 113.417 220.584 113.417 220.083Z" fill="#EBEBEB"/>
<path d="M124.72 210.608C124.72 211.38 124.491 212.134 124.062 212.776C123.634 213.417 123.024 213.918 122.311 214.213C121.598 214.508 120.814 214.585 120.057 214.435C119.3 214.284 118.605 213.913 118.059 213.367C117.514 212.821 117.142 212.126 116.992 211.369C116.841 210.613 116.918 209.828 117.214 209.115C117.509 208.402 118.009 207.793 118.651 207.364C119.292 206.936 120.047 206.707 120.818 206.707C121.853 206.707 122.845 207.118 123.577 207.85C124.309 208.581 124.72 209.574 124.72 210.608ZM122.713 210.608C122.714 210.233 122.604 209.866 122.397 209.554C122.189 209.242 121.893 208.998 121.547 208.854C121.201 208.709 120.82 208.671 120.452 208.743C120.084 208.816 119.746 208.996 119.48 209.261C119.215 209.526 119.034 209.863 118.96 210.231C118.886 210.599 118.924 210.98 119.067 211.327C119.21 211.673 119.453 211.969 119.765 212.178C120.077 212.386 120.443 212.498 120.818 212.498C121.32 212.498 121.801 212.299 122.156 211.945C122.511 211.59 122.712 211.11 122.713 210.608Z" fill="#EBEBEB"/>
<path d="M124.72 220.083C124.72 220.855 124.491 221.609 124.062 222.251C123.634 222.893 123.024 223.393 122.311 223.688C121.598 223.983 120.814 224.06 120.057 223.91C119.3 223.759 118.605 223.388 118.059 222.842C117.514 222.297 117.142 221.601 116.992 220.845C116.841 220.088 116.918 219.303 117.214 218.59C117.509 217.877 118.009 217.268 118.651 216.839C119.292 216.411 120.047 216.182 120.818 216.182C121.853 216.182 122.845 216.593 123.577 217.325C124.309 218.056 124.72 219.049 124.72 220.083ZM122.713 220.083C122.714 219.708 122.604 219.341 122.397 219.029C122.189 218.717 121.893 218.473 121.547 218.329C121.201 218.184 120.82 218.146 120.452 218.219C120.084 218.291 119.746 218.471 119.48 218.736C119.215 219.001 119.034 219.338 118.96 219.706C118.886 220.074 118.924 220.455 119.067 220.802C119.21 221.148 119.453 221.445 119.765 221.653C120.077 221.862 120.443 221.973 120.818 221.973C121.32 221.973 121.801 221.774 122.156 221.42C122.511 221.066 122.712 220.585 122.713 220.083Z" fill="#EBEBEB"/>
<path d="M134.017 210.608C134.017 211.38 133.788 212.134 133.359 212.776C132.93 213.417 132.321 213.918 131.608 214.213C130.895 214.508 130.111 214.585 129.354 214.435C128.597 214.284 127.902 213.913 127.356 213.367C126.811 212.821 126.439 212.126 126.288 211.369C126.138 210.613 126.215 209.828 126.51 209.115C126.806 208.402 127.306 207.793 127.947 207.364C128.589 206.936 129.343 206.707 130.115 206.707C131.15 206.707 132.142 207.118 132.874 207.85C133.605 208.581 134.017 209.574 134.017 210.608ZM132.004 210.608C132.004 210.235 131.894 209.869 131.686 209.559C131.478 209.248 131.183 209.006 130.838 208.863C130.493 208.72 130.113 208.682 129.746 208.755C129.38 208.828 129.043 209.008 128.779 209.272C128.515 209.536 128.335 209.873 128.262 210.24C128.189 210.606 128.226 210.986 128.369 211.331C128.512 211.677 128.755 211.972 129.065 212.179C129.376 212.387 129.741 212.498 130.115 212.498C130.616 212.496 131.095 212.297 131.449 211.943C131.803 211.589 132.003 211.109 132.004 210.608Z" fill="#EBEBEB"/>
<path d="M134.017 220.083C134.017 220.855 133.788 221.609 133.359 222.251C132.93 222.893 132.321 223.393 131.608 223.688C130.895 223.983 130.111 224.06 129.354 223.91C128.597 223.759 127.902 223.388 127.356 222.842C126.811 222.297 126.439 221.601 126.288 220.845C126.138 220.088 126.215 219.303 126.51 218.59C126.806 217.877 127.306 217.268 127.947 216.839C128.589 216.411 129.343 216.182 130.115 216.182C131.15 216.182 132.142 216.593 132.874 217.325C133.605 218.056 134.017 219.049 134.017 220.083ZM132.004 220.083C132.004 219.71 131.894 219.344 131.686 219.034C131.478 218.723 131.183 218.481 130.838 218.338C130.493 218.195 130.113 218.157 129.746 218.23C129.38 218.303 129.043 218.483 128.779 218.747C128.515 219.012 128.335 219.348 128.262 219.715C128.189 220.081 128.226 220.461 128.369 220.806C128.512 221.152 128.755 221.447 129.065 221.654C129.376 221.862 129.741 221.973 130.115 221.973C130.616 221.973 131.097 221.774 131.451 221.419C131.805 221.065 132.004 220.584 132.004 220.083Z" fill="#EBEBEB"/>
<path d="M68.0979 58.9797H56.2931V59.9886H67.6799L72.9915 65.3002L73.7049 64.5867L68.0979 58.9797Z" fill="#EBEBEB"/>
<path d="M70.868 53.969H56.2931V54.9722H70.4555L80.4155 64.9378L81.1289 64.2299L70.868 53.969Z" fill="#EBEBEB"/>
<path d="M167.213 58.0823H111.979L91.6964 78.3645V99.2263H92.7052V78.7769L112.397 59.0911H167.213V58.0823Z" fill="#EBEBEB"/>
<path d="M167.213 71.5701H119.592L106.606 84.5565V99.2261H107.614V84.9745L120.01 72.5733H167.213V71.5701Z" fill="#EBEBEB"/>
<path d="M167.213 76.564H122.942L111.683 87.8226V99.2261H112.686V88.235L123.36 77.5672H167.213V76.564Z" fill="#EBEBEB"/>
<path d="M210.96 53.1887H204.622V54.192H210.542L217.915 61.5658L218.623 60.8524L210.96 53.1887Z" fill="#EBEBEB"/>
<path d="M21.3244 58.9797H8.96228V59.983H21.3244V58.9797Z" fill="#EBEBEB"/>
<path d="M3.9908 13.4434L3.28296 14.1568L14.0232 24.897H21.3246V23.8938H14.4412L3.9908 13.4434Z" fill="#EBEBEB"/>
<path d="M11.2753 13.5938L10.5675 14.3072L15.8624 19.5965H21.3245V18.5932H16.2748L11.2753 13.5938Z" fill="#EBEBEB"/>
<path d="M21.3244 33.9153H8.96228V34.9185H21.3244V33.9153Z" fill="#EBEBEB"/>
<path d="M73.1253 48.9526H56.2931V49.9559H72.7072L87.4549 64.7035L88.1683 63.9957L73.1253 48.9526Z" fill="#EBEBEB"/>
<path d="M3.6562 127.038H2.65295V132.684L8.63339 138.665H33.1905V137.662H9.04583L3.6562 132.272V127.038Z" fill="#EBEBEB"/>
<path d="M41.484 79.7798H24.0053L2.65295 101.132V106.622H3.6562V101.55L24.4233 80.783H41.066L46.4556 86.1671V99.226H47.4589V85.7546L41.484 79.7798Z" fill="#EBEBEB"/>
<path d="M3.6562 172.78H2.65295V178.008L8.38258 183.738H33.1905V182.729H8.79502L3.6562 177.59V172.78Z" fill="#EBEBEB"/>
<path d="M33.1905 142.694H8.8842L2.65295 148.926V152.493H3.6562V149.338L9.29665 143.698H33.1905V142.694Z" fill="#EBEBEB"/>
<path d="M33.1906 112.552H20.4996V113.556H33.1906V112.552Z" fill="#EBEBEB"/>
<path d="M20.9177 103.194L20.2098 103.902L24.847 108.539H33.1907V107.536H25.2651L20.9177 103.194Z" fill="#EBEBEB"/>
<path d="M51.6614 74.5796L50.948 75.293L61.5545 85.8995V99.2259H62.5577V85.4815L51.6614 74.5796Z" fill="#EBEBEB"/>
<path d="M61.1421 74.708L60.4287 75.4159L66.5652 81.5523V99.2261H67.5684V81.1399L61.1421 74.708Z" fill="#EBEBEB"/>
<path d="M210.257 76.5864H204.622V77.5897H209.839L212.409 80.1591V107.247L204.416 115.239H191.976V116.242H204.829L213.412 107.659V79.7466L210.257 76.5864Z" fill="#EBEBEB"/>
<path d="M210.904 71.6147H204.622V72.618H210.486L216.979 79.1112V108.935L201.574 124.341H192.277V125.344H201.992L217.988 109.348V78.6988L210.904 71.6147Z" fill="#EBEBEB"/>
<path d="M102.732 192.048H101.729V207.727H102.732V192.048Z" fill="#EBEBEB"/>
<path d="M117.703 192.048H116.694V197.304L120.322 200.933V207.727H121.331V200.52L117.703 196.892V192.048Z" fill="#EBEBEB"/>
<path d="M107.676 192.048H106.673V197.516L111.104 201.947V207.961H112.107V201.529L107.676 197.098V192.048Z" fill="#EBEBEB"/>
<path d="M146.473 172.758H126.013V173.762H146.055L156.311 184.022V205.614L142.354 219.576H133.013V220.58H142.767L157.314 206.033V183.604L146.473 172.758Z" fill="#EBEBEB"/>
<path d="M148.502 42.9385L147.794 43.6463L153.329 49.1809H167.213V48.1776H153.741L148.502 42.9385Z" fill="#EBEBEB"/>
<path d="M123.042 229.82C108.334 233.722 86.0003 226.225 75.4272 208.173C74.7138 206.935 76.2577 193.62 77.3668 177.362C78.0022 167.485 78.4815 156.483 78.1861 146.406L138.743 156.299C138.743 156.299 136.218 181.224 136.837 198.787C136.895 200.176 137.082 201.556 137.394 202.911C137.422 203.101 137.483 203.329 137.506 203.591C139.01 211.411 137.26 226.014 123.042 229.82Z" fill="#FFC727"/>
<path opacity="0.2" d="M138.743 156.299C138.743 156.299 138.743 156.427 138.704 156.667C138.704 156.784 138.676 156.935 138.659 157.119C138.662 157.159 138.662 157.2 138.659 157.241C138.659 157.414 138.626 157.598 138.609 157.799C138.593 157.999 138.554 158.356 138.531 158.651C138.531 158.807 138.498 158.969 138.487 159.142C138.403 160.017 138.314 161.076 138.214 162.285C138.214 162.453 138.186 162.62 138.174 162.792C138.174 162.882 138.174 162.965 138.174 163.054C138.174 163.305 138.13 163.556 138.113 163.812C138.096 164.069 138.074 164.309 138.052 164.565C137.952 165.852 137.846 167.257 137.745 168.745C137.645 170.233 137.545 171.638 137.45 173.204C137.45 173.6 137.4 174.007 137.377 174.408C137.355 174.809 137.338 175.099 137.322 175.45C137.266 176.347 137.221 177.261 137.177 178.187V178.521C137.177 178.928 137.138 179.335 137.116 179.742C137.116 180.009 137.116 180.266 137.082 180.522C137.026 181.966 136.965 183.426 136.92 184.886C136.92 185.148 136.92 185.416 136.92 185.683C136.92 186.079 136.92 186.475 136.893 186.87C136.893 187.428 136.865 187.929 136.854 188.459C136.854 189.785 136.815 191.101 136.815 192.405C118.979 191.168 96.5344 184.83 78.1249 164.348C78.1583 163.601 78.1806 162.848 78.1973 162.118C78.1973 161.661 78.2308 161.204 78.2363 160.747C78.2363 160.68 78.2363 160.619 78.2363 160.558C78.2363 159.894 78.2698 159.237 78.2809 158.579C78.2809 157.615 78.32 156.65 78.3311 155.692C78.3422 154.733 78.3311 153.813 78.3311 152.905C78.3311 150.731 78.3311 148.574 78.2419 146.468L138.743 156.299Z" fill="black"/>
<path opacity="0.1" d="M91.44 159.889C91.176 160.295 90.7949 160.611 90.3471 160.796C89.8994 160.98 89.4061 161.025 88.9326 160.923C88.459 160.821 88.0276 160.578 87.6954 160.226C87.3631 159.873 87.1458 159.428 87.072 158.949C86.9983 158.471 87.0717 157.981 87.2826 157.545C87.4934 157.109 87.8317 156.747 88.2526 156.507C88.6736 156.268 89.1574 156.162 89.64 156.203C90.1225 156.245 90.5812 156.432 90.9551 156.74C91.4047 157.116 91.7018 157.643 91.7911 158.223C91.8803 158.802 91.7555 159.394 91.44 159.889ZM91.44 159.889C91.62 159.597 91.7133 159.261 91.709 158.919C91.7046 158.577 91.6028 158.243 91.4154 157.956C91.2281 157.67 90.9629 157.443 90.6511 157.302C90.3392 157.16 89.9936 157.111 89.6548 157.159C89.3159 157.208 88.9979 157.352 88.7379 157.574C88.4779 157.797 88.2868 158.089 88.1869 158.416C88.0871 158.744 88.0826 159.093 88.1741 159.423C88.2655 159.753 88.4491 160.05 88.7034 160.279C88.9012 160.451 89.1338 160.578 89.3853 160.652C89.6367 160.727 89.9012 160.746 90.1608 160.709C90.4204 160.672 90.669 160.58 90.8897 160.438C91.1104 160.296 91.2981 160.109 91.44 159.889Z" fill="black"/>
<path opacity="0.1" d="M90.7434 176.71C90.4793 177.116 90.0979 177.433 89.6498 177.618C89.2017 177.802 88.708 177.847 88.2342 177.745C87.7604 177.642 87.3288 177.399 86.9967 177.045C86.6645 176.692 86.4476 176.247 86.3745 175.768C86.3014 175.288 86.3757 174.798 86.5875 174.362C86.7993 173.926 87.1387 173.565 87.5605 173.326C87.9823 173.088 88.4668 172.983 88.9496 173.025C89.4324 173.068 89.8908 173.257 90.264 173.566C90.7123 173.942 91.0082 174.469 91.0964 175.048C91.1846 175.626 91.0591 176.217 90.7434 176.71ZM90.7434 176.71C90.9234 176.419 91.0167 176.082 91.0124 175.74C91.008 175.398 90.9062 175.064 90.7188 174.777C90.5314 174.491 90.2663 174.264 89.9545 174.123C89.6426 173.982 89.297 173.932 88.9582 173.981C88.6193 174.029 88.3012 174.173 88.0413 174.395C87.7813 174.618 87.5902 174.91 87.4903 175.238C87.3904 175.565 87.386 175.914 87.4775 176.244C87.5689 176.574 87.7525 176.871 88.0067 177.1C88.2038 177.274 88.4363 177.403 88.688 177.478C88.9398 177.553 89.2049 177.573 89.465 177.536C89.7252 177.499 89.9742 177.406 90.1949 177.263C90.4156 177.121 90.6027 176.932 90.7434 176.71Z" fill="black"/>
<path opacity="0.1" d="M90.0522 193.514C89.7881 193.92 89.4068 194.237 88.9587 194.422C88.5106 194.607 88.0169 194.651 87.543 194.549C87.0692 194.447 86.6376 194.203 86.3055 193.85C85.9734 193.497 85.7564 193.051 85.6833 192.572C85.6103 192.093 85.6846 191.603 85.8964 191.167C86.1082 190.731 86.4475 190.369 86.8693 190.13C87.2912 189.892 87.7756 189.787 88.2585 189.83C88.7413 189.873 89.1997 190.061 89.5729 190.37C90.0222 190.746 90.3188 191.273 90.4071 191.852C90.4954 192.43 90.3692 193.022 90.0522 193.514ZM90.0522 193.514C90.2315 193.222 90.3241 192.886 90.3189 192.544C90.3138 192.201 90.2113 191.868 90.0233 191.582C89.8353 191.296 89.5698 191.069 89.2577 190.929C88.9456 190.788 88.5999 190.74 88.2612 190.789C87.9225 190.838 87.6048 190.982 87.3453 191.205C87.0858 191.429 86.8952 191.721 86.796 192.049C86.6967 192.376 86.6929 192.725 86.7849 193.055C86.8769 193.384 87.061 193.681 87.3156 193.91C87.513 194.083 87.7458 194.212 87.9978 194.287C88.2498 194.362 88.515 194.381 88.7752 194.343C89.0354 194.306 89.2843 194.212 89.5048 194.069C89.7252 193.926 89.912 193.736 90.0522 193.514Z" fill="black"/>
<path opacity="0.1" d="M89.3555 210.324C89.0915 210.73 88.7101 211.047 88.262 211.232C87.8139 211.416 87.3202 211.461 86.8464 211.359C86.3726 211.256 85.941 211.013 85.6088 210.66C85.2767 210.306 85.0597 209.861 84.9867 209.382C84.9136 208.902 84.9879 208.412 85.1997 207.976C85.4115 207.54 85.7508 207.179 86.1727 206.94C86.5945 206.702 87.079 206.597 87.5618 206.639C88.0446 206.682 88.503 206.871 88.8762 207.18C89.3245 207.556 89.6204 208.083 89.7086 208.662C89.7968 209.24 89.6713 209.831 89.3555 210.324ZM89.3555 210.324C89.5364 210.033 89.6304 209.696 89.6266 209.353C89.6227 209.011 89.5212 208.676 89.3339 208.389C89.1466 208.103 88.8813 207.875 88.5691 207.734C88.257 207.592 87.911 207.543 87.5718 207.591C87.2326 207.64 86.9143 207.784 86.6542 208.007C86.3942 208.23 86.2032 208.523 86.1037 208.851C86.0042 209.179 86.0004 209.528 86.0926 209.858C86.1849 210.188 86.3694 210.485 86.6245 210.714C86.8223 210.885 87.0544 211.012 87.3053 211.085C87.5562 211.159 87.82 211.178 88.0789 211.141C88.3378 211.104 88.5857 211.012 88.8059 210.871C89.0261 210.73 89.2136 210.543 89.3555 210.324Z" fill="black"/>
<path opacity="0.1" d="M84.9468 149.238C84.4954 169.275 83.8321 189.339 82.16 209.321C82.0541 210.435 81.8535 212.185 81.6528 213.295C82.2436 207.983 82.3495 202.632 82.6394 197.298C83.3193 182.406 84.1108 164.041 84.9635 149.238H84.9468Z" fill="black"/>
<path d="M75.8954 146.128C66.9777 158.066 77.7737 177.83 108.345 183.437C144.991 190.164 151.334 168.205 146.802 156.171C142.271 144.138 84.6738 134.356 75.8954 146.128Z" fill="#37474F"/>
<path d="M118.288 15.9849C116.337 15.9849 111.906 17.2947 111.906 17.2947L126.219 22.3443L125.149 18.7995L118.288 15.9849Z" fill="#FFC727"/>
<path opacity="0.2" d="M118.288 15.9849C116.337 15.9849 111.906 17.2947 111.906 17.2947L126.219 22.3443L125.149 18.7995L118.288 15.9849Z" fill="black"/>
<path d="M133.047 94.6781C137.221 114.899 151.439 129.056 164.816 126.297C178.193 123.538 185.622 104.911 181.453 84.6902C177.284 64.4693 163.06 50.3125 149.684 53.0714C136.307 55.8303 128.878 74.4349 133.047 94.6781Z" fill="#FFC727"/>
<g opacity="0.2">
<path d="M133.047 94.6781C137.221 114.899 151.439 129.056 164.816 126.297C178.193 123.538 185.622 104.911 181.453 84.6902C177.284 64.4693 163.06 50.3125 149.684 53.0714C136.307 55.8303 128.878 74.4349 133.047 94.6781Z" fill="black"/>
</g>
<path d="M135.978 93.7307C138.464 105.786 146.936 114.219 154.901 112.58C162.865 110.942 167.302 99.8337 164.816 87.7781C162.33 75.7225 153.858 67.2897 145.866 68.9339C137.873 70.5781 133.493 81.6806 135.978 93.7307Z" fill="#FFC727"/>
<g opacity="0.1">
<path d="M135.978 93.7307C138.464 105.786 146.936 114.219 154.901 112.58C162.865 110.942 167.302 99.8337 164.816 87.7781C162.33 75.7225 153.858 67.2897 145.866 68.9339C137.873 70.5781 133.493 81.6806 135.978 93.7307Z" fill="black"/>
</g>
<path d="M161.171 108.612C160.26 109.195 159.252 109.608 158.195 109.833C151.239 111.271 143.826 103.897 141.658 93.3628C139.49 82.8287 143.363 73.1252 150.319 71.6872C152.65 71.2517 155.06 71.688 157.091 72.9134C160.669 76.3188 163.54 81.5635 164.822 87.7781C166.533 96.1161 164.944 103.992 161.171 108.612Z" fill="#FFC727"/>
<path opacity="0.4" d="M163.88 60.5513C174.871 67.6353 180.305 84.3504 178.678 96.9355C175.294 84.1163 171.627 71.4699 163.88 60.5513Z" fill="white"/>
<path d="M79.0611 148.112C84.9448 153.057 91.672 156.901 98.9197 159.46C112.252 164.197 126.626 164.197 138.776 158.607C147.443 154.705 155.012 147.911 160.218 137.985C176.186 107.715 157.141 39.3326 137.806 26.218C109.337 6.8443 62.2401 19.0783 54.0748 55.5963C48.5458 80.3652 61.5433 133.42 79.0611 148.112Z" fill="#263238"/>
<path d="M131.074 22.3388H131.007C107.882 18.9946 89.01 21.8762 75.338 25.956C75.9957 25.538 76.6701 25.1423 77.3501 24.7521C90.37 21.1405 107.698 18.7494 128.588 21.408C129.335 21.67 130.082 21.9653 130.817 22.2552L131.074 22.3388ZM138.381 26.6137C110.892 21.787 88.9933 25.7108 74.2066 30.6601C71.1802 31.6745 68.2986 32.7781 65.5676 33.9485C65.2165 34.3164 64.8765 34.6842 64.5476 35.0632C67.6521 33.6866 70.9628 32.3879 74.4686 31.2119C89.3667 26.1957 111.527 22.2942 139.389 27.394C139.044 27.1153 138.704 26.8534 138.37 26.6137H138.381ZM143.096 31.1283C114.643 25.7331 92.0253 29.7238 76.8708 34.8013C70.7763 36.836 64.8688 39.3926 59.2137 42.4426C59.0131 42.7715 58.8236 43.117 58.6564 43.457C64.5576 40.2005 70.7439 37.4898 77.1383 35.3586C92.3318 30.27 115.072 26.2737 143.709 31.8584L143.096 31.1283ZM146.278 35.3698C117.586 29.7962 94.7786 33.837 79.5294 38.9369C71.1289 41.7268 63.0981 45.526 55.6132 50.2512C55.5073 50.5633 55.3958 50.881 55.2899 51.1987C62.9441 46.2892 71.1827 42.3571 79.8136 39.4942C95.074 34.3777 117.937 30.3759 146.758 36.0609C146.574 35.8268 146.423 35.5983 146.267 35.3698H146.278ZM148.831 39.4831C120.183 33.982 97.4261 37.9838 82.1991 43.078C72.0364 46.4303 62.4326 51.2847 53.707 57.4801C53.6624 57.7699 53.6123 58.0709 53.5621 58.3719C62.3775 52.0068 72.1211 47.0381 82.4499 43.641C97.6769 38.5411 120.49 34.5393 149.227 40.1798C149.087 39.9457 148.954 39.706 148.82 39.4998L148.831 39.4831ZM151.016 43.5351C122.591 38.1566 100.001 42.1472 84.8577 47.2192C71.0297 51.8564 60.1835 58.3998 52.9435 64.2409C52.9435 64.5251 52.91 64.7982 52.8989 65.0936C60.0609 59.2135 71.0241 52.4974 85.1141 47.7765C100.252 42.7102 122.875 38.7306 151.361 44.215C151.233 43.9865 151.139 43.7636 151.005 43.5351H151.016ZM152.944 47.5424C124.865 42.3646 102.526 46.3274 87.5274 51.3603C71.7765 56.6385 59.8993 64.3969 52.8097 70.7619V71.6035C59.7767 65.2218 71.7598 57.2906 87.756 51.9177C102.754 46.9015 125.099 42.9387 153.229 48.2113L152.944 47.5424ZM154.672 51.5164C127.033 46.6005 105.028 50.5355 90.186 55.5015C72.5234 61.4206 59.7321 70.461 53.0939 77.1492C53.0939 77.4335 53.1385 77.7066 53.1664 78.002C59.5871 71.3137 72.4621 62.0839 90.4424 56.0589C105.268 51.0984 127.278 47.1802 154.934 52.1574C154.834 51.9511 154.745 51.7616 154.661 51.5164H154.672ZM156.222 55.4625C129.101 50.8476 107.492 54.7379 92.8502 59.6482C73.1086 66.2529 59.4924 76.7257 53.6959 83.4975C53.7349 83.7929 53.7683 84.0883 53.8074 84.3893C59.2527 77.701 72.9804 66.9385 93.0899 60.2C107.709 55.3009 129.318 51.4217 156.45 56.1146L156.222 55.4625ZM157.632 59.3919C131.074 55.1058 109.894 58.9627 95.4976 63.7894C73.4152 71.18 58.9573 83.4529 54.61 89.9183L55.1673 90.2137C59.4478 83.832 73.7942 71.6593 95.7317 64.3077C110.123 59.4922 131.291 55.6576 157.821 60.0105L157.632 59.3919ZM158.919 63.2934C133.03 59.3584 112.341 63.1652 98.1674 67.9083C76.0626 75.31 61.5936 87.5997 57.2462 94.0594L57.8482 94.3604C62.1343 87.9898 76.4528 75.8339 98.4126 68.4823C112.547 63.7504 133.225 59.9604 159.109 63.951C159.036 63.7392 158.975 63.5274 158.908 63.3156L158.919 63.2934ZM160.09 67.1949C134.903 63.6278 114.732 67.3676 100.837 72.0271C78.7379 79.4288 64.2634 91.7186 59.9216 98.1783L60.5235 98.4793C64.8152 92.1031 79.1504 79.9305 101.088 72.5845C114.949 67.9361 135.087 64.2241 160.268 67.8247C160.201 67.663 160.145 67.4457 160.056 67.2394L160.09 67.1949ZM161.165 71.0963C136.714 67.9027 117.101 71.5868 103.501 76.1404C81.3965 83.5421 66.922 95.8374 62.5969 102.297L63.1877 102.598C67.4626 96.2889 81.8034 84.0883 103.763 76.7702C117.329 72.2166 136.915 68.5492 161.344 71.793C161.26 71.5757 161.204 71.3694 161.171 71.1632L161.165 71.0963ZM162.13 75.0257C138.475 72.2111 119.447 75.8339 106.16 80.2816C84.0551 87.6833 69.5861 99.973 65.2555 106.438L65.8463 106.739C70.1379 100.363 84.4787 88.1849 106.422 80.8445C119.659 76.3857 138.648 72.7963 162.275 75.6444C162.219 75.505 162.169 75.3044 162.118 75.0926L162.13 75.0257ZM162.999 78.9662C140.147 76.5361 121.755 80.0809 108.824 84.4228C86.7193 91.8244 72.2447 104.114 67.9141 110.58L68.5104 110.88C72.7965 104.504 87.1373 92.3261 109.08 84.9801C121.983 80.655 140.331 77.1214 163.144 79.5793C163.083 79.4456 163.033 79.2393 162.988 79.0331L162.999 78.9662ZM163.779 82.9235C141.814 80.878 124.079 84.3447 111.483 88.5639C89.3779 95.9656 74.9089 108.255 70.5782 114.721L71.169 115.022C75.4551 108.64 89.8015 96.4728 111.745 89.1213C124.285 84.9188 141.981 81.4688 163.885 83.5477C163.841 83.3916 163.807 83.191 163.768 82.9736L163.779 82.9235Z" fill="#455A64"/>
<path d="M74.5522 157.565C99.3769 181.141 126.425 180.617 140.192 174.519C150.007 170.239 160.396 156.935 166.338 146.183C184.58 113.433 161.728 42.0859 141.63 25.694C134.067 19.5129 123.237 16.2803 118.288 15.9849C136.296 25.276 142.628 61.794 142.628 61.794L100.715 67.0164C100.715 67.0164 93.0286 26.8087 74.1119 22.8181C74.1119 22.8181 55.7191 27.4608 46.8014 56.9171C38.8535 83.2578 56.243 140.186 74.5522 157.565Z" fill="#FFC727"/>
<g opacity="0.1">
<path d="M61.4821 138.414C68.8169 130.003 83.219 113.333 83.4754 111.193C83.8655 108.356 81.0397 80.2203 79.9083 77.5505C78.9552 75.2654 61.0641 49.3929 53.7683 40.9099C50.8127 45.9475 48.4825 51.3266 46.8292 56.9283C40.8432 76.7201 49.1812 113.823 61.4821 138.414Z" fill="black"/>
<path d="M116.371 177.819C125.952 178.722 134.284 177.15 140.192 174.531C143.436 173.109 146.73 170.724 149.901 167.753C147.454 166.315 144.355 164.721 142.828 164.582C140.259 164.353 127.027 167.04 125.11 167.748C123.761 168.249 119.102 174.202 116.371 177.819Z" fill="black"/>
<path d="M172.97 112.837C169.52 108.099 165.724 101.784 165.507 101.026C165.044 99.2874 153.953 61.2812 153.803 58.8177C153.741 57.5414 154.07 49.9 154.421 42.7937C154.706 43.3176 154.979 43.8527 155.268 44.41L155.319 44.4992C158.574 50.8587 162.007 59.3751 165.178 68.6773C165.178 68.7219 165.178 68.7665 165.223 68.8167C169.715 82.9234 172.708 98.5015 172.97 112.837Z" fill="black"/>
</g>
<path opacity="0.1" d="M171.521 125.639C168.974 141.117 152.604 160.446 151.373 161.109C150.771 161.438 149.701 160.625 147.722 159.036C146.223 157.838 144.523 156.478 143.43 156.205C141.273 155.647 123.198 158.601 121.058 159.582C120.222 159.961 118.533 161.962 116.906 163.896C114.37 166.9 112.765 168.734 111.823 168.734C103.395 168.734 76.1852 138.08 75.4216 135.989C74.9924 134.808 77.8796 130.767 82.6227 124.285C85.8776 119.826 89.5729 114.776 89.6621 113.411C89.846 110.552 86.9589 77.7735 85.638 74.7192C84.5846 72.278 65.2276 46.3832 57.2629 35.7767C57.38 35.6151 57.5082 35.459 57.6308 35.2974C65.5675 45.8871 85.0806 71.9491 86.173 74.4851C87.5107 77.5952 90.4591 110.05 90.2417 113.45C90.1414 114.983 86.7192 119.67 83.0908 124.63C79.7467 129.184 75.6167 134.841 75.9678 135.778C76.7258 137.857 103.535 168.143 111.823 168.143C112.564 168.143 114.721 165.574 116.46 163.512C118.199 161.449 119.86 159.476 120.824 159.053C122.602 158.239 141.128 155.034 143.57 155.642C144.79 155.948 146.54 157.353 148.09 158.585C149.149 159.437 150.765 160.719 151.099 160.602C151.841 160.151 168.378 141.39 170.947 125.539C171.326 123.237 166.784 116.549 163.144 111.176C160.831 107.77 158.836 104.828 158.501 103.601C157.498 99.9117 147.911 60.2279 147.767 57.3408C147.677 55.2953 149.249 43.0335 150.219 35.7377C150.375 35.9885 150.542 36.2393 150.704 36.4901C149.734 43.8249 148.263 55.4012 148.346 57.313C148.474 60.0997 158.083 99.8783 159.064 103.479C159.371 104.594 161.433 107.653 163.618 110.875C167.514 116.593 171.933 123.103 171.521 125.639Z" fill="black"/>
<path opacity="0.1" d="M111.009 134.618C111.009 134.618 130.689 133.136 134.345 132.629C140.231 131.809 153.814 128.727 153.814 128.727C150.554 130.444 147.205 131.986 143.781 133.348C139.64 134.891 128.097 136.341 124.575 136.051C117.413 135.482 111.009 134.618 111.009 134.618Z" fill="black"/>
<path opacity="0.1" d="M123.165 140.705C123.165 140.705 133.448 139.93 135.36 139.662C138.436 139.233 145.537 137.634 145.537 137.634C143.831 138.53 142.078 139.336 140.287 140.047C138.124 140.855 132.094 141.613 130.254 141.463C126.526 141.156 123.165 140.705 123.165 140.705Z" fill="black"/>
<path opacity="0.1" d="M120.2 120.941C120.2 120.941 125.807 122.434 129.268 122.128C131.324 121.944 136.257 121.247 137.684 120.946C140.727 120.3 143.374 117.825 143.374 117.825C143.374 117.825 141.195 122 138.882 122.925C136.742 123.778 130.756 124.597 128.928 124.413C125.227 124.084 120.2 120.941 120.2 120.941Z" fill="black"/>
<path d="M90.7434 91.0162C89.4838 92.2201 92.5548 116.153 94.7564 117.574C96.9579 118.995 161.823 109.771 163.116 109.331C164.409 108.891 160.825 83.96 159.772 82.5778C158.719 81.1955 93.3295 88.5471 90.7434 91.0162Z" fill="#263238"/>
<path opacity="0.1" d="M89.3443 97.5874C89.1771 101.205 89.9017 104.833 90.4144 108.411C91.061 111.878 91.4957 115.623 93.1232 118.767C93.5245 119.519 94.4441 119.369 95.1966 119.447C97.9049 119.462 100.612 119.33 103.306 119.051C121.236 117.229 139.534 114.665 157.409 112.173C139.552 115.742 121.521 118.377 103.39 120.066C100.652 120.324 97.9017 120.432 95.152 120.389C94.1766 120.333 92.8891 120.261 92.3652 119.23C90.6931 115.885 90.42 112.123 89.8459 108.489C89.5115 104.883 88.9096 101.205 89.322 97.5874H89.3443Z" fill="black"/>
<path opacity="0.4" d="M164.955 102.665C164.933 100.627 164.771 98.5939 164.471 96.5786C163.995 92.5404 163.265 88.5362 162.286 84.5898C162.039 83.6323 161.705 82.6995 161.288 81.803C161.076 81.385 160.809 80.967 160.541 80.9057C160.09 80.7949 159.629 80.7314 159.165 80.7162C151.033 80.666 142.934 81.7585 134.797 81.9814C140.83 80.8656 146.926 80.1211 153.05 79.752C155.108 79.6182 157.173 79.6182 159.231 79.752C159.875 79.772 160.509 79.9158 161.099 80.1756C161.532 80.493 161.868 80.9255 162.068 81.424C163.295 84.3111 163.679 87.41 164.158 90.4588C164.638 94.5108 165.206 98.6073 164.972 102.682L164.955 102.665Z" fill="white"/>
<path d="M107.169 95.8483C115.1 94.7336 116.755 110.668 109.398 111.711C102.18 112.731 100.519 96.7902 107.169 95.8483Z" fill="#FFC727"/>
<g opacity="0.3">
<path d="M107.369 96.9855C114.158 96.0268 115.574 109.676 109.287 110.563C103.094 111.438 101.679 97.788 107.369 96.9855Z" fill="white"/>
</g>
<path d="M148.056 91.0216C155.987 89.9069 157.643 105.847 150.286 106.884C143.068 107.904 141.413 91.9636 148.056 91.0216Z" fill="#FFC727"/>
<g opacity="0.3">
<path d="M148.263 92.1978C155.012 91.2447 156.428 104.816 150.169 105.697C144.015 106.566 142.605 93.006 148.263 92.1978Z" fill="white"/>
</g>
<path opacity="0.4" d="M133.136 25.0588C137.567 25.7054 141.937 30.5042 144.762 33.7703C153.953 45.146 159.716 59.2081 161.773 73.638C156.105 60.4789 150.626 47.2639 142.667 35.3421C141.364 33.3742 139.955 31.4783 138.447 29.6626C136.915 27.8958 135.326 26.0175 133.136 25.0588Z" fill="white"/>
<path d="M33.5363 111.482C37.7109 131.703 51.929 145.86 65.3056 143.101C78.6822 140.342 86.1173 121.715 81.9427 101.494C77.7681 81.2735 63.5499 67.1167 50.1734 69.8756C36.7968 72.6345 29.3672 91.2558 33.5363 111.482Z" fill="#FFC727"/>
<g opacity="0.2">
<path d="M33.5363 111.482C37.7109 131.703 51.929 145.86 65.3056 143.101C78.6822 140.342 86.1173 121.715 81.9427 101.494C77.7681 81.2735 63.5499 67.1167 50.1734 69.8756C36.7968 72.6345 29.3672 91.2558 33.5363 111.482Z" fill="black"/>
</g>
<path d="M36.4122 110.284C38.6863 122.384 47.002 130.973 54.9945 129.468C62.987 127.963 67.6242 116.95 65.3558 104.855C63.0873 92.7606 54.766 84.1661 46.7735 85.671C38.781 87.1759 34.1438 98.2004 36.4122 110.284Z" fill="#FFC727"/>
<g opacity="0.1">
<path d="M36.4122 110.284C38.6863 122.384 47.002 130.973 54.9945 129.468C62.987 127.963 67.6242 116.95 65.3558 104.855C63.0873 92.7608 54.766 84.1664 46.7735 85.6713C38.781 87.1761 34.1438 98.2006 36.4122 110.284Z" fill="black"/>
</g>
<path d="M61.326 125.617C60.4068 126.188 59.3903 126.585 58.3274 126.787C51.3716 128.119 44.0702 120.595 42.086 110.028C40.1018 99.46 44.1594 89.8233 51.143 88.508C53.4796 88.118 55.8782 88.5957 57.8871 89.8512C61.404 93.318 64.1796 98.6184 65.3501 104.855C66.9218 113.232 65.1884 121.08 61.326 125.617Z" fill="#FFC727"/>
<path opacity="0.1" d="M53.9076 74.9197C53.6435 75.3262 53.2621 75.6428 52.814 75.8276C52.3659 76.0124 51.8722 76.0566 51.3984 75.9545C50.9246 75.8523 50.493 75.6085 50.1608 75.2555C49.8287 74.9024 49.6117 74.4568 49.5387 73.9776C49.4656 73.4984 49.5399 73.0083 49.7517 72.5723C49.9635 72.1363 50.3028 71.775 50.7247 71.5362C51.1465 71.2975 51.631 71.1926 52.1138 71.2354C52.5966 71.2783 53.055 71.4669 53.4282 71.7762C53.8775 72.1517 54.1742 72.6784 54.2624 73.2573C54.3507 73.8361 54.2245 74.4273 53.9076 74.9197ZM53.9076 74.9197C54.0884 74.6286 54.1824 74.292 54.1786 73.9494C54.1747 73.6068 54.0732 73.2724 53.8859 72.9854C53.6986 72.6985 53.4333 72.471 53.1211 72.3297C52.809 72.1883 52.463 72.1389 52.1238 72.1874C51.7846 72.2359 51.4663 72.3801 51.2062 72.6032C50.9462 72.8263 50.7552 73.119 50.6557 73.4469C50.5562 73.7748 50.5524 74.1243 50.6446 74.4543C50.7369 74.7843 50.9214 75.0811 51.1765 75.3098C51.3735 75.4827 51.6056 75.6108 51.8567 75.6855C52.1079 75.7603 52.3723 75.7798 52.6317 75.7427C52.8912 75.7056 53.1395 75.6129 53.3597 75.4708C53.5799 75.3288 53.7668 75.1408 53.9076 74.9197Z" fill="black"/>
<path opacity="0.1" d="M66.476 79.9917C66.212 80.3982 65.8306 80.7148 65.3825 80.8996C64.9344 81.0844 64.4407 81.1287 63.9669 81.0265C63.493 80.9243 63.0615 80.6805 62.7293 80.3275C62.3972 79.9744 62.1802 79.5288 62.1072 79.0496C62.0341 78.5704 62.1084 78.0803 62.3202 77.6443C62.532 77.2083 62.8713 76.847 63.2932 76.6083C63.715 76.3695 64.1995 76.2646 64.6823 76.3075C65.1651 76.3503 65.6235 76.5389 65.9967 76.8482C66.447 77.223 66.7445 77.7498 66.8328 78.329C66.9211 78.9082 66.7942 79.4997 66.476 79.9917ZM66.476 79.9917C66.6569 79.7007 66.7509 79.3641 66.7471 79.0214C66.7432 78.6788 66.6417 78.3444 66.4544 78.0575C66.2671 77.7705 66.0018 77.543 65.6896 77.4017C65.3775 77.2603 65.0315 77.211 64.6923 77.2594C64.3531 77.3079 64.0348 77.4521 63.7747 77.6752C63.5147 77.8983 63.3237 78.191 63.2242 78.5189C63.1247 78.8468 63.1209 79.1963 63.2131 79.5263C63.3054 79.8563 63.4899 80.1531 63.745 80.3819C63.9424 80.5538 64.1745 80.6812 64.4255 80.7554C64.6766 80.8296 64.9406 80.8488 65.1998 80.8118C65.4589 80.7747 65.7071 80.6823 65.9273 80.5408C66.1475 80.3993 66.3347 80.212 66.476 79.9917Z" fill="black"/>
<path opacity="0.1" d="M75.4996 92.0361C75.2355 92.4426 74.8542 92.7593 74.4061 92.9441C73.958 93.1289 73.4643 93.1731 72.9904 93.0709C72.5166 92.9687 72.085 92.725 71.7529 92.3719C71.4208 92.0189 71.2038 91.5732 71.1307 91.094C71.0576 90.6148 71.1319 90.1248 71.3438 89.6888C71.5556 89.2528 71.8949 88.8915 72.3167 88.6527C72.7386 88.4139 73.223 88.309 73.7058 88.3519C74.1887 88.3947 74.6471 88.5833 75.0203 88.8926C75.4696 89.2682 75.7662 89.7949 75.8545 90.3737C75.9428 90.9526 75.8165 91.5438 75.4996 92.0361ZM75.4996 92.0361C75.6796 91.745 75.7729 91.4086 75.7686 91.0664C75.7642 90.7241 75.6624 90.3902 75.475 90.1037C75.2877 89.8173 75.0225 89.5902 74.7107 89.4491C74.3988 89.308 74.0532 89.2587 73.7144 89.307C73.3755 89.3553 73.0575 89.4992 72.7975 89.7219C72.5375 89.9445 72.3464 90.2366 72.2465 90.564C72.1467 90.8914 72.1422 91.2405 72.2337 91.5703C72.3251 91.9002 72.5088 92.1971 72.763 92.4263C72.96 92.6001 73.1925 92.7291 73.4442 92.8044C73.696 92.8797 73.9611 92.8994 74.2213 92.8624C74.4814 92.8253 74.7304 92.7322 74.9511 92.5896C75.1718 92.4469 75.3589 92.2581 75.4996 92.0361Z" fill="black"/>
<path opacity="0.1" d="M80.0644 108.194C79.8003 108.6 79.419 108.917 78.9709 109.102C78.5228 109.287 78.0291 109.331 77.5552 109.229C77.0814 109.126 76.6498 108.883 76.3177 108.53C75.9856 108.177 75.7686 107.731 75.6955 107.252C75.6225 106.773 75.6968 106.282 75.9086 105.846C76.1204 105.41 76.4597 105.049 76.8815 104.81C77.3034 104.572 77.7878 104.467 78.2707 104.51C78.7535 104.552 79.2119 104.741 79.5851 105.05C80.0344 105.426 80.331 105.953 80.4193 106.531C80.5076 107.11 80.3814 107.701 80.0644 108.194ZM80.0644 108.194C80.2445 107.902 80.3378 107.566 80.3332 107.223C80.3285 106.881 80.2263 106.546 80.0384 106.26C79.8505 105.973 79.5847 105.747 79.2724 105.606C78.96 105.465 78.614 105.417 78.2749 105.466C77.9358 105.515 77.6179 105.66 77.3583 105.883C77.0987 106.107 76.9083 106.4 76.8094 106.728C76.7105 107.056 76.7073 107.405 76.8001 107.735C76.8929 108.065 77.0779 108.361 77.3334 108.59C77.5311 108.761 77.7635 108.888 78.0148 108.962C78.2661 109.036 78.5303 109.055 78.7895 109.017C79.0486 108.979 79.2967 108.886 79.5167 108.744C79.7367 108.602 79.9235 108.415 80.0644 108.194Z" fill="black"/>
<path opacity="0.1" d="M73.1086 136.48C72.8445 136.886 72.4632 137.203 72.0151 137.388C71.567 137.572 71.0733 137.617 70.5994 137.515C70.1256 137.412 69.694 137.169 69.3619 136.816C69.0298 136.462 68.8128 136.017 68.7397 135.538C68.6667 135.058 68.7409 134.568 68.9528 134.132C69.1646 133.696 69.5039 133.335 69.9257 133.096C70.3476 132.858 70.832 132.753 71.3148 132.795C71.7977 132.838 72.2561 133.027 72.6293 133.336C73.0775 133.712 73.3734 134.239 73.4617 134.818C73.5499 135.396 73.4244 135.987 73.1086 136.48ZM73.1086 136.48C73.2886 136.189 73.3819 135.852 73.3776 135.51C73.3732 135.168 73.2714 134.834 73.084 134.547C72.8967 134.261 72.6315 134.034 72.3197 133.893C72.0079 133.752 71.6622 133.702 71.3234 133.751C70.9845 133.799 70.6665 133.943 70.4065 134.165C70.1465 134.388 69.9554 134.68 69.8555 135.008C69.7557 135.335 69.7512 135.684 69.8427 136.014C69.9342 136.344 70.1178 136.641 70.372 136.87C70.5691 137.044 70.8015 137.173 71.0533 137.248C71.305 137.323 71.5701 137.343 71.8303 137.306C72.0904 137.269 72.3394 137.176 72.5601 137.033C72.7808 136.891 72.9679 136.702 73.1086 136.48Z" fill="black"/>
<path opacity="0.1" d="M60.713 140.409C60.4489 140.816 60.0676 141.132 59.6194 141.317C59.1713 141.502 58.6776 141.546 58.2038 141.444C57.73 141.342 57.2984 141.098 56.9663 140.745C56.6341 140.392 56.4172 139.946 56.3441 139.467C56.271 138.988 56.3453 138.498 56.5571 138.062C56.7689 137.626 57.1083 137.264 57.5301 137.026C57.9519 136.787 58.4364 136.682 58.9192 136.725C59.402 136.768 59.8604 136.956 60.2336 137.266C60.6819 137.642 60.9778 138.169 61.066 138.747C61.1542 139.326 61.0287 139.916 60.713 140.409ZM60.713 140.409C60.8923 140.118 60.9848 139.781 60.9797 139.439C60.9746 139.097 60.872 138.763 60.6841 138.477C60.4961 138.191 60.2305 137.965 59.9184 137.824C59.6064 137.684 59.2607 137.635 58.922 137.684C58.5833 137.733 58.2656 137.878 58.006 138.101C57.7465 138.324 57.556 138.616 57.4567 138.944C57.3575 139.271 57.3537 139.62 57.4457 139.95C57.5377 140.28 57.7218 140.576 57.9763 140.805C58.1742 140.978 58.407 141.105 58.6589 141.18C58.9107 141.254 59.1756 141.273 59.4355 141.236C59.6954 141.198 59.9441 141.105 60.1646 140.962C60.3851 140.819 60.5721 140.631 60.713 140.409Z" fill="black"/>
<path opacity="0.1" d="M48.6518 134.111C48.4066 135.131 47.5705 135.922 46.6565 135.61C45.7424 135.298 45.0178 133.793 45.4024 132.428C45.787 131.062 46.9853 130.482 47.799 131.135C48.6128 131.787 48.9193 133.135 48.6518 134.111ZM48.6518 134.111C48.9528 133.035 48.3508 131.826 47.6541 131.692C46.9574 131.558 46.3778 132.127 46.205 132.846C46.0909 133.236 46.0856 133.65 46.1897 134.043C46.2938 134.436 46.5034 134.793 46.7958 135.075C47.3922 135.593 48.401 135.209 48.6518 134.111Z" fill="black"/>
<path opacity="0.1" d="M40.8321 125.377C40.6872 126.247 40.1744 126.916 39.6059 126.642C39.0374 126.369 38.5804 125.082 38.8089 123.923C39.0374 122.763 39.7731 122.251 40.2803 122.808C40.7875 123.365 40.9882 124.525 40.8321 125.377ZM40.8321 125.377C41.0104 124.469 40.6259 123.427 40.1967 123.309C39.7675 123.192 39.4108 123.666 39.3049 124.279C39.2376 124.605 39.2369 124.94 39.303 125.266C39.3692 125.592 39.5006 125.901 39.6895 126.174C40.0629 126.631 40.6816 126.314 40.8321 125.377Z" fill="black"/>
<path opacity="0.1" d="M36.5292 90.7264C36.3843 91.5959 35.8715 92.2647 35.3086 91.9916C34.7456 91.7185 34.2775 90.431 34.506 89.2717C34.7345 88.1124 35.4702 87.5996 35.9774 88.157C36.4846 88.7144 36.6852 89.8737 36.5292 90.7264ZM36.5292 90.7264C36.7075 89.8179 36.323 88.7757 35.8938 88.653C35.4646 88.5304 35.1079 89.0153 35.002 89.6284C34.9347 89.9539 34.934 90.2896 35.0001 90.6153C35.0662 90.941 35.1977 91.25 35.3866 91.5234C35.7656 91.9805 36.3843 91.6628 36.5292 90.7264Z" fill="black"/>
<path opacity="0.1" d="M42.5377 80.4543C42.2924 81.4743 41.4564 82.2658 40.5479 81.9536C39.6394 81.6415 38.8758 80.1367 39.2883 78.7711C39.7007 77.4056 40.8767 76.826 41.6849 77.4781C42.4931 78.1302 42.8108 79.4511 42.5377 80.4543ZM42.5377 80.4543C42.8386 79.3842 42.2367 78.1692 41.54 78.0354C40.8433 77.9016 40.2692 78.4702 40.0909 79.1891C39.9774 79.5798 39.973 79.994 40.0781 80.387C40.1833 80.78 40.3939 81.1367 40.6872 81.4186C41.2836 81.9369 42.2868 81.5523 42.5377 80.4543Z" fill="black"/>
<path opacity="0.1" d="M79.6575 123.293C79.3935 123.699 79.0121 124.016 78.564 124.201C78.1159 124.385 77.6222 124.43 77.1484 124.328C76.6746 124.225 76.243 123.982 75.9108 123.629C75.5787 123.275 75.3617 122.83 75.2887 122.351C75.2156 121.871 75.2899 121.381 75.5017 120.945C75.7135 120.509 76.0528 120.148 76.4747 119.909C76.8965 119.671 77.381 119.566 77.8638 119.608C78.3466 119.651 78.805 119.84 79.1782 120.149C79.6265 120.525 79.9224 121.052 80.0106 121.631C80.0988 122.209 79.9733 122.8 79.6575 123.293ZM79.6575 123.293C79.8376 123.002 79.9309 122.665 79.9265 122.323C79.9222 121.981 79.8204 121.647 79.633 121.36C79.4456 121.074 79.1805 120.847 78.8686 120.706C78.5568 120.565 78.2112 120.515 77.8723 120.564C77.5335 120.612 77.2154 120.756 76.9554 120.978C76.6955 121.201 76.5043 121.493 76.4045 121.821C76.3046 122.148 76.3002 122.497 76.3916 122.827C76.4831 123.157 76.6667 123.454 76.9209 123.683C77.118 123.857 77.3504 123.986 77.6022 124.061C77.854 124.136 78.1191 124.156 78.3792 124.119C78.6394 124.082 78.8884 123.989 79.1091 123.846C79.3298 123.704 79.5169 123.515 79.6575 123.293Z" fill="black"/>
<path opacity="0.1" d="M35.7657 116.839C39.2437 122.513 42.6658 128.855 48.4512 132.272C52.6314 134.668 58.1715 134.836 61.9392 131.542C63.2668 130.471 64.426 129.206 65.3781 127.791C64.5016 130.35 62.8496 132.573 60.6517 134.15C56.7502 136.898 51.3717 136.485 47.3588 134.211C41.1219 130.511 37.7555 123.516 35.7657 116.839Z" fill="black"/>
</svg>
