<svg width="562" height="585" viewBox="0 0 562 585" fill="none" xmlns="http://www.w3.org/2000/svg">
<path d="M396.981 0.0366211H394.759V125.888H396.981V0.0366211Z" fill="#EBEBEB"/>
<path d="M402.028 115.397H389.699V124.248H402.028V115.397Z" fill="#DBDBDB"/>
<path d="M402.028 118.343H389.699V124.248H402.028V118.343Z" fill="#C7C7C7"/>
<path d="M398.034 192.623C403.137 191.348 406.3 185.923 405.099 180.505C403.899 175.087 398.789 171.728 393.687 173.003C388.584 174.278 385.421 179.703 386.621 185.121C387.822 190.539 392.932 193.897 398.034 192.623Z" fill="#EBEBEB"/>
<path d="M426.761 182.821H364.979L376.165 161.773L385.292 122.675H406.447L415.574 161.773L426.761 182.821Z" fill="#DBDBDB"/>
<path d="M282.105 0.0366211H279.883V105.186H282.105V0.0366211Z" fill="#EBEBEB"/>
<path d="M287.164 94.6952H274.836V103.546H287.164V94.6952Z" fill="#DBDBDB"/>
<path d="M287.164 97.6403H274.836V103.546H287.164V97.6403Z" fill="#C7C7C7"/>
<path d="M290.491 162.119C290.484 164.111 289.921 166.055 288.873 167.707C287.826 169.359 286.341 170.645 284.606 171.401C282.871 172.158 280.964 172.352 279.125 171.959C277.287 171.565 275.599 170.602 274.275 169.191C272.952 167.78 272.051 165.985 271.688 164.031C271.325 162.077 271.515 160.053 272.235 158.214C272.954 156.375 274.171 154.803 275.731 153.697C277.291 152.592 279.124 152.002 281 152.002C282.25 152 283.488 152.261 284.643 152.769C285.798 153.277 286.846 154.023 287.728 154.964C288.611 155.904 289.309 157.02 289.783 158.248C290.257 159.477 290.498 160.792 290.491 162.119Z" fill="#EBEBEB"/>
<path d="M311.885 162.119H250.115L261.302 141.071L270.429 101.973H291.571L300.698 141.071L311.885 162.119Z" fill="#DBDBDB"/>
<path d="M171.925 0.0366211H169.703V83.5641H171.925V0.0366211Z" fill="#EBEBEB"/>
<path d="M176.971 73.0731H164.643V81.9244H176.971V73.0731Z" fill="#DBDBDB"/>
<path d="M176.971 76.0194H164.643V81.9247H176.971V76.0194Z" fill="#C7C7C7"/>
<path d="M180.298 140.497C180.298 142.491 179.742 144.439 178.699 146.096C177.656 147.754 176.174 149.045 174.439 149.808C172.705 150.571 170.797 150.77 168.955 150.382C167.114 149.993 165.423 149.033 164.096 147.623C162.768 146.214 161.864 144.418 161.498 142.464C161.132 140.509 161.32 138.482 162.038 136.641C162.757 134.799 163.973 133.226 165.534 132.118C167.095 131.011 168.93 130.42 170.807 130.42C173.324 130.42 175.739 131.482 177.519 133.371C179.298 135.261 180.298 137.825 180.298 140.497Z" fill="#EBEBEB"/>
<path d="M201.704 140.498H139.922L151.109 119.436L160.236 80.3514H181.391L190.518 119.436L201.704 140.498Z" fill="#DBDBDB"/>
<path d="M519.829 446.254C502.101 471.729 483.633 501.255 479.126 533.248C479.126 533.741 479.804 533.901 479.917 533.421C481.951 524.703 484.57 516.149 487.751 507.827C499.402 504.428 510.827 501.628 516.954 489.351C523.231 476.741 522.39 460.278 521.21 446.534C521.122 445.801 520.18 445.761 519.829 446.254Z" fill="#EBEBEB"/>
<path d="M487.927 507.587C495.887 488.631 506.106 469.582 519.088 453.986C519.176 453.879 519.314 453.986 519.239 454.146C510.726 465.25 504.273 477.341 497.958 489.658C503.821 483.326 510.249 477.661 515.811 470.995C515.924 470.862 516.087 471.062 515.987 471.182C510.475 478.22 504.436 485.845 497.255 491.058C495.322 494.843 493.388 498.629 491.417 502.415C491.894 502.122 492.396 501.868 492.886 501.615C492.974 501.615 493.049 501.708 492.961 501.748C492.422 502.042 491.869 502.348 491.304 502.615C490.375 504.401 489.446 506.201 488.492 507.947C488.279 508.347 487.751 507.987 487.927 507.587Z" fill="#A6A6A6"/>
<path d="M493.84 500.975C498.606 498.142 503.156 494.92 507.45 491.337C507.563 491.23 507.726 491.404 507.613 491.51C503.455 495.321 498.902 498.617 494.041 501.335C493.815 501.455 493.627 501.108 493.84 500.975Z" fill="#A6A6A6"/>
<path d="M477.08 528.502C477.08 528.888 477.733 528.888 477.733 528.502C477.821 517.971 477.733 507.4 477.883 496.842C480.394 491.39 485.881 488.391 489.66 484.032C492.386 480.848 494.758 477.341 496.728 473.581C501.3 464.599 504.09 454.718 504.926 444.548C505.981 433.297 501.951 396.159 497.481 397.439C495.171 398.118 487.676 416.514 485.68 422.593C482.458 432.624 480.097 442.943 478.624 453.426C475.008 478.153 475.31 503.587 477.08 528.502Z" fill="#EBEBEB"/>
<path d="M477.005 483.112C477.545 469.782 480.369 456.358 483.018 443.441C485.868 429.524 489.195 416.434 495.937 404.023C495.962 403.976 496.004 403.94 496.053 403.925C496.103 403.91 496.156 403.917 496.201 403.943C496.246 403.97 496.279 404.014 496.293 404.067C496.307 404.119 496.301 404.176 496.276 404.223C491.777 413.873 488.295 424.021 485.893 434.483C486.345 433.737 486.898 433.03 487.362 432.31C487.551 432.03 487.977 432.31 487.802 432.59C487.196 433.713 486.489 434.77 485.693 435.749C485.693 435.749 485.63 435.749 485.605 435.749C483.282 445.694 481.612 455.865 480.194 466.009L480.507 465.609C480.525 465.597 480.545 465.592 480.565 465.592C480.586 465.593 480.606 465.601 480.622 465.614C480.638 465.627 480.651 465.645 480.657 465.665C480.664 465.686 480.664 465.708 480.658 465.729C480.482 466.076 480.281 466.409 480.093 466.742C479.365 471.888 478.7 477.033 478.034 482.125C486.672 474.287 494.041 465.049 498.197 453.665C498.197 453.665 498.297 453.665 498.285 453.665C494.205 465.476 487.789 475.967 477.896 483.125C477.72 484.458 477.532 485.871 477.356 487.244C477.356 487.524 476.892 487.444 476.892 487.178C476.892 485.965 476.892 484.738 476.992 483.525C476.966 483.498 476.945 483.465 476.932 483.429C476.918 483.393 476.911 483.354 476.913 483.316C476.914 483.277 476.923 483.239 476.938 483.203C476.954 483.168 476.977 483.137 477.005 483.112Z" fill="#A6A6A6"/>
<path d="M481.072 463.823C487.676 453.359 493.84 443.201 498.649 431.644C498.649 431.524 498.913 431.644 498.862 431.751C494.795 443.228 489.095 454.865 481.386 464.09C481.248 464.277 480.947 464.037 481.072 463.823Z" fill="#A6A6A6"/>
<path d="M489.848 429.071C492.585 423.926 495.46 418.927 498.034 413.702C498.109 413.555 498.298 413.702 498.247 413.822C496.132 419.267 493.459 424.448 490.275 429.271C490.087 429.591 489.685 429.365 489.848 429.071Z" fill="#A6A6A6"/>
<path d="M488.78 431.297V431.388C488.78 431.388 488.731 431.297 488.78 431.297Z" fill="#A6A6A6"/>
<path d="M470.375 498.069C470.243 505.046 469.469 511.993 468.065 518.811C468.178 519.557 468.279 520.304 468.379 521.077C470.389 513.545 471.548 505.785 471.832 497.962C471.891 497.855 471.923 497.733 471.923 497.609C471.923 497.485 471.891 497.363 471.832 497.256C472.121 486.766 471.389 476.273 469.647 465.943C466.584 446.614 459.88 428.045 447.174 413.555C447.068 413.461 446.944 413.393 446.81 413.358C446.676 413.322 446.537 413.318 446.402 413.348C446.266 413.377 446.139 413.439 446.029 413.528C445.92 413.617 445.83 413.731 445.768 413.862C440.646 427.698 442.429 444.215 446.798 458.011C449.163 465.489 452.546 472.558 456.841 478.993C461.286 485.472 466.81 490.964 470.375 498.069Z" fill="#EBEBEB"/>
<path d="M448.731 420.007C460.759 440.749 469.145 465.33 470.162 489.844C470.162 490.284 469.497 490.391 469.434 489.951C469.158 487.751 468.831 485.565 468.505 483.393C463.483 478.327 458.461 472.982 454.845 466.65C454.838 466.625 454.838 466.599 454.845 466.575C454.853 466.55 454.867 466.529 454.887 466.514C454.907 466.499 454.93 466.491 454.954 466.492C454.979 466.492 455.002 466.501 455.021 466.516C459.353 471.769 463.395 477.181 468.292 481.846C467.425 476.421 466.408 471.089 465.191 465.85L464.236 464.663C464.036 464.41 464.387 464.024 464.6 464.29L464.889 464.623C463.196 457.428 461.1 450.346 458.612 443.415C455.549 439.523 452.121 436.177 449.886 431.498C449.824 431.378 449.974 431.298 450.05 431.404C451.845 434.071 453.577 436.737 455.611 439.243C456.427 440.229 457.319 441.162 458.122 442.122C455.342 434.607 452.048 427.318 448.267 420.314C448.24 420.249 448.236 420.176 448.256 420.109C448.275 420.041 448.317 419.983 448.374 419.946C448.43 419.909 448.497 419.894 448.563 419.906C448.629 419.917 448.689 419.953 448.731 420.007Z" fill="#A6A6A6"/>
<path d="M451.154 445.601C455.046 451.16 459.491 456.465 463.106 462.211C463.207 462.371 462.981 462.544 462.855 462.411C458.197 457.785 454.268 451.466 450.903 445.761C450.79 445.574 451.041 445.428 451.154 445.601Z" fill="#A6A6A6"/>
<path d="M463.646 463.49L463.809 463.663C463.921 463.796 463.746 463.982 463.633 463.862L463.47 463.676C463.452 463.65 463.444 463.619 463.446 463.587C463.448 463.555 463.461 463.525 463.482 463.502C463.503 463.479 463.532 463.466 463.562 463.463C463.592 463.461 463.622 463.471 463.646 463.49Z" fill="#A6A6A6"/>
<path d="M429.861 459.931C430.828 470.595 436.139 483.352 442.567 491.577C445.403 495.154 448.915 498.06 452.874 500.108C457.331 502.455 462.001 505.161 466.684 507.08C468.877 513.011 470.505 519.16 471.543 525.436L471.995 523.81C469.032 496.789 452.56 473.701 431.506 458.878C431.342 458.743 431.143 458.663 430.935 458.651C430.728 458.638 430.522 458.692 430.344 458.806C430.166 458.92 430.024 459.088 429.938 459.289C429.852 459.49 429.825 459.714 429.861 459.931Z" fill="#EBEBEB"/>
<path d="M437.143 467.929C436.993 467.796 437.143 467.516 437.357 467.636C448.929 476.778 458.158 488.854 464.199 502.761C464.35 503.135 463.872 503.455 463.672 503.081C462.692 501.304 461.696 499.527 460.683 497.749C455.875 496.789 451.318 493.204 447.752 489.751C447.652 489.658 447.752 489.511 447.89 489.591C449.733 491.371 451.778 492.898 453.979 494.137C455.938 495.19 458.047 495.856 460.081 496.71C458.298 493.697 456.453 490.818 454.507 488.031C449.317 485.925 444.449 483.019 440.056 479.407C439.918 479.3 440.056 479.06 440.194 479.154C444.539 481.95 449.024 484.496 453.628 486.778C450.696 482.667 447.53 478.75 444.149 475.048C442.504 474.128 440.847 473.208 439.265 472.222C439.243 472.201 439.229 472.173 439.223 472.142C439.217 472.111 439.221 472.079 439.234 472.051C439.246 472.023 439.267 471.999 439.293 471.984C439.319 471.97 439.349 471.964 439.378 471.969C440.703 472.454 441.967 473.107 443.145 473.915C441.199 471.849 439.19 469.836 437.143 467.929Z" fill="#A6A6A6"/>
<path d="M437.595 477.261C437.878 477.442 438.147 477.647 438.399 477.874C438.412 477.89 438.419 477.91 438.42 477.931C438.42 477.952 438.414 477.972 438.403 477.989C438.391 478.006 438.375 478.018 438.356 478.024C438.337 478.03 438.317 478.028 438.298 478.02C438.007 477.873 437.726 477.703 437.457 477.514C437.428 477.493 437.407 477.461 437.399 477.425C437.391 477.389 437.397 477.351 437.414 477.319C437.432 477.286 437.461 477.262 437.494 477.252C437.528 477.241 437.564 477.244 437.595 477.261Z" fill="#A6A6A6"/>
<path d="M504.801 583.902H447.087L451.745 528.089L452.762 515.785H499.126L500.143 528.089L504.801 583.902Z" fill="#C7C7C7"/>
<path d="M500.143 528.089H451.744L452.761 515.785H499.126L500.143 528.089Z" fill="#A6A6A6"/>
<path d="M501.888 507.173H450.012V519.357H501.888V507.173Z" fill="#C7C7C7"/>
<path d="M217.398 421.712H58.4045V306.219H217.398V421.712ZM59.66 420.379H216.142V307.552H59.66V420.379Z" fill="#EBEBEB"/>
<path d="M70.8337 313.658C70.8337 314.322 70.6482 314.972 70.3005 315.524C69.9529 316.077 69.4588 316.507 68.8807 316.762C68.3026 317.016 67.6664 317.082 67.0527 316.953C66.439 316.823 65.8752 316.503 65.4328 316.033C64.9903 315.564 64.689 314.965 64.5669 314.313C64.4449 313.662 64.5075 312.986 64.747 312.373C64.9864 311.759 65.3919 311.234 65.9122 310.865C66.4325 310.496 67.0442 310.299 67.6699 310.299C68.509 310.299 69.3137 310.653 69.9071 311.283C70.5004 311.913 70.8337 312.767 70.8337 313.658Z" fill="#A6A6A6"/>
<path d="M83.7527 313.658C83.7527 314.322 83.5672 314.972 83.2195 315.524C82.8719 316.077 82.3778 316.507 81.7997 316.762C81.2216 317.016 80.5854 317.082 79.9717 316.953C79.358 316.823 78.7943 316.503 78.3518 316.033C77.9093 315.564 77.608 314.965 77.4859 314.313C77.3639 313.662 77.4265 312.986 77.666 312.373C77.9054 311.759 78.3109 311.234 78.8312 310.865C79.3515 310.496 79.9632 310.299 80.5889 310.299C81.428 310.299 82.2327 310.653 82.8261 311.283C83.4194 311.913 83.7527 312.767 83.7527 313.658Z" fill="#EBEBEB"/>
<path d="M96.6715 313.658C96.6715 314.322 96.486 314.972 96.1384 315.524C95.7907 316.077 95.2966 316.507 94.7185 316.762C94.1404 317.016 93.5042 317.082 92.8905 316.953C92.2768 316.823 91.7131 316.503 91.2706 316.033C90.8282 315.564 90.5268 314.965 90.4048 314.313C90.2827 313.662 90.3453 312.986 90.5848 312.373C90.8243 311.759 91.2298 311.234 91.75 310.865C92.2703 310.496 92.882 310.299 93.5078 310.299C93.9237 310.297 94.3358 310.383 94.7204 310.551C95.105 310.719 95.4545 310.967 95.7486 311.279C96.0427 311.591 96.2757 311.962 96.4341 312.37C96.5925 312.779 96.6732 313.216 96.6715 313.658Z" fill="#FFC727"/>
<path d="M216.77 319.577H59.0324V320.91H216.77V319.577Z" fill="#EBEBEB"/>
<path d="M455.875 364.553C453.387 366.201 450.666 367.412 447.815 368.139C440.983 369.912 433.774 368.886 427.623 365.264C421.473 361.643 416.835 355.692 414.635 348.6C412.434 341.508 412.832 333.796 415.75 327.002C418.668 320.208 423.891 314.832 430.378 311.947C436.864 309.061 444.136 308.878 450.744 311.434C457.352 313.99 462.809 319.097 466.027 325.737C469.245 332.376 469.987 340.059 468.106 347.254C466.224 354.449 461.857 360.626 455.875 364.553Z" fill="#EBEBEB"/>
<path d="M449.686 335.959C449.686 337.744 449.187 339.489 448.253 340.973C447.319 342.457 445.992 343.614 444.439 344.297C442.886 344.98 441.177 345.159 439.528 344.811C437.879 344.462 436.365 343.603 435.176 342.341C433.987 341.079 433.178 339.471 432.85 337.72C432.522 335.969 432.69 334.155 433.333 332.506C433.977 330.857 435.066 329.447 436.464 328.456C437.862 327.464 439.505 326.935 441.186 326.935C443.439 326.938 445.599 327.89 447.192 329.582C448.786 331.274 449.682 333.567 449.686 335.959Z" fill="white"/>
<path d="M455.875 360.833V364.553C453.387 366.2 450.666 367.411 447.815 368.138C444.211 369.083 440.466 369.251 436.8 368.632C433.134 368.014 429.623 366.623 426.472 364.539V360.833C426.472 356.697 428.019 352.73 430.774 349.805C433.529 346.88 437.265 345.237 441.161 345.237C445.057 345.237 448.793 346.88 451.548 349.805C454.302 352.73 455.85 356.697 455.85 360.833H455.875Z" fill="white"/>
<path d="M0 584.302L70.2563 583.982L140.5 583.862L281 583.636L421.5 583.862L491.756 583.982L562 584.302L491.756 584.636L421.5 584.742L281 584.969L140.5 584.742L70.2563 584.636L0 584.302Z" fill="#263238"/>
<path d="M220.775 570.226H60.8279V584.289H220.775V570.226Z" fill="#455A64"/>
<path d="M525.315 570.226H220.763V584.289H525.315V570.226Z" fill="#37474F"/>
<path d="M365.406 570.226H60.8277L19.3092 362.847H323.887L365.406 570.226Z" fill="#263238"/>
<path d="M157.022 557.123H70.5324L34.2618 375.938H120.751L157.022 557.123Z" fill="white"/>
<path d="M68.7252 443.935C68.1208 444.394 67.4387 444.724 66.7164 444.908C64.6724 445.408 62.5255 445.06 60.7153 443.935C58.7907 442.821 57.2513 441.084 56.3211 438.976C54.463 434.63 56.0826 430.258 59.962 429.205C63.8414 428.152 68.4866 430.805 70.3573 435.137C71.8639 438.683 71.098 442.202 68.7252 443.935Z" fill="#C7C7C7"/>
<path d="M65.4735 436.191C65.5465 436.481 65.5542 436.786 65.4959 437.081C65.4375 437.375 65.3148 437.651 65.1376 437.886C64.9605 438.12 64.7338 438.308 64.4759 438.432C64.2181 438.557 63.9362 438.616 63.653 438.603C62.9959 438.578 62.3648 438.324 61.8567 437.881C61.3486 437.438 60.9917 436.83 60.8408 436.151C60.7611 435.857 60.7482 435.547 60.8033 435.247C60.8583 434.946 60.9797 434.664 61.1574 434.424C61.3351 434.183 61.5641 433.99 61.8255 433.862C62.0869 433.733 62.3734 433.673 62.6612 433.684C63.3239 433.717 63.9581 433.98 64.4663 434.433C64.9744 434.886 65.3283 435.503 65.4735 436.191Z" fill="white"/>
<path d="M68.5239 442.975L68.7248 443.988C68.1204 444.447 67.4383 444.777 66.716 444.961C64.672 445.462 62.5251 445.113 60.7149 443.988L60.514 442.975C60.3761 442.467 60.354 441.932 60.4495 441.413C60.545 440.894 60.7554 440.407 61.0633 439.991C61.3711 439.576 61.7676 439.244 62.2201 439.024C62.6725 438.803 63.1678 438.7 63.6652 438.723C64.7999 438.776 65.8875 439.22 66.7639 439.987C67.6404 440.754 68.2581 441.803 68.5239 442.975Z" fill="white"/>
<path d="M110.093 432.192H75.404L74.7638 429.019H109.452L110.093 432.192Z" fill="#C7C7C7"/>
<path d="M123.966 438.016H76.5715L76.1949 436.19H123.602L123.966 438.016Z" fill="#C7C7C7"/>
<path d="M124.756 441.962H77.3497L76.9857 440.136H124.38L124.756 441.962Z" fill="#C7C7C7"/>
<path d="M73.8471 469.262C73.2458 469.718 72.5684 470.049 71.8509 470.236C69.8027 470.737 67.6517 470.389 65.8371 469.262C63.9134 468.151 62.3772 466.413 61.4555 464.304C59.5849 459.958 61.2044 455.586 65.0839 454.533C68.9633 453.479 73.6085 456.132 75.4792 460.465C76.923 463.93 76.1571 467.49 73.8471 469.262Z" fill="#FFC727"/>
<path d="M70.5327 461.478C70.6129 461.771 70.6261 462.08 70.5711 462.38C70.5161 462.68 70.3945 462.961 70.2165 463.201C70.0385 463.441 69.8092 463.632 69.5475 463.759C69.2859 463.886 68.9996 463.945 68.7123 463.931C68.0558 463.903 67.4257 463.649 66.918 463.206C66.4103 462.763 66.0528 462.156 65.9 461.478C65.8203 461.184 65.8075 460.874 65.8625 460.574C65.9176 460.274 66.0389 459.992 66.2166 459.751C66.3943 459.51 66.6233 459.318 66.8848 459.189C67.1462 459.061 67.4326 459 67.7205 459.012C68.3781 459.042 69.0084 459.299 69.5159 459.744C70.0234 460.189 70.3804 460.798 70.5327 461.478Z" fill="white"/>
<path d="M73.5833 468.263L73.8469 469.263C73.2457 469.719 72.5682 470.049 71.8507 470.236C69.8026 470.737 67.6516 470.389 65.837 469.263L65.6361 468.25C65.4983 467.742 65.4762 467.207 65.5717 466.688C65.6672 466.169 65.8776 465.682 66.1854 465.266C66.4933 464.851 66.8898 464.519 67.3422 464.299C67.7946 464.078 68.29 463.975 68.7874 463.998C69.9128 464.066 70.9874 464.518 71.8515 465.286C72.7155 466.055 73.3229 467.099 73.5833 468.263Z" fill="white"/>
<path d="M115.152 457.492H80.4633L79.823 454.306H114.524L115.152 457.492Z" fill="#C7C7C7"/>
<path d="M129.025 463.304H81.6308L81.2667 461.478H128.661L129.025 463.304Z" fill="#C7C7C7"/>
<path d="M129.816 467.249H82.422L82.0453 465.423H129.452L129.816 467.249Z" fill="#C7C7C7"/>
<path d="M78.869 494.59C78.2677 495.046 77.5903 495.377 76.8728 495.564C74.8167 496.072 72.6554 495.723 70.8339 494.59C68.9102 493.479 67.374 491.741 66.4523 489.632C64.5817 485.299 66.2138 480.914 70.0806 479.861C73.9475 478.807 78.6179 481.46 80.4885 485.792C81.9825 489.258 81.2167 492.778 78.869 494.59Z" fill="#455A64"/>
<path d="M75.5919 486.765C75.6795 487.061 75.6983 487.375 75.6468 487.68C75.5953 487.985 75.4749 488.272 75.296 488.517C75.1171 488.762 74.885 488.958 74.6195 489.087C74.354 489.216 74.063 489.274 73.7715 489.258C73.1149 489.231 72.4849 488.976 71.9772 488.533C71.4695 488.091 71.112 487.484 70.9592 486.805C70.8791 486.51 70.8664 486.199 70.9221 485.898C70.9778 485.596 71.1003 485.314 71.2794 485.072C71.4586 484.831 71.6892 484.639 71.9523 484.512C72.2154 484.384 72.5033 484.325 72.7922 484.339C73.4432 484.368 74.0678 484.62 74.5726 485.057C75.0774 485.494 75.435 486.094 75.5919 486.765Z" fill="white"/>
<path d="M78.643 493.551L78.869 494.59C78.2677 495.046 77.5903 495.376 76.8728 495.563C74.8167 496.072 72.6554 495.723 70.8339 494.59L70.6331 493.577C70.4838 493.06 70.4549 492.511 70.5491 491.979C70.6432 491.447 70.8575 490.948 71.1735 490.523C71.4896 490.098 71.898 489.761 72.3636 489.541C72.8293 489.321 73.3383 489.224 73.8471 489.258C74.9764 489.326 76.0546 489.781 76.9195 490.555C77.7843 491.329 78.3892 492.38 78.643 493.551Z" fill="white"/>
<path d="M120.224 482.78H85.5228L84.8951 479.594H119.584L120.224 482.78Z" fill="#C7C7C7"/>
<path d="M134.085 488.591H86.6907L86.3266 486.765H133.721L134.085 488.591Z" fill="#C7C7C7"/>
<path d="M134.876 492.537H87.4815L87.1174 490.711H134.512L134.876 492.537Z" fill="#C7C7C7"/>
<path d="M83.8909 519.918C83.2889 520.376 82.612 520.71 81.8947 520.904C79.8447 521.393 77.6964 521.041 75.881 519.918C73.9627 518.799 72.4284 517.063 71.4994 514.959C69.6413 510.587 71.3361 506.175 75.1026 505.121C78.869 504.068 83.6272 506.721 85.4979 511.053C87.0421 514.586 86.2888 518.065 83.8909 519.918Z" fill="#263238"/>
<path d="M80.6645 512.054C80.7526 512.349 80.7729 512.663 80.7237 512.969C80.6744 513.275 80.5571 513.563 80.3814 513.811C80.2058 514.059 79.9769 514.259 79.7138 514.393C79.4508 514.528 79.1611 514.594 78.8691 514.586C78.2115 514.556 77.5812 514.299 77.0737 513.854C76.5662 513.409 76.2092 512.8 76.0569 512.12C75.9797 511.825 75.9691 511.515 76.0259 511.215C76.0828 510.915 76.2055 510.634 76.384 510.393C76.5626 510.153 76.792 509.961 77.0537 509.833C77.3153 509.704 77.6018 509.643 77.8899 509.654C78.5326 509.689 79.1481 509.94 79.647 510.372C80.146 510.803 80.5024 511.392 80.6645 512.054Z" fill="white"/>
<path d="M83.7025 518.838L83.8909 519.918C83.2889 520.375 82.612 520.71 81.8947 520.904C79.8447 521.393 77.6964 521.041 75.8809 519.918L75.6801 518.905C75.5317 518.389 75.5027 517.844 75.5956 517.314C75.6885 516.784 75.9005 516.286 76.2136 515.862C76.5267 515.438 76.9316 515.1 77.3939 514.878C77.8563 514.656 78.3623 514.556 78.869 514.586C80.0005 514.64 81.0844 515.085 81.9566 515.852C82.8288 516.619 83.4417 517.668 83.7025 518.838Z" fill="white"/>
<path d="M125.284 508.067H90.5825L89.9548 504.881H124.643L125.284 508.067Z" fill="#C7C7C7"/>
<path d="M139.144 513.879H91.75L91.3859 512.053H138.78L139.144 513.879Z" fill="#C7C7C7"/>
<path d="M139.935 517.825H92.5412L92.1771 515.999H139.571L139.935 517.825Z" fill="#C7C7C7"/>
<path d="M88.9759 545.138C88.3694 545.596 87.6883 545.931 86.9671 546.125C84.9212 546.614 82.7767 546.262 80.9659 545.138C79.0414 544.024 77.5019 542.287 76.5718 540.18C74.7137 535.847 76.3332 531.462 80.2127 530.408C84.0921 529.355 88.7373 532.008 90.608 536.354C92.1145 539.913 91.3487 543.352 88.9759 545.138Z" fill="#C7C7C7"/>
<path d="M85.7241 537.341C85.8042 537.636 85.817 537.947 85.7613 538.248C85.7056 538.549 85.5831 538.832 85.4039 539.073C85.2248 539.314 84.9941 539.507 84.731 539.634C84.468 539.762 84.18 539.821 83.8912 539.807C83.2352 539.776 82.6066 539.518 82.1013 539.073C81.5959 538.628 81.2413 538.019 81.0914 537.341C81.0118 537.047 80.9989 536.737 81.054 536.437C81.109 536.136 81.2304 535.854 81.4081 535.614C81.5858 535.373 81.8148 535.18 82.0762 535.052C82.3376 534.923 82.624 534.863 82.9119 534.874C83.5695 534.905 84.1998 535.162 84.7073 535.607C85.2148 536.052 85.5718 536.661 85.7241 537.341Z" fill="white"/>
<path d="M88.7746 544.126L88.9755 545.139C88.369 545.596 87.688 545.931 86.9668 546.125C84.9209 546.615 82.7763 546.262 80.9656 545.139L80.7522 544.126C80.6246 543.622 80.61 543.093 80.7093 542.582C80.8086 542.07 81.0192 541.591 81.3242 541.182C81.6292 540.772 82.0201 540.444 82.4658 540.224C82.9115 540.004 83.3995 539.897 83.8909 539.913C85.0243 539.961 86.1128 540.397 86.9933 541.156C87.8737 541.916 88.4987 542.957 88.7746 544.126Z" fill="white"/>
<path d="M130.343 533.355H95.6547L95.0144 530.169H129.716L130.343 533.355Z" fill="#C7C7C7"/>
<path d="M144.216 539.167H96.8224L96.4457 537.341H143.84L144.216 539.167Z" fill="#C7C7C7"/>
<path d="M145.007 543.112H97.6004L97.2363 541.286H144.63L145.007 543.112Z" fill="#C7C7C7"/>
<path d="M55.7057 400.852C55.3264 401.137 54.9007 401.345 54.4502 401.465C53.1671 401.78 51.8191 401.561 50.6838 400.852C49.4891 400.161 48.5343 399.082 47.9594 397.773C46.7918 395.107 47.8087 392.347 50.2192 391.681C51.5337 391.443 52.8854 391.678 54.0593 392.35C55.2332 393.021 56.1618 394.09 56.6975 395.387C57.1656 396.276 57.3228 397.312 57.1413 398.312C56.9598 399.312 56.4513 400.211 55.7057 400.852Z" fill="#C7C7C7"/>
<path d="M53.6717 395.946C53.7215 396.129 53.7298 396.321 53.6959 396.508C53.6619 396.695 53.5866 396.87 53.4763 397.02C53.3659 397.169 53.2236 397.289 53.0612 397.369C52.8987 397.449 52.7206 397.487 52.5417 397.479C52.133 397.461 51.741 397.302 51.4258 397.025C51.1106 396.748 50.8896 396.369 50.7966 395.946C50.7467 395.764 50.7384 395.571 50.7724 395.384C50.8064 395.198 50.8816 395.022 50.992 394.873C51.1024 394.723 51.2446 394.603 51.4071 394.523C51.5696 394.443 51.7476 394.406 51.9265 394.413C52.3347 394.433 52.7256 394.593 53.0404 394.87C53.3552 395.147 53.5768 395.524 53.6717 395.946Z" fill="white"/>
<path d="M55.5676 400.225L55.7057 400.851C55.3264 401.136 54.9008 401.344 54.4502 401.464C53.1671 401.779 51.8192 401.56 50.6838 400.851L50.5583 400.225C50.4727 399.907 50.4594 399.572 50.5193 399.247C50.5793 398.923 50.7108 398.618 50.9031 398.358C51.0955 398.098 51.3431 397.89 51.6258 397.751C51.9085 397.612 52.2181 397.546 52.5294 397.559C53.2408 397.589 53.9234 397.866 54.4723 398.347C55.0212 398.829 55.406 399.488 55.5676 400.225Z" fill="white"/>
<path d="M115.089 397.679C115.075 397.629 115.072 397.576 115.081 397.525C115.091 397.473 115.112 397.425 115.143 397.384C115.174 397.343 115.214 397.311 115.259 397.29C115.305 397.27 115.354 397.261 115.403 397.266C115.516 397.27 115.624 397.313 115.712 397.387C115.8 397.462 115.864 397.564 115.893 397.679C115.905 397.731 115.905 397.785 115.894 397.837C115.883 397.888 115.86 397.937 115.829 397.978C115.797 398.019 115.757 398.052 115.712 398.074C115.666 398.096 115.617 398.107 115.567 398.106C115.453 398.102 115.345 398.058 115.258 397.981C115.172 397.903 115.112 397.797 115.089 397.679Z" fill="#C7C7C7"/>
<path d="M114.75 395.946C114.736 395.895 114.734 395.842 114.743 395.79C114.753 395.738 114.774 395.689 114.804 395.647C114.835 395.606 114.875 395.572 114.92 395.55C114.965 395.528 115.015 395.518 115.064 395.52C115.179 395.523 115.29 395.566 115.378 395.644C115.467 395.721 115.529 395.827 115.554 395.946C115.568 395.997 115.57 396.051 115.561 396.103C115.552 396.155 115.531 396.203 115.5 396.245C115.469 396.287 115.43 396.32 115.385 396.342C115.339 396.364 115.29 396.375 115.24 396.373C115.125 396.37 115.015 396.326 114.926 396.249C114.837 396.172 114.776 396.065 114.75 395.946Z" fill="#C7C7C7"/>
<path d="M114.411 394.32C114.397 394.269 114.395 394.216 114.404 394.164C114.414 394.112 114.435 394.063 114.465 394.021C114.496 393.98 114.536 393.946 114.581 393.924C114.626 393.902 114.675 393.891 114.725 393.894C114.84 393.897 114.95 393.94 115.039 394.017C115.128 394.095 115.19 394.201 115.215 394.32C115.229 394.371 115.231 394.425 115.222 394.476C115.213 394.528 115.192 394.577 115.161 394.619C115.13 394.661 115.091 394.694 115.046 394.716C115 394.738 114.951 394.749 114.901 394.747C114.787 394.739 114.679 394.694 114.591 394.618C114.503 394.541 114.44 394.437 114.411 394.32Z" fill="#C7C7C7"/>
<path d="M109.251 397.08H104.669L104.029 393.894H108.611L109.251 397.08Z" fill="#C7C7C7"/>
<path d="M104.669 397.079L104.87 398.106L105.661 397.079H104.669Z" fill="#C7C7C7"/>
<path d="M107.908 394.747H105.071L105.008 394.44H107.845L107.908 394.747Z" fill="white"/>
<path d="M108.034 395.373H105.196L105.133 395.08H107.983L108.034 395.373Z" fill="white"/>
<path d="M108.159 395.999H105.322L105.272 395.706H108.109L108.159 395.999Z" fill="white"/>
<path d="M316.141 385.736H36.2203L34.2618 375.938H314.182L316.141 385.736Z" fill="#37474F"/>
<path d="M42.5729 380.83C42.6528 381.12 42.6665 381.426 42.6129 381.723C42.5592 382.021 42.4397 382.3 42.2643 382.538C42.0889 382.776 41.8626 382.967 41.6041 383.094C41.3456 383.221 41.0623 383.281 40.7776 383.269C40.1275 383.24 39.5042 382.986 39.0031 382.546C38.502 382.105 38.1507 381.502 38.003 380.83C37.9255 380.54 37.9136 380.235 37.9684 379.94C38.0232 379.645 38.1431 379.367 38.3182 379.131C38.4933 378.894 38.7187 378.705 38.976 378.578C39.2333 378.452 39.5151 378.392 39.7983 378.404C40.4467 378.431 41.0687 378.684 41.5696 379.122C42.0705 379.56 42.4229 380.159 42.5729 380.83Z" fill="#C7C7C7"/>
<path d="M51.9266 380.83C52.004 381.121 52.0154 381.428 51.96 381.725C51.9045 382.021 51.7837 382.3 51.6074 382.538C51.4311 382.776 51.2044 382.966 50.9457 383.093C50.6869 383.22 50.4036 383.281 50.1187 383.269C49.4699 383.236 48.8486 382.981 48.3483 382.541C47.848 382.101 47.4956 381.501 47.3441 380.83C47.2662 380.539 47.2545 380.233 47.3099 379.937C47.3654 379.64 47.4864 379.362 47.6629 379.125C47.8395 378.888 48.0666 378.699 48.3255 378.574C48.5844 378.448 48.8677 378.39 49.152 378.404C49.8004 378.432 50.4224 378.684 50.9233 379.122C51.4242 379.56 51.7765 380.159 51.9266 380.83Z" fill="white"/>
<path d="M61.2923 380.83C61.3722 381.12 61.3859 381.426 61.3323 381.723C61.2786 382.021 61.1591 382.3 60.9837 382.538C60.8083 382.776 60.582 382.967 60.3235 383.094C60.0649 383.221 59.7816 383.281 59.497 383.269C58.8469 383.24 58.2236 382.986 57.7225 382.546C57.2214 382.105 56.8701 381.502 56.7224 380.83C56.6449 380.54 56.633 380.235 56.6878 379.94C56.7426 379.645 56.8625 379.367 57.0376 379.131C57.2127 378.894 57.4381 378.705 57.6954 378.578C57.9527 378.452 58.2345 378.392 58.5177 378.404C59.1661 378.431 59.7881 378.684 60.289 379.122C60.7899 379.56 61.1423 380.159 61.2923 380.83Z" fill="#FFC727"/>
<path d="M316.141 385.735H122.71L157.023 557.123H350.453L316.141 385.735Z" fill="#EBEBEB"/>
<path d="M333.743 548.858H173.117L171.109 538.874H331.746L333.743 548.858Z" fill="white"/>
<path d="M330.529 543.992C330.608 544.286 330.621 544.596 330.566 544.896C330.511 545.197 330.39 545.479 330.212 545.72C330.034 545.96 329.805 546.153 329.544 546.281C329.282 546.41 328.996 546.471 328.708 546.459C328.051 546.426 327.422 546.168 326.915 545.723C326.408 545.279 326.05 544.671 325.896 543.992C325.818 543.698 325.807 543.389 325.864 543.089C325.921 542.79 326.044 542.509 326.223 542.269C326.402 542.03 326.631 541.839 326.893 541.712C327.155 541.585 327.441 541.526 327.729 541.54C328.383 541.57 329.01 541.826 329.516 542.268C330.021 542.711 330.376 543.316 330.529 543.992Z" fill="#FFC727"/>
<path d="M327.503 542.579L329.223 543.992L328.08 545.419L327.716 545.085L328.583 543.992L327.277 542.912L327.503 542.579Z" fill="white"/>
<path d="M175.352 546.845H174.737L173.544 540.887H174.159L175.352 546.845Z" fill="#263238"/>
<path d="M340.008 548.938C339.953 548.937 339.9 548.917 339.857 548.88C339.813 548.844 339.783 548.794 339.769 548.738L339.292 546.338C339.284 546.313 339.281 546.287 339.285 546.261C339.289 546.235 339.298 546.21 339.313 546.189C339.328 546.168 339.348 546.151 339.37 546.14C339.393 546.129 339.418 546.123 339.443 546.125C339.499 546.129 339.552 546.152 339.595 546.19C339.638 546.229 339.668 546.28 339.681 546.338L340.158 548.738C340.164 548.762 340.165 548.787 340.16 548.811C340.155 548.836 340.145 548.858 340.13 548.878C340.115 548.897 340.097 548.913 340.075 548.923C340.054 548.933 340.031 548.938 340.008 548.938Z" fill="#A6A6A6"/>
<path d="M341.263 548.938H338.752C338.697 548.937 338.644 548.917 338.601 548.881C338.558 548.845 338.527 548.794 338.513 548.738C338.508 548.713 338.508 548.687 338.512 548.663C338.517 548.638 338.527 548.614 338.542 548.594C338.556 548.573 338.574 548.557 338.596 548.545C338.617 548.533 338.64 548.526 338.664 548.525H341.175C341.232 548.526 341.286 548.549 341.329 548.587C341.373 548.626 341.402 548.679 341.414 548.738C341.419 548.762 341.42 548.787 341.415 548.811C341.41 548.836 341.4 548.859 341.385 548.878C341.371 548.897 341.352 548.913 341.331 548.923C341.31 548.934 341.286 548.939 341.263 548.938Z" fill="#A6A6A6"/>
<path d="M340.008 540.566L340.698 544.045C340.752 544.248 340.76 544.46 340.721 544.666C340.682 544.872 340.598 545.066 340.476 545.231C340.354 545.396 340.196 545.528 340.017 545.616C339.837 545.704 339.64 545.746 339.443 545.738C339.124 545.726 338.812 545.633 338.533 545.469C338.254 545.304 338.015 545.072 337.836 544.792C337.683 544.569 337.577 544.315 337.522 544.045L336.819 540.566C336.765 540.364 336.757 540.151 336.796 539.945C336.835 539.739 336.919 539.546 337.041 539.381C337.163 539.216 337.321 539.084 337.5 538.995C337.68 538.907 337.877 538.865 338.074 538.873C338.535 538.871 338.981 539.046 339.33 539.366C339.669 539.649 339.912 540.043 340.02 540.486C340.02 540.486 340.008 540.54 340.008 540.566Z" fill="#A6A6A6"/>
<path d="M339.556 546.578C338.923 546.565 338.312 546.326 337.823 545.898C337.286 545.456 336.909 544.829 336.756 544.125L336.467 542.659C336.459 542.634 336.457 542.607 336.46 542.581C336.464 542.555 336.474 542.531 336.489 542.509C336.504 542.488 336.523 542.471 336.546 542.46C336.568 542.449 336.593 542.444 336.618 542.446C336.673 542.448 336.726 542.471 336.767 542.51C336.808 542.548 336.835 542.601 336.844 542.659L337.145 544.125C337.276 544.711 337.591 545.233 338.037 545.605C338.466 545.983 339.011 546.182 339.568 546.165C339.802 546.153 340.031 546.085 340.236 545.965C340.442 545.846 340.619 545.678 340.754 545.475C340.89 545.272 340.98 545.039 341.018 544.794C341.056 544.549 341.041 544.297 340.974 544.059L340.698 542.659C340.69 542.634 340.687 542.607 340.691 542.581C340.695 542.555 340.705 542.531 340.72 542.509C340.735 542.488 340.754 542.471 340.777 542.46C340.799 542.449 340.824 542.444 340.849 542.446C340.904 542.448 340.956 542.471 340.998 542.51C341.039 542.548 341.066 542.601 341.075 542.659L341.364 544.059C341.444 544.346 341.462 544.649 341.415 544.945C341.368 545.24 341.258 545.521 341.093 545.764C340.928 546.008 340.713 546.208 340.464 546.349C340.215 546.49 339.938 546.568 339.656 546.578H339.556Z" fill="#A6A6A6"/>
<path d="M168.698 543.912C168.847 544.508 168.864 545.132 168.749 545.735C168.633 546.339 168.388 546.906 168.032 547.393C167.675 547.879 167.218 548.272 166.696 548.54C166.173 548.808 165.6 548.944 165.019 548.938C163.689 548.877 162.412 548.36 161.382 547.463C160.352 546.567 159.624 545.339 159.307 543.966C159.158 543.37 159.141 542.746 159.256 542.142C159.372 541.539 159.617 540.971 159.973 540.485C160.329 539.998 160.786 539.606 161.309 539.338C161.831 539.07 162.405 538.934 162.985 538.94C164.317 538.996 165.596 539.512 166.627 540.409C167.658 541.307 168.385 542.536 168.698 543.912Z" fill="white"/>
<path d="M162.22 542.885C162.244 542.969 162.249 543.058 162.234 543.144C162.219 543.23 162.185 543.311 162.135 543.38C162.084 543.45 162.019 543.505 161.944 543.542C161.869 543.579 161.787 543.596 161.705 543.592C161.516 543.586 161.335 543.516 161.187 543.391C161.04 543.266 160.935 543.093 160.889 542.899C160.867 542.814 160.864 542.725 160.881 542.639C160.898 542.553 160.933 542.473 160.984 542.404C161.036 542.335 161.101 542.28 161.176 542.243C161.251 542.207 161.334 542.189 161.416 542.192C161.603 542.198 161.783 542.269 161.928 542.395C162.073 542.52 162.176 542.692 162.22 542.885Z" fill="#A6A6A6"/>
<path d="M166.752 542.873C166.776 542.956 166.781 543.045 166.767 543.131C166.752 543.217 166.718 543.298 166.667 543.367C166.617 543.437 166.551 543.492 166.477 543.529C166.402 543.566 166.32 543.583 166.237 543.579C166.049 543.57 165.869 543.496 165.724 543.369C165.579 543.241 165.477 543.067 165.434 542.873C165.41 542.789 165.405 542.7 165.42 542.614C165.434 542.528 165.468 542.447 165.519 542.378C165.569 542.308 165.635 542.253 165.709 542.216C165.784 542.179 165.866 542.162 165.949 542.166C166.137 542.175 166.317 542.249 166.462 542.376C166.607 542.504 166.709 542.678 166.752 542.873Z" fill="#A6A6A6"/>
<path d="M164.756 542.659C164.807 542.885 164.775 543.124 164.668 543.326C164.597 543.452 164.495 543.555 164.374 543.625C164.252 543.696 164.116 543.73 163.977 543.726C163.652 543.721 163.342 543.582 163.111 543.339C162.935 543.158 162.813 542.927 162.76 542.673L164.756 542.659Z" fill="#A6A6A6"/>
<path d="M164.668 543.326C164.597 543.451 164.495 543.555 164.374 543.625C164.253 543.695 164.116 543.73 163.978 543.725C163.653 543.721 163.342 543.582 163.111 543.339C163.204 543.238 163.316 543.159 163.439 543.106C163.562 543.054 163.694 543.028 163.827 543.032C164.13 543.033 164.424 543.136 164.668 543.326Z" fill="#DBDBDB"/>
<path d="M56.6848 417.994L56.0948 418.567L54.4375 416.741L53.8349 416.075C53.9239 416.039 54.0051 415.985 54.0734 415.915C54.2081 415.784 54.3003 415.611 54.3371 415.422L54.9774 416.128L56.6848 417.994Z" fill="#A6A6A6"/>
<path d="M54.45 413.729C54.1246 413.304 53.6587 413.028 53.1476 412.956C52.6365 412.884 52.1188 413.022 51.7005 413.342C51.5353 413.543 51.4095 413.777 51.3307 414.03C51.2518 414.283 51.2214 414.55 51.2413 414.816C51.2612 415.082 51.3309 415.341 51.4465 415.578C51.562 415.814 51.7209 416.024 51.914 416.195C52.2179 416.566 52.6284 416.821 53.0823 416.919C53.5361 417.018 54.0079 416.956 54.4249 416.741C54.5072 416.695 54.5832 416.636 54.6509 416.568C54.7806 416.444 54.887 416.294 54.9648 416.128C55.1193 415.72 55.1528 415.272 55.0608 414.843C54.9688 414.414 54.7557 414.025 54.45 413.729ZM54.0734 415.915C54.0051 415.985 53.9239 416.039 53.8348 416.075C53.5916 416.173 53.3257 416.189 53.0738 416.119C52.8219 416.05 52.5965 415.899 52.4287 415.688C52.3133 415.588 52.218 415.464 52.1484 415.324C52.0788 415.184 52.0363 415.03 52.0234 414.873C52.0105 414.715 52.0275 414.556 52.0734 414.405C52.1193 414.255 52.1932 414.115 52.2906 413.995C52.5449 413.811 52.8543 413.732 53.1599 413.773C53.4655 413.815 53.7459 413.975 53.9478 414.222C54.0963 414.376 54.2088 414.564 54.2764 414.773C54.344 414.981 54.3647 415.203 54.337 415.422C54.3053 415.621 54.2127 415.804 54.0734 415.941V415.915Z" fill="#A6A6A6"/>
<path d="M64.2051 416.634C64.2145 416.623 64.2261 416.614 64.2391 416.608C64.2521 416.601 64.2662 416.598 64.2804 416.598C64.2947 416.598 64.3088 416.601 64.3217 416.608C64.3347 416.614 64.3463 416.623 64.3558 416.634C64.7188 416.924 65.1574 417.087 65.6112 417.101C65.8653 417.115 66.1154 417.029 66.3143 416.861C66.3911 416.801 66.4499 416.719 66.4833 416.624C66.5168 416.529 66.5235 416.426 66.5026 416.328C66.4795 416.22 66.4336 416.12 66.3683 416.035C66.303 415.949 66.2201 415.881 66.126 415.835C65.8603 415.681 65.5714 415.577 65.2722 415.528C64.9669 415.489 64.6722 415.385 64.406 415.221C64.2889 415.159 64.1858 415.071 64.1035 414.963C64.0212 414.855 63.9617 414.729 63.9289 414.595C63.9027 414.47 63.9101 414.341 63.95 414.22C63.99 414.1 64.061 413.994 64.1549 413.915C64.3706 413.729 64.6432 413.634 64.9207 413.648C65.3283 413.682 65.7213 413.824 66.0632 414.062C66.0805 414.087 66.0899 414.117 66.0899 414.148C66.0899 414.179 66.0805 414.21 66.0632 414.235C66.055 414.246 66.0445 414.255 66.0325 414.261C66.0206 414.267 66.0074 414.27 65.9941 414.27C65.9808 414.27 65.9677 414.267 65.9558 414.261C65.9438 414.255 65.9333 414.246 65.9251 414.235C65.6232 414.015 65.2729 413.882 64.9082 413.848C64.6744 413.842 64.445 413.916 64.2553 414.062C64.1851 414.121 64.1316 414.199 64.1006 414.289C64.0697 414.378 64.0624 414.475 64.0795 414.568C64.1071 414.663 64.1524 414.751 64.2129 414.826C64.2733 414.902 64.3475 414.964 64.4311 415.008C64.6743 415.146 64.9373 415.241 65.2095 415.288C65.5401 415.336 65.8594 415.449 66.1511 415.621C66.2772 415.69 66.3882 415.786 66.4769 415.903C66.5656 416.02 66.63 416.156 66.6658 416.301C66.6903 416.436 66.6799 416.575 66.6357 416.704C66.5914 416.834 66.5151 416.948 66.4147 417.034C66.1821 417.226 65.8932 417.325 65.5987 417.314C65.1052 417.283 64.6305 417.102 64.2302 416.794C64.21 416.774 64.1966 416.748 64.1921 416.719C64.1876 416.69 64.1921 416.66 64.2051 416.634Z" fill="#A6A6A6"/>
<path d="M67.2812 416.035C67.2395 415.885 67.2317 415.727 67.2585 415.574C67.2852 415.421 67.3458 415.277 67.4352 415.153C67.5246 415.03 67.6404 414.93 67.7729 414.863C67.9054 414.797 68.051 414.764 68.1977 414.768C68.516 414.787 68.8207 414.912 69.0685 415.125C69.3164 415.338 69.4949 415.628 69.5787 415.955C69.5805 415.97 69.5792 415.985 69.575 416C69.5707 416.014 69.5636 416.027 69.5541 416.039C69.5446 416.05 69.5329 416.059 69.5198 416.065C69.5067 416.072 69.4925 416.075 69.4782 416.075H67.5699C67.6391 416.339 67.7835 416.575 67.9835 416.749C68.1835 416.923 68.4293 417.027 68.6873 417.048C68.8325 417.057 68.9768 417.017 69.0989 416.933C69.221 416.849 69.3143 416.726 69.3652 416.581C69.386 416.561 69.4128 416.551 69.4406 416.551C69.4684 416.551 69.4952 416.561 69.5159 416.581C69.5459 416.596 69.5699 416.621 69.5838 416.653C69.5976 416.685 69.6002 416.721 69.5912 416.754C69.5208 416.932 69.4017 417.083 69.2494 417.187C69.0972 417.292 68.9188 417.345 68.7375 417.341C68.3921 417.328 68.0608 417.192 67.7968 416.955C67.5328 416.718 67.3512 416.394 67.2812 416.035ZM67.4946 415.835H69.3025C69.2154 415.607 69.0709 415.409 68.8848 415.264C68.6987 415.118 68.4783 415.029 68.2479 415.008C68.1458 415.004 68.044 415.023 67.9493 415.063C67.8545 415.104 67.7688 415.165 67.6977 415.243C67.6267 415.321 67.5719 415.414 67.5369 415.516C67.5019 415.618 67.4875 415.726 67.4946 415.835Z" fill="#A6A6A6"/>
<path d="M72.215 414.889L72.667 417.182C72.6707 417.197 72.6713 417.212 72.6687 417.227C72.6662 417.243 72.6605 417.257 72.6521 417.27C72.6438 417.283 72.6329 417.293 72.6203 417.301C72.6077 417.309 72.5936 417.313 72.5791 417.315C72.546 417.31 72.515 417.295 72.4904 417.271C72.4657 417.247 72.4484 417.216 72.441 417.182L72.3657 416.808C72.2879 416.962 72.172 417.091 72.0304 417.18C71.8888 417.27 71.7269 417.316 71.5622 417.315C71.2258 417.285 70.9081 417.139 70.6584 416.897C70.4086 416.656 70.2409 416.335 70.1812 415.982C70.1351 415.837 70.1224 415.682 70.1441 415.53C70.1659 415.379 70.2215 415.235 70.3063 415.111C70.3912 414.987 70.5027 414.887 70.6316 414.818C70.7606 414.749 70.9031 414.714 71.0474 414.715C71.2373 414.723 71.4239 414.77 71.5963 414.855C71.7688 414.94 71.9236 415.06 72.0518 415.209L71.9765 414.835C71.9765 414.755 71.9765 414.715 72.0644 414.715C72.0859 414.713 72.1076 414.716 72.1278 414.724C72.148 414.732 72.1662 414.745 72.1809 414.762C72.1955 414.779 72.2062 414.799 72.2122 414.821C72.2181 414.843 72.2191 414.866 72.215 414.889ZM72.215 416.035C72.1556 415.763 72.0169 415.517 71.8186 415.333C71.6204 415.148 71.3725 415.035 71.1102 415.009C70.9948 415.011 70.8816 415.042 70.7795 415.099C70.6775 415.157 70.5894 415.238 70.5223 415.338C70.4552 415.438 70.411 415.553 70.3932 415.674C70.3754 415.795 70.3845 415.919 70.4197 416.035C70.4791 416.308 70.6178 416.553 70.8161 416.738C71.0144 416.922 71.2622 417.035 71.5245 417.062C71.6388 417.057 71.7506 417.025 71.8511 416.967C71.9515 416.909 72.038 416.827 72.1037 416.727C72.1694 416.628 72.2124 416.514 72.2296 416.394C72.2467 416.273 72.2375 416.151 72.2025 416.035H72.215Z" fill="#A6A6A6"/>
<path d="M73.2321 414.889C73.2274 414.874 73.2267 414.857 73.2298 414.841C73.233 414.825 73.24 414.811 73.2501 414.799C73.2602 414.787 73.2732 414.777 73.2876 414.772C73.3021 414.767 73.3175 414.766 73.3325 414.769C73.364 414.773 73.3938 414.786 73.4184 414.807C73.4429 414.829 73.461 414.857 73.4706 414.889L73.5836 415.449C73.6458 415.265 73.76 415.106 73.9106 414.994C74.0612 414.882 74.2408 414.822 74.4248 414.822C74.4568 414.824 74.4875 414.837 74.5123 414.858C74.5372 414.88 74.5549 414.909 74.5629 414.942C74.5629 415.022 74.5629 415.076 74.475 415.076C74.346 415.075 74.2197 415.114 74.1107 415.187C74.0018 415.26 73.9147 415.365 73.8598 415.489C73.7756 415.674 73.7205 415.872 73.6966 416.075L73.9226 417.195C73.9226 417.275 73.9226 417.328 73.8347 417.328C73.7999 417.325 73.7671 417.31 73.7402 417.286C73.7134 417.262 73.6938 417.231 73.684 417.195L73.2321 414.889Z" fill="#A6A6A6"/>
<path d="M75.3159 416.035C75.275 415.88 75.27 415.717 75.3011 415.56C75.3323 415.403 75.3988 415.256 75.4949 415.131C75.591 415.007 75.7139 414.909 75.8532 414.846C75.9926 414.783 76.1441 414.757 76.2951 414.769C76.5877 414.772 76.8725 414.869 77.1112 415.049C77.1285 415.074 77.1379 415.104 77.1379 415.136C77.1379 415.167 77.1285 415.197 77.1112 415.222C77.0885 415.243 77.0595 415.254 77.0296 415.254C76.9997 415.254 76.9707 415.243 76.948 415.222C76.7532 415.076 76.521 414.997 76.2826 414.996C76.1606 414.987 76.0384 415.009 75.9261 415.061C75.8139 415.112 75.7149 415.191 75.6375 415.292C75.56 415.392 75.5064 415.511 75.481 415.638C75.4556 415.765 75.4593 415.897 75.4916 416.022C75.5579 416.32 75.7189 416.585 75.9476 416.772C76.1763 416.959 76.4586 417.057 76.7471 417.048C76.9597 417.053 77.166 416.972 77.3246 416.822C77.3474 416.801 77.3763 416.79 77.4062 416.79C77.4362 416.79 77.4651 416.801 77.4879 416.822C77.4879 416.822 77.4879 416.955 77.4879 416.995C77.2964 417.181 77.0444 417.282 76.7848 417.275C76.4468 417.264 76.1213 417.137 75.8566 416.914C75.5919 416.691 75.4023 416.382 75.3159 416.035Z" fill="#A6A6A6"/>
<path d="M79.9867 415.768C79.9337 415.554 79.8149 415.364 79.6489 415.228C79.483 415.093 79.2794 415.021 79.0702 415.022C78.979 415.009 78.8863 415.021 78.8004 415.056C78.7144 415.09 78.6381 415.148 78.5782 415.222C78.5184 415.296 78.4769 415.385 78.4576 415.48C78.4383 415.576 78.4417 415.675 78.4676 415.768L78.7438 417.181C78.7236 417.19 78.7012 417.19 78.681 417.181H78.5806L78.3044 415.768L77.9152 413.836C77.9111 413.821 77.9104 413.806 77.913 413.792C77.9156 413.777 77.9214 413.763 77.93 413.751C77.9386 413.74 77.9497 413.73 77.9624 413.724C77.9751 413.718 77.989 413.715 78.003 413.716C78.0373 413.714 78.0708 413.726 78.0982 413.747C78.1256 413.769 78.1452 413.8 78.1537 413.836L78.4299 415.169C78.5023 415.049 78.603 414.951 78.7219 414.886C78.8409 414.82 78.974 414.789 79.1079 414.795C79.393 414.786 79.6726 414.88 79.9008 415.061C80.129 415.243 80.2922 415.502 80.3633 415.795L80.6395 417.208C80.6432 417.223 80.6438 417.239 80.6413 417.254C80.6387 417.269 80.633 417.284 80.6247 417.296C80.6163 417.309 80.6055 417.32 80.5928 417.327C80.5802 417.335 80.5662 417.34 80.5516 417.341C80.5163 417.339 80.4825 417.325 80.4554 417.301C80.4282 417.277 80.4091 417.245 80.401 417.208L79.9867 415.768Z" fill="#A6A6A6"/>
<path d="M82.6356 416.035C82.5947 415.88 82.5897 415.717 82.6208 415.56C82.652 415.403 82.7184 415.256 82.8145 415.131C82.9107 415.007 83.0336 414.909 83.1729 414.846C83.3122 414.783 83.4638 414.757 83.6148 414.769C83.9074 414.772 84.1922 414.869 84.4309 415.049C84.4482 415.074 84.4576 415.104 84.4576 415.136C84.4576 415.167 84.4482 415.197 84.4309 415.222C84.4081 415.243 84.3792 415.254 84.3493 415.254C84.3193 415.254 84.2904 415.243 84.2677 415.222C84.0729 415.076 83.8407 414.997 83.6023 414.996C83.4803 414.987 83.358 415.009 83.2458 415.061C83.1335 415.112 83.0346 415.191 82.9571 415.292C82.8797 415.392 82.826 415.511 82.8007 415.638C82.7753 415.765 82.779 415.897 82.8113 416.022C82.8776 416.32 83.0386 416.585 83.2673 416.772C83.4959 416.959 83.7783 417.057 84.0668 417.048C84.2794 417.053 84.4857 416.972 84.6443 416.822C84.667 416.801 84.696 416.79 84.7259 416.79C84.7558 416.79 84.7848 416.801 84.8075 416.822C84.8075 416.822 84.8075 416.955 84.8075 416.995C84.6161 417.181 84.3641 417.282 84.1045 417.275C83.7665 417.264 83.441 417.137 83.1763 416.914C82.9116 416.691 82.7219 416.382 82.6356 416.035Z" fill="#A6A6A6"/>
<path d="M87.243 415.768C87.19 415.553 87.0712 415.363 86.9052 415.228C86.7393 415.093 86.5357 415.02 86.3265 415.022C86.2354 415.009 86.1426 415.02 86.0567 415.055C85.9708 415.09 85.8944 415.147 85.8346 415.221C85.7747 415.296 85.7332 415.384 85.7139 415.48C85.6946 415.575 85.698 415.674 85.7239 415.768L86.0001 417.181C85.9799 417.189 85.9575 417.189 85.9373 417.181H85.8369L85.5481 415.768L85.1464 413.795C85.1424 413.781 85.1416 413.766 85.1442 413.751C85.1468 413.737 85.1526 413.723 85.1612 413.711C85.1698 413.699 85.1809 413.69 85.1936 413.684C85.2063 413.678 85.2203 413.675 85.2343 413.675C85.2685 413.674 85.302 413.685 85.3294 413.707C85.3568 413.729 85.3764 413.76 85.3849 413.795L85.6486 415.128C85.7247 415.009 85.8279 414.913 85.9487 414.847C86.0694 414.782 86.2037 414.75 86.3391 414.755C86.6242 414.745 86.9039 414.839 87.1321 415.021C87.3603 415.203 87.5234 415.461 87.5946 415.755L87.8708 417.168C87.8747 417.184 87.875 417.201 87.8717 417.217C87.8685 417.233 87.8617 417.248 87.852 417.261C87.8422 417.274 87.8298 417.284 87.8156 417.291C87.8014 417.298 87.7859 417.302 87.7703 417.301C87.7372 417.297 87.7062 417.281 87.6816 417.257C87.6569 417.234 87.6397 417.202 87.6322 417.168L87.243 415.768Z" fill="#A6A6A6"/>
<path d="M90.5071 414.888L90.959 417.181C90.9627 417.196 90.9633 417.212 90.9608 417.227C90.9582 417.242 90.9525 417.257 90.9442 417.269C90.9358 417.282 90.9249 417.293 90.9123 417.301C90.8997 417.308 90.8857 417.313 90.8711 417.315C90.8381 417.31 90.8071 417.295 90.7824 417.271C90.7577 417.247 90.7405 417.216 90.733 417.181L90.6577 416.808C90.58 416.962 90.464 417.091 90.3224 417.18C90.1808 417.269 90.0189 417.316 89.8542 417.315C89.517 417.283 89.1986 417.136 88.9471 416.896C88.6957 416.655 88.5249 416.334 88.4606 415.981C88.4171 415.835 88.4068 415.68 88.4304 415.529C88.454 415.378 88.511 415.234 88.5967 415.111C88.6824 414.988 88.7943 414.887 88.9234 414.819C89.0525 414.75 89.195 414.714 89.3395 414.715C89.5293 414.722 89.7159 414.77 89.8884 414.855C90.0608 414.939 90.2157 415.059 90.3439 415.208L90.2685 414.835C90.2685 414.755 90.2685 414.715 90.3564 414.715C90.3975 414.718 90.4358 414.738 90.4638 414.77C90.4917 414.802 90.5072 414.845 90.5071 414.888ZM90.5071 416.035C90.4476 415.762 90.309 415.516 90.1107 415.332C89.9124 415.148 89.6645 415.035 89.4022 415.008C89.2869 415.011 89.1736 415.042 89.0716 415.099C88.9695 415.156 88.8814 415.238 88.8143 415.338C88.7473 415.437 88.7031 415.552 88.6853 415.673C88.6674 415.794 88.6765 415.918 88.7117 416.035C88.7712 416.307 88.9098 416.553 89.1081 416.737C89.3064 416.922 89.5543 417.035 89.8166 417.061C89.9309 417.057 90.0426 417.024 90.1431 416.966C90.2436 416.908 90.33 416.826 90.3957 416.727C90.4614 416.627 90.5045 416.513 90.5216 416.393C90.5388 416.273 90.5295 416.15 90.4945 416.035H90.5071Z" fill="#A6A6A6"/>
<path d="M92.3528 414.889C92.3568 414.903 92.3576 414.918 92.355 414.932C92.3524 414.947 92.3466 414.961 92.338 414.973C92.3294 414.984 92.3183 414.994 92.3055 415C92.2928 415.006 92.2789 415.009 92.2649 415.009H91.9636L92.3277 416.861C92.3388 416.913 92.3658 416.96 92.4044 416.993C92.443 417.027 92.4911 417.046 92.5411 417.048C92.5753 417.053 92.6075 417.069 92.6341 417.092C92.6607 417.116 92.6806 417.147 92.6918 417.181C92.6957 417.197 92.696 417.214 92.6928 417.23C92.6895 417.247 92.6827 417.262 92.673 417.275C92.6632 417.288 92.6508 417.298 92.6366 417.305C92.6224 417.312 92.6069 417.315 92.5913 417.315C92.4709 417.313 92.3547 417.267 92.263 417.185C92.1712 417.102 92.1097 416.987 92.0891 416.861L91.7125 415.009H91.4238C91.3108 415.009 91.2982 415.009 91.2856 414.889C91.2731 414.769 91.2856 414.769 91.3735 414.769H91.6748L91.4865 413.822C91.4828 413.807 91.4822 413.792 91.4848 413.776C91.4874 413.761 91.493 413.747 91.5014 413.734C91.5097 413.721 91.5206 413.711 91.5332 413.703C91.5458 413.695 91.5599 413.69 91.5744 413.689C91.5744 413.689 91.7251 413.756 91.7251 413.822L91.9259 414.769H92.2273C92.2571 414.773 92.285 414.787 92.3073 414.808C92.3297 414.83 92.3456 414.858 92.3528 414.889Z" fill="#A6A6A6"/>
<path d="M130.256 423.26H43.7661V423.593H130.256V423.26Z" fill="#A6A6A6"/>
<path d="M127.13 407.611H40.6402V407.944H127.13V407.611Z" fill="#A6A6A6"/>
<path d="M78.9698 579.317H48.9765V584.289H78.9698V579.317Z" fill="#FFC727"/>
<path opacity="0.1" d="M78.9698 579.317H48.9765V582.596H78.9698V579.317Z" fill="black"/>
<path d="M13.3712 565.959C15.4648 569.336 18.5912 571.843 22.2231 573.057C25.8549 574.272 29.7701 574.119 33.3081 572.625C34.7984 572.002 36.2211 571.211 37.5516 570.265L33.7852 564.266C33.0782 564.786 32.3256 565.233 31.5379 565.599C24.3943 569.039 19.8746 563.067 18.9832 561.694C14.8652 555.562 13.3963 541.552 17.5645 536.166C17.8407 535.766 19.046 535.126 23.8419 536.166C24.7332 536.379 25.7376 536.619 26.8801 536.953C27.7698 537.277 28.6929 537.487 29.6296 537.579L29.7426 533.98L30.0816 530.381C29.7677 530.381 29.2781 530.181 28.6503 529.994C26.4148 529.301 24.1311 528.798 21.8206 528.488C18.2676 528.101 14.5514 528.488 12.2664 531.527C5.48685 540.459 8.22378 558.268 13.3712 565.959Z" fill="#FFC727"/>
<path opacity="0.1" d="M33.7351 564.334C33.0281 564.854 32.2756 565.3 31.4878 565.667L33.3083 572.679C34.7985 572.056 36.2212 571.265 37.5518 570.319L33.7351 564.334Z" fill="black"/>
<path opacity="0.1" d="M21.8082 528.621L23.8295 536.3C24.7209 536.513 25.7253 536.753 26.8678 537.086C27.7575 537.411 28.6805 537.621 29.6172 537.713L29.7302 534.114L30.0692 530.514C29.7553 530.514 29.2657 530.314 28.638 530.128C26.4024 529.435 24.1187 528.931 21.8082 528.621Z" fill="black"/>
<path d="M103.866 519.224C103.866 519.224 100.275 551.683 94.0607 565.36C87.8461 579.037 79.1708 580.53 73.7722 580.53H54.1743C48.7758 580.53 40.1004 579.01 33.8858 565.36C27.6712 551.71 24.0806 519.224 24.0806 519.224H103.866Z" fill="#FFC727"/>
<path d="M266.776 440.069H440.847V362.82H266.776V440.069Z" fill="#455A64"/>
<path d="M440.847 385.601V362.82H463.182L440.847 385.601Z" fill="#455A64"/>
<path d="M427.564 376.177H280.046V377.643H427.564V376.177Z" fill="white"/>
<path d="M384.978 384.095H280.046V385.562H384.978V384.095Z" fill="white"/>
<path d="M410.703 399.958H280.046V401.425H410.703V399.958Z" fill="white"/>
<path d="M427.564 407.876H280.046V409.343H427.564V407.876Z" fill="white"/>
<path d="M427.564 415.808H280.046V417.274H427.564V415.808Z" fill="white"/>
<path d="M370.741 423.739H280.046V425.206H370.741V423.739Z" fill="white"/>
<path d="M417.044 220.426H242.972V285.611H417.044V220.426Z" fill="#FFC727"/>
<path d="M242.997 243.221V220.426H220.65L242.997 243.221Z" fill="#FFC727"/>
<path d="M369.737 232.463H256.506V233.93H369.737V232.463Z" fill="white"/>
<path d="M404.024 240.395H256.506V241.861H404.024V240.395Z" fill="white"/>
<path d="M404.024 248.326H256.506V249.793H404.024V248.326Z" fill="white"/>
<path d="M387.778 256.244H256.506V257.711H387.778V256.244Z" fill="white"/>
<path d="M404.024 264.176H256.506V265.642H404.024V264.176Z" fill="white"/>
<path d="M350.453 272.108H256.506V273.574H350.453V272.108Z" fill="white"/>
<path d="M417.044 296.155H242.972V344.491H417.044V296.155Z" fill="#FFC727"/>
<path d="M242.997 318.937V296.155H220.65L242.997 318.937Z" fill="#FFC727"/>
<path d="M403.66 308.192H256.506V309.659H403.66V308.192Z" fill="white"/>
<path d="M367.427 316.124H256.506V317.59H367.427V316.124Z" fill="white"/>
<path d="M384.363 324.042H256.506V325.508H384.363V324.042Z" fill="white"/>
<path d="M341.953 331.974H256.506V333.44H341.953V331.974Z" fill="white"/>
<path d="M417.044 455.092H242.972V499.682H417.044V455.092Z" fill="#FFC727"/>
<path d="M242.972 477.873V455.092H220.625L242.972 477.873Z" fill="#FFC727"/>
<path d="M392.624 467.129H256.506V468.596H392.624V467.129Z" fill="white"/>
<path d="M357.371 475.048H256.506V476.514H357.371V475.048Z" fill="white"/>
<path d="M383.158 482.979H256.506V484.445H383.158V482.979Z" fill="white"/>
<path d="M510.337 407.37C532.539 407.37 550.537 388.26 550.537 364.686C550.537 341.113 532.539 322.003 510.337 322.003C488.135 322.003 470.137 341.113 470.137 364.686C470.137 388.26 488.135 407.37 510.337 407.37Z" fill="#A6A6A6"/>
<mask id="mask0_371_138" style="mask-type:luminance" maskUnits="userSpaceOnUse" x="470" y="306" width="81" height="102">
<path d="M550.55 364.686C550.561 370.912 549.283 377.064 546.808 382.707C544.333 388.351 540.72 393.348 536.225 397.345C533.254 399.999 529.939 402.185 526.382 403.837C525.968 404.037 525.541 404.224 525.126 404.397L524.436 404.677C522.161 405.595 519.806 406.27 517.405 406.69C515.087 407.153 512.733 407.381 510.375 407.37C508.974 407.371 507.574 407.291 506.181 407.13C505.584 407.083 504.988 407.003 504.399 406.89C503.695 406.783 502.992 406.663 502.289 406.49C502.072 406.462 501.858 406.413 501.649 406.343C500.594 406.117 499.54 405.824 498.51 405.49C497.481 405.157 496.301 404.704 495.221 404.237L494.957 404.104C494.749 404.035 494.548 403.945 494.355 403.837C493.025 403.237 491.734 402.547 490.488 401.771C484.787 398.333 479.964 393.466 476.442 387.595C472.92 381.723 470.804 375.025 470.281 368.086C469.757 361.147 470.841 354.177 473.437 347.785C476.034 341.392 480.064 335.772 485.177 331.414C485.592 329.774 486.018 328.201 486.433 326.762C479.49 321.763 482.566 312.298 483.796 310.299C485.027 308.299 489.371 313.151 489.371 313.151C489.371 313.151 490.764 307.26 492.359 306.886C493.953 306.513 495.083 310.392 495.083 310.392C495.083 310.392 506.972 308.126 517.242 310.059C527.512 311.992 531.052 323.816 531.052 323.816C531.052 323.816 536.388 325.909 537.581 330.281C537.771 331.261 537.771 332.273 537.581 333.254C541.674 337.254 544.941 342.113 547.173 347.524C549.406 352.935 550.556 358.779 550.55 364.686Z" fill="white"/>
</mask>
<g mask="url(#mask0_371_138)">
<path d="M498.837 392.974L502.39 410.09L528.403 389.681L537.732 398.799C537.732 398.799 516.841 424.673 499.892 424.673C491.003 424.673 489.258 403.011 489.258 403.011L498.837 392.974Z" fill="#FFC727"/>
<path d="M502.905 412.436C509.446 414.595 521.561 404.651 526.633 396.24C526.972 395.666 526.52 389.281 526.319 381.51C526.206 376.791 526.194 371.525 526.507 366.726C526.583 365.74 497.632 371.952 497.632 371.952C498.862 378.082 499.376 384.35 499.163 390.614C499.116 391.277 499.007 391.934 498.837 392.574C498.837 392.654 498.837 392.774 498.837 392.894C498.008 396.559 496.59 410.343 502.905 412.436Z" fill="#DD6A57"/>
<path d="M524.85 366.7C522.879 375.071 516.665 394.107 501.737 393.36C500.762 393.316 499.792 393.187 498.837 392.974C498.837 392.854 498.837 392.734 498.837 392.654C499.014 392.016 499.123 391.358 499.163 390.694V390.614C499.341 387.503 499.274 384.382 498.962 381.283C498.666 378.2 498.222 375.134 497.632 372.099L497.82 371.965C500.092 371.445 519.05 367.393 524.85 366.7Z" fill="#263238"/>
<path d="M528.968 328.508C532.458 339.066 528.378 370.178 521.498 377.39C511.517 387.841 494.556 389.561 486.044 376.67C477.783 364.18 483.771 323.723 491.517 317.097C502.942 307.353 523.796 312.925 528.968 328.508Z" fill="#DD6A57"/>
<path d="M526.382 354.622C519.514 353.516 520.029 340.065 520.029 340.065C520.029 340.065 508.516 336.146 508.115 326.455C508.115 326.455 495.861 332.281 487.537 327.508C479.214 322.736 482.515 312.458 483.771 310.352C485.026 308.246 489.345 313.205 489.345 313.205C489.345 313.205 490.739 307.313 492.333 306.94C493.928 306.566 495.058 310.446 495.058 310.446C495.058 310.446 506.96 308.193 517.204 310.112C527.449 312.032 531.014 323.869 531.014 323.869C531.014 323.869 536.338 325.975 537.555 330.348C538.773 334.72 530.751 355.275 526.382 354.622Z" fill="#263238"/>
<path d="M500.707 350.077C500.707 349.997 500.845 350.197 500.833 350.277C500.506 352.37 500.456 354.822 502.164 355.769C502.164 355.769 502.164 355.902 502.164 355.889C500.042 355.249 500.13 351.956 500.707 350.077Z" fill="#263238"/>
<path d="M502.791 348.13C506.005 348.33 505.403 355.129 502.427 354.956C499.452 354.782 500.105 347.957 502.791 348.13Z" fill="#263238"/>
<path d="M489.232 349.29C489.232 349.21 489.069 349.37 489.069 349.464C488.944 351.57 488.467 353.969 486.558 354.489V354.609C488.831 354.476 489.408 351.29 489.232 349.29Z" fill="#263238"/>
<path d="M487.663 346.877C484.487 346.304 483.633 353.076 486.571 353.609C489.509 354.142 490.312 347.371 487.663 346.877Z" fill="#263238"/>
<path d="M505.604 345.291C504.786 344.943 503.986 344.552 503.206 344.118C502.304 343.827 501.518 343.227 500.971 342.412C500.845 342.121 500.814 341.795 500.882 341.483C500.95 341.172 501.114 340.894 501.348 340.692C501.866 340.371 502.455 340.202 503.055 340.202C503.655 340.202 504.244 340.371 504.762 340.692C505.912 341.17 506.855 342.082 507.411 343.251C507.514 343.525 507.54 343.823 507.488 344.112C507.436 344.401 507.308 344.668 507.118 344.882C506.929 345.096 506.685 345.248 506.417 345.32C506.149 345.393 505.867 345.383 505.604 345.291Z" fill="#263238"/>
<path d="M485.491 343.212C486.369 343.114 487.241 342.962 488.103 342.758C489.04 342.742 489.945 342.395 490.676 341.772C490.873 341.53 490.987 341.225 491 340.906C491.014 340.587 490.926 340.272 490.752 340.012C490.34 339.549 489.819 339.21 489.243 339.032C488.667 338.854 488.056 338.843 487.475 338.999C486.246 339.131 485.107 339.738 484.273 340.706C484.099 340.939 483.992 341.221 483.964 341.517C483.937 341.813 483.991 342.112 484.119 342.377C484.248 342.641 484.446 342.861 484.689 343.009C484.933 343.157 485.211 343.228 485.491 343.212Z" fill="#263238"/>
<path d="M500.846 369.819C500.331 370.259 499.791 370.885 499.063 370.885C498.328 370.789 497.619 370.535 496.979 370.139C496.979 370.139 496.853 370.139 496.891 370.232C497.135 370.676 497.488 371.041 497.913 371.288C498.338 371.535 498.818 371.653 499.301 371.632C499.717 371.562 500.104 371.362 500.412 371.059C500.721 370.755 500.937 370.36 501.034 369.926C501.072 369.806 500.921 369.752 500.846 369.819Z" fill="#263238"/>
<path d="M499.339 363.421C498.751 364.196 498.018 364.833 497.186 365.292C496.354 365.751 495.441 366.021 494.506 366.087C493.687 366.158 492.863 366.108 492.057 365.94L491.593 365.833L491.166 365.713C491.063 365.677 490.974 365.607 490.911 365.514C490.848 365.42 490.814 365.308 490.815 365.193C490.807 365.123 490.807 365.051 490.815 364.98V364.807C490.928 363.167 491.329 360.714 491.329 360.714C490.739 360.954 487.751 362.047 487.877 361.154C488.982 354.169 490.199 346.411 492.673 339.719C492.688 339.673 492.72 339.634 492.76 339.611C492.801 339.587 492.849 339.58 492.894 339.592C492.939 339.604 492.979 339.633 493.005 339.673C493.032 339.714 493.043 339.764 493.037 339.813C492.233 346.558 490.312 353.143 489.408 359.888C490.469 359.497 491.577 359.268 492.698 359.208C492.911 359.301 491.857 363.94 491.857 364.674V364.754C494.368 365.393 496.414 364.754 499.088 363.234C499.327 363.101 499.452 363.261 499.339 363.421Z" fill="#263238"/>
<path d="M493.061 365.487C493.836 366.708 494.896 367.696 496.137 368.353C496.818 368.693 497.583 368.795 498.322 368.646C499.941 368.299 500.067 366.753 499.854 365.407C499.732 364.692 499.534 363.994 499.264 363.327C497.466 364.731 495.293 365.488 493.061 365.487Z" fill="#263238"/>
<path d="M496.137 368.353C496.818 368.693 497.583 368.795 498.322 368.646C499.941 368.3 500.067 366.753 499.854 365.407C499.013 365.387 498.191 365.667 497.518 366.201C496.844 366.734 496.358 367.492 496.137 368.353Z" fill="#FF99BA"/>
<path d="M523.758 353.956C523.758 353.956 530.123 343.812 534.442 346.198C538.761 348.584 534.128 363.194 529.156 365.3C528.535 365.614 527.861 365.792 527.174 365.823C526.487 365.853 525.801 365.736 525.157 365.478C524.513 365.221 523.925 364.828 523.428 364.323C522.931 363.818 522.535 363.212 522.264 362.541L523.758 353.956Z" fill="#DD6A57"/>
<path d="M533.023 350.464C533.099 350.464 533.111 350.57 533.023 350.61C529.533 352.197 527.763 355.702 526.545 359.328C527.562 357.915 528.968 357.129 530.738 358.409C530.826 358.475 530.738 358.635 530.65 358.608C530.027 358.413 529.362 358.429 528.748 358.654C528.134 358.878 527.601 359.3 527.223 359.862C526.585 360.793 526.05 361.8 525.629 362.861C525.465 363.194 524.9 363.034 525.013 362.648C525.008 362.617 525.008 362.585 525.013 362.554C524.875 357.795 528.215 351.064 533.023 350.464Z" fill="#263238"/>
<path d="M499.163 390.814L502.653 408.516L526.645 385.762L532.621 392.907C532.621 392.907 509.219 428.898 509.069 427.285L501.963 412.049L492.107 422.82L496.062 396.053L499.163 390.814Z" fill="white"/>
<path d="M495.899 396.306C495.899 396.146 496.188 396.066 496.188 396.306C495.962 401.772 492.685 417.448 492.748 421.501C493.162 421.034 501.875 412.009 501.975 412.169C503.495 414.582 508.68 425.673 509.031 426.686C512.346 421.501 527.738 400.185 531.492 394.773C531.51 394.738 531.541 394.712 531.577 394.701C531.614 394.689 531.653 394.694 531.686 394.713C531.72 394.733 531.744 394.766 531.755 394.804C531.765 394.843 531.761 394.885 531.743 394.92C528.956 400.945 509.508 428.939 509.257 428.859C506.558 423.592 504.123 418.177 501.963 412.636C500.494 414.595 491.706 424.767 491.668 424.113C491.354 419.688 494.493 401.785 495.899 396.306Z" fill="#263238"/>
</g>
<path d="M202.963 480.162C218.937 463.202 218.937 435.703 202.963 418.743C186.989 401.782 161.091 401.782 145.117 418.743C129.143 435.703 129.143 463.202 145.117 480.162C161.091 497.122 186.989 497.122 202.963 480.162Z" fill="#A6A6A6"/>
<mask id="mask1_371_138" style="mask-type:luminance" maskUnits="userSpaceOnUse" x="133" y="395" width="82" height="98">
<path d="M214.962 449.441C214.974 457.05 213.102 464.529 209.536 471.13C205.969 477.73 200.832 483.22 194.639 487.049C188.446 490.879 181.414 492.915 174.248 492.952C167.081 492.989 160.031 491.027 153.803 487.263C147.575 483.498 142.387 478.062 138.759 471.499C135.132 464.936 133.191 457.477 133.132 449.868C133.073 442.259 134.897 434.766 138.422 428.141C141.947 421.516 147.05 415.99 153.218 412.116C155.114 405.637 160.048 399.466 171.021 396.546C192.514 390.841 197.285 407.304 197.737 409.09C197.737 409.09 197.737 409.09 197.737 409.157C197.742 409.179 197.742 409.201 197.737 409.223C198.487 411.331 199.128 413.48 199.658 415.662C204.43 419.715 208.283 424.855 210.932 430.702C213.581 436.548 214.958 442.953 214.962 449.441Z" fill="white"/>
</mask>
<g mask="url(#mask1_371_138)">
<path d="M185.76 478.233L182.131 495.563L157.399 477.54L151.259 487.165C151.259 487.165 167.442 510.413 184.68 510.413C193.732 510.413 195.502 488.378 195.502 488.378L185.76 478.233Z" fill="#FFC727"/>
<path d="M181.617 498.029C174.963 500.229 162.634 490.111 157.474 481.553C157.123 480.966 157.587 474.475 157.801 466.556C157.901 461.757 157.926 456.412 157.6 451.533C157.537 450.52 160.864 452.133 160.864 452.133L166.915 453.213L186.928 456.852C186.928 456.852 184.768 467.29 185.371 475.794C185.417 476.471 185.526 477.14 185.697 477.794C185.697 477.887 185.697 477.994 185.697 478.114C186.589 481.886 188.095 495.923 181.617 498.029Z" fill="#EB9481"/>
<path d="M185.697 477.901C185.697 477.994 185.697 478.1 185.697 478.234C184.725 478.447 183.739 478.576 182.747 478.62C163.287 479.593 159.157 453.546 159.157 453.546L166.853 453.333L186.865 456.959C186.865 456.959 184.706 467.41 185.308 475.914C185.374 476.589 185.504 477.254 185.697 477.901Z" fill="#263238"/>
<path d="M155.102 412.648C151.549 423.379 155.692 455.039 162.697 462.384C172.854 473.048 190.104 474.767 198.779 461.65C207.179 448.933 201.077 407.77 193.193 401.038C181.579 391.12 160.362 396.785 155.102 412.648Z" fill="#EB9481"/>
<path d="M183.801 434.603C183.801 434.523 183.663 434.723 183.676 434.803C184.002 436.936 184.053 439.429 182.32 440.389C182.32 440.389 182.32 440.535 182.32 440.508C184.53 439.855 184.442 436.536 183.801 434.603Z" fill="#263238"/>
<path d="M181.73 432.617C178.466 432.817 179.081 439.736 182.107 439.549C185.133 439.362 184.467 432.444 181.73 432.617Z" fill="#263238"/>
<path d="M195.515 433.764C195.515 433.671 195.691 433.844 195.691 433.937C195.816 436.083 196.306 438.523 198.202 439.056V439.176C195.929 439.069 195.314 435.817 195.515 433.764Z" fill="#263238"/>
<path d="M197.122 431.338C200.349 430.751 201.215 437.643 198.227 438.19C195.239 438.736 194.373 431.831 197.122 431.338Z" fill="#263238"/>
<path d="M178.867 429.711C179.734 429.378 180.487 428.925 181.316 428.512C182.228 428.214 183.023 427.605 183.576 426.779C183.703 426.484 183.736 426.153 183.668 425.837C183.599 425.521 183.435 425.238 183.199 425.032C182.671 424.704 182.071 424.531 181.46 424.531C180.849 424.531 180.249 424.704 179.721 425.032C178.551 425.512 177.593 426.439 177.035 427.632C176.93 427.909 176.902 428.213 176.954 428.506C177.007 428.8 177.136 429.072 177.329 429.29C177.521 429.508 177.768 429.664 178.04 429.738C178.313 429.813 178.6 429.803 178.867 429.711Z" fill="#263238"/>
<path d="M199.395 427.605C198.505 427.502 197.621 427.35 196.746 427.152C195.79 427.129 194.868 426.773 194.122 426.139C193.922 425.891 193.806 425.58 193.79 425.255C193.774 424.929 193.86 424.607 194.034 424.339C194.457 423.869 194.991 423.527 195.58 423.348C196.169 423.17 196.793 423.163 197.386 423.326C198.632 423.444 199.789 424.058 200.625 425.046C200.805 425.282 200.917 425.569 200.946 425.871C200.976 426.174 200.922 426.479 200.792 426.749C200.662 427.02 200.461 427.245 200.213 427.397C199.965 427.549 199.681 427.621 199.395 427.605Z" fill="#263238"/>
<path d="M183.713 454.666C184.241 455.119 184.781 455.759 185.521 455.759C186.271 455.666 186.994 455.407 187.643 454.999C187.649 454.992 187.656 454.986 187.664 454.982C187.672 454.978 187.68 454.976 187.689 454.975C187.698 454.974 187.706 454.976 187.715 454.979C187.723 454.982 187.731 454.986 187.737 454.992C187.744 454.998 187.749 455.006 187.753 455.014C187.757 455.023 187.759 455.032 187.76 455.041C187.76 455.05 187.759 455.06 187.757 455.068C187.754 455.077 187.749 455.085 187.744 455.092C187.49 455.553 187.121 455.93 186.678 456.182C186.234 456.433 185.734 456.55 185.233 456.519C184.811 456.447 184.419 456.244 184.106 455.935C183.793 455.627 183.574 455.227 183.475 454.786C183.487 454.666 183.638 454.599 183.713 454.666Z" fill="#263238"/>
<path d="M184.944 448.96C187.003 450.733 193.883 450.733 193.908 450.493L193.343 445.361C193.946 445.615 196.959 446.694 196.834 445.841C195.804 438.749 194.649 430.858 192.201 424.019C192.185 423.973 192.154 423.934 192.113 423.911C192.072 423.887 192.025 423.881 191.979 423.892C191.934 423.904 191.895 423.933 191.868 423.973C191.842 424.014 191.831 424.064 191.837 424.113C192.578 430.978 194.448 437.656 195.302 444.535C194.226 444.131 193.102 443.888 191.962 443.815C191.749 443.908 192.766 448.627 192.766 449.374C190.258 449.492 187.749 449.136 185.359 448.321C184.568 448.054 184.392 448.494 184.944 448.96Z" fill="#263238"/>
<path d="M158.73 438.216C161.241 437.536 163.676 428.672 163.752 420.06C163.752 414.528 165.886 407.543 171.699 405.464C175.566 404.131 182.295 407.463 186.137 406.463C189.979 405.464 190.694 403.131 192.967 403.197C195.239 403.264 197.775 409.196 197.775 409.196C197.775 409.196 193.72 390.454 171.021 396.479C147.167 402.838 151.913 424.579 154.21 431.551C155.993 436.936 158.73 438.216 158.73 438.216Z" fill="#263238"/>
<path d="M160.475 438.602C160.475 438.602 153.984 428.285 149.59 430.711C145.196 433.137 149.916 448.04 154.976 450.133C155.606 450.456 156.29 450.64 156.989 450.674C157.687 450.708 158.385 450.591 159.04 450.331C159.695 450.07 160.293 449.672 160.798 449.159C161.304 448.646 161.707 448.03 161.981 447.347L160.475 438.602Z" fill="#EB9481"/>
<path d="M150.983 434.977C150.97 434.983 150.958 434.993 150.95 435.006C150.942 435.019 150.938 435.035 150.938 435.05C150.938 435.066 150.942 435.081 150.95 435.094C150.958 435.107 150.97 435.117 150.983 435.123C154.536 436.75 156.344 440.322 157.587 444.001C156.545 442.575 155.076 441.762 153.318 443.068C153.218 443.068 153.318 443.295 153.406 443.268C154.04 443.073 154.715 443.09 155.339 443.317C155.964 443.543 156.507 443.969 156.896 444.535C157.531 445.492 158.073 446.515 158.516 447.587C158.667 447.934 159.257 447.774 159.144 447.374C159.136 447.343 159.136 447.311 159.144 447.281C159.219 442.442 155.867 435.59 150.983 434.977Z" fill="#263238"/>
</g>
<path d="M167.719 274.694C191.218 274.694 210.267 254.468 210.267 229.518C210.267 204.568 191.218 184.341 167.719 184.341C144.22 184.341 125.171 204.568 125.171 229.518C125.171 254.468 144.22 274.694 167.719 274.694Z" fill="#A6A6A6"/>
<path d="M212.263 263.977H208.634C208.258 259.058 205.32 251.539 206.123 255.325C206.591 258.18 206.747 261.083 206.588 263.977H145.12C144.404 256.578 147.518 244.408 147.518 244.408C143.965 250.526 142.596 259.204 142.082 263.977H136.281C135.679 259.551 137.16 251.979 137.16 251.979C135.566 254.952 134.649 260.537 134.185 263.977H127.581C127.33 256.578 129.703 246.847 135.264 238.023C139.721 230.944 134.197 226.825 134.31 213.042C134.423 194.699 146.275 187.714 148.246 185.741C175.05 159.374 199.381 183.848 201.993 201.271C204.504 218.307 199.896 220.56 207.354 236.036C212.991 247.594 212.263 263.977 212.263 263.977Z" fill="#263238"/>
<path d="M140.01 273.48C140.01 273.48 140.136 273.56 140.186 273.614C149.1 280.066 166.702 291.41 176.118 287.81C183.362 285.038 187.605 277.146 188.095 274.6C184.329 271.001 178.867 267.722 176.457 266.015C162.559 256.204 150.042 262.083 140.01 273.48Z" fill="#455A64"/>
<path d="M153.431 267.896C154.059 270.082 164.944 283.772 174.461 282.625C177.562 282.239 176.356 264.176 176.356 264.176L176.557 262.843L179.319 243.874L157.763 231.251L154.649 229.598C154.649 229.598 154.222 234.836 153.745 241.368L153.67 242.301C153.67 242.675 153.595 243.021 153.582 243.368C153.494 244.341 153.419 245.341 153.356 246.327C153.356 247.087 153.256 247.82 153.231 248.62C153.205 249.42 153.155 250.193 153.118 250.993C152.861 256.628 152.965 262.275 153.431 267.896Z" fill="#AD6359"/>
<path d="M153.745 241.315C155.853 246.437 158.986 251.011 162.925 254.719C166.864 258.427 171.516 261.181 176.557 262.79L179.319 243.821L157.763 231.197L154.649 229.544C154.649 229.544 154.197 234.823 153.745 241.315Z" fill="#263238"/>
<path d="M201.403 212.282C206.425 245.608 188.183 252.473 181.416 253.606C175.289 254.632 154.273 257.311 146.087 224.759C137.901 192.206 150.895 179.249 164.806 176.103C178.717 172.958 196.432 179.023 201.403 212.282Z" fill="#AD6359"/>
<path d="M148.648 227.105C156.495 226.105 156.784 200.218 156.784 197.032C156.871 199.045 157.424 209.642 158.227 210.002C159.066 209.903 159.885 209.659 160.65 209.282C160.562 208.013 160.562 206.739 160.65 205.47C160.65 204.884 160.964 206.723 161.441 208.989C161.881 208.816 162.345 208.616 162.86 208.429C162.561 205.729 162.603 202.999 162.986 200.311C163.136 199.298 163.739 203.777 164.944 207.616C171.5 204.945 178.312 203.045 185.258 201.951C187.204 201.698 188.911 201.578 190.418 201.524C190.179 198.392 189.577 195.099 189.853 195.792C190.586 197.627 191.15 199.533 191.535 201.484C192.351 201.484 193.104 201.484 193.782 201.484C193.644 197.059 191.121 190.194 191.862 191.207C194.094 194.351 195.746 197.915 196.733 201.711C199.608 202.044 200.499 202.564 200.499 201.778C200.499 200.365 197.988 188.167 188.183 179.903C177.574 170.945 157.75 170.198 147.87 186.328C147.87 186.328 139.257 193.446 138.617 203.75C137.977 214.055 144.154 227.665 148.648 227.105Z" fill="#263238"/>
<path d="M188.321 231.664C187.652 233.11 186.645 234.349 185.396 235.263C184.696 235.735 183.877 235.967 183.048 235.929C181.24 235.809 180.876 234.157 180.926 232.65C180.96 231.857 181.078 231.069 181.278 230.304C183.428 231.547 185.897 232.023 188.321 231.664Z" fill="white"/>
<path d="M194.862 208.203C194.122 208.203 193.431 208.016 192.69 207.923C191.914 207.936 191.156 207.678 190.531 207.19C190.359 206.995 190.254 206.745 190.231 206.48C190.209 206.214 190.27 205.948 190.405 205.724C190.734 205.327 191.155 205.03 191.628 204.863C192.1 204.697 192.605 204.667 193.092 204.777C194.117 204.846 195.081 205.322 195.791 206.11C195.918 206.303 195.995 206.527 196.013 206.761C196.032 206.995 195.992 207.23 195.898 207.443C195.804 207.655 195.658 207.837 195.476 207.971C195.295 208.104 195.083 208.184 194.862 208.203Z" fill="#263238"/>
<path d="M174.524 210.949C175.252 210.789 175.905 210.509 176.608 210.282C177.379 210.147 178.088 209.749 178.629 209.149C178.762 208.926 178.821 208.663 178.798 208.4C178.776 208.138 178.672 207.89 178.504 207.696C178.116 207.366 177.652 207.15 177.16 207.073C176.668 206.996 176.165 207.059 175.704 207.256C174.707 207.508 173.834 208.145 173.256 209.043C173.158 209.257 173.116 209.496 173.134 209.733C173.153 209.971 173.231 210.198 173.36 210.393C173.489 210.588 173.666 210.742 173.87 210.84C174.075 210.937 174.301 210.975 174.524 210.949Z" fill="#263238"/>
<path d="M179.432 219.027C179.432 218.947 179.269 219.16 179.282 219.254C179.596 221.52 179.583 224.173 177.725 225.159C177.662 225.159 177.725 225.306 177.725 225.292C180.085 224.652 180.06 221.12 179.432 219.027Z" fill="#263238"/>
<path d="M177.261 216.867C173.783 217 174.285 224.385 177.512 224.265C180.738 224.145 180.186 216.76 177.261 216.867Z" fill="#263238"/>
<path d="M175.917 217.321C175.34 217.774 174.8 218.56 174.072 218.654C173.344 218.747 172.54 218.08 171.937 217.387C171.937 217.307 171.812 217.387 171.824 217.48C171.9 218.893 172.502 220.307 173.946 220.413C175.39 220.52 176.118 219.173 176.357 217.747C176.394 217.547 176.156 217.187 175.917 217.321Z" fill="#263238"/>
<path d="M191.397 216.947C191.397 216.867 191.573 217.054 191.573 217.147C191.573 219.44 192.088 222.053 194.084 222.679C194.084 222.679 194.084 222.813 194.084 222.799C191.674 222.653 191.109 219.133 191.397 216.947Z" fill="#263238"/>
<path d="M193.117 214.428C196.57 213.908 197.298 221.28 194.096 221.76C190.895 222.24 190.28 214.868 193.117 214.428Z" fill="#263238"/>
<path d="M194.662 214.761C195.252 215.081 195.917 215.734 196.52 215.708C197.122 215.681 197.775 214.815 198.177 214.001C198.177 213.922 198.29 214.001 198.302 214.068C198.466 215.468 198.177 216.987 196.934 217.401C195.691 217.814 194.825 216.654 194.423 215.295C194.285 215.041 194.436 214.655 194.662 214.761Z" fill="#263238"/>
<path d="M180.223 236.489C180.75 237.022 181.278 237.742 182.069 237.822C182.873 237.777 183.66 237.554 184.379 237.169C184.394 237.163 184.41 237.163 184.425 237.167C184.44 237.172 184.454 237.182 184.464 237.195C184.473 237.208 184.479 237.225 184.479 237.241C184.48 237.258 184.475 237.275 184.467 237.289C184.174 237.751 183.768 238.12 183.292 238.355C182.816 238.59 182.289 238.682 181.767 238.622C181.323 238.515 180.919 238.27 180.606 237.919C180.293 237.568 180.086 237.126 180.01 236.649C179.972 236.476 180.135 236.422 180.223 236.489Z" fill="#263238"/>
<path d="M188.559 227.438C188.559 227.438 189.275 230.811 189.401 232.411C189.401 232.571 189.062 232.677 188.547 232.744C188.547 232.744 188.547 232.744 188.484 232.744C187.201 233.112 185.848 233.098 184.572 232.703C183.296 232.308 182.148 231.547 181.253 230.504C181.14 230.358 181.253 230.171 181.466 230.264C183.51 231.499 185.876 231.995 188.208 231.677C188.283 231.224 186.802 225.945 187.04 225.905C188.228 225.915 189.41 226.089 190.556 226.425C189.3 219.347 186.902 212.562 185.71 205.497C185.706 205.447 185.717 205.397 185.743 205.355C185.768 205.313 185.806 205.281 185.851 205.264C185.895 205.247 185.944 205.247 185.989 205.262C186.033 205.278 186.072 205.309 186.099 205.35C189.037 212.295 190.694 220.4 192.213 227.665C192.414 228.585 189.187 227.652 188.559 227.438Z" fill="#263238"/>
<path d="M175.816 230.464C174.047 230.451 172.317 229.911 170.822 228.906C169.327 227.901 168.128 226.47 167.361 224.777C166.594 223.084 166.29 221.197 166.483 219.329C166.677 217.462 167.36 215.689 168.455 214.214C169.55 212.738 171.013 211.618 172.678 210.982C174.343 210.346 176.143 210.218 177.872 210.614C179.602 211.01 181.192 211.913 182.462 213.221C183.733 214.529 184.631 216.19 185.057 218.013C185.656 220.597 185.266 223.329 183.971 225.608C182.677 227.887 180.584 229.528 178.152 230.17C177.387 230.366 176.603 230.465 175.816 230.464ZM175.929 211.735C175.248 211.727 174.569 211.813 173.908 211.988C171.883 212.519 170.124 213.849 168.99 215.708C167.857 217.567 167.433 219.816 167.806 221.995C168.179 224.174 169.32 226.121 170.997 227.438C172.674 228.755 174.761 229.343 176.833 229.084C178.905 228.824 180.805 227.736 182.148 226.04C183.49 224.345 184.173 222.17 184.058 219.959C183.943 217.747 183.038 215.665 181.528 214.137C180.017 212.609 178.015 211.75 175.929 211.735Z" fill="#FFC727"/>
<path d="M197.36 227.799C193.745 227.799 190.493 223.799 189.953 218.614C189.648 216.134 190.087 213.615 191.209 211.416C191.634 210.435 192.291 209.588 193.116 208.957C193.94 208.325 194.904 207.931 195.915 207.811C196.925 207.692 197.948 207.852 198.883 208.276C199.818 208.699 200.634 209.372 201.252 210.229C202.797 212.122 203.745 214.481 203.964 216.974C204.529 222.466 201.867 227.319 198.013 227.772C197.797 227.802 197.578 227.811 197.36 227.799ZM196.519 209.136C196.36 209.123 196.201 209.123 196.042 209.136C195.239 209.263 194.476 209.595 193.82 210.104C193.164 210.612 192.634 211.282 192.276 212.055C191.291 214.01 190.905 216.242 191.171 218.441C191.673 223.213 194.649 226.785 197.812 226.439C200.976 226.092 203.148 221.88 202.658 217.108C202.461 214.897 201.623 212.806 200.26 211.122C199.8 210.534 199.23 210.054 198.586 209.712C197.942 209.37 197.238 209.174 196.519 209.136Z" fill="#FFC727"/>
<path d="M184.856 219.201L183.952 218.281C185.207 216.841 188.358 214.748 190.92 217.081L190.091 218.094C187.806 215.988 184.981 219.081 184.856 219.201Z" fill="#FFC727"/>
<path d="M143.275 226.651L142.094 226.171C142.308 225.598 144.241 220.453 146.991 219.64C149.74 218.826 166.576 218.573 167.304 218.56V219.893C162.433 219.973 149.313 220.333 147.317 220.919C145.321 221.506 143.789 225.318 143.275 226.651Z" fill="#FFC727"/>
<path d="M151.448 226.479C151.448 226.479 143.84 216.508 139.533 219.467C135.227 222.426 141.442 237.236 146.84 238.916C147.519 239.181 148.242 239.298 148.965 239.26C149.687 239.221 150.395 239.028 151.046 238.692C151.697 238.356 152.277 237.884 152.751 237.304C153.226 236.724 153.585 236.048 153.808 235.317L151.448 226.479Z" fill="#AD6359"/>
<path d="M141.416 223.666C141.403 223.672 141.392 223.682 141.384 223.695C141.375 223.708 141.371 223.723 141.371 223.739C141.371 223.755 141.375 223.77 141.384 223.783C141.392 223.796 141.403 223.806 141.416 223.812C145.183 225.145 147.405 228.611 148.949 232.277C147.757 230.944 146.212 230.224 144.48 231.744C144.453 231.76 144.434 231.786 144.425 231.817C144.417 231.849 144.421 231.882 144.436 231.91C144.451 231.939 144.476 231.96 144.505 231.968C144.535 231.977 144.566 231.973 144.593 231.957C145.234 231.672 145.944 231.61 146.621 231.78C147.298 231.95 147.906 232.343 148.359 232.904C149.105 233.816 149.753 234.813 150.293 235.876C150.493 236.209 151.071 235.983 150.92 235.596V235.503C150.619 230.504 146.501 223.786 141.416 223.666Z" fill="#263238"/>
<mask id="mask2_371_138" style="mask-type:luminance" maskUnits="userSpaceOnUse" x="125" y="173" width="88" height="102">
<path d="M212.263 263.977H208.635C208.27 259.058 205.333 251.539 206.124 255.339C206.595 258.189 206.755 261.087 206.601 263.977H195.301C191.922 267.037 188.109 269.511 184.002 271.308C181.596 272.375 179.099 273.192 176.545 273.748C173.633 274.424 170.661 274.763 167.681 274.761C164.215 274.761 160.762 274.314 157.399 273.428C153.194 272.319 149.179 270.52 145.497 268.096C143.587 266.883 141.781 265.496 140.098 263.95H136.332C136.173 262.624 136.136 261.285 136.219 259.951C135.842 259.484 135.478 259.044 135.114 258.618C134.712 260.564 134.424 262.51 134.223 263.95H127.581C127.505 259.169 128.228 254.412 129.716 249.9C125.632 241.301 124.243 231.541 125.752 222.045C127.26 212.549 131.588 203.813 138.102 197.112C141.781 190.207 147.003 186.928 148.234 185.715H148.297C156.269 173.437 170.192 171.491 180.813 175.677L181.089 175.77C192.514 179.956 200.549 191.7 201.993 201.298C202.081 201.977 202.169 202.631 202.257 203.27C205.837 208.548 208.298 214.586 209.47 220.969C210.643 227.353 210.499 233.93 209.049 240.249C212.828 251.126 212.263 263.977 212.263 263.977Z" fill="white"/>
</mask>
<g mask="url(#mask2_371_138)">
<path d="M188.095 274.642C187.605 277.148 183.362 285.066 176.118 287.825C166.702 291.438 149.088 280.094 140.174 273.655L140.01 273.522C141.716 271.564 143.558 269.746 145.522 268.083C149.204 270.508 153.219 272.307 157.424 273.415C160.788 274.301 164.24 274.749 167.706 274.749C170.687 274.751 173.658 274.412 176.57 273.735C179.124 273.179 181.621 272.362 184.027 271.296C185.444 272.325 186.803 273.442 188.095 274.642Z" fill="#455A64"/>
<path d="M176.569 273.683C176.482 278.108 175.967 282.441 174.46 282.614C168.308 283.36 161.592 277.908 157.423 273.363C160.787 274.249 164.24 274.696 167.706 274.696C170.686 274.699 173.658 274.359 176.569 273.683Z" fill="#DD6A57"/>
</g>
</svg>
