<svg width="360" height="341" viewBox="0 0 360 341" fill="none" xmlns="http://www.w3.org/2000/svg">
<path d="M204.204 90.2433C203.524 112.523 206.446 139.361 195.388 159.713C186.736 175.632 170.363 185.544 153.751 191.438C117.228 204.398 67.5686 202.66 45.4404 165.696C36.6244 150.922 37.1534 121.616 54.3572 112.157C63.1732 107.334 73.2486 106.83 83.0218 104.979C95.8427 102.56 105.44 96.1626 112.127 84.9536C125.213 63.0396 124.218 46.1885 128.26 21.7178C129.029 17.1838 130.439 12.7632 135.25 9.24942C139.594 5.5739 144.859 3.15289 150.477 2.247C155.328 0.564577 160.519 0.10601 165.59 0.912011C176.408 2.87672 186.119 13.7456 194.078 20.6472C202.038 27.5489 205.564 34.5765 205.413 45.3446C205.325 60.3192 204.657 75.2812 204.204 90.2433Z" fill="#263238"/>
<path d="M206.156 100.923C205.476 80.4447 204.38 60.0294 203.423 39.5763C203.423 39.4503 203.234 39.4377 203.234 39.5763C203.524 56.4274 203.599 73.266 204.116 90.1171C204.62 106.628 206.269 123.568 205.375 140.079C203.259 177.118 164.079 189.285 132.757 185.078C131.333 184.889 131.195 187.181 132.643 187.32C160.25 190.154 193.977 183.214 204.62 153.781C210.4 137.673 206.723 117.686 206.156 100.923Z" fill="#263238"/>
<path d="M130.288 19.9167C130.274 19.8456 130.235 19.7816 130.179 19.7356C130.122 19.6897 130.052 19.6646 129.979 19.6646C129.907 19.6646 129.836 19.6897 129.78 19.7356C129.724 19.7816 129.685 19.8456 129.671 19.9167C127.152 40.1935 126.207 63.9967 113.298 80.8982C106.914 89.1637 98.1832 95.3092 88.2483 98.5302C80.3769 101.049 72.2536 100.709 64.1428 101.679C32.4556 105.457 28.8789 147.585 50.3899 165.759C50.8307 166.136 51.5108 165.381 51.07 164.965C36.0702 151.023 32.5564 127.484 46.8761 111.49C58.3621 98.6562 78.1099 104.513 92.9208 98.2406C123.613 85.2433 128.663 49.5007 130.288 19.9167Z" fill="#263238"/>
<path d="M133.55 106.351C100.641 139.714 59.2438 209.902 66.9515 224.12C75.5534 239.977 121.384 193.202 121.208 190.469C121.069 188.403 137.202 145.771 149.431 114.764C161.66 83.7572 141.699 98.0517 133.55 106.351Z" fill="#F7A9A0"/>
<path d="M121.51 190.469C122.92 185.909 144.86 129.701 151.132 111.918C157.403 94.1349 151.585 88.6437 133.676 104.928C115.767 121.213 76.4978 175.595 67.5433 204.423C58.9036 232.231 73.2233 232.231 92.1147 219.41C107.581 208.969 121.51 190.469 121.51 190.469Z" fill="#FFC727"/>
<path d="M153.487 102.321C153.487 102.649 153.424 102.976 153.373 103.329C153.267 103.481 153.126 103.605 152.961 103.691C152.797 103.776 152.614 103.821 152.429 103.82C152.224 103.819 152.022 103.763 151.847 103.656C151.672 103.549 151.53 103.396 151.436 103.214C151.341 103.031 151.299 102.827 151.313 102.622C151.327 102.417 151.397 102.22 151.516 102.053C151.634 101.885 151.796 101.753 151.984 101.671C152.172 101.589 152.379 101.561 152.583 101.588C152.786 101.616 152.978 101.699 153.137 101.828C153.297 101.957 153.417 102.128 153.487 102.321ZM116.145 125.847C115.919 125.845 115.699 125.909 115.51 126.033C115.322 126.157 115.175 126.334 115.087 126.541C115 126.749 114.976 126.978 115.02 127.199C115.063 127.42 115.171 127.623 115.331 127.782C115.49 127.941 115.693 128.05 115.914 128.093C116.135 128.136 116.364 128.113 116.572 128.026C116.779 127.938 116.956 127.791 117.08 127.603C117.203 127.414 117.268 127.193 117.265 126.968C117.265 126.671 117.147 126.386 116.937 126.176C116.727 125.965 116.442 125.847 116.145 125.847ZM134.28 125.847C134.056 125.847 133.836 125.914 133.649 126.039C133.463 126.164 133.317 126.342 133.232 126.55C133.147 126.758 133.125 126.986 133.17 127.207C133.214 127.427 133.324 127.629 133.483 127.787C133.643 127.945 133.846 128.052 134.067 128.094C134.288 128.136 134.516 128.112 134.723 128.024C134.93 127.937 135.106 127.789 135.229 127.601C135.352 127.413 135.416 127.193 135.414 126.968C135.414 126.82 135.384 126.673 135.327 126.536C135.27 126.4 135.187 126.275 135.081 126.171C134.976 126.067 134.851 125.985 134.713 125.929C134.576 125.873 134.429 125.846 134.28 125.847ZM125.212 114.223C124.988 114.223 124.768 114.29 124.581 114.415C124.395 114.54 124.25 114.718 124.164 114.925C124.079 115.133 124.057 115.362 124.102 115.582C124.147 115.802 124.256 116.004 124.416 116.162C124.575 116.32 124.778 116.427 124.999 116.469C125.22 116.512 125.448 116.488 125.655 116.4C125.862 116.312 126.038 116.165 126.161 115.977C126.284 115.789 126.348 115.568 126.346 115.344C126.346 115.195 126.317 115.049 126.259 114.912C126.202 114.775 126.119 114.651 126.013 114.547C125.908 114.442 125.783 114.36 125.645 114.304C125.508 114.249 125.361 114.221 125.212 114.223ZM143.361 114.223C143.136 114.22 142.915 114.285 142.726 114.409C142.538 114.532 142.391 114.709 142.304 114.917C142.216 115.124 142.193 115.353 142.236 115.574C142.279 115.795 142.388 115.998 142.547 116.158C142.706 116.317 142.909 116.425 143.13 116.469C143.351 116.512 143.58 116.488 143.788 116.401C143.995 116.314 144.172 116.166 144.296 115.978C144.42 115.79 144.484 115.569 144.482 115.344C144.482 115.046 144.364 114.761 144.153 114.551C143.943 114.341 143.658 114.223 143.361 114.223ZM98.0214 150.116C97.7962 150.114 97.5753 150.179 97.387 150.302C97.1987 150.426 97.0515 150.603 96.9641 150.81C96.8768 151.018 96.8533 151.247 96.8966 151.468C96.9399 151.689 97.0481 151.892 97.2074 152.051C97.3667 152.211 97.5698 152.319 97.7908 152.362C98.0119 152.406 98.2408 152.382 98.4484 152.295C98.6561 152.207 98.833 152.06 98.9566 151.872C99.0801 151.683 99.1448 151.463 99.1423 151.237C99.1423 151.089 99.1129 150.942 99.0558 150.805C98.9987 150.669 98.915 150.545 98.8096 150.44C98.7042 150.336 98.5791 150.254 98.4416 150.198C98.3042 150.143 98.1571 150.115 98.0088 150.116H98.0214ZM116.157 150.116C115.932 150.114 115.711 150.179 115.523 150.302C115.334 150.426 115.187 150.603 115.1 150.81C115.013 151.018 114.989 151.247 115.032 151.468C115.076 151.689 115.184 151.892 115.343 152.051C115.502 152.211 115.706 152.319 115.927 152.362C116.148 152.406 116.377 152.382 116.584 152.295C116.792 152.207 116.969 152.06 117.092 151.872C117.216 151.683 117.281 151.463 117.278 151.237C117.278 151.089 117.249 150.942 117.192 150.805C117.134 150.669 117.051 150.545 116.945 150.44C116.84 150.336 116.715 150.254 116.577 150.198C116.44 150.143 116.293 150.115 116.145 150.116H116.157ZM134.293 150.116C134.068 150.116 133.849 150.183 133.662 150.308C133.475 150.434 133.33 150.611 133.245 150.819C133.159 151.027 133.137 151.256 133.182 151.476C133.227 151.696 133.336 151.898 133.496 152.056C133.656 152.214 133.859 152.321 134.08 152.363C134.3 152.405 134.529 152.381 134.736 152.293C134.942 152.206 135.119 152.059 135.242 151.87C135.365 151.682 135.429 151.462 135.426 151.237C135.426 151.088 135.397 150.94 135.339 150.803C135.281 150.665 135.196 150.54 135.089 150.436C134.983 150.331 134.856 150.249 134.717 150.194C134.578 150.14 134.43 150.113 134.28 150.116H134.293ZM107.089 138.492C106.864 138.489 106.643 138.554 106.455 138.678C106.267 138.801 106.119 138.978 106.032 139.186C105.945 139.393 105.921 139.622 105.964 139.843C106.008 140.064 106.116 140.268 106.275 140.427C106.435 140.586 106.638 140.694 106.859 140.738C107.08 140.781 107.309 140.758 107.516 140.67C107.724 140.583 107.901 140.436 108.024 140.247C108.148 140.059 108.213 139.838 108.21 139.613C108.21 139.465 108.181 139.318 108.124 139.181C108.067 139.044 107.983 138.92 107.877 138.816C107.772 138.712 107.647 138.629 107.51 138.574C107.372 138.518 107.225 138.49 107.077 138.492H107.089ZM125.225 138.492C125 138.492 124.781 138.559 124.594 138.684C124.407 138.809 124.262 138.987 124.177 139.195C124.091 139.402 124.07 139.631 124.114 139.851C124.159 140.071 124.268 140.273 124.428 140.431C124.588 140.589 124.791 140.696 125.012 140.739C125.232 140.781 125.461 140.757 125.668 140.669C125.875 140.581 126.051 140.434 126.174 140.246C126.297 140.058 126.361 139.838 126.359 139.613C126.359 139.464 126.329 139.316 126.271 139.178C126.213 139.04 126.128 138.916 126.021 138.811C125.915 138.707 125.788 138.625 125.649 138.57C125.51 138.515 125.362 138.489 125.212 138.492H125.225ZM98.0088 174.36C97.7836 174.358 97.5627 174.423 97.3744 174.546C97.1861 174.67 97.0389 174.847 96.9515 175.054C96.8642 175.262 96.8407 175.491 96.884 175.712C96.9273 175.933 97.0355 176.136 97.1948 176.295C97.3541 176.455 97.5572 176.563 97.7782 176.606C97.9993 176.65 98.2282 176.626 98.4359 176.539C98.6435 176.451 98.8204 176.304 98.9439 176.116C99.0675 175.927 99.1322 175.707 99.1297 175.481C99.1297 175.184 99.0116 174.899 98.8014 174.689C98.5912 174.479 98.3061 174.36 98.0088 174.36ZM116.145 174.36C115.919 174.358 115.699 174.423 115.51 174.546C115.322 174.67 115.175 174.847 115.087 175.054C115 175.262 114.976 175.491 115.02 175.712C115.063 175.933 115.171 176.136 115.331 176.295C115.49 176.455 115.693 176.563 115.914 176.606C116.135 176.65 116.364 176.626 116.572 176.539C116.779 176.451 116.956 176.304 117.08 176.116C117.203 175.927 117.268 175.707 117.265 175.481C117.265 175.184 117.147 174.899 116.937 174.689C116.727 174.479 116.442 174.36 116.145 174.36ZM88.941 162.761C88.7162 162.761 88.4966 162.828 88.3099 162.953C88.1233 163.078 87.978 163.256 87.8926 163.464C87.8072 163.672 87.7855 163.9 87.8302 164.12C87.875 164.341 87.9842 164.543 88.144 164.701C88.3038 164.859 88.5069 164.966 88.7276 165.008C88.9483 165.05 89.1766 165.026 89.3835 164.938C89.5904 164.85 89.7665 164.703 89.8896 164.515C90.0126 164.327 90.0769 164.107 90.0744 163.882C90.0744 163.734 90.045 163.587 89.9879 163.45C89.9308 163.313 89.8471 163.189 89.7417 163.085C89.6363 162.981 89.5112 162.898 89.3738 162.843C89.2363 162.787 89.0892 162.759 88.941 162.761ZM107.089 162.761C106.864 162.759 106.643 162.823 106.455 162.947C106.267 163.07 106.119 163.247 106.032 163.455C105.945 163.663 105.921 163.892 105.964 164.113C106.008 164.334 106.116 164.537 106.275 164.696C106.435 164.855 106.638 164.964 106.859 165.007C107.08 165.05 107.309 165.027 107.516 164.939C107.724 164.852 107.901 164.705 108.024 164.516C108.148 164.328 108.213 164.107 108.21 163.882C108.21 163.734 108.181 163.587 108.124 163.45C108.067 163.313 107.983 163.189 107.877 163.085C107.772 162.981 107.647 162.898 107.51 162.843C107.372 162.787 107.225 162.759 107.077 162.761H107.089ZM125.225 162.761C125 162.761 124.781 162.828 124.594 162.953C124.407 163.078 124.262 163.256 124.177 163.464C124.091 163.672 124.07 163.9 124.114 164.12C124.159 164.341 124.268 164.543 124.428 164.701C124.588 164.859 124.791 164.966 125.012 165.008C125.232 165.05 125.461 165.026 125.668 164.938C125.875 164.85 126.051 164.703 126.174 164.515C126.297 164.327 126.361 164.107 126.359 163.882C126.359 163.733 126.329 163.585 126.271 163.447C126.213 163.31 126.128 163.185 126.021 163.08C125.915 162.976 125.788 162.894 125.649 162.839C125.51 162.784 125.362 162.758 125.212 162.761H125.225ZM79.8857 198.655C79.6645 198.657 79.4491 198.725 79.2664 198.85C79.0837 198.974 78.942 199.15 78.8591 199.355C78.7762 199.56 78.7558 199.785 78.8005 200.002C78.8451 200.219 78.9529 200.417 79.1101 200.573C79.2674 200.728 79.4671 200.834 79.6842 200.876C79.9013 200.918 80.126 200.895 80.3301 200.81C80.5341 200.725 80.7085 200.581 80.8311 200.397C80.9537 200.213 81.0191 199.997 81.0192 199.776C81.0192 199.625 80.989 199.476 80.9304 199.338C80.8717 199.199 80.7857 199.074 80.6776 198.969C80.5695 198.865 80.4414 198.783 80.301 198.729C80.1606 198.675 80.0108 198.65 79.8605 198.655H79.8857ZM98.034 198.655C97.8123 198.655 97.5956 198.721 97.4113 198.844C97.227 198.967 97.0833 199.142 96.9985 199.347C96.9136 199.552 96.8914 199.777 96.9347 199.994C96.9779 200.212 97.0847 200.412 97.2414 200.568C97.3982 200.725 97.5979 200.832 97.8153 200.875C98.0328 200.918 98.2582 200.896 98.463 200.811C98.6678 200.726 98.8428 200.583 98.966 200.398C99.0892 200.214 99.1549 199.997 99.1549 199.776C99.155 199.626 99.1251 199.479 99.0672 199.341C99.0093 199.203 98.9245 199.079 98.8178 198.974C98.711 198.87 98.5844 198.788 98.4455 198.733C98.3066 198.678 98.1581 198.651 98.0088 198.655H98.034ZM88.941 187.03C88.7162 187.03 88.4966 187.097 88.3099 187.222C88.1233 187.347 87.978 187.525 87.8926 187.733C87.8072 187.941 87.7855 188.169 87.8302 188.39C87.875 188.61 87.9842 188.812 88.144 188.97C88.3038 189.128 88.5069 189.235 88.7276 189.277C88.9483 189.319 89.1766 189.295 89.3835 189.207C89.5904 189.12 89.7665 188.972 89.8896 188.784C90.0126 188.596 90.0769 188.376 90.0744 188.151C90.0744 188.003 90.045 187.856 89.9879 187.719C89.9308 187.583 89.8471 187.458 89.7417 187.354C89.6363 187.25 89.5112 187.168 89.3738 187.112C89.2363 187.056 89.0892 187.029 88.941 187.03ZM107.089 187.03C106.864 187.028 106.643 187.092 106.455 187.216C106.267 187.34 106.119 187.517 106.032 187.724C105.945 187.932 105.921 188.161 105.964 188.382C106.008 188.603 106.116 188.806 106.275 188.965C106.435 189.125 106.638 189.233 106.859 189.276C107.08 189.319 107.309 189.296 107.516 189.209C107.724 189.121 107.901 188.974 108.024 188.786C108.148 188.597 108.213 188.376 108.21 188.151C108.21 188.003 108.181 187.856 108.124 187.719C108.067 187.583 107.983 187.458 107.877 187.354C107.772 187.25 107.647 187.168 107.51 187.112C107.372 187.056 107.225 187.029 107.077 187.03H107.089ZM79.8731 222.924C79.6519 222.926 79.4365 222.994 79.2538 223.119C79.0712 223.244 78.9294 223.42 78.8465 223.625C78.7636 223.83 78.7432 224.055 78.7879 224.271C78.8325 224.488 78.9403 224.686 79.0975 224.842C79.2548 224.997 79.4545 225.103 79.6716 225.145C79.8887 225.187 80.1134 225.164 80.3175 225.079C80.5216 224.994 80.6959 224.85 80.8185 224.666C80.9411 224.482 81.0065 224.266 81.0066 224.045C81.0066 223.896 80.9768 223.748 80.9189 223.61C80.861 223.472 80.7762 223.348 80.6694 223.243C80.5626 223.139 80.4361 223.057 80.2972 223.002C80.1583 222.947 80.0098 222.921 79.8605 222.924H79.8731ZM70.8052 211.299C70.58 211.297 70.3591 211.362 70.1708 211.485C69.9825 211.609 69.8352 211.786 69.7479 211.993C69.6605 212.201 69.637 212.43 69.6804 212.651C69.7237 212.872 69.8319 213.075 69.9912 213.234C70.1504 213.394 70.3536 213.502 70.5746 213.545C70.7957 213.589 71.0246 213.565 71.2322 213.478C71.4398 213.39 71.6167 213.243 71.7403 213.055C71.8639 212.866 71.9286 212.646 71.9261 212.42C71.9261 212.272 71.8967 212.125 71.8396 211.988C71.7825 211.852 71.6988 211.728 71.5933 211.623C71.4879 211.519 71.3629 211.437 71.2254 211.381C71.088 211.326 70.9408 211.298 70.7926 211.299H70.8052ZM88.941 211.299C88.7162 211.299 88.4966 211.366 88.3099 211.491C88.1233 211.617 87.978 211.794 87.8926 212.002C87.8072 212.21 87.7855 212.439 87.8302 212.659C87.875 212.879 87.9842 213.081 88.144 213.239C88.3038 213.397 88.5069 213.504 88.7276 213.546C88.9483 213.589 89.1766 213.564 89.3835 213.477C89.5904 213.389 89.7665 213.242 89.8896 213.054C90.0126 212.865 90.0769 212.645 90.0744 212.42C90.0744 212.272 90.045 212.125 89.9879 211.988C89.9308 211.852 89.8471 211.728 89.7417 211.623C89.6363 211.519 89.5112 211.437 89.3738 211.381C89.2363 211.326 89.0892 211.298 88.941 211.299Z" fill="white"/>
<path d="M108.5 241.538L111.787 221.828L116.51 186.854C116.51 186.854 105.389 167.434 111.837 153.504C115.099 146.439 143.676 102.573 155.691 93.7571C167.026 85.5582 183.398 94.3364 189.469 100.747C212.97 125.482 224.053 174.6 232.491 241.501L108.5 241.538Z" fill="#F7A9A0"/>
<path d="M112.618 215.645L116.51 186.867C116.51 186.867 105.389 167.446 111.837 153.504C115.099 146.439 143.676 102.573 155.691 93.7571C167.026 85.5708 183.398 94.3364 189.469 100.76C209.821 122.17 220.866 161.892 228.939 215.607L112.618 215.645Z" fill="#FFC727"/>
<path d="M160.854 186.275C155.368 185.794 149.853 185.723 144.356 186.061C141.636 186.262 138.928 186.59 136.22 186.98C134.872 187.169 133.525 187.32 132.165 187.459C130.751 187.635 129.321 187.635 127.908 187.459C127.893 187.453 127.876 187.451 127.86 187.453C127.844 187.455 127.829 187.461 127.815 187.471C127.802 187.48 127.791 187.492 127.783 187.507C127.776 187.521 127.772 187.537 127.772 187.553C127.772 187.57 127.776 187.586 127.783 187.6C127.791 187.614 127.802 187.627 127.815 187.636C127.829 187.645 127.844 187.651 127.86 187.653C127.876 187.655 127.893 187.653 127.908 187.648C129.223 187.95 130.557 188.165 131.9 188.29C133.204 188.378 134.513 188.378 135.817 188.29C138.588 188.114 141.346 187.799 144.117 187.597C149.696 187.169 155.275 186.754 160.88 186.728C160.94 186.725 160.996 186.698 161.036 186.653C161.076 186.608 161.097 186.549 161.094 186.489C161.09 186.429 161.063 186.373 161.018 186.332C160.974 186.292 160.915 186.272 160.854 186.275Z" fill="#263238"/>
<path d="M173.323 193.428C168.959 192.17 164.527 191.16 160.048 190.405C157.807 190.028 155.565 189.801 153.298 189.612C152.215 189.524 151.132 189.461 150.048 189.411C148.965 189.36 147.656 189.411 146.459 189.411C146.333 189.411 146.295 189.587 146.459 189.599C147.58 189.713 148.688 190.002 149.797 190.179L153.147 190.683C155.388 191.023 157.63 191.388 159.872 191.715C164.356 192.358 168.827 193.038 173.285 193.831C173.524 193.844 173.575 193.491 173.323 193.428Z" fill="#263238"/>
<path d="M111.787 221.828C112.417 215.984 113.047 210.128 113.79 204.297C114.533 198.466 115.175 192.609 115.956 186.778L116.069 187.194C114.397 184.814 113.023 182.238 111.976 179.524C110.903 176.833 110.125 174.033 109.659 171.174C109.205 168.305 109.079 165.394 109.281 162.497C109.608 159.604 110.328 156.769 111.422 154.071C113.599 148.775 116.304 143.712 119.495 138.958C122.609 134.166 126.007 129.566 129.671 125.18C126.283 129.764 123.109 134.512 120.137 139.361C117.141 144.163 114.574 149.22 112.467 154.474C111.432 157.077 110.762 159.811 110.477 162.597C110.32 165.396 110.459 168.203 110.893 170.972C111.32 173.752 112.051 176.476 113.072 179.096C114.055 181.722 115.358 184.218 116.951 186.526L117.077 186.715V186.929C116.296 192.761 115.376 198.567 114.558 204.398C113.739 210.229 112.732 216.022 111.787 221.828Z" fill="#263238"/>
<path d="M120.137 138.933C120.204 138.149 120.36 137.376 120.603 136.628C120.833 135.882 121.106 135.15 121.422 134.437C121.737 133.731 122.064 133.026 122.442 132.346C122.818 131.66 123.239 131 123.701 130.369C123.223 131.867 122.606 133.278 122.001 134.688C121.397 136.099 120.729 137.484 120.137 138.933Z" fill="#263238"/>
<path d="M18.0855 340.064H341.154L353.194 279.51H6.04541L18.0855 340.064Z" fill="#FFC727"/>
<path opacity="0.12" d="M6.05811 279.51L10.3653 301.16H348.874L353.182 279.51H6.05811Z" fill="black"/>
<path d="M0.000244141 293.729L359.24 293.729V275.304L0.000244141 275.304V293.729Z" fill="#FFC727"/>
<path d="M355.172 269.485C354.075 270.561 352.687 271.292 351.179 271.588C351.907 273.42 352.056 275.43 351.606 277.349C351.155 279.268 350.127 281.002 348.66 282.319C349.085 283.274 349.225 284.332 349.063 285.365C348.901 286.399 348.444 287.363 347.747 288.142C347.05 288.922 346.142 289.484 345.134 289.76C344.125 290.036 343.058 290.015 342.061 289.699C341.173 291.371 339.945 292.839 338.455 294.008C336.965 295.176 335.247 296.02 333.412 296.484C331.576 296.948 329.664 297.022 327.798 296.701C325.931 296.381 324.153 295.673 322.578 294.623C321.743 296.111 320.555 297.37 319.118 298.288C317.681 299.207 316.039 299.756 314.339 299.888C312.639 300.02 310.932 299.731 309.37 299.045C307.808 298.36 306.44 297.299 305.386 295.958C302.129 298.322 298.119 299.411 294.114 299.019C290.108 298.626 286.385 296.781 283.649 293.83C282.136 295.222 280.224 296.103 278.183 296.349C275.664 296.777 273.019 296.487 270.551 297.079C267.049 297.923 264.946 300.442 262.238 302.545C259.531 304.648 254.682 305.442 252.075 303.301C249.251 308.305 245.243 312.54 240.401 315.634C235.559 318.728 230.032 320.586 224.304 321.046C214.468 321.802 202.214 317.104 199.884 307.029C197.398 309.175 194.435 310.695 191.242 311.463C188.048 312.231 184.718 312.224 181.528 311.443C178.338 310.661 175.381 309.128 172.904 306.971C170.427 304.814 168.502 302.096 167.29 299.044C159.57 302.268 149.57 304.422 144.62 296.978C142.542 299.378 139.652 300.927 136.502 301.327C133.353 301.726 130.167 300.949 127.555 299.145C119.696 307.469 105.603 317.52 96.3087 306.512C88.3491 313.653 75.0621 318.363 68.2108 307.772C61.5485 311.688 53.0977 315.215 45.7678 311.361C40.9316 308.842 37.8083 303.678 38.6017 298.401C36.726 298.754 34.7881 298.548 33.0284 297.809C31.2687 297.07 29.7646 295.831 28.7026 294.245C25.554 295.744 23.7656 292.457 21.2846 290.354C16.5113 286.261 10.2016 289.245 5.22685 285.744C-2.83349 280.089 4.09337 271.047 10.5542 268.112C10.2589 266.071 10.474 263.989 11.1803 262.051C11.8866 260.113 13.0621 258.381 14.6016 257.008C16.1411 255.636 17.9967 254.667 20.0025 254.187C22.0082 253.707 24.1017 253.732 26.0956 254.259C25.6268 251.08 26.1344 247.835 27.5513 244.951C28.9682 242.068 31.2275 239.683 34.03 238.113C42.6193 233.276 52.5939 237.496 58.8911 244.07C62.0013 239.343 66.2966 235.515 71.3485 232.967C76.4003 230.419 82.032 229.24 87.6816 229.549C94.7092 229.926 104.054 234.057 107.455 240.606C109.77 239.276 112.27 238.295 114.873 237.697C119.774 236.549 124.896 236.777 129.676 238.355C134.456 239.933 138.708 242.799 141.963 246.639C146.126 245.101 150.63 244.732 154.988 245.571C159.346 246.41 163.391 248.426 166.686 251.4C168.711 248.585 171.401 246.316 174.516 244.793C177.632 243.271 181.075 242.542 184.54 242.673C188.005 242.804 191.384 243.79 194.375 245.544C197.366 247.297 199.878 249.763 201.685 252.722C204.989 248.871 209.128 245.825 213.788 243.817C218.448 241.809 223.504 240.892 228.573 241.135C233.641 241.378 238.586 242.775 243.033 245.219C247.479 247.664 251.308 251.092 254.228 255.241C260.4 244.322 272.843 243.692 284.769 245.027C288.548 245.43 291.067 245.405 294.492 243.83C295.752 243.264 296.835 242.445 298.082 241.904C300.681 240.745 303.457 240.029 306.293 239.788C312.001 239.285 317.729 240.514 322.729 243.314C324.933 244.574 327.187 247.747 329.303 248.616C331.96 249.699 336.859 248.15 339.92 248.553C345.411 249.296 351.255 251.878 354.819 256.299C357.854 260.203 359.114 265.795 355.172 269.485Z" fill="#455A64"/>
<path d="M43.3496 264.36C45.8684 259.133 43.3496 249.788 36.7628 247.105C30.176 244.423 21.2088 249.511 19.7479 255.266C18.2869 261.022 24.5841 270.644 29.7477 271.337C35.5159 272.067 41.4856 268.201 43.3496 264.36Z" fill="#FFC727"/>
<path opacity="0.12" d="M16.9898 256.652C21.6623 260.657 29.4204 264.208 35.7679 263.944C33.2854 267.007 30.463 269.779 27.3549 272.206C27.1786 272.357 27.3549 272.684 27.5942 272.546C34.8737 267.697 42.0398 258.931 42.3547 249.876C42.3547 249.75 42.191 249.75 42.1784 249.876C41.8697 252.414 41.1509 254.885 40.0499 257.193C37.5311 251.778 30.4027 247.71 24.9368 246.425C24.9017 246.413 24.8635 246.416 24.8304 246.433C24.7973 246.449 24.7722 246.478 24.7605 246.513C24.7488 246.548 24.7515 246.587 24.7681 246.62C24.7846 246.653 24.8136 246.678 24.8486 246.69C26.5212 247.366 28.1565 248.131 29.7478 248.982C26.7252 251.652 24.4456 256.853 25.1257 260.846C22.3678 259.614 19.75 258.089 17.3173 256.299C17.1535 256.11 16.7757 256.475 16.9898 256.652ZM36.045 263.629C33.4307 263.448 30.8518 262.923 28.3751 262.067C32.1167 262.281 35.8296 261.302 38.9794 259.271C38.1053 260.791 37.1247 262.247 36.045 263.629ZM39.8232 257.609C39.6217 258.024 39.4076 258.427 39.1809 258.868C36.7213 260.117 34.0611 260.922 31.3221 261.249C33.9238 259.614 35.9529 257.211 37.1281 254.372C38.1223 255.367 39.0244 256.451 39.8232 257.609ZM36.9769 254.183C35.975 255.953 34.7612 257.594 33.3624 259.07C32.846 258.956 32.3422 258.805 31.8385 258.642C32.652 258.032 33.3059 257.236 33.7446 256.319C34.1832 255.402 34.3934 254.393 34.3573 253.377C35.0626 253.465 35.7805 253.591 36.5109 253.742L36.9769 254.183ZM31.6118 253.226C31.8417 253.593 32.0276 253.987 32.1659 254.397C32.2812 254.905 32.3278 255.426 32.3045 255.946C31.4657 256.066 30.6122 256.032 29.7856 255.846C29.9773 254.975 30.2689 254.13 30.6546 253.327C31.0073 253.251 31.2969 253.239 31.6118 253.226ZM32.0778 253.226C32.7808 253.224 33.4832 253.266 34.181 253.352C33.9981 254.192 33.728 255.011 33.375 255.795L32.4052 255.934C32.5553 255.486 32.6038 255.011 32.5472 254.543C32.4905 254.075 32.3302 253.625 32.0778 253.226ZM33.2238 256.085C32.7535 256.986 32.1217 257.793 31.3599 258.465C30.9004 258.283 30.4506 258.077 30.0123 257.848C29.7804 257.3 29.6895 256.702 29.7478 256.11C30.2929 256.364 30.8875 256.493 31.4887 256.489C32.0898 256.485 32.6825 256.347 33.2238 256.085ZM29.9493 249.07C32.0998 250.227 34.1112 251.625 35.9442 253.239C33.0931 252.295 29.9895 252.475 27.2667 253.742C27.9404 252.068 28.8432 250.496 29.9493 249.07ZM27.1156 254.108C28.1788 253.704 29.2866 253.429 30.4153 253.289C29.9251 253.856 29.5825 254.536 29.4177 255.268C29.2529 255.999 29.2711 256.76 29.4707 257.483C28.4241 256.871 27.4945 256.078 26.7252 255.14C26.8511 254.813 26.9897 254.473 27.1156 254.133V254.108ZM26.5363 255.694C27.3483 256.697 28.3528 257.526 29.4905 258.134C30.6283 258.742 31.8763 259.116 33.1609 259.234C32.4297 259.979 31.6331 260.658 30.7806 261.261C29.6723 261.412 28.5262 261.513 27.3171 261.626C26.7 261.387 26.0577 261.148 25.4658 260.883C25.6576 259.132 26.0161 257.403 26.5363 255.72V255.694Z" fill="black"/>
<path d="M153.411 262.407C155.93 257.168 153.411 247.835 146.824 245.14C140.238 242.445 131.258 247.558 129.797 253.301C128.336 259.044 134.646 268.692 139.872 269.359C145.615 270.077 151.547 266.299 153.411 262.407Z" fill="#FFC727"/>
<path opacity="0.12" d="M127.051 254.7C131.724 258.692 139.469 262.256 145.829 261.992C143.347 265.055 140.524 267.827 137.416 270.253C137.24 270.405 137.416 270.719 137.656 270.594C144.935 265.745 152.101 256.966 152.416 247.924C152.416 247.9 152.407 247.878 152.39 247.861C152.374 247.845 152.351 247.836 152.328 247.836C152.305 247.836 152.282 247.845 152.266 247.861C152.249 247.878 152.24 247.9 152.24 247.924C151.929 250.462 151.211 252.933 150.111 255.241C147.592 249.826 140.464 245.758 134.998 244.473C134.963 244.461 134.925 244.464 134.892 244.481C134.859 244.497 134.834 244.526 134.822 244.561C134.81 244.596 134.813 244.634 134.829 244.668C134.846 244.701 134.875 244.726 134.91 244.737C136.584 245.411 138.219 246.177 139.809 247.03C136.787 249.7 134.507 254.888 135.187 258.881C132.427 257.658 129.809 256.138 127.379 254.347C127.152 254.158 126.837 254.511 127.051 254.7ZM146.081 261.677C143.466 261.493 140.887 260.963 138.411 260.102C142.15 260.33 145.864 259.35 149.003 257.307C148.141 258.835 147.164 260.296 146.081 261.677ZM149.859 255.657C149.658 256.072 149.444 256.475 149.217 256.916C146.757 258.165 144.097 258.97 141.358 259.296C143.96 257.662 145.989 255.259 147.164 252.42C148.173 253.409 149.084 254.493 149.885 255.657H149.859ZM147.001 252.218C146.011 253.996 144.8 255.642 143.399 257.118C142.882 257.002 142.373 256.854 141.875 256.677C142.688 256.068 143.342 255.271 143.781 254.354C144.219 253.437 144.43 252.428 144.394 251.412C145.099 251.496 145.817 251.622 146.547 251.79L147.001 252.218ZM141.648 251.274C141.872 251.644 142.058 252.037 142.202 252.445C142.318 252.953 142.364 253.474 142.341 253.994C141.501 254.109 140.648 254.071 139.822 253.881C140.017 253.012 140.309 252.167 140.691 251.362C141.043 251.299 141.358 251.274 141.673 251.274H141.648ZM142.114 251.274C142.817 251.279 143.519 251.321 144.217 251.4C144.038 252.243 143.763 253.062 143.399 253.843C143.084 253.843 142.756 253.956 142.441 253.994C142.596 253.545 142.65 253.066 142.598 252.594C142.545 252.121 142.389 251.666 142.139 251.261L142.114 251.274ZM143.26 254.145C142.786 255.044 142.155 255.85 141.396 256.526C140.937 256.343 140.487 256.137 140.048 255.909C139.818 255.36 139.727 254.763 139.784 254.171C140.333 254.426 140.933 254.556 141.539 254.549C142.145 254.542 142.741 254.4 143.285 254.133L143.26 254.145ZM139.986 247.13C142.136 248.283 144.147 249.677 145.98 251.286C143.128 250.347 140.024 250.532 137.303 251.803C137.983 250.123 138.895 248.546 140.011 247.118L139.986 247.13ZM137.152 252.168C138.213 251.758 139.322 251.483 140.451 251.349C139.961 251.917 139.619 252.597 139.454 253.328C139.289 254.06 139.307 254.821 139.507 255.543C138.472 254.93 137.555 254.137 136.799 253.201L137.152 252.168ZM136.572 253.755C137.386 254.755 138.391 255.583 139.529 256.191C140.666 256.798 141.913 257.173 143.197 257.294C142.463 258.036 141.666 258.715 140.817 259.322C139.708 259.46 138.562 259.573 137.353 259.674H137.29C136.673 259.448 136.031 259.208 135.439 258.944C135.657 257.185 136.045 255.452 136.598 253.768L136.572 253.755Z" fill="black"/>
<path d="M237.39 286.147C243.082 284.888 248.888 277.193 246.987 270.367C245.085 263.54 235.538 259.548 230.098 261.916C224.657 264.283 220.917 275.178 223.561 279.686C226.508 284.686 233.221 287.029 237.39 286.147Z" fill="#FFC727"/>
<path opacity="0.12" d="M227.314 260.606C227.025 266.74 228.977 275.039 233.07 279.901C229.131 279.816 225.215 279.288 221.395 278.327C221.156 278.327 221.042 278.654 221.269 278.73C229.556 281.5 240.878 281.777 248.246 276.475C248.257 276.458 248.263 276.438 248.262 276.417C248.261 276.397 248.254 276.377 248.242 276.36C248.229 276.344 248.212 276.332 248.193 276.325C248.173 276.319 248.152 276.318 248.133 276.324C245.938 277.64 243.543 278.589 241.042 279.133C243.813 273.856 242.616 265.695 240.286 260.594C240.275 260.559 240.25 260.53 240.216 260.513C240.183 260.497 240.145 260.494 240.11 260.506C240.075 260.517 240.046 260.543 240.029 260.576C240.013 260.609 240.01 260.647 240.022 260.682C240.538 262.417 240.959 264.178 241.281 265.959C237.314 265.203 231.823 266.601 229.077 269.586C228.341 266.654 227.919 263.653 227.818 260.632C227.805 260.342 227.327 260.317 227.314 260.606ZM233.473 279.913C232.018 277.736 230.854 275.378 230.009 272.898C232.126 275.987 235.176 278.317 238.712 279.548C236.977 279.796 235.226 279.919 233.473 279.913ZM240.563 279.221C240.11 279.322 239.657 279.397 239.203 279.46C236.706 278.286 234.438 276.679 232.503 274.712C235.389 275.767 238.531 275.899 241.495 275.09C241.314 276.493 241.002 277.876 240.563 279.221ZM241.521 274.863C239.511 275.165 237.472 275.216 235.45 275.014C235.222 274.536 235.024 274.044 234.858 273.541C235.838 273.805 236.868 273.829 237.859 273.61C238.85 273.39 239.774 272.935 240.551 272.281C240.92 272.903 241.26 273.545 241.571 274.208C241.558 274.435 241.546 274.649 241.521 274.863ZM239.002 270.04C238.848 270.446 238.649 270.835 238.41 271.198C238.092 271.61 237.709 271.968 237.276 272.256C236.672 271.671 236.181 270.979 235.828 270.216C236.631 269.827 237.476 269.531 238.347 269.334L239.002 270.04ZM239.291 270.417C239.722 270.967 240.117 271.543 240.475 272.143C239.706 272.526 238.894 272.818 238.057 273.012L237.339 272.332C237.785 272.177 238.19 271.926 238.526 271.594C238.862 271.263 239.119 270.861 239.279 270.417H239.291ZM237.742 273.075C236.739 273.264 235.71 273.264 234.707 273.075C234.567 272.604 234.458 272.124 234.38 271.639C234.681 271.115 235.115 270.681 235.639 270.38C235.767 270.955 236.021 271.496 236.382 271.962C236.744 272.428 237.204 272.808 237.73 273.075H237.742ZM241.269 266.186C241.671 268.59 241.797 271.032 241.647 273.465C240.648 270.638 238.601 268.302 235.929 266.941C237.661 266.442 239.454 266.188 241.256 266.186H241.269ZM235.526 267.055C236.502 267.638 237.4 268.345 238.196 269.158C237.447 269.118 236.699 269.263 236.02 269.582C235.341 269.901 234.752 270.382 234.304 270.984C234.148 269.778 234.208 268.554 234.48 267.37L235.526 267.055ZM233.926 267.571C233.63 268.827 233.589 270.129 233.806 271.401C234.022 272.673 234.491 273.889 235.186 274.977C234.148 274.856 233.124 274.641 232.125 274.334C231.332 273.541 230.538 272.71 229.72 271.815C229.518 271.173 229.342 270.556 229.166 269.901C230.669 268.969 232.259 268.185 233.914 267.558L233.926 267.571Z" fill="black"/>
<path d="M324.303 272.269C318.623 271.009 312.804 263.314 314.706 256.488C316.608 249.662 326.154 245.669 331.595 248.05C337.036 250.43 340.776 261.299 338.131 265.808C335.197 270.808 328.472 273.15 324.303 272.269Z" fill="#FFC727"/>
<path opacity="0.12" d="M333.887 246.753C333.781 249.773 333.359 252.775 332.628 255.707C329.895 252.722 324.391 251.337 320.424 252.08C320.748 250.3 321.168 248.538 321.683 246.803C321.689 246.786 321.691 246.767 321.69 246.749C321.689 246.731 321.684 246.713 321.676 246.697C321.668 246.68 321.656 246.666 321.642 246.654C321.629 246.642 321.613 246.633 321.595 246.627C321.578 246.621 321.559 246.619 321.541 246.62C321.523 246.621 321.505 246.626 321.489 246.634C321.472 246.643 321.458 246.654 321.446 246.668C321.434 246.682 321.425 246.698 321.419 246.715C319.089 251.816 317.905 259.977 320.663 265.254C318.163 264.71 315.768 263.761 313.573 262.445C313.563 262.439 313.552 262.434 313.54 262.432C313.528 262.429 313.516 262.429 313.504 262.432C313.493 262.434 313.482 262.439 313.472 262.445C313.462 262.452 313.453 262.46 313.447 262.47C313.44 262.48 313.435 262.491 313.433 262.503C313.431 262.515 313.431 262.527 313.433 262.539C313.435 262.55 313.44 262.561 313.447 262.571C313.453 262.581 313.462 262.59 313.472 262.596C320.827 267.911 332.149 267.634 340.449 264.851C340.663 264.775 340.55 264.397 340.323 264.46C336.496 265.408 332.577 265.936 328.635 266.035C332.728 261.161 334.693 252.861 334.391 246.728C334.366 246.438 333.887 246.463 333.887 246.753ZM322.98 265.644C326.517 264.413 329.566 262.083 331.683 258.994C330.844 261.476 329.68 263.835 328.22 266.009C326.467 266.023 324.716 265.909 322.98 265.669V265.644ZM320.21 261.186C323.174 261.995 326.316 261.863 329.202 260.808C327.26 262.775 324.988 264.386 322.489 265.569C322.036 265.493 321.583 265.417 321.142 265.317C320.702 263.998 320.39 262.64 320.21 261.261V261.186ZM320.122 260.317C320.449 259.649 320.789 259.057 321.154 258.39C321.931 259.043 322.855 259.499 323.846 259.718C324.837 259.937 325.867 259.914 326.847 259.649C326.676 260.151 326.478 260.642 326.255 261.123C324.229 261.324 322.186 261.274 320.172 260.972C320.147 260.77 320.147 260.556 320.122 260.342V260.317ZM323.333 255.443C324.205 255.63 325.05 255.922 325.852 256.312C325.493 257.079 324.998 257.774 324.391 258.365C323.963 258.065 323.581 257.704 323.258 257.294C323.018 256.935 322.82 256.551 322.666 256.148C322.905 255.934 323.119 255.695 323.333 255.468V255.443ZM324.366 258.428C324.139 258.667 323.9 258.894 323.661 259.108C322.821 258.915 322.005 258.627 321.23 258.251C321.585 257.646 321.981 257.065 322.414 256.513C322.574 256.961 322.833 257.368 323.171 257.704C323.508 258.039 323.917 258.295 324.366 258.453V258.428ZM326.129 256.45C326.654 256.75 327.089 257.185 327.388 257.71C327.3 258.194 327.187 258.673 327.048 259.145C326.05 259.334 325.025 259.334 324.026 259.145C324.55 258.881 325.009 258.504 325.373 258.043C325.736 257.582 325.994 257.047 326.129 256.476V256.45ZM325.776 253.037C323.107 254.407 321.061 256.745 320.059 259.574C319.908 257.137 320.034 254.69 320.436 252.282C322.244 252.291 324.042 252.554 325.776 253.062V253.037ZM327.225 253.478C327.508 254.657 327.572 255.878 327.414 257.08C326.964 256.478 326.372 255.997 325.691 255.68C325.009 255.364 324.26 255.222 323.509 255.266C324.304 254.449 325.202 253.737 326.179 253.151C326.532 253.289 326.885 253.377 327.225 253.503V253.478ZM332.603 255.997C332.439 256.639 332.25 257.256 332.048 257.911C331.217 258.805 330.436 259.637 329.643 260.43C328.64 260.737 327.612 260.952 326.57 261.072C327.264 259.985 327.734 258.769 327.95 257.497C328.166 256.225 328.125 254.923 327.829 253.667C329.491 254.29 331.089 255.07 332.603 255.997Z" fill="black"/>
<path d="M88.6891 295.744C83.0091 294.548 77.2031 286.79 79.0922 279.964C80.9814 273.137 90.5405 269.145 95.9812 271.525C101.422 273.906 105.175 284.787 102.53 289.283C99.5831 294.296 92.8704 296.638 88.6891 295.744Z" fill="#FFC727"/>
<path opacity="0.12" d="M98.2734 270.228C98.1805 273.25 97.7582 276.253 97.0139 279.183C94.281 276.198 88.7898 274.813 84.8227 275.556C85.1259 273.781 85.5253 272.023 86.0191 270.291C86.0325 270.256 86.0314 270.217 86.016 270.183C86.0007 270.149 85.9723 270.122 85.9373 270.109C85.9022 270.095 85.8632 270.096 85.829 270.112C85.7947 270.127 85.768 270.155 85.7546 270.191C83.4121 275.291 82.2282 283.465 84.999 288.729C82.4976 288.188 80.1022 287.239 77.9084 285.921C77.8076 285.921 77.7069 286.009 77.795 286.072C85.1501 291.387 96.485 291.11 104.772 288.326C104.999 288.251 104.873 287.886 104.646 287.936C100.826 288.897 96.9095 289.425 92.9712 289.51C97.0643 284.636 99.0164 276.337 98.7267 270.216C98.7519 269.926 98.2859 269.951 98.2734 270.228ZM87.3667 289.12C90.9063 287.882 93.9592 285.548 96.0819 282.457C95.2404 284.938 94.0759 287.296 92.6185 289.472C90.8625 289.5 89.1068 289.395 87.3667 289.158V289.12ZM84.596 284.649C87.5588 285.462 90.7011 285.334 93.5883 284.284C91.6488 286.25 89.3761 287.858 86.8755 289.032L85.5279 288.792C85.0906 287.456 84.7786 286.081 84.596 284.687V284.649ZM84.5078 283.792C84.8352 283.112 85.1753 282.47 85.5405 281.853C86.3176 282.506 87.2411 282.962 88.2323 283.181C89.2235 283.4 90.253 283.377 91.2332 283.112C91.0642 283.61 90.8666 284.098 90.6412 284.573C88.6198 284.779 86.5807 284.732 84.5708 284.435C84.533 284.258 84.533 284.044 84.5078 283.83V283.792ZM87.6816 278.893C88.552 279.09 89.397 279.386 90.2004 279.775C89.8381 280.533 89.3482 281.223 88.7521 281.815C88.3248 281.519 87.9429 281.163 87.6186 280.757C87.3696 280.4 87.1704 280.01 87.0267 279.598C87.3037 279.41 87.5052 279.17 87.6816 278.893ZM88.7143 281.891L88.009 282.558C87.1703 282.361 86.3554 282.074 85.5783 281.702C85.9437 281.1 86.3431 280.52 86.7748 279.964C86.9306 280.423 87.19 280.84 87.5329 281.183C87.8758 281.526 88.2929 281.785 88.7521 281.941L88.7143 281.891ZM90.4775 279.901C90.9999 280.204 91.4341 280.638 91.7369 281.16C91.661 281.651 91.5473 282.135 91.3969 282.609C90.3976 282.791 89.3735 282.791 88.3742 282.609C88.9053 282.351 89.3728 281.98 89.743 281.52C90.1132 281.061 90.377 280.525 90.5153 279.951L90.4775 279.901ZM90.1249 276.488C87.4581 277.858 85.4168 280.197 84.4196 283.024C84.2688 280.591 84.3956 278.149 84.7975 275.745C86.6275 275.744 88.4478 276.011 90.2004 276.538L90.1249 276.488ZM91.5858 276.929C91.8584 278.113 91.9181 279.337 91.7621 280.543C91.3148 279.938 90.7234 279.454 90.0416 279.135C89.3598 278.816 88.6092 278.672 87.8579 278.717C88.6589 277.91 89.5556 277.203 90.5279 276.614L91.5858 276.929ZM96.9509 279.447C96.7872 280.102 96.5983 280.707 96.4094 281.362C96.4094 281.362 96.4094 281.362 96.3464 281.362C95.5278 282.256 94.7344 283.087 93.9409 283.881C92.9366 284.178 91.9084 284.389 90.8679 284.51C91.562 283.425 92.0312 282.212 92.2475 280.942C92.4638 279.672 92.423 278.371 92.1273 277.117C93.8215 277.74 95.4499 278.529 96.9887 279.473L96.9509 279.447Z" fill="black"/>
<path d="M66.9516 224.07C74.357 234.674 94.5205 236.664 144.835 246.551C151.787 247.911 174.582 201.375 167.265 199.549C157.996 197.232 121.535 190.254 118.802 190.078C95.7673 188.604 61.9264 216.891 66.9516 224.07Z" fill="#F7A9A0"/>
<path d="M157.202 197.245C157.202 197.245 178.524 200.456 189.191 205.62C203.486 212.521 212.982 224.373 216.66 229.549C224.342 240.418 235.4 271.992 226.848 276.765C219.128 281.085 209.456 248.239 209.456 248.239C209.456 248.239 224.846 280.102 214.581 283.591C204.317 287.08 195.249 248.327 195.249 248.327C195.249 248.327 210.362 281.412 199.179 283.339C190.753 284.8 180.564 250.141 180.564 250.141C180.564 250.141 193.322 278.679 184.72 280.543C175.212 282.672 163.814 251.186 163.814 251.186C141.144 252.256 129.91 243.491 122.656 236.312C120.905 234.599 157.202 197.245 157.202 197.245Z" fill="#F7A9A0"/>
<path d="M204.808 236.904C206.748 240.581 208.75 244.284 210.35 248.125C211.949 251.967 213.435 255.858 214.682 259.825C216.421 264.983 217.553 270.325 218.057 275.745C216.445 266.198 210.891 252.37 209.241 248.528C207.592 244.687 206.219 240.783 204.607 236.954C204.645 236.854 204.808 236.816 204.808 236.904Z" fill="#263238"/>
<path d="M190.867 242.458C193.146 247.269 195.589 251.954 197.655 256.853C199.72 261.752 201.232 266.551 202.944 271.563C203.083 271.941 202.831 271.891 202.68 271.5C200.766 266.563 198.612 262.155 196.647 257.231C194.683 252.307 192.869 247.332 190.753 242.508C190.715 242.433 190.841 242.37 190.867 242.458Z" fill="#263238"/>
<path d="M178.033 245.078C181.702 252.362 184.61 260.005 186.71 267.886C186.836 268.264 186.509 268.163 186.37 267.773C183.625 260.14 181.534 254.133 177.781 245.216C177.718 245.078 177.945 244.889 178.033 245.078Z" fill="#263238"/>
<path d="M201.823 213.73C204.309 215.346 206.629 217.202 208.75 219.272C210.904 221.314 212.892 223.525 214.695 225.884C215.614 227.055 216.433 228.289 217.289 229.511C218.146 230.733 218.889 232.03 219.531 233.289C220.954 235.895 222.11 238.638 222.982 241.476C222.239 240.216 221.722 238.818 220.904 237.571L219.846 235.645C219.481 235.015 219.078 234.385 218.7 233.781C217.148 231.296 215.467 228.896 213.662 226.589C211.899 224.272 209.997 222.043 208.032 219.889C207.038 218.806 206.03 217.748 204.985 216.715C203.939 215.683 202.919 214.725 201.823 213.73Z" fill="#263238"/>
<path d="M161.648 197.244L117.568 246.362C117.568 246.362 72.9966 236.123 66.435 224.7C62.1152 217.143 95.6663 186.703 120.993 190.254L161.648 197.244Z" fill="#FFC727"/>
<path d="M99.1297 199.776C99.1322 200.001 99.0675 200.222 98.944 200.41C98.8204 200.598 98.6435 200.746 98.4359 200.833C98.2282 200.92 97.9993 200.944 97.7783 200.901C97.5572 200.857 97.3541 200.749 97.1948 200.59C97.0356 200.43 96.9273 200.227 96.884 200.006C96.8407 199.785 96.8642 199.556 96.9515 199.349C97.0389 199.141 97.1861 198.964 97.3744 198.841C97.5627 198.717 97.7836 198.652 98.0088 198.655C98.3061 198.655 98.5912 198.773 98.8014 198.983C99.0116 199.193 99.1297 199.478 99.1297 199.776ZM116.145 198.655C115.923 198.655 115.706 198.721 115.522 198.844C115.338 198.967 115.194 199.142 115.109 199.347C115.024 199.552 115.002 199.777 115.045 199.994C115.088 200.212 115.195 200.412 115.352 200.568C115.509 200.725 115.709 200.832 115.926 200.875C116.143 200.918 116.369 200.896 116.574 200.811C116.778 200.726 116.953 200.583 117.077 200.398C117.2 200.214 117.266 199.997 117.266 199.776C117.266 199.478 117.147 199.193 116.937 198.983C116.727 198.773 116.442 198.655 116.145 198.655ZM134.28 198.655C134.059 198.657 133.844 198.725 133.661 198.85C133.478 198.975 133.337 199.15 133.254 199.355C133.171 199.56 133.151 199.785 133.195 200.002C133.24 200.219 133.348 200.417 133.505 200.573C133.662 200.728 133.862 200.834 134.079 200.876C134.296 200.918 134.521 200.895 134.725 200.81C134.929 200.725 135.103 200.581 135.226 200.397C135.348 200.213 135.414 199.997 135.414 199.776C135.414 199.627 135.384 199.481 135.327 199.344C135.27 199.207 135.187 199.083 135.081 198.979C134.976 198.874 134.851 198.792 134.713 198.737C134.576 198.681 134.429 198.653 134.28 198.655ZM152.429 198.655C152.207 198.655 151.99 198.721 151.806 198.844C151.622 198.967 151.478 199.142 151.393 199.347C151.308 199.552 151.286 199.777 151.329 199.994C151.373 200.212 151.479 200.412 151.636 200.568C151.793 200.725 151.993 200.832 152.21 200.875C152.427 200.918 152.653 200.896 152.858 200.811C153.062 200.726 153.238 200.583 153.361 200.398C153.484 200.214 153.55 199.997 153.55 199.776C153.55 199.478 153.432 199.193 153.221 198.983C153.011 198.773 152.726 198.655 152.429 198.655ZM79.8605 222.924C79.6393 222.927 79.4239 222.994 79.2412 223.119C79.0586 223.244 78.9169 223.42 78.8339 223.625C78.751 223.83 78.7306 224.055 78.7753 224.271C78.82 224.488 78.9277 224.686 79.0849 224.842C79.2422 224.997 79.4419 225.103 79.659 225.145C79.8761 225.187 80.1008 225.164 80.3049 225.079C80.509 224.994 80.6833 224.85 80.8059 224.666C80.9285 224.482 80.994 224.266 80.994 224.045C80.994 223.897 80.9646 223.75 80.9075 223.613C80.8503 223.476 80.7666 223.352 80.6612 223.248C80.5558 223.144 80.4308 223.061 80.2933 223.006C80.1559 222.95 80.0087 222.922 79.8605 222.924ZM98.0088 222.924C97.7871 222.924 97.5704 222.99 97.3861 223.113C97.2018 223.236 97.0581 223.411 96.9733 223.616C96.8884 223.821 96.8662 224.046 96.9095 224.264C96.9527 224.481 97.0595 224.681 97.2163 224.837C97.373 224.994 97.5727 225.101 97.7902 225.144C98.0076 225.188 98.233 225.165 98.4378 225.08C98.6426 224.996 98.8177 224.852 98.9408 224.668C99.064 224.483 99.1297 224.267 99.1297 224.045C99.1297 223.748 99.0116 223.463 98.8014 223.252C98.5912 223.042 98.3061 222.924 98.0088 222.924ZM116.145 222.924C115.923 222.924 115.706 222.99 115.522 223.113C115.338 223.236 115.194 223.411 115.109 223.616C115.024 223.821 115.002 224.046 115.045 224.264C115.088 224.481 115.195 224.681 115.352 224.837C115.509 224.994 115.709 225.101 115.926 225.144C116.143 225.188 116.369 225.165 116.574 225.08C116.778 224.996 116.953 224.852 117.077 224.668C117.2 224.483 117.266 224.267 117.266 224.045C117.266 223.748 117.147 223.463 116.937 223.252C116.727 223.042 116.442 222.924 116.145 222.924ZM134.28 222.924C134.059 222.927 133.844 222.994 133.661 223.119C133.478 223.244 133.337 223.42 133.254 223.625C133.171 223.83 133.151 224.055 133.195 224.271C133.24 224.488 133.348 224.686 133.505 224.842C133.662 224.997 133.862 225.103 134.079 225.145C134.296 225.187 134.521 225.164 134.725 225.079C134.929 224.994 135.103 224.85 135.226 224.666C135.348 224.482 135.414 224.266 135.414 224.045C135.414 223.897 135.384 223.75 135.327 223.613C135.27 223.476 135.187 223.352 135.081 223.248C134.976 223.144 134.851 223.061 134.713 223.006C134.576 222.95 134.429 222.922 134.28 222.924ZM88.941 211.299C88.7162 211.3 88.4966 211.366 88.3099 211.491C88.1233 211.617 87.978 211.794 87.8926 212.002C87.8072 212.21 87.7855 212.439 87.8303 212.659C87.875 212.879 87.9842 213.081 88.144 213.239C88.3038 213.397 88.507 213.504 88.7277 213.546C88.9483 213.589 89.1766 213.564 89.3835 213.477C89.5904 213.389 89.7665 213.242 89.8896 213.054C90.0126 212.865 90.0769 212.645 90.0744 212.42C90.0744 212.272 90.0451 212.125 89.9879 211.989C89.9308 211.852 89.8471 211.728 89.7417 211.623C89.6363 211.519 89.5112 211.437 89.3738 211.381C89.2363 211.326 89.0892 211.298 88.941 211.299ZM107.089 211.299C106.864 211.297 106.643 211.362 106.455 211.485C106.267 211.609 106.119 211.786 106.032 211.993C105.945 212.201 105.921 212.43 105.964 212.651C106.008 212.872 106.116 213.075 106.275 213.234C106.435 213.394 106.638 213.502 106.859 213.545C107.08 213.589 107.309 213.565 107.516 213.478C107.724 213.39 107.901 213.243 108.024 213.055C108.148 212.866 108.213 212.646 108.21 212.42C108.21 212.272 108.181 212.125 108.124 211.989C108.067 211.852 107.983 211.728 107.877 211.623C107.772 211.519 107.647 211.437 107.51 211.381C107.372 211.326 107.225 211.298 107.077 211.299H107.089ZM125.225 211.299C125 211.3 124.781 211.366 124.594 211.491C124.407 211.617 124.262 211.794 124.177 212.002C124.091 212.21 124.07 212.439 124.114 212.659C124.159 212.879 124.268 213.081 124.428 213.239C124.588 213.397 124.791 213.504 125.012 213.546C125.232 213.589 125.461 213.564 125.668 213.477C125.875 213.389 126.051 213.242 126.174 213.054C126.297 212.865 126.361 212.645 126.359 212.42C126.359 212.271 126.329 212.123 126.271 211.986C126.213 211.848 126.128 211.723 126.021 211.619C125.915 211.514 125.788 211.432 125.649 211.377C125.51 211.323 125.362 211.296 125.212 211.299H125.225ZM143.373 211.299C143.148 211.297 142.927 211.362 142.739 211.485C142.551 211.609 142.403 211.786 142.316 211.993C142.229 212.201 142.205 212.43 142.249 212.651C142.292 212.872 142.4 213.075 142.559 213.234C142.719 213.394 142.922 213.502 143.143 213.545C143.364 213.589 143.593 213.565 143.8 213.478C144.008 213.39 144.185 213.243 144.309 213.055C144.432 212.866 144.497 212.646 144.494 212.42C144.494 212.272 144.465 212.125 144.408 211.989C144.351 211.852 144.267 211.728 144.162 211.623C144.056 211.519 143.931 211.437 143.794 211.381C143.656 211.326 143.509 211.298 143.361 211.299H143.373ZM88.941 235.569C88.7162 235.569 88.4966 235.636 88.3099 235.761C88.1233 235.886 87.978 236.064 87.8926 236.271C87.8072 236.479 87.7855 236.708 87.8303 236.928C87.875 237.148 87.9842 237.35 88.144 237.508C88.3038 237.666 88.507 237.773 88.7277 237.815C88.9483 237.858 89.1766 237.833 89.3835 237.746C89.5904 237.658 89.7665 237.511 89.8896 237.323C90.0126 237.135 90.0769 236.914 90.0744 236.69C90.0744 236.541 90.0451 236.395 89.9879 236.258C89.9308 236.121 89.8471 235.997 89.7417 235.893C89.6363 235.788 89.5112 235.706 89.3738 235.65C89.2363 235.595 89.0892 235.567 88.941 235.569ZM107.089 235.569C106.864 235.566 106.643 235.631 106.455 235.754C106.267 235.878 106.119 236.055 106.032 236.263C105.945 236.47 105.921 236.699 105.964 236.92C106.008 237.141 106.116 237.344 106.275 237.504C106.435 237.663 106.638 237.771 106.859 237.814C107.08 237.858 107.309 237.834 107.516 237.747C107.724 237.66 107.901 237.512 108.024 237.324C108.148 237.136 108.213 236.915 108.21 236.69C108.21 236.541 108.181 236.395 108.124 236.258C108.067 236.121 107.983 235.997 107.877 235.893C107.772 235.788 107.647 235.706 107.51 235.65C107.372 235.595 107.225 235.567 107.077 235.569H107.089ZM125.238 235.569C124.937 235.569 124.649 235.688 124.436 235.901C124.224 236.113 124.104 236.402 124.104 236.702C124.104 236.85 124.134 236.997 124.191 237.134C124.248 237.271 124.332 237.395 124.437 237.499C124.542 237.603 124.667 237.686 124.805 237.741C124.942 237.797 125.089 237.825 125.238 237.823L126.346 236.564C126.315 236.288 126.184 236.032 125.977 235.847C125.771 235.661 125.503 235.557 125.225 235.556L125.238 235.569Z" fill="white"/>
<path d="M90.7923 198.202C94.8729 195.242 106.371 188.34 121.019 190.179C121.145 190.179 121.157 190.406 121.019 190.393C109.961 190.078 95.0366 195.859 90.7923 198.378C90.7797 198.441 90.6916 198.29 90.7923 198.202Z" fill="#263238"/>
<path d="M105.528 238.1C110.087 232.445 114.936 227.043 119.81 221.652C124.684 216.262 129.545 210.846 134.557 205.569C137.379 202.584 140.2 199.587 143.134 196.753C143.21 196.678 143.348 196.753 143.285 196.879C138.739 202.521 133.89 207.962 129.066 213.378C124.243 218.793 119.331 224.184 114.394 229.524C111.598 232.534 108.752 235.493 105.817 238.34C105.666 238.478 105.402 238.264 105.528 238.1Z" fill="#263238"/>
<path d="M161.736 196.602C159.028 195.788 156.268 195.161 153.474 194.726C150.691 194.197 147.895 193.731 145.112 193.277C139.558 192.383 127.883 189.864 117.618 189.889C117.505 189.889 118.084 190.443 118.198 190.443C123.084 190.179 158.096 197.144 161.018 197.345C160.901 197.531 160.796 197.725 160.703 197.925C160.703 198.076 160.791 198.252 160.943 198.151C161.308 197.912 161.56 197.61 161.9 197.345C161.965 197.298 162.015 197.232 162.043 197.157C162.072 197.081 162.078 196.999 162.06 196.92C162.043 196.841 162.003 196.769 161.945 196.713C161.888 196.656 161.815 196.618 161.736 196.602Z" fill="#263238"/>
<path d="M197.504 103.832C239.619 140.57 272.742 185.96 270.551 197.307C266.583 218.44 238.813 219.763 234.556 215.191C217.503 196.715 199.506 160.922 180.01 120.986C162.592 85.2937 183.637 91.7546 197.504 103.832Z" fill="#FFC727"/>
<path d="M189.834 102.699C189.836 102.924 189.772 103.145 189.648 103.333C189.524 103.522 189.347 103.669 189.14 103.756C188.932 103.844 188.703 103.867 188.482 103.824C188.261 103.781 188.058 103.672 187.899 103.513C187.74 103.354 187.631 103.151 187.588 102.93C187.545 102.709 187.568 102.48 187.656 102.272C187.743 102.064 187.89 101.888 188.078 101.764C188.267 101.64 188.488 101.576 188.713 101.578C189.01 101.578 189.295 101.696 189.505 101.906C189.716 102.117 189.834 102.402 189.834 102.699ZM188.713 125.847C188.488 125.845 188.267 125.91 188.078 126.033C187.89 126.157 187.743 126.334 187.656 126.541C187.568 126.749 187.545 126.978 187.588 127.199C187.631 127.42 187.74 127.623 187.899 127.782C188.058 127.942 188.261 128.05 188.482 128.093C188.703 128.136 188.932 128.113 189.14 128.026C189.347 127.938 189.524 127.791 189.648 127.603C189.772 127.414 189.836 127.193 189.834 126.968C189.834 126.671 189.716 126.386 189.505 126.176C189.295 125.965 189.01 125.847 188.713 125.847ZM206.849 125.847C206.624 125.847 206.404 125.914 206.218 126.039C206.031 126.164 205.886 126.342 205.8 126.55C205.715 126.758 205.693 126.986 205.738 127.207C205.783 127.427 205.892 127.629 206.052 127.787C206.211 127.945 206.415 128.052 206.635 128.094C206.856 128.136 207.084 128.112 207.291 128.024C207.498 127.937 207.674 127.789 207.797 127.601C207.92 127.413 207.985 127.193 207.982 126.968C207.982 126.82 207.953 126.673 207.896 126.536C207.838 126.4 207.755 126.275 207.649 126.171C207.544 126.067 207.419 125.985 207.281 125.929C207.144 125.873 206.997 125.846 206.849 125.847ZM179.62 114.223C179.395 114.22 179.174 114.285 178.985 114.409C178.797 114.532 178.65 114.709 178.562 114.917C178.475 115.124 178.452 115.353 178.495 115.574C178.538 115.795 178.646 115.998 178.806 116.158C178.965 116.317 179.168 116.425 179.389 116.469C179.61 116.512 179.839 116.488 180.047 116.401C180.254 116.314 180.431 116.166 180.555 115.978C180.678 115.79 180.743 115.569 180.741 115.344C180.741 115.046 180.623 114.761 180.412 114.551C180.202 114.341 179.917 114.223 179.62 114.223ZM197.756 114.223C197.53 114.22 197.309 114.285 197.121 114.409C196.933 114.532 196.786 114.709 196.698 114.917C196.611 115.124 196.587 115.353 196.631 115.574C196.674 115.795 196.782 115.998 196.942 116.158C197.101 116.317 197.304 116.425 197.525 116.469C197.746 116.512 197.975 116.488 198.183 116.401C198.39 116.314 198.567 116.166 198.691 115.978C198.814 115.79 198.879 115.569 198.876 115.344C198.876 115.051 198.762 114.769 198.557 114.56C198.352 114.35 198.074 114.229 197.781 114.223H197.756ZM206.823 150.117C206.599 150.117 206.379 150.183 206.192 150.308C206.006 150.434 205.86 150.611 205.775 150.819C205.69 151.027 205.668 151.256 205.713 151.476C205.757 151.696 205.867 151.898 206.026 152.056C206.186 152.214 206.389 152.321 206.61 152.363C206.831 152.406 207.059 152.381 207.266 152.294C207.473 152.206 207.649 152.059 207.772 151.871C207.895 151.683 207.959 151.462 207.957 151.237C207.957 150.942 207.841 150.659 207.633 150.449C207.426 150.239 207.144 150.12 206.849 150.117H206.823ZM224.972 150.117C224.747 150.114 224.526 150.179 224.337 150.302C224.149 150.426 224.002 150.603 223.914 150.81C223.827 151.018 223.804 151.247 223.847 151.468C223.89 151.689 223.998 151.892 224.158 152.051C224.317 152.211 224.52 152.319 224.741 152.362C224.962 152.406 225.191 152.382 225.399 152.295C225.606 152.207 225.783 152.06 225.907 151.872C226.03 151.684 226.095 151.463 226.093 151.237C226.093 151.089 226.063 150.942 226.006 150.806C225.949 150.669 225.865 150.545 225.76 150.44C225.654 150.336 225.529 150.254 225.392 150.198C225.255 150.143 225.107 150.115 224.959 150.117H224.972ZM242.717 150.18C242.503 150.261 242.318 150.406 242.187 150.595C242.057 150.784 241.987 151.008 241.987 151.237C241.987 151.535 242.105 151.82 242.315 152.03C242.525 152.24 242.81 152.358 243.108 152.358C243.302 152.358 243.493 152.308 243.662 152.213C243.832 152.118 243.975 151.982 244.077 151.817L242.717 150.18ZM197.756 138.492C197.53 138.49 197.309 138.554 197.121 138.678C196.933 138.801 196.786 138.978 196.698 139.186C196.611 139.394 196.587 139.622 196.631 139.843C196.674 140.065 196.782 140.268 196.942 140.427C197.101 140.586 197.304 140.694 197.525 140.738C197.746 140.781 197.975 140.758 198.183 140.67C198.39 140.583 198.567 140.436 198.691 140.247C198.814 140.059 198.879 139.838 198.876 139.613C198.876 139.32 198.762 139.039 198.557 138.829C198.352 138.62 198.074 138.499 197.781 138.492H197.756ZM215.891 138.492C215.667 138.492 215.447 138.559 215.26 138.684C215.074 138.809 214.928 138.987 214.843 139.195C214.758 139.403 214.736 139.631 214.781 139.851C214.825 140.072 214.935 140.273 215.094 140.431C215.254 140.589 215.457 140.696 215.678 140.739C215.899 140.781 216.127 140.757 216.334 140.669C216.541 140.581 216.717 140.434 216.84 140.246C216.963 140.058 217.027 139.838 217.025 139.613C217.025 139.318 216.908 139.035 216.701 138.825C216.493 138.615 216.212 138.495 215.916 138.492H215.891ZM233.082 139.021C232.976 139.2 232.919 139.404 232.919 139.613C232.917 139.761 232.945 139.908 233 140.046C233.056 140.183 233.138 140.308 233.243 140.414C233.347 140.519 233.471 140.603 233.608 140.66C233.745 140.717 233.891 140.746 234.04 140.746C234.201 140.749 234.36 140.714 234.506 140.646C234.065 140.092 233.586 139.563 233.108 139.021H233.082ZM207.327 174.461C207.566 174.877 207.781 175.292 208.007 175.721C208.013 175.658 208.013 175.595 208.007 175.532C208.017 175.305 207.957 175.081 207.835 174.89C207.714 174.698 207.536 174.549 207.327 174.461ZM224.959 174.361C224.734 174.358 224.513 174.423 224.325 174.546C224.136 174.67 223.989 174.847 223.902 175.054C223.815 175.262 223.791 175.491 223.834 175.712C223.878 175.933 223.986 176.136 224.145 176.295C224.304 176.455 224.508 176.563 224.729 176.606C224.95 176.65 225.179 176.626 225.386 176.539C225.594 176.451 225.771 176.304 225.894 176.116C226.018 175.928 226.083 175.707 226.08 175.481C226.08 175.184 225.962 174.899 225.752 174.689C225.542 174.479 225.256 174.361 224.959 174.361ZM243.095 174.361C242.87 174.358 242.649 174.423 242.461 174.546C242.272 174.67 242.125 174.847 242.038 175.054C241.95 175.262 241.927 175.491 241.97 175.712C242.013 175.933 242.122 176.136 242.281 176.295C242.44 176.455 242.643 176.563 242.864 176.606C243.085 176.65 243.314 176.626 243.522 176.539C243.73 176.451 243.906 176.304 244.03 176.116C244.154 175.928 244.218 175.707 244.216 175.481C244.216 175.191 244.103 174.911 243.901 174.702C243.699 174.493 243.423 174.37 243.133 174.361H243.095ZM260.802 174.436C260.568 174.542 260.377 174.724 260.26 174.953C260.143 175.182 260.107 175.443 260.158 175.695C260.21 175.947 260.345 176.174 260.542 176.339C260.739 176.504 260.986 176.596 261.243 176.602C261.526 176.603 261.799 176.5 262.012 176.313C261.659 175.721 261.256 175.091 260.84 174.461L260.802 174.436ZM215.879 162.736C215.654 162.736 215.434 162.803 215.248 162.928C215.061 163.053 214.916 163.231 214.83 163.439C214.745 163.647 214.723 163.875 214.768 164.095C214.813 164.316 214.922 164.517 215.082 164.675C215.242 164.833 215.445 164.94 215.665 164.983C215.886 165.025 216.114 165.001 216.321 164.913C216.528 164.825 216.704 164.678 216.827 164.49C216.95 164.302 217.015 164.082 217.012 163.857C217.006 163.568 216.888 163.293 216.684 163.089C216.48 162.885 216.205 162.768 215.916 162.761L215.879 162.736ZM234.027 162.736C233.802 162.734 233.581 162.798 233.393 162.922C233.204 163.045 233.057 163.222 232.97 163.43C232.882 163.638 232.859 163.866 232.902 164.087C232.946 164.309 233.054 164.512 233.213 164.671C233.372 164.83 233.575 164.938 233.796 164.982C234.018 165.025 234.246 165.002 234.454 164.914C234.662 164.827 234.839 164.68 234.962 164.491C235.086 164.303 235.15 164.082 235.148 163.857C235.142 163.57 235.026 163.297 234.824 163.093C234.623 162.89 234.351 162.771 234.065 162.761L234.027 162.736ZM253.284 163.63L252.755 162.938C252.583 162.837 252.387 162.784 252.188 162.786C251.91 162.816 251.652 162.947 251.465 163.155C251.277 163.364 251.174 163.634 251.174 163.914C251.174 164.194 251.277 164.464 251.465 164.672C251.652 164.88 251.91 165.011 252.188 165.041C252.485 165.038 252.77 164.919 252.982 164.71C253.193 164.5 253.315 164.217 253.321 163.92C253.329 163.832 253.329 163.743 253.321 163.655L253.284 163.63ZM224.959 198.655C224.737 198.655 224.521 198.721 224.336 198.844C224.152 198.967 224.008 199.142 223.924 199.347C223.839 199.552 223.817 199.777 223.86 199.994C223.903 200.212 224.01 200.412 224.167 200.568C224.323 200.725 224.523 200.832 224.74 200.875C224.958 200.918 225.183 200.896 225.388 200.811C225.593 200.727 225.768 200.583 225.891 200.399C226.014 200.214 226.08 199.997 226.08 199.776C226.08 199.479 225.962 199.193 225.752 198.983C225.542 198.773 225.256 198.655 224.959 198.655ZM243.095 198.655C242.873 198.655 242.657 198.721 242.472 198.844C242.288 198.967 242.144 199.142 242.059 199.347C241.975 199.552 241.952 199.777 241.996 199.994C242.039 200.212 242.146 200.412 242.302 200.568C242.459 200.725 242.659 200.832 242.876 200.875C243.094 200.918 243.319 200.896 243.524 200.811C243.729 200.727 243.904 200.583 244.027 200.399C244.15 200.214 244.216 199.997 244.216 199.776C244.216 199.485 244.103 199.205 243.901 198.996C243.699 198.787 243.423 198.665 243.133 198.655H243.095ZM261.243 198.655C261.022 198.655 260.805 198.721 260.621 198.844C260.436 198.967 260.293 199.142 260.208 199.347C260.123 199.552 260.101 199.777 260.144 199.994C260.187 200.212 260.294 200.412 260.451 200.568C260.607 200.725 260.807 200.832 261.025 200.875C261.242 200.918 261.467 200.896 261.672 200.811C261.877 200.727 262.052 200.583 262.175 200.399C262.298 200.214 262.364 199.997 262.364 199.776C262.364 199.485 262.251 199.205 262.049 198.996C261.847 198.787 261.572 198.665 261.281 198.655H261.243ZM215.904 187.03C215.679 187.03 215.46 187.097 215.273 187.222C215.086 187.347 214.941 187.525 214.856 187.733C214.77 187.941 214.748 188.169 214.793 188.39C214.838 188.61 214.947 188.812 215.107 188.97C215.267 189.128 215.47 189.235 215.691 189.277C215.911 189.319 216.14 189.295 216.346 189.207C216.553 189.12 216.729 188.972 216.852 188.784C216.976 188.596 217.04 188.376 217.037 188.151C217.037 187.854 216.919 187.569 216.709 187.359C216.499 187.148 216.214 187.03 215.916 187.03H215.904ZM234.052 187.03C233.827 187.028 233.606 187.093 233.418 187.216C233.229 187.34 233.082 187.517 232.995 187.724C232.908 187.932 232.884 188.161 232.927 188.382C232.971 188.603 233.079 188.806 233.238 188.965C233.398 189.125 233.601 189.233 233.822 189.276C234.043 189.319 234.272 189.296 234.479 189.209C234.687 189.121 234.864 188.974 234.987 188.786C235.111 188.597 235.176 188.377 235.173 188.151C235.173 187.856 235.057 187.573 234.849 187.363C234.642 187.153 234.36 187.034 234.065 187.03H234.052ZM252.188 187.03C251.963 187.03 251.744 187.097 251.557 187.222C251.37 187.347 251.225 187.525 251.14 187.733C251.054 187.941 251.033 188.169 251.077 188.39C251.122 188.61 251.231 188.812 251.391 188.97C251.551 189.128 251.754 189.235 251.975 189.277C252.195 189.319 252.424 189.295 252.631 189.207C252.837 189.12 253.014 188.972 253.137 188.784C253.26 188.596 253.324 188.376 253.321 188.151C253.321 187.854 253.203 187.569 252.993 187.359C252.783 187.148 252.498 187.03 252.201 187.03H252.188ZM234.052 211.3C233.827 211.297 233.606 211.362 233.418 211.485C233.229 211.609 233.082 211.786 232.995 211.993C232.908 212.201 232.884 212.43 232.927 212.651C232.971 212.872 233.079 213.075 233.238 213.234C233.398 213.394 233.601 213.502 233.822 213.545C234.043 213.589 234.272 213.565 234.479 213.478C234.687 213.39 234.864 213.243 234.987 213.055C235.111 212.867 235.176 212.646 235.173 212.42C235.173 212.125 235.057 211.842 234.849 211.632C234.642 211.422 234.36 211.303 234.065 211.3H234.052ZM252.188 211.3C251.963 211.3 251.744 211.366 251.557 211.491C251.37 211.617 251.225 211.794 251.14 212.002C251.054 212.21 251.033 212.439 251.077 212.659C251.122 212.879 251.231 213.081 251.391 213.239C251.551 213.397 251.754 213.504 251.975 213.546C252.195 213.589 252.424 213.564 252.631 213.477C252.837 213.389 253.014 213.242 253.137 213.054C253.26 212.866 253.324 212.645 253.321 212.42C253.321 212.123 253.203 211.838 252.993 211.628C252.783 211.418 252.498 211.3 252.201 211.3H252.188Z" fill="white"/>
<path d="M227.604 206.942C224.518 202.156 221.609 197.219 218.662 192.333C215.715 187.446 212.793 182.534 209.922 177.597C204.254 167.837 198.99 157.862 193.914 147.787C191.043 142.081 188.121 136.452 185.388 130.633C185.3 130.444 184.997 130.633 185.06 130.772C187.705 137.489 190.552 144.097 193.599 150.595L193.473 150.431C192.793 149.512 192.113 148.593 191.446 147.661C190.123 145.822 188.927 143.945 187.667 142.019C187.579 141.867 187.34 142.019 187.428 142.17C188.791 144.791 190.331 147.315 192.038 149.726C192.872 150.853 193.772 151.93 194.733 152.95L194.821 153.026C196.219 155.923 197.642 158.807 199.141 161.666C204.368 171.821 210.102 181.707 216.319 191.287C218.083 193.97 219.858 196.64 221.71 199.272C223.561 201.904 225.488 204.448 227.453 207.043C227.478 207.207 227.705 207.106 227.604 206.942Z" fill="#263238"/>
<path d="M241.533 211.098C233.549 199.65 237.554 176.879 246.37 122.22C247.629 114.664 304.983 114.072 304.102 122.22C302.993 132.472 292.767 172.988 290.11 178.894C277.049 208.113 246.936 218.869 241.533 211.098Z" fill="#F7A9A0"/>
<path d="M302.238 129.273C304.618 123.152 315.562 89.2233 316.091 80.6214C316.62 72.0195 316.431 47.1458 309.882 46.0627C303.333 44.9796 302.817 52.2591 302.817 52.2591C302.817 52.2591 301.066 41.7681 294.379 41.2643C287.691 40.7605 287.25 52.1332 287.25 52.1332C287.25 52.1332 284.669 41.491 277.956 41.4784C271.243 41.4658 272.817 52.9518 272.817 52.9518C272.817 52.9518 270.903 43.1157 265.374 45.3952C258.724 48.166 264.291 65.9113 262.969 75.357C262.666 77.5106 253.8 118.429 253.8 118.429L302.238 129.273Z" fill="#F7A9A0"/>
<path d="M272.641 51.9694C276.709 65.0297 276.231 71.4402 272.754 84.4375C272.692 84.7019 273.057 84.8531 273.145 84.6012C277.704 72.1706 279.442 64.211 273.271 51.7427C272.969 51.1256 272.452 51.3523 272.641 51.9694Z" fill="#263238"/>
<path d="M286.936 51.1005C289.971 65.0298 289.518 71.9944 286.936 85.8859C286.936 86.0748 287.238 86.163 287.288 85.9615C291.067 72.5612 292.591 64.5512 287.729 51.0627C287.439 50.4456 286.797 50.4708 286.936 51.1005Z" fill="#263238"/>
<path d="M302.691 52.9517C304.656 66.6542 304.48 74.3619 300.172 87.46C300.147 87.5235 300.148 87.5943 300.176 87.6568C300.203 87.7194 300.254 87.7687 300.317 87.7937C300.381 87.8188 300.451 87.8176 300.514 87.7904C300.577 87.7633 300.626 87.7124 300.651 87.6489C306.331 74.6642 306.621 65.1177 303.094 52.9391C302.867 52.1078 302.565 52.0953 302.691 52.9517Z" fill="#263238"/>
<path d="M245.538 129.134C245.538 129.134 240.992 112.623 240.601 104.916C240.211 97.2079 249.304 68.0018 255.715 69.6517C264.014 71.7297 262.087 89.6388 259.997 98.2785C259.997 98.2785 279.19 103.064 280.588 116.213C281.986 129.361 245.538 129.134 245.538 129.134Z" fill="#F7A9A0"/>
<path d="M257.83 70.9238C264.027 78.2663 260.551 89.4374 259.09 97.9763C259.062 98.1011 259.065 98.2306 259.099 98.354C259.132 98.4773 259.194 98.5908 259.281 98.6848C259.368 98.7788 259.476 98.8505 259.596 98.8938C259.716 98.9371 259.845 98.9507 259.971 98.9335C267.881 101.452 278.309 107.359 280.878 115.734C280.894 115.779 280.926 115.817 280.968 115.84C281.01 115.863 281.058 115.871 281.105 115.862C281.152 115.853 281.194 115.828 281.224 115.79C281.254 115.753 281.27 115.706 281.268 115.659C279.732 106.289 269.933 99.664 261.117 97.4474C262.692 88.7069 265.689 77.2965 257.83 70.8609C257.843 70.8231 257.78 70.8734 257.83 70.9238Z" fill="#263238"/>
<path d="M305.008 140.734L238.448 159.625C238.448 159.625 225.173 203.252 233.611 214.196C242.642 225.896 284.543 207.761 292.88 182.27L305.008 140.734Z" fill="#FFC727"/>
<path d="M280.538 151.238C280.538 151.459 280.472 151.676 280.349 151.86C280.226 152.045 280.051 152.188 279.846 152.273C279.641 152.358 279.416 152.38 279.198 152.337C278.981 152.294 278.781 152.187 278.624 152.03C278.468 151.873 278.361 151.674 278.318 151.456C278.274 151.239 278.297 151.014 278.381 150.809C278.466 150.604 278.61 150.429 278.794 150.306C278.979 150.183 279.195 150.117 279.417 150.117C279.714 150.117 279.999 150.235 280.209 150.445C280.42 150.655 280.538 150.94 280.538 151.238ZM297.553 150.117C297.328 150.117 297.108 150.184 296.922 150.309C296.735 150.434 296.59 150.612 296.504 150.819C296.419 151.027 296.397 151.256 296.442 151.476C296.487 151.696 296.596 151.898 296.756 152.056C296.916 152.214 297.119 152.321 297.339 152.363C297.56 152.406 297.788 152.382 297.995 152.294C298.202 152.206 298.378 152.059 298.501 151.871C298.624 151.683 298.689 151.462 298.686 151.238C298.686 151.089 298.657 150.943 298.6 150.806C298.543 150.669 298.459 150.545 298.353 150.441C298.248 150.336 298.123 150.254 297.986 150.198C297.848 150.143 297.701 150.115 297.553 150.117ZM243.133 174.361C242.908 174.358 242.687 174.423 242.498 174.547C242.31 174.67 242.163 174.847 242.075 175.055C241.988 175.262 241.965 175.491 242.008 175.712C242.051 175.933 242.159 176.136 242.319 176.296C242.478 176.455 242.681 176.563 242.902 176.606C243.123 176.65 243.352 176.626 243.56 176.539C243.767 176.452 243.944 176.304 244.068 176.116C244.191 175.928 244.256 175.707 244.254 175.482C244.254 175.184 244.136 174.899 243.925 174.689C243.715 174.479 243.43 174.361 243.133 174.361ZM261.281 174.361C261.056 174.358 260.835 174.423 260.647 174.547C260.458 174.67 260.311 174.847 260.224 175.055C260.136 175.262 260.113 175.491 260.156 175.712C260.2 175.933 260.308 176.136 260.467 176.296C260.626 176.455 260.83 176.563 261.051 176.606C261.272 176.65 261.501 176.626 261.708 176.539C261.916 176.452 262.093 176.304 262.216 176.116C262.34 175.928 262.405 175.707 262.402 175.482C262.402 175.184 262.284 174.899 262.074 174.689C261.864 174.479 261.578 174.361 261.281 174.361ZM279.417 174.361C279.192 174.358 278.971 174.423 278.782 174.547C278.594 174.67 278.447 174.847 278.36 175.055C278.272 175.262 278.249 175.491 278.292 175.712C278.335 175.933 278.444 176.136 278.603 176.296C278.762 176.455 278.965 176.563 279.186 176.606C279.407 176.65 279.636 176.626 279.844 176.539C280.052 176.452 280.228 176.304 280.352 176.116C280.476 175.928 280.54 175.707 280.538 175.482C280.538 175.184 280.42 174.899 280.209 174.689C279.999 174.479 279.714 174.361 279.417 174.361ZM252.201 162.736C251.976 162.736 251.756 162.803 251.57 162.928C251.383 163.053 251.238 163.231 251.152 163.439C251.067 163.647 251.045 163.875 251.09 164.096C251.135 164.316 251.244 164.518 251.404 164.676C251.564 164.834 251.767 164.941 251.987 164.983C252.208 165.025 252.436 165.001 252.643 164.913C252.85 164.826 253.026 164.678 253.149 164.49C253.272 164.302 253.337 164.082 253.334 163.857C253.328 163.562 253.205 163.281 252.993 163.076C252.78 162.871 252.496 162.758 252.201 162.761V162.736ZM270.349 162.736C270.124 162.734 269.903 162.798 269.715 162.922C269.526 163.046 269.379 163.223 269.292 163.43C269.204 163.638 269.181 163.867 269.224 164.088C269.268 164.309 269.376 164.512 269.535 164.671C269.694 164.83 269.897 164.939 270.118 164.982C270.339 165.025 270.568 165.002 270.776 164.914C270.984 164.827 271.161 164.68 271.284 164.492C271.408 164.303 271.472 164.082 271.47 163.857C271.467 163.708 271.434 163.56 271.373 163.424C271.312 163.288 271.224 163.165 271.115 163.063C271.006 162.961 270.877 162.881 270.737 162.83C270.597 162.778 270.448 162.755 270.299 162.761L270.349 162.736ZM288.485 162.736C288.26 162.736 288.04 162.803 287.854 162.928C287.667 163.053 287.522 163.231 287.436 163.439C287.351 163.647 287.329 163.875 287.374 164.096C287.419 164.316 287.528 164.518 287.688 164.676C287.848 164.834 288.051 164.941 288.271 164.983C288.492 165.025 288.72 165.001 288.927 164.913C289.134 164.826 289.31 164.678 289.433 164.49C289.556 164.302 289.621 164.082 289.618 163.857C289.612 163.562 289.489 163.281 289.277 163.076C289.064 162.871 288.78 162.758 288.485 162.761V162.736ZM243.145 198.63C242.924 198.63 242.707 198.696 242.523 198.819C242.338 198.942 242.195 199.117 242.11 199.322C242.025 199.527 242.003 199.752 242.046 199.969C242.089 200.187 242.196 200.387 242.353 200.543C242.51 200.7 242.709 200.807 242.927 200.85C243.144 200.893 243.369 200.871 243.574 200.786C243.779 200.702 243.954 200.558 244.077 200.374C244.201 200.189 244.266 199.973 244.266 199.751C244.26 199.456 244.137 199.175 243.925 198.97C243.713 198.765 243.428 198.652 243.133 198.655L243.145 198.63ZM261.294 198.63C261.072 198.63 260.855 198.696 260.671 198.819C260.487 198.942 260.343 199.117 260.258 199.322C260.173 199.527 260.151 199.752 260.194 199.969C260.238 200.187 260.344 200.387 260.501 200.543C260.658 200.7 260.858 200.807 261.075 200.85C261.292 200.893 261.518 200.871 261.723 200.786C261.927 200.702 262.103 200.558 262.226 200.374C262.349 200.189 262.415 199.973 262.415 199.751C262.408 199.456 262.285 199.175 262.073 198.97C261.861 198.765 261.576 198.652 261.281 198.655L261.294 198.63ZM279.43 198.63C279.208 198.63 278.991 198.696 278.807 198.819C278.622 198.942 278.479 199.117 278.394 199.322C278.309 199.527 278.287 199.752 278.33 199.969C278.373 200.187 278.48 200.387 278.637 200.543C278.794 200.7 278.993 200.807 279.211 200.85C279.428 200.893 279.654 200.871 279.858 200.786C280.063 200.702 280.238 200.558 280.362 200.374C280.485 200.189 280.55 199.973 280.55 199.751C280.544 199.456 280.421 199.175 280.209 198.97C279.997 198.765 279.712 198.652 279.417 198.655L279.43 198.63ZM234.09 187.005C233.865 187.003 233.644 187.068 233.456 187.191C233.267 187.315 233.12 187.492 233.033 187.699C232.945 187.907 232.922 188.136 232.965 188.357C233.009 188.578 233.117 188.781 233.276 188.94C233.435 189.1 233.638 189.208 233.86 189.251C234.081 189.294 234.309 189.271 234.517 189.184C234.725 189.096 234.902 188.949 235.025 188.761C235.149 188.572 235.213 188.352 235.211 188.126C235.208 187.979 235.175 187.834 235.116 187.699C235.057 187.565 234.971 187.443 234.865 187.341C234.759 187.239 234.633 187.159 234.496 187.106C234.359 187.053 234.212 187.027 234.065 187.031L234.09 187.005ZM252.226 187.005C252.001 187.005 251.781 187.072 251.595 187.197C251.408 187.322 251.263 187.5 251.178 187.708C251.092 187.916 251.07 188.145 251.115 188.365C251.16 188.585 251.269 188.787 251.429 188.945C251.589 189.103 251.792 189.21 252.013 189.252C252.233 189.294 252.462 189.27 252.668 189.182C252.875 189.095 253.051 188.947 253.174 188.759C253.297 188.571 253.362 188.351 253.359 188.126C253.356 187.978 253.323 187.832 253.263 187.696C253.203 187.561 253.117 187.438 253.009 187.336C252.901 187.235 252.774 187.155 252.635 187.103C252.497 187.05 252.349 187.026 252.201 187.031L252.226 187.005ZM270.374 187.005C270.149 187.003 269.928 187.068 269.74 187.191C269.551 187.315 269.404 187.492 269.317 187.699C269.23 187.907 269.206 188.136 269.249 188.357C269.293 188.578 269.401 188.781 269.56 188.94C269.719 189.1 269.923 189.208 270.144 189.251C270.365 189.294 270.594 189.271 270.801 189.184C271.009 189.096 271.186 188.949 271.309 188.761C271.433 188.572 271.498 188.352 271.495 188.126C271.492 187.975 271.458 187.825 271.396 187.687C271.333 187.549 271.243 187.425 271.131 187.322C271.02 187.22 270.888 187.141 270.745 187.091C270.602 187.041 270.45 187.02 270.299 187.031L270.374 187.005ZM288.51 187.005C288.285 187.005 288.066 187.072 287.879 187.197C287.692 187.322 287.547 187.5 287.462 187.708C287.376 187.916 287.355 188.145 287.399 188.365C287.444 188.585 287.553 188.787 287.713 188.945C287.873 189.103 288.076 189.21 288.297 189.252C288.517 189.294 288.746 189.27 288.953 189.182C289.159 189.095 289.336 188.947 289.459 188.759C289.582 188.571 289.646 188.351 289.643 188.126C289.64 187.978 289.608 187.832 289.547 187.696C289.487 187.561 289.401 187.438 289.293 187.336C289.185 187.235 289.058 187.155 288.92 187.103C288.781 187.05 288.633 187.026 288.485 187.031L288.51 187.005ZM234.09 211.275C233.865 211.272 233.644 211.337 233.456 211.46C233.267 211.584 233.12 211.761 233.033 211.968C232.945 212.176 232.922 212.405 232.965 212.626C233.009 212.847 233.117 213.05 233.276 213.21C233.435 213.369 233.638 213.477 233.86 213.52C234.081 213.564 234.309 213.54 234.517 213.453C234.725 213.365 234.902 213.218 235.025 213.03C235.149 212.842 235.213 212.621 235.211 212.396C235.208 212.248 235.175 212.103 235.116 211.968C235.057 211.834 234.971 211.712 234.865 211.61C234.759 211.508 234.633 211.429 234.496 211.375C234.359 211.322 234.212 211.296 234.065 211.3L234.09 211.275ZM252.226 211.275C252.001 211.275 251.781 211.341 251.595 211.467C251.408 211.592 251.263 211.769 251.178 211.977C251.092 212.185 251.07 212.414 251.115 212.634C251.16 212.854 251.269 213.056 251.429 213.214C251.589 213.372 251.792 213.479 252.013 213.521C252.233 213.564 252.462 213.539 252.668 213.452C252.875 213.364 253.051 213.217 253.174 213.029C253.297 212.841 253.362 212.62 253.359 212.396C253.356 212.247 253.323 212.101 253.263 211.965C253.203 211.83 253.117 211.708 253.009 211.606C252.901 211.504 252.774 211.424 252.635 211.372C252.497 211.319 252.349 211.295 252.201 211.3L252.226 211.275Z" fill="white"/>
<path d="M240.627 174.751C248.057 173.064 255.387 170.973 262.717 168.882C270.047 166.792 277.389 164.701 284.669 162.421C288.774 161.162 292.893 159.903 296.961 158.429C297.074 158.429 297.036 158.202 296.961 158.228C289.543 159.903 282.188 162.006 274.87 164.008C267.553 166.011 260.185 168.19 252.881 170.381C248.762 171.64 244.657 172.9 240.589 174.373C240.349 174.449 240.412 174.802 240.627 174.751Z" fill="#263238"/>
<path d="M240.815 158.895C239.783 158.995 238.75 159.209 237.73 159.411C237.652 159.433 237.581 159.475 237.524 159.532C237.467 159.59 237.425 159.661 237.402 159.738C236.269 163.617 235.463 167.61 234.657 171.564C233.851 175.519 233.158 179.373 232.516 183.302C232.163 185.405 231.861 187.534 231.622 189.599C230.337 192.169 229.554 194.96 229.317 197.823C229.317 197.857 229.33 197.889 229.354 197.913C229.377 197.936 229.409 197.949 229.443 197.949C229.476 197.949 229.508 197.936 229.532 197.913C229.555 197.889 229.569 197.857 229.569 197.823C229.884 195.283 230.541 192.796 231.521 190.431C230.884 195.615 231.025 200.866 231.936 206.01C230.677 198.327 232.566 190.317 233.826 182.761C234.455 178.982 235.173 175.204 235.916 171.426C236.659 167.648 237.528 163.932 238.221 160.167C239.103 159.827 239.997 159.499 240.841 159.096C240.855 159.082 240.866 159.066 240.873 159.047C240.879 159.028 240.881 159.009 240.879 158.989C240.877 158.969 240.869 158.951 240.858 158.934C240.847 158.918 240.833 158.904 240.815 158.895Z" fill="#263238"/>
<path d="M173.323 94.009C172.731 96.15 161.875 109.815 152.001 108.984C148.789 108.706 149.482 91.0871 149.482 91.0871L149.243 89.8277L145.842 71.4526L167.744 58.4931L170.905 56.7803C170.905 56.7803 171.509 61.818 172.164 68.2285C172.164 68.5181 172.227 68.8078 172.252 69.1227C172.277 69.4375 172.353 69.8279 172.378 70.1554C172.504 71.1 172.605 72.0697 172.706 73.0395C172.781 73.77 172.844 74.4878 172.895 75.2561C172.945 76.0243 173.021 76.7926 173.083 77.5608C173.535 83.0318 173.615 88.5271 173.323 94.009Z" fill="#F7A9A0"/>
<path d="M172.189 68.1907C170.155 73.2399 167.047 77.786 163.08 81.5137C159.113 85.2413 154.383 88.061 149.217 89.7773L145.817 71.4022L167.743 58.4931L170.905 56.7803C170.905 56.7803 171.509 61.8432 172.189 68.1907Z" fill="#263238"/>
<path d="M122.706 41.6671C119.318 74.2989 138.487 80.0167 145.527 80.7094C151.912 81.3643 173.751 82.7874 180.489 50.672C187.227 18.5566 173.121 6.68022 158.587 4.40065C144.054 2.12109 126.094 9.03535 122.706 41.6671Z" fill="#F7A9A0"/>
<path d="M133.701 34.0854C134.452 34.0353 135.201 33.947 135.943 33.8209C136.747 33.8374 137.535 33.5896 138.185 33.1157C138.364 32.9281 138.475 32.686 138.5 32.428C138.525 32.17 138.463 31.911 138.323 31.6925C137.98 31.3099 137.542 31.0246 137.053 30.8654C136.565 30.7062 136.043 30.6787 135.54 30.7857C134.484 30.8436 133.487 31.2926 132.744 32.0451C132.599 32.2287 132.508 32.4491 132.481 32.6815C132.454 32.914 132.492 33.1494 132.592 33.3613C132.691 33.5731 132.848 33.7531 133.043 33.881C133.239 34.0089 133.467 34.0797 133.701 34.0854Z" fill="#263238"/>
<path d="M157.101 33.9092C156.363 33.7418 155.636 33.5315 154.922 33.2795C154.126 33.1635 153.391 32.787 152.832 32.209C152.69 31.9957 152.624 31.7417 152.642 31.4865C152.66 31.2314 152.762 30.9894 152.932 30.7984C153.33 30.4699 153.808 30.2535 154.317 30.1715C154.827 30.0896 155.348 30.1452 155.829 30.3324C156.851 30.5666 157.749 31.1727 158.348 32.0326C158.464 32.2355 158.522 32.4668 158.514 32.7006C158.507 32.9344 158.434 33.1614 158.304 33.3562C158.175 33.5511 157.994 33.706 157.781 33.8036C157.569 33.9013 157.333 33.9378 157.101 33.9092Z" fill="#263238"/>
<path d="M151.27 43.7075C151.27 43.632 151.434 43.8335 151.421 43.9216C151.132 46.1382 151.182 48.7327 153.121 49.6647C153.121 49.6647 153.121 49.8032 153.121 49.7906C150.653 49.1987 150.653 45.7604 151.27 43.7075Z" fill="#263238"/>
<path d="M153.487 41.579C157.089 41.6672 156.661 48.8585 153.323 48.7955C149.986 48.7326 150.464 41.5161 153.487 41.579Z" fill="#263238"/>
<path d="M154.872 42.045C155.477 42.4858 156.056 43.2414 156.799 43.3674C157.542 43.4933 158.386 42.788 159.003 42.108C159.066 42.108 159.116 42.1079 159.116 42.1961C159.053 43.5815 158.449 44.9669 156.95 45.0802C155.451 45.1936 154.696 43.9215 154.431 42.5613C154.431 42.2339 154.633 41.8687 154.872 42.045Z" fill="#263238"/>
<path d="M137.681 42.1207C137.681 42.0325 137.492 42.2089 137.492 42.297C137.416 44.5388 136.95 47.0829 134.885 47.6874C134.809 47.6874 134.809 47.8133 134.885 47.8133C137.379 47.574 137.958 44.1988 137.681 42.1207Z" fill="#263238"/>
<path d="M135.842 39.6018C132.278 39.0854 131.51 46.2641 134.809 46.7427C138.109 47.2213 138.84 40.0426 135.842 39.6018Z" fill="#263238"/>
<path d="M134.28 39.9165C133.663 40.2313 133.021 40.861 132.354 40.8358C131.686 40.8107 131.094 39.9668 130.641 39.1734C130.641 39.0852 130.54 39.1734 130.527 39.2364C130.338 40.5966 130.641 42.0827 131.925 42.4857C133.21 42.8887 134.117 41.7678 134.583 40.4454C134.696 40.1935 134.545 39.7905 134.28 39.9165Z" fill="#263238"/>
<path d="M147.744 61.0873C147.202 61.6037 146.661 62.3468 145.842 62.3468C145.011 62.3266 144.194 62.1246 143.449 61.7548C143.434 61.7519 143.419 61.753 143.404 61.7579C143.39 61.7628 143.377 61.7714 143.367 61.7828C143.356 61.7943 143.349 61.8081 143.346 61.8231C143.343 61.8381 143.344 61.8536 143.348 61.8682C143.659 62.3155 144.086 62.6693 144.583 62.8913C145.081 63.1133 145.629 63.195 146.17 63.1276C146.628 63.0174 147.043 62.7727 147.362 62.4249C147.681 62.0771 147.888 61.642 147.958 61.1755C147.996 61.0118 147.819 61.0118 147.744 61.0873Z" fill="#263238"/>
<path d="M138.991 52.3724C138.991 52.3724 138.298 55.6721 138.185 57.2464C138.185 57.3849 138.55 57.4857 139.079 57.5612C139.079 57.5612 139.079 57.5612 139.142 57.5612C140.472 57.9038 141.871 57.8723 143.184 57.47C144.498 57.0678 145.675 56.3104 146.585 55.2817C146.711 55.1432 146.522 54.9668 146.371 55.055C144.271 56.2787 141.834 56.7953 139.419 56.5285C139.331 56.0877 140.792 50.9241 140.552 50.8863C139.324 50.9045 138.103 51.0909 136.925 51.4404C138.185 44.5388 140.514 37.8764 141.648 30.9873C141.665 30.9356 141.66 30.8793 141.635 30.8308C141.61 30.7824 141.567 30.7458 141.516 30.7291C141.464 30.7124 141.408 30.717 141.359 30.7418C141.311 30.7666 141.274 30.8096 141.258 30.8614C138.298 37.6497 136.698 45.5715 135.225 52.6747C135.023 53.5563 138.348 52.5991 138.991 52.3724Z" fill="#263238"/>
<path d="M139.62 56.9817C140.397 58.2897 141.499 59.3744 142.819 60.1303C143.55 60.5266 144.389 60.6767 145.212 60.5585C147.013 60.3066 147.24 58.7197 147.076 57.3092C146.987 56.5645 146.809 55.8332 146.547 55.1304C144.495 56.4708 142.068 57.1196 139.62 56.9817Z" fill="#263238"/>
<path d="M142.819 60.1303C143.55 60.5266 144.389 60.6768 145.212 60.5585C147.013 60.3067 147.24 58.7198 147.076 57.3092C146.154 57.2365 145.233 57.4747 144.462 57.986C143.69 58.4973 143.112 59.2522 142.819 60.1303Z" fill="#FF9CBD"/>
<path d="M179.129 48.7831C171.572 48.2415 172.643 36.3903 172.643 36.3903C172.643 36.3903 164.179 34.9168 164.696 21.1135C164.696 21.1135 159.91 29.0856 148.222 29.8161C145.703 29.9798 154.519 24.3124 154.519 24.3124C154.519 24.3124 142.706 32.0453 124.759 27.1713C123.5 26.8313 129.092 8.17915 143.928 2.7888C158.764 -2.60155 171.345 2.19685 179.443 11.9448C179.443 11.9448 189.519 17.6375 189.884 27.6625C190.249 37.6875 182.05 48.9972 179.129 48.7831Z" fill="#263238"/>
<path d="M184.935 43.7453C187.437 39.6216 188.889 34.9464 189.161 30.1305C189.433 25.3145 188.518 20.5054 186.496 16.126C179.595 0.735797 154.834 -5.37243 138.5 5.52163C138.5 5.52163 166.585 0.483911 176.081 13.1538C185.577 25.8236 184.935 43.7453 184.935 43.7453Z" fill="#FFC727"/>
<path d="M174.872 51.9442C174.872 51.9442 182.202 41.8688 186.799 44.3877C191.396 46.9065 185.778 61.7804 180.287 63.7073C179.601 64.0051 178.862 64.1609 178.114 64.1654C177.366 64.1699 176.625 64.023 175.936 63.7336C175.246 63.4441 174.623 63.018 174.102 62.4811C173.581 61.9441 173.175 61.3073 172.907 60.6091L174.872 51.9442Z" fill="#F7A9A0"/>
<path d="M185.086 48.6445C185.174 48.6445 185.186 48.7579 185.086 48.7957C181.232 50.2692 179.166 53.8334 177.693 57.4354C178.852 56.05 180.413 55.2943 182.29 56.6797C182.391 56.7553 182.29 56.9064 182.176 56.8812C181.507 56.6539 180.783 56.6409 180.106 56.8441C179.429 57.0472 178.832 57.4564 178.398 58.0147C177.683 58.9473 177.067 59.9518 176.559 61.0121C176.371 61.3522 175.753 61.1633 175.892 60.7728V60.6847C175.93 55.8107 179.834 49.0475 185.086 48.6445Z" fill="#263238"/>
</svg>
