<svg width="887" height="559" viewBox="0 0 887 559" fill="none" xmlns="http://www.w3.org/2000/svg">
<path d="M244.582 138.303H75.6672V22.7416H244.582V138.303ZM77.0011 136.97H243.248V24.0755H77.0011V136.97Z" fill="#EBEBEB"/>
<path d="M88.8854 30.1843C88.8854 30.8491 88.6883 31.499 88.3189 32.0517C87.9496 32.6045 87.4246 33.0353 86.8105 33.2897C86.1963 33.5441 85.5205 33.6107 84.8684 33.481C84.2164 33.3513 83.6175 33.0311 83.1474 32.5611C82.6774 32.091 82.3572 31.4921 82.2276 30.8401C82.0979 30.1881 82.1644 29.5122 82.4188 28.8981C82.6732 28.2839 83.104 27.7589 83.6568 27.3896C84.2095 27.0203 84.8594 26.8231 85.5242 26.8231C86.4156 26.8231 87.2706 27.1772 87.9009 27.8076C88.5313 28.4379 88.8854 29.2929 88.8854 30.1843Z" fill="#A6A6A6"/>
<path d="M102.61 30.1843C102.61 30.8491 102.413 31.499 102.044 32.0517C101.675 32.6045 101.15 33.0353 100.535 33.2897C99.9213 33.5441 99.2454 33.6107 98.5934 33.481C97.9414 33.3513 97.3425 33.0311 96.8724 32.5611C96.4023 32.091 96.0822 31.4921 95.9525 30.8401C95.8228 30.1881 95.8894 29.5122 96.1438 28.8981C96.3982 28.2839 96.829 27.7589 97.3818 27.3896C97.9345 27.0203 98.5844 26.8231 99.2492 26.8231C100.141 26.8231 100.996 27.1772 101.626 27.8076C102.256 28.4379 102.61 29.2929 102.61 30.1843Z" fill="#EBEBEB"/>
<path d="M116.335 30.1843C116.335 30.8491 116.138 31.499 115.769 32.0517C115.4 32.6045 114.875 33.0353 114.26 33.2897C113.646 33.5441 112.97 33.6107 112.318 33.481C111.666 33.3513 111.068 33.0311 110.597 32.5611C110.127 32.091 109.807 31.4921 109.678 30.8401C109.548 30.1881 109.614 29.5122 109.869 28.8981C110.123 28.2839 110.554 27.7589 111.107 27.3896C111.66 27.0203 112.309 26.8231 112.974 26.8231C113.866 26.8231 114.721 27.1772 115.351 27.8076C115.981 28.4379 116.335 29.2929 116.335 30.1843Z" fill="#FFC727"/>
<path d="M243.915 36.1064H76.3342V37.4403H243.915V36.1064Z" fill="#EBEBEB"/>
<path d="M868.527 220.893L876.383 208.235L872.501 205.834C871.944 205.49 871.495 204.996 871.205 204.409C870.915 203.822 870.796 203.165 870.861 202.513C870.861 201.766 870.941 201.019 870.861 200.286C870.84 199.632 871.001 198.985 871.326 198.418C871.651 197.85 872.127 197.384 872.702 197.071L876.703 194.91L869.66 181.786L865.659 183.933C865.081 184.237 864.43 184.376 863.778 184.333C863.126 184.291 862.498 184.069 861.964 183.693C861.354 183.269 860.722 182.877 860.07 182.519C859.492 182.209 859.012 181.744 858.682 181.176C858.352 180.609 858.186 179.961 858.203 179.305L858.35 174.756L843.464 174.29L843.318 178.865C843.292 179.519 843.086 180.154 842.721 180.698C842.356 181.242 841.846 181.674 841.25 181.946L840.263 182.439L839.316 182.986C838.759 183.323 838.12 183.5 837.469 183.5C836.818 183.5 836.179 183.323 835.622 182.986L831.753 180.625L823.897 193.283L827.779 195.697C828.336 196.045 828.785 196.541 829.075 197.13C829.365 197.72 829.484 198.378 829.419 199.032C829.379 199.769 829.379 200.508 829.419 201.246C829.44 201.901 829.278 202.549 828.95 203.117C828.622 203.685 828.143 204.15 827.565 204.46L823.564 206.621L830.606 219.746L834.608 217.599C835.184 217.29 835.835 217.147 836.487 217.187C837.14 217.227 837.768 217.448 838.302 217.825C838.913 218.249 839.545 218.641 840.196 218.999C840.775 219.31 841.255 219.775 841.585 220.342C841.915 220.91 842.08 221.557 842.064 222.214L841.93 226.775L856.816 227.242L856.963 222.667C856.989 222.014 857.196 221.382 857.561 220.84C857.926 220.298 858.435 219.868 859.03 219.599L860.017 219.106L860.964 218.559C861.524 218.216 862.168 218.034 862.825 218.034C863.481 218.034 864.125 218.216 864.685 218.559L868.527 220.893ZM855.922 211.556C853.795 212.697 851.377 213.181 848.975 212.947C846.573 212.713 844.294 211.773 842.426 210.244C840.558 208.715 839.186 206.667 838.482 204.358C837.778 202.049 837.775 199.584 838.472 197.273C839.17 194.962 840.537 192.911 842.4 191.377C844.264 189.843 846.541 188.896 848.942 188.656C851.344 188.416 853.763 188.893 855.893 190.028C858.023 191.163 859.77 192.903 860.911 195.03C862.424 197.878 862.749 201.209 861.814 204.296C860.88 207.382 858.761 209.973 855.922 211.503V211.556Z" fill="#EBEBEB"/>
<path d="M790.885 307.337L785.67 298.308L782.909 299.908C782.501 300.147 782.034 300.265 781.562 300.248C781.09 300.232 780.632 300.081 780.241 299.815C779.801 299.535 779.348 299.268 778.908 299.028C778.505 298.818 778.168 298.502 777.933 298.114C777.698 297.726 777.574 297.281 777.574 296.827V293.639H767.143V296.827C767.147 297.281 767.024 297.728 766.788 298.116C766.553 298.505 766.214 298.82 765.81 299.028C765.352 299.267 764.906 299.529 764.476 299.815C764.093 300.068 763.647 300.211 763.188 300.228C762.73 300.244 762.275 300.133 761.875 299.908L759.101 298.308L753.832 307.337L756.62 308.938C757.013 309.175 757.334 309.516 757.548 309.923C757.762 310.329 757.861 310.787 757.833 311.245C757.833 311.499 757.833 311.752 757.833 312.019C757.833 312.286 757.833 312.526 757.833 312.779C757.861 313.236 757.762 313.692 757.548 314.097C757.334 314.501 757.013 314.839 756.62 315.074L753.832 316.674L759.047 325.704L761.822 324.103C762.222 323.878 762.676 323.768 763.135 323.784C763.594 323.801 764.04 323.943 764.422 324.197C764.852 324.484 765.297 324.747 765.756 324.984C766.16 325.192 766.497 325.508 766.733 325.897C766.968 326.285 767.092 326.731 767.09 327.185V330.386H777.521V327.185C777.522 326.731 777.647 326.287 777.882 325.899C778.117 325.511 778.453 325.195 778.854 324.984C779.315 324.75 779.761 324.487 780.188 324.197C780.578 323.93 781.036 323.78 781.508 323.763C781.981 323.747 782.448 323.865 782.856 324.103L785.63 325.704L790.845 316.674L788.071 315.074C787.678 314.839 787.356 314.501 787.142 314.097C786.928 313.692 786.83 313.236 786.857 312.779C786.857 312.513 786.857 312.259 786.857 312.006C786.857 311.752 786.857 311.486 786.857 311.232C786.829 310.773 786.927 310.315 787.141 309.908C787.355 309.501 787.677 309.161 788.071 308.925L790.885 307.337ZM780.908 312.019C780.906 313.71 780.402 315.361 779.461 316.765C778.52 318.17 777.184 319.263 775.621 319.909C774.059 320.554 772.34 320.721 770.683 320.39C769.025 320.058 767.503 319.243 766.308 318.047C765.114 316.85 764.301 315.327 763.972 313.669C763.643 312.011 763.813 310.292 764.461 308.731C765.108 307.169 766.204 305.835 767.61 304.896C769.016 303.957 770.668 303.456 772.359 303.456C774.617 303.456 776.784 304.349 778.385 305.941C779.987 307.533 780.894 309.694 780.908 311.952V312.019Z" fill="#EBEBEB"/>
<path d="M788.098 72.266C780.06 72.266 772.202 74.6496 765.519 79.1153C758.835 83.581 753.626 89.9283 750.55 97.3546C747.474 104.781 746.669 112.952 748.237 120.836C749.805 128.72 753.676 135.961 759.36 141.645C765.044 147.329 772.285 151.2 780.169 152.768C788.053 154.336 796.224 153.531 803.65 150.455C811.077 147.379 817.424 142.17 821.89 135.486C826.355 128.803 828.739 120.945 828.739 112.907C828.739 102.129 824.457 91.7913 816.835 84.1696C809.214 76.5478 798.876 72.266 788.098 72.266ZM788.098 131.874C784.344 131.872 780.675 130.756 777.555 128.668C774.435 126.58 772.005 123.614 770.57 120.145C769.136 116.676 768.763 112.859 769.498 109.178C770.233 105.497 772.043 102.116 774.699 99.4635C777.356 96.811 780.739 95.0057 784.421 94.2759C788.104 93.5461 791.919 93.9247 795.387 95.3637C798.854 96.8027 801.816 99.2375 803.9 102.36C805.983 105.483 807.094 109.153 807.091 112.907C807.091 115.4 806.6 117.869 805.645 120.172C804.69 122.475 803.291 124.567 801.526 126.328C799.762 128.09 797.668 129.486 795.364 130.438C793.06 131.39 790.591 131.878 788.098 131.874Z" fill="#EBEBEB"/>
<path d="M795.914 73.9468H780.282L781.149 62.8761H795.047L795.914 73.9468Z" fill="#EBEBEB"/>
<path d="M766.17 79.2153L755.112 90.2593L747.91 81.8295L757.727 71.9993L766.17 79.2153Z" fill="#EBEBEB"/>
<path d="M748.857 103.971V119.603L737.786 118.736V104.838L748.857 103.971Z" fill="#EBEBEB"/>
<path d="M754.126 133.728L765.17 144.772L756.74 151.988L746.91 142.158L754.126 133.728Z" fill="#EBEBEB"/>
<path d="M778.881 151.028H794.513L793.646 162.099H779.748L778.881 151.028Z" fill="#EBEBEB"/>
<path d="M808.625 145.773L819.682 134.715L826.898 143.145L817.068 152.975L808.625 145.773Z" fill="#EBEBEB"/>
<path d="M825.938 121.004V105.371L837.009 106.238V120.15L825.938 121.004Z" fill="#EBEBEB"/>
<path d="M820.683 91.2596L809.626 80.2022L818.055 72.9996L827.886 82.8299L820.683 91.2596Z" fill="#EBEBEB"/>
<path d="M866.926 339.643L849.427 340.016L840.543 340.163C837.569 340.229 834.581 340.163 831.607 340.243H831.02V339.643L830.94 324.677V324.01H831.607L849.266 324.09C855.162 324.09 861.044 324.237 866.926 324.304H867.3V324.677C867.3 327.211 867.193 329.732 867.126 332.227L866.926 339.643ZM866.926 339.643L866.739 332.107C866.673 329.626 866.593 327.171 866.566 324.717L866.926 325.091C861.044 325.157 855.162 325.304 849.266 325.304L831.607 325.384L832.274 324.717V339.643L831.673 339.056C834.581 339.056 837.489 339.056 840.41 339.122L849.093 339.349L866.926 339.643Z" fill="#EBEBEB"/>
<path d="M847.226 358.463L829.726 358.836L820.83 358.983C817.869 358.983 814.881 358.983 811.906 359.063H811.32V358.463V343.537V342.87H811.986L829.646 342.964C835.528 342.964 841.424 343.11 847.306 343.177H847.679V343.537C847.679 346.072 847.573 348.592 847.506 351.087L847.226 358.463ZM847.226 358.463L847.039 350.927C846.972 348.446 846.892 345.991 846.866 343.537L847.226 343.911C841.344 343.977 835.448 344.124 829.566 344.124L811.906 344.204L812.573 343.537V358.463L811.973 357.876C814.881 357.876 817.788 357.876 820.71 357.942L829.473 358.103L847.226 358.463Z" fill="#EBEBEB"/>
<path d="M886.627 358.463L869.127 358.836L860.244 358.983C857.269 358.983 854.282 358.983 851.307 359.063H850.72V358.463L850.64 343.537V342.87H851.307L868.967 342.964C874.862 342.964 880.745 343.11 886.627 343.177H887V343.537C887 346.072 886.88 348.592 886.827 351.087L886.627 358.463ZM886.627 358.463L886.44 350.927C886.44 348.446 886.293 345.991 886.266 343.537L886.627 343.911C880.745 343.977 874.862 344.124 868.967 344.124L851.307 344.204L851.974 343.537V358.463L851.374 357.876C854.295 357.876 857.189 357.876 860.11 357.942L868.887 358.103L886.627 358.463Z" fill="#EBEBEB"/>
<path d="M363.304 162.045L345.805 162.419L336.922 162.565C333.947 162.565 330.959 162.565 327.985 162.565H327.398V161.965L327.318 147.04V146.373H327.985L345.645 146.453C351.54 146.453 357.422 146.6 363.304 146.666H363.678V147.026C363.678 149.561 363.558 152.068 363.491 154.563L363.304 162.045ZM363.304 162.045L363.118 154.496C363.118 152.015 362.971 149.561 362.944 147.12L363.304 147.48C357.422 147.48 351.54 147.693 345.645 147.693L327.985 147.787L328.652 147.12L328.585 162.045L327.985 161.445C330.893 161.445 333.8 161.445 336.721 161.525L345.498 161.672L363.304 162.045Z" fill="#EBEBEB"/>
<path d="M343.577 180.865L326.078 181.239L317.181 181.386C314.22 181.386 311.232 181.386 308.258 181.452H307.671V180.852L307.564 165.953V165.286H308.231L325.891 165.366C331.773 165.366 337.669 165.513 343.551 165.58H343.924V165.953C343.924 168.488 343.817 170.995 343.751 173.489L343.577 180.865ZM343.577 180.865L343.391 173.316C343.324 170.835 343.244 168.381 343.217 165.94L343.577 166.3C337.695 166.367 331.8 166.513 325.918 166.513L308.258 166.607L308.925 165.94L308.898 180.865L308.298 180.265C311.206 180.265 314.113 180.265 317.034 180.345L325.798 180.492L343.577 180.865Z" fill="#EBEBEB"/>
<path d="M383.005 180.865L365.505 181.239L356.622 181.386C353.648 181.386 350.673 181.386 347.686 181.452H347.099V180.852L347.019 165.953V165.286H347.686L365.345 165.366C371.241 165.366 377.123 165.513 383.005 165.58H383.378V165.953C383.378 168.488 383.258 170.995 383.205 173.489L383.005 180.865ZM383.005 180.865L382.818 173.316C382.818 170.835 382.672 168.381 382.645 165.94L383.005 166.3C377.123 166.367 371.241 166.513 365.345 166.513L347.686 166.607L348.352 165.94L348.286 180.865L347.686 180.265C350.607 180.265 353.501 180.265 356.422 180.345L365.199 180.492L383.005 180.865Z" fill="#EBEBEB"/>
<path d="M75.3206 260.801L57.821 261.174L48.9245 261.321C45.9634 261.321 42.9756 261.321 40.0012 261.388H39.4677V260.787V245.862V245.195H40.1346L57.7943 245.275C63.6764 245.275 69.5719 245.422 75.454 245.489H75.8275V245.849C75.8275 248.383 75.7208 250.891 75.6541 253.385L75.3206 260.801ZM75.3206 260.801L75.1339 253.251C75.1339 250.771 74.9872 248.316 74.9605 245.875L75.3206 246.236C69.4385 246.302 63.5431 246.449 57.6609 246.449L40.0012 246.542L40.6681 245.875L40.6015 260.801L40.0012 260.201C42.909 260.201 45.8167 260.201 48.7377 260.281L57.5009 260.427L75.3206 260.801Z" fill="#EBEBEB"/>
<path d="M660.838 162.032L643.339 162.405L634.456 162.552C631.481 162.619 628.493 162.552 625.519 162.619H624.932V162.018L624.852 147.093V146.426H625.519L643.179 146.506C649.074 146.506 654.956 146.666 660.838 146.733H661.212V147.093C661.212 149.627 661.105 152.148 661.039 154.629L660.838 162.032ZM660.838 162.032L660.652 154.496C660.585 152.001 660.505 149.547 660.478 147.106L660.838 147.467C654.956 147.533 649.074 147.68 643.179 147.693L625.519 147.773L626.186 147.106L626.119 162.032L625.519 161.432C628.427 161.432 631.334 161.432 634.255 161.512L643.032 161.658L660.838 162.032Z" fill="#EBEBEB"/>
<path d="M864.885 17.0729L847.386 17.4464L838.489 17.5931C835.528 17.5931 832.54 17.5931 829.566 17.6731H828.979V17.0729V2.1475V1.48059H829.646L847.306 1.56062C853.188 1.56062 859.083 1.72068 864.965 1.78737H865.339V2.1475C865.339 4.68175 865.232 7.20266 865.165 9.68355L864.885 17.0729ZM864.885 17.0729L864.699 9.53683C864.632 7.0426 864.552 4.58838 864.525 2.1475L864.885 2.50763C859.003 2.50763 853.108 2.72104 847.226 2.73438L829.566 2.81441L830.233 2.1475L830.166 17.0729L829.566 16.4727C832.474 16.4727 835.381 16.4727 838.302 16.5527L847.066 16.6994L864.885 17.0729Z" fill="#EBEBEB"/>
<path d="M884.586 35.8929L867.086 36.2664L858.203 36.4131C855.229 36.4798 852.241 36.4131 849.266 36.4931H848.68V35.8929L848.599 20.9675V20.3006H849.266L866.926 20.3806C872.822 20.3806 878.704 20.5407 884.586 20.6074H884.959V20.9675C884.959 23.5018 884.839 26.0227 884.773 28.5036L884.586 35.8929ZM884.586 35.8929L884.399 28.3568C884.399 25.8626 884.252 23.4084 884.226 20.9675L884.586 21.3276C878.704 21.3276 872.822 21.541 866.926 21.5544L849.266 21.6344L849.933 20.9675V35.8929L849.333 35.2927C852.241 35.2927 855.148 35.2927 858.07 35.3727L866.846 35.5194L884.586 35.8929Z" fill="#EBEBEB"/>
<path d="M35.9196 17.0861L18.4066 17.4595L9.52344 17.6063C6.56237 17.6063 3.57462 17.6063 0.600218 17.6863H0V17.0861V2.16068V1.49377H0.680243L18.34 1.58714C24.2221 1.58714 30.1042 1.73386 35.9997 1.80055H36.3598V2.16068C36.3598 4.69493 36.2397 7.21584 36.1864 9.71007L35.9196 17.0861ZM35.9196 17.0861L35.7196 9.55002C35.7196 7.06912 35.5728 4.60156 35.5462 2.16068L35.9196 2.52081C30.0242 2.60084 24.142 2.73422 18.2599 2.74756L0.600218 2.82759L1.26713 2.16068L1.18709 17.0861L0.600218 16.5659C3.50793 16.5659 6.40231 16.5659 9.32337 16.5659L18.0999 16.7126L35.9196 17.0861Z" fill="#EBEBEB"/>
<path d="M11.0841 426.581L119.216 426.26L227.349 426.14L443.613 425.927L659.878 426.14L768.011 426.26L876.143 426.581L768.011 426.914L659.878 427.034L443.613 427.247L227.349 427.034L119.216 426.914L11.0841 426.581Z" fill="#263238"/>
<path d="M443.613 558.201C671.524 558.201 856.282 544.281 856.282 527.11C856.282 509.939 671.524 496.019 443.613 496.019C215.703 496.019 30.9445 509.939 30.9445 527.11C30.9445 544.281 215.703 558.201 443.613 558.201Z" fill="#EBEBEB"/>
<path d="M752.232 53.0592H132.741V467.462H752.232V53.0592Z" fill="#EBEBEB"/>
<path d="M747.737 58.1144H137.25V462.407H747.737V58.1144Z" fill="#263238"/>
<path d="M832.927 498.527H52.0588V526.964H832.927V498.527Z" fill="#DBDBDB"/>
<path d="M52.0588 498.526L132.741 467.449H752.245L832.927 498.526H52.0588Z" fill="#EBEBEB"/>
<path d="M139.944 487.509L192.016 467.449H692.97L745.042 487.509H139.944Z" fill="#263238"/>
<path d="M713.231 88.8188H171.742V431.676H713.231V88.8188Z" fill="white"/>
<path d="M703.614 102.024H171.742V164.273H703.614V102.024Z" fill="#FFC727"/>
<path d="M713.231 88.8188H171.742V102.01H713.231V88.8188Z" fill="#455A64"/>
<path d="M182.933 95.4213C182.933 96.0676 182.741 96.6994 182.382 97.2368C182.023 97.7742 181.513 98.1931 180.915 98.4404C180.318 98.6877 179.661 98.7524 179.027 98.6263C178.394 98.5003 177.811 98.189 177.354 97.732C176.897 97.275 176.586 96.6927 176.46 96.0588C176.334 95.4249 176.399 94.7679 176.646 94.1707C176.893 93.5736 177.312 93.0633 177.849 92.7042C178.387 92.3451 179.019 92.1534 179.665 92.1534C180.532 92.1534 181.363 92.4977 181.976 93.1106C182.588 93.7234 182.933 94.5546 182.933 95.4213Z" fill="#C7C7C7"/>
<path d="M196.298 95.4213C196.3 96.0714 196.11 96.7076 195.75 97.2493C195.391 97.7909 194.878 98.2135 194.278 98.4635C193.678 98.7135 193.017 98.7796 192.38 98.6534C191.742 98.5272 191.156 98.2145 190.696 97.7548C190.237 97.2951 189.924 96.7092 189.798 96.0715C189.671 95.4338 189.738 94.7729 189.988 94.1728C190.238 93.5727 190.66 93.0604 191.202 92.7009C191.743 92.3414 192.38 92.1508 193.03 92.1535C193.896 92.1535 194.728 92.4978 195.34 93.1106C195.953 93.7234 196.298 94.5546 196.298 95.4213Z" fill="white"/>
<path d="M209.662 95.4213C209.665 96.0708 209.475 96.7065 209.116 97.2478C208.757 97.7892 208.245 98.2118 207.646 98.4622C207.047 98.7126 206.387 98.7795 205.749 98.6544C205.112 98.5293 204.526 98.2178 204.066 97.7595C203.606 97.3012 203.292 96.7165 203.164 96.0797C203.036 95.4428 203.101 94.7824 203.349 94.1821C203.597 93.5817 204.017 93.0685 204.557 92.7074C205.097 92.3462 205.732 92.1534 206.381 92.1534C207.249 92.1534 208.082 92.4973 208.697 93.1098C209.312 93.7222 209.659 94.5534 209.662 95.4213Z" fill="#FFC727"/>
<path d="M713.244 102.024H703.627V431.689H713.244V102.024Z" fill="#DBDBDB"/>
<path d="M708.429 216.305C707.771 216.305 707.14 216.043 706.675 215.578C706.209 215.113 705.948 214.482 705.948 213.824V106.425C705.948 105.767 706.209 105.136 706.675 104.671C707.14 104.206 707.771 103.944 708.429 103.944C709.087 103.944 709.718 104.206 710.183 104.671C710.648 105.136 710.91 105.767 710.91 106.425V213.824C710.91 214.482 710.648 215.113 710.183 215.578C709.718 216.043 709.087 216.305 708.429 216.305Z" fill="#A6A6A6"/>
<path d="M308.285 263.588H404.919V189.455H308.285V263.588Z" fill="#FFC727"/>
<path opacity="0.6" d="M317.901 205.661C317.531 207.508 317.765 209.424 318.567 211.128C319.37 212.832 320.7 214.232 322.359 215.122C324.019 216.012 325.921 216.344 327.785 216.07C329.648 215.796 331.373 214.929 332.706 213.599C334.039 212.268 334.909 210.545 335.187 208.682C335.465 206.819 335.136 204.916 334.249 203.255C333.363 201.593 331.965 200.261 330.263 199.455C328.561 198.649 326.645 198.412 324.797 198.779C323.097 199.116 321.534 199.95 320.307 201.175C319.079 202.4 318.242 203.961 317.901 205.661Z" fill="white"/>
<path d="M340.163 247.609H404.92L372.535 207.715L340.163 247.609Z" fill="#FFC727"/>
<path opacity="0.2" d="M340.163 247.609H404.92L372.535 207.715L340.163 247.609Z" fill="black"/>
<path d="M308.285 247.649H365.705L337.002 221.667L308.285 247.649Z" fill="#FFC727"/>
<path opacity="0.1" d="M308.285 247.649H365.705L337.002 221.667L308.285 247.649Z" fill="black"/>
<path d="M404.919 247.623H308.285V263.602H404.919V247.623Z" fill="#FFC727"/>
<path opacity="0.1" d="M404.919 247.623H308.285V263.602H404.919V247.623Z" fill="black"/>
<path d="M437.678 303.603H534.313V189.695H437.678V303.603Z" fill="#455A64"/>
<path opacity="0.6" d="M447.308 222.627C446.938 224.474 447.173 226.391 447.976 228.095C448.78 229.799 450.111 231.199 451.772 232.088C453.432 232.977 455.335 233.308 457.199 233.032C459.062 232.756 460.788 231.888 462.12 230.556C463.452 229.224 464.32 227.499 464.596 225.635C464.872 223.772 464.54 221.869 463.651 220.208C462.762 218.547 461.362 217.217 459.659 216.413C457.955 215.609 456.038 215.375 454.191 215.745C452.493 216.086 450.934 216.922 449.71 218.146C448.485 219.371 447.65 220.929 447.308 222.627Z" fill="white"/>
<path d="M469.569 264.589H534.313L501.941 224.681L469.569 264.589Z" fill="#263238"/>
<path d="M437.691 264.615H495.112L466.395 238.633L437.691 264.615Z" fill="#37474F"/>
<path d="M534.326 264.589H437.691V303.603H534.326V264.589Z" fill="#37474F"/>
<path d="M308.285 274.926C314.847 274.726 321.409 274.619 327.972 274.539L347.659 274.432L367.346 274.539C373.908 274.619 380.484 274.712 387.046 274.926C380.484 275.139 373.908 275.233 367.346 275.313L347.659 275.419L327.972 275.326C321.409 275.233 314.847 275.126 308.285 274.926Z" fill="#C7C7C7"/>
<path d="M308.285 283.102C313.22 282.889 318.141 282.796 323.077 282.715C328.012 282.635 332.933 282.635 337.869 282.595L352.661 282.715C357.596 282.796 362.517 282.889 367.453 283.102C362.517 283.302 357.596 283.396 352.661 283.489L337.869 283.596C332.933 283.596 328.012 283.596 323.077 283.476C318.141 283.356 313.22 283.329 308.285 283.102Z" fill="#C7C7C7"/>
<path d="M439.692 407.721H437.184V405.226H438.185V406.72H439.692V407.721Z" fill="#C7C7C7"/>
<path d="M528.284 407.72H524.283V406.72H528.284V407.72ZM520.281 407.72H516.28V406.72H520.281V407.72ZM512.278 407.72H508.277V406.72H512.278V407.72ZM504.275 407.72H500.274V406.72H504.275V407.72ZM496.272 407.72H492.271V406.72H496.272V407.72ZM488.27 407.72H484.268V406.72H488.27V407.72ZM480.267 407.72H476.265V406.72H480.267V407.72ZM472.264 407.72H468.262V406.72H472.264V407.72ZM464.261 407.72H460.259V406.72H464.261V407.72ZM456.258 407.72H452.257V406.72H456.258V407.72ZM448.255 407.72H444.254V406.72H448.255V407.72Z" fill="#C7C7C7"/>
<path d="M534.82 407.721H532.312V406.72H533.819V405.226H534.82V407.721Z" fill="#C7C7C7"/>
<path d="M534.82 401.091H533.819V396.97H534.82V401.091ZM534.82 392.848H533.819V388.7H534.82V392.848ZM534.82 384.592H533.819V380.471H534.82V384.592ZM534.82 376.336H533.819V372.214H534.82V376.336ZM534.82 368.093H533.819V363.971H534.82V368.093ZM534.82 359.837H533.819V355.715H534.82V359.837ZM534.82 351.58H533.819V347.459H534.82V351.58ZM534.82 343.337H533.819V339.216H534.82V343.337Z" fill="#C7C7C7"/>
<path d="M534.82 335.081H533.819V333.587H532.312V332.587H534.82V335.081Z" fill="#C7C7C7"/>
<path d="M528.284 333.587H524.283V332.587H528.284V333.587ZM520.281 333.587H516.28V332.587H520.281V333.587ZM512.278 333.587H508.277V332.587H512.278V333.587ZM504.275 333.587H500.274V332.587H504.275V333.587ZM496.272 333.587H492.271V332.587H496.272V333.587ZM488.27 333.587H484.268V332.587H488.27V333.587ZM480.267 333.587H476.265V332.587H480.267V333.587ZM472.264 333.587H468.262V332.587H472.264V333.587ZM464.261 333.587H460.259V332.587H464.261V333.587ZM456.258 333.587H452.257V332.587H456.258V333.587ZM448.255 333.587H444.254V332.587H448.255V333.587Z" fill="#C7C7C7"/>
<path d="M438.185 335.081H437.184V332.587H439.692V333.587H438.185V335.081Z" fill="#C7C7C7"/>
<path d="M438.185 401.091H437.184V396.97H438.185V401.091ZM438.185 392.848H437.184V388.7H438.185V392.848ZM438.185 384.592H437.184V380.471H438.185V384.592ZM438.185 376.336H437.184V372.214H438.185V376.336ZM438.185 368.093H437.184V363.971H438.185V368.093ZM438.185 359.837H437.184V355.715H438.185V359.837ZM438.185 351.58H437.184V347.459H438.185V351.58ZM438.185 343.337H437.184V339.216H438.185V343.337Z" fill="#C7C7C7"/>
<path d="M569.686 263.495H567.178V260.988H568.178V262.495H569.686V263.495Z" fill="#C7C7C7"/>
<path d="M658.278 263.495H654.276V262.495H658.278V263.495ZM650.275 263.495H646.273V262.495H650.275V263.495ZM642.272 263.495H638.27V262.495H642.272V263.495ZM634.269 263.495H630.268V262.495H634.269V263.495ZM626.266 263.495H622.265V262.495H626.266V263.495ZM618.263 263.495H614.262V262.495H618.263V263.495ZM610.26 263.495H606.259V262.495H610.26V263.495ZM602.257 263.495H598.256V262.495H602.257V263.495ZM594.255 263.495H590.253V262.495H594.255V263.495ZM586.252 263.495H582.25V262.495H586.252V263.495ZM578.249 263.495H574.247V262.495H578.249V263.495Z" fill="#C7C7C7"/>
<path d="M664.813 263.495H662.306V262.495H663.813V260.988H664.813V263.495Z" fill="#C7C7C7"/>
<path d="M664.813 256.866H663.813V252.745H664.813V256.866ZM664.813 248.61H663.813V244.488H664.813V248.61ZM664.813 240.367H663.813V236.232H664.813V240.367ZM664.813 232.111H663.813V227.989H664.813V232.111ZM664.813 223.854H663.813V219.733H664.813V223.854ZM664.813 215.611H663.813V211.476H664.813V215.611ZM664.813 207.355H663.813V203.3H664.813V207.355ZM664.813 199.099H663.813V194.977H664.813V199.099Z" fill="#C7C7C7"/>
<path d="M664.813 190.856H663.813V189.349H662.306V188.348H664.813V190.856Z" fill="#C7C7C7"/>
<path d="M658.278 189.349H654.276V188.348H658.278V189.349ZM650.275 189.349H646.273V188.348H650.275V189.349ZM642.272 189.349H638.27V188.348H642.272V189.349ZM634.269 189.349H630.268V188.348H634.269V189.349ZM626.266 189.349H622.265V188.348H626.266V189.349ZM618.263 189.349H614.262V188.348H618.263V189.349ZM610.26 189.349H606.259V188.348H610.26V189.349ZM602.257 189.349H598.256V188.348H602.257V189.349ZM594.255 189.349H590.253V188.348H594.255V189.349ZM586.252 189.349H582.25V188.348H586.252V189.349ZM578.249 189.349H574.247V188.348H578.249V189.349Z" fill="#C7C7C7"/>
<path d="M568.178 190.856H567.178V188.348H569.686V189.349H568.178V190.856Z" fill="#C7C7C7"/>
<path d="M568.178 256.866H567.178V252.745H568.178V256.866ZM568.178 248.61H567.178V244.488H568.178V248.61ZM568.178 240.367H567.178V236.232H568.178V240.367ZM568.178 232.111H567.178V227.989H568.178V232.111ZM568.178 223.854H567.178V219.733H568.178V223.854ZM568.178 215.611H567.178V211.476H568.178V215.611ZM568.178 207.355H567.178V203.3H568.178V207.355ZM568.178 199.099H567.178V194.977H568.178V199.099Z" fill="#C7C7C7"/>
<path d="M437.691 418.564C444.254 418.351 450.816 418.258 457.378 418.178L477.066 418.058L496.753 418.178C503.315 418.258 509.877 418.351 516.44 418.564C509.877 418.765 503.315 418.858 496.753 418.938L477.066 419.058L457.378 418.938C450.816 418.858 444.254 418.765 437.691 418.564Z" fill="#C7C7C7"/>
<path d="M437.691 426.727C442.613 426.527 447.548 426.434 452.483 426.354C457.418 426.274 462.34 426.274 467.262 426.234L482.054 426.341C486.989 426.421 491.924 426.527 496.846 426.727C491.924 426.941 486.989 427.034 482.054 427.114L467.262 427.234C462.34 427.234 457.405 427.234 452.483 427.114C447.562 426.994 442.613 426.941 437.691 426.727Z" fill="#C7C7C7"/>
<path d="M437.691 314.941C444.254 314.74 450.816 314.634 457.378 314.554L477.066 314.447L496.753 314.554C503.315 314.634 509.877 314.727 516.44 314.941C509.877 315.154 503.315 315.247 496.753 315.327L477.066 315.434L457.378 315.341C450.816 315.247 444.254 315.141 437.691 314.941Z" fill="#C7C7C7"/>
<path d="M437.691 323.117C442.613 322.903 447.548 322.81 452.483 322.73C457.418 322.65 462.34 322.65 467.262 322.61L482.054 322.73C486.989 322.81 491.924 322.903 496.846 323.117C491.924 323.317 486.989 323.41 482.054 323.504L467.262 323.61C462.34 323.61 457.405 323.61 452.483 323.49C447.562 323.37 442.613 323.344 437.691 323.117Z" fill="#C7C7C7"/>
<path d="M308.285 407.24H404.919V293.333H308.285V407.24Z" fill="#FFC727"/>
<path opacity="0.2" d="M308.285 407.24H404.919V293.333H308.285V407.24Z" fill="black"/>
<path opacity="0.6" d="M317.901 326.264C317.534 328.111 317.771 330.027 318.576 331.729C319.381 333.431 320.712 334.829 322.372 335.717C324.033 336.604 325.935 336.934 327.797 336.658C329.66 336.382 331.384 335.514 332.715 334.182C334.047 332.851 334.915 331.127 335.191 329.264C335.467 327.402 335.137 325.5 334.25 323.839C333.362 322.179 331.964 320.848 330.262 320.043C328.56 319.238 326.644 319.001 324.797 319.369C323.096 319.709 321.533 320.545 320.305 321.772C319.078 323 318.242 324.563 317.901 326.264Z" fill="white"/>
<path d="M340.163 368.213H404.92L372.535 328.319L340.163 368.213Z" fill="#FFC727"/>
<path opacity="0.4" d="M340.163 368.213H404.92L372.535 328.319L340.163 368.213Z" fill="black"/>
<path d="M308.285 368.253H365.705L337.002 342.27L308.285 368.253Z" fill="#FFC727"/>
<path opacity="0.3" d="M308.285 368.253H365.705L337.002 342.27L308.285 368.253Z" fill="black"/>
<path opacity="0.1" d="M404.919 368.213H308.285V407.227H404.919V368.213Z" fill="black"/>
<path d="M308.285 418.564C314.847 418.364 321.409 418.271 327.972 418.191L347.659 418.071L367.346 418.178C373.908 418.258 380.484 418.364 387.046 418.564C380.484 418.778 373.908 418.871 367.346 418.951L347.659 419.071L327.972 418.951C321.409 418.871 314.847 418.778 308.285 418.564Z" fill="#C7C7C7"/>
<path d="M308.285 426.741C313.22 426.527 318.141 426.434 323.077 426.354C328.012 426.274 332.933 426.287 337.869 426.247L352.661 426.354C357.596 426.434 362.517 426.527 367.453 426.741C362.517 426.954 357.596 427.048 352.661 427.128L337.869 427.234C332.933 427.234 328.012 427.234 323.077 427.128C318.141 427.021 313.22 426.941 308.285 426.741Z" fill="#C7C7C7"/>
<path d="M664.813 407.734H663.693V406.734H663.786V403.826H664.787L664.813 407.734ZM659.718 407.734H655.717V406.734H659.718V407.734ZM651.715 407.734H647.714V406.734H651.715V407.734ZM643.712 407.734H639.711V406.734H643.712V407.734ZM635.709 407.734H631.708V406.734H635.709V407.734ZM627.707 407.734H623.705V406.734H627.707V407.734ZM619.704 407.734H615.702V406.734H619.704V407.734ZM611.701 407.734H607.699V406.734H611.701V407.734ZM603.698 407.734H599.696V406.734H603.698V407.734ZM595.695 407.734H591.694V406.734H595.695V407.734ZM587.692 407.734H583.691V406.734H587.692V407.734ZM579.689 407.734H575.688V406.734H579.689V407.734ZM571.686 407.734H567.685V406.734H571.686V407.734ZM568.178 406.293H567.178V402.292H568.178V406.293ZM664.813 399.824H663.813V395.823H664.813V399.824ZM568.178 398.291H567.178V394.289H568.178V398.291ZM664.813 391.822H663.813V387.82H664.813V391.822ZM568.178 390.288H567.178V386.286H568.178V390.288ZM664.813 383.819H663.813V379.817H664.813V383.819ZM568.178 382.285H567.178V378.283H568.178V382.285ZM664.813 375.816H663.813V371.814H664.813V375.816ZM568.178 374.282H567.178V370.28H568.178V374.282ZM664.813 367.813H663.813V363.811H664.813V367.813ZM568.178 366.279H567.178V362.278H568.178V366.279ZM664.813 359.81H663.813V355.809H664.813V359.81ZM568.178 358.276H567.178V354.275H568.178V358.276ZM664.813 351.807H663.813V347.806H664.813V351.807ZM568.178 350.273H567.178V346.272H568.178V350.273ZM664.813 343.804H663.813V339.803H664.813V343.804ZM568.178 342.27H567.178V338.269H568.178V342.27ZM664.813 335.801H663.813V331.8H664.813V335.801ZM568.178 334.267H567.178V330.266H568.178V334.267ZM664.813 327.798H663.813V323.797H664.813V327.798ZM568.178 326.265H567.178V322.263H568.178V326.265ZM664.813 319.796H663.813V315.794H664.813V319.796ZM568.178 318.262H567.178V314.26H568.178V318.262ZM664.813 311.793H663.813V307.791H664.813V311.793ZM568.178 310.259H567.178V306.257H568.178V310.259ZM664.813 303.79H663.813V299.788H664.813V303.79ZM568.178 302.256H567.178V298.254H568.178V302.256ZM664.813 295.787H663.813V293.826H662.773V292.826H664.813V295.787ZM568.178 294.253H567.178V292.826H570.739V293.826H568.178V294.253ZM658.771 293.826H654.77V292.826H658.771V293.826ZM650.768 293.826H646.767V292.826H650.768V293.826ZM642.765 293.826H638.764V292.826H642.765V293.826ZM634.762 293.826H630.761V292.826H634.762V293.826ZM626.76 293.826H622.758V292.826H626.76V293.826ZM618.757 293.826H614.755V292.826H618.757V293.826ZM610.754 293.826H606.752V292.826H610.754V293.826ZM602.751 293.826H598.749V292.826H602.751V293.826ZM594.748 293.826H590.747V292.826H594.748V293.826ZM586.745 293.826H582.744V292.826H586.745V293.826ZM578.742 293.826H574.741V292.826H578.742V293.826Z" fill="#C7C7C7"/>
<path d="M567.658 418.564C574.221 418.364 580.783 418.271 587.345 418.191L607.032 418.071L626.72 418.178C633.282 418.258 639.844 418.364 646.407 418.564C639.844 418.778 633.282 418.871 626.72 418.951L607.032 419.071L587.345 418.951C580.81 418.871 574.247 418.778 567.658 418.564Z" fill="#C7C7C7"/>
<path d="M567.658 426.741C572.58 426.527 577.515 426.434 582.45 426.354C587.385 426.274 592.307 426.287 597.242 426.247L612.034 426.354C616.956 426.434 621.891 426.527 626.826 426.741C621.891 426.954 616.956 427.048 612.034 427.128L597.242 427.234C592.307 427.234 587.372 427.234 582.45 427.128C577.528 427.021 572.607 426.941 567.658 426.741Z" fill="#C7C7C7"/>
<path d="M567.085 274.926C573.647 274.726 580.209 274.619 586.772 274.539L606.459 274.432L626.159 274.539C632.722 274.619 639.284 274.712 645.847 274.926C639.284 275.139 632.722 275.233 626.159 275.313L606.459 275.419L586.772 275.326C580.209 275.233 573.647 275.126 567.085 274.926Z" fill="#C7C7C7"/>
<path d="M567.085 283.102C572.02 282.889 576.942 282.796 581.877 282.715C586.812 282.635 591.734 282.635 596.669 282.595L611.461 282.715C616.396 282.796 621.318 282.889 626.253 283.102C621.318 283.302 616.396 283.396 611.461 283.489L596.669 283.596C591.734 283.596 586.812 283.596 581.877 283.476C576.942 283.356 572.02 283.329 567.085 283.102Z" fill="#C7C7C7"/>
<path d="M251.091 221.88H198.898V228.776H251.091V221.88Z" fill="#37474F"/>
<path d="M243.661 232.524H198.898V235.739H243.661V232.524Z" fill="#455A64"/>
<path d="M214.077 247.903C218.999 247.689 223.934 247.596 228.869 247.516C233.804 247.436 238.726 247.436 243.648 247.396L258.44 247.516C263.375 247.596 268.31 247.689 273.232 247.903C268.31 248.103 263.375 248.21 258.44 248.29L243.648 248.396C238.726 248.396 233.791 248.396 228.869 248.29C223.948 248.183 218.999 248.103 214.077 247.903Z" fill="#C7C7C7"/>
<path d="M214.077 256.079C218.999 255.866 223.934 255.773 228.869 255.693C233.804 255.613 238.726 255.613 243.648 255.573L258.44 255.693C263.375 255.773 268.31 255.866 273.232 256.079C268.31 256.279 263.375 256.373 258.44 256.453L243.648 256.573C238.726 256.573 233.791 256.573 228.869 256.453C223.948 256.333 218.999 256.279 214.077 256.079Z" fill="#C7C7C7"/>
<path d="M214.077 264.242C218.999 264.042 223.934 263.935 228.869 263.855C233.804 263.775 238.726 263.789 243.648 263.749L258.44 263.855C263.375 263.935 268.31 264.042 273.232 264.242C268.31 264.456 263.375 264.549 258.44 264.629L243.648 264.749C238.726 264.749 233.791 264.749 228.869 264.629C223.948 264.509 218.999 264.456 214.077 264.242Z" fill="#C7C7C7"/>
<path d="M214.077 272.418C218.999 272.205 223.934 272.112 228.869 272.032C233.804 271.952 238.726 271.965 243.648 271.912L258.44 272.032C263.375 272.112 268.31 272.205 273.232 272.418C268.31 272.619 263.375 272.725 258.44 272.805L243.648 272.912C238.726 272.912 233.791 272.912 228.869 272.805C223.948 272.699 218.999 272.659 214.077 272.418Z" fill="#C7C7C7"/>
<path d="M214.077 288.758C218.999 288.557 223.934 288.464 228.869 288.384C233.804 288.304 238.726 288.304 243.648 288.264L258.44 288.371C263.375 288.451 268.31 288.557 273.232 288.758C268.31 288.971 263.375 289.064 258.44 289.144L243.648 289.264C238.726 289.264 233.791 289.264 228.869 289.144C223.948 289.024 218.999 288.971 214.077 288.758Z" fill="#C7C7C7"/>
<path d="M214.077 296.934C218.999 296.721 223.934 296.627 228.869 296.547C233.804 296.467 238.726 296.481 243.648 296.427L258.44 296.547C263.375 296.627 268.31 296.721 273.232 296.934C268.31 297.134 263.375 297.241 258.44 297.321L243.648 297.428C238.726 297.428 233.791 297.428 228.869 297.321C223.948 297.214 218.999 297.134 214.077 296.934Z" fill="#C7C7C7"/>
<path d="M214.077 305.11C218.999 304.897 223.934 304.803 228.869 304.723C233.804 304.643 238.726 304.643 243.648 304.603L258.44 304.723C263.375 304.803 268.31 304.897 273.232 305.11C268.31 305.31 263.375 305.404 258.44 305.484L243.648 305.604C238.726 305.604 233.791 305.604 228.869 305.484C223.948 305.364 218.999 305.31 214.077 305.11Z" fill="#C7C7C7"/>
<path d="M214.077 321.449C218.999 321.236 223.934 321.143 228.869 321.063C233.804 320.983 238.726 320.996 243.648 320.943L258.44 321.063C263.375 321.143 268.31 321.236 273.232 321.449C268.31 321.663 263.375 321.756 258.44 321.836L243.648 321.943C238.726 321.943 233.791 321.943 228.869 321.836C223.948 321.73 218.999 321.65 214.077 321.449Z" fill="#C7C7C7"/>
<path d="M214.077 329.626C218.999 329.412 223.934 329.319 228.869 329.239C233.804 329.159 238.726 329.159 243.648 329.119L258.44 329.239C263.375 329.319 268.31 329.412 273.232 329.626C268.31 329.826 263.375 329.919 258.44 329.999L243.648 330.119C238.726 330.119 233.791 330.119 228.869 329.999C223.948 329.879 218.999 329.826 214.077 329.626Z" fill="#C7C7C7"/>
<path d="M214.077 337.789C218.999 337.589 223.934 337.495 228.869 337.415C233.804 337.335 238.726 337.335 243.648 337.295L258.44 337.402C263.375 337.482 268.31 337.589 273.232 337.789C268.31 338.002 263.375 338.095 258.44 338.175L243.648 338.296C238.726 338.296 233.791 338.296 228.869 338.175C223.948 338.055 218.999 338.015 214.077 337.789Z" fill="#C7C7C7"/>
<path d="M198.898 346.245C203.82 346.045 208.755 345.952 213.69 345.872C218.626 345.792 223.547 345.791 228.482 345.751L243.274 345.858C248.196 345.938 253.131 346.045 258.066 346.245C253.131 346.458 248.196 346.552 243.274 346.632L228.482 346.752C223.547 346.752 218.612 346.752 213.69 346.632C208.769 346.512 203.82 346.458 198.898 346.245Z" fill="#C7C7C7"/>
<path d="M198.898 378.67C203.82 378.457 208.755 378.363 213.69 378.283C218.626 378.203 223.547 378.203 228.482 378.163L243.274 378.283C248.196 378.363 253.131 378.457 258.066 378.67C253.131 378.87 248.196 378.964 243.274 379.044L228.482 379.164C223.547 379.164 218.612 379.164 213.69 379.044C208.769 378.924 203.82 378.87 198.898 378.67Z" fill="#C7C7C7"/>
<path d="M198.898 383.765C202.9 383.565 206.821 383.458 210.783 383.378C214.744 383.298 218.706 383.312 222.667 383.272C226.628 383.232 230.59 383.272 234.551 383.378C238.513 383.485 242.474 383.552 246.436 383.765C242.434 383.979 238.513 384.072 234.551 384.152C230.59 384.232 226.628 384.232 222.667 384.259C218.706 384.285 214.744 384.259 210.783 384.152C206.821 384.045 202.86 383.965 198.898 383.765Z" fill="#C7C7C7"/>
<path d="M583.384 362.878H445.441V462.874H583.384V362.878Z" fill="#FFC727"/>
<path d="M494.178 352.527H445.441V362.878H496.979L494.178 352.527Z" fill="#FFC727"/>
<g opacity="0.1">
<path d="M583.384 362.878H445.441V462.874H583.384V362.878Z" fill="black"/>
<path d="M494.178 352.527H445.441V362.878H496.979L494.178 352.527Z" fill="black"/>
</g>
<path d="M582.197 300.949C581.761 300.204 581.531 299.357 581.531 298.494C581.531 297.632 581.761 296.785 582.197 296.04C582.659 296.774 582.891 297.628 582.864 298.494C582.876 299.359 582.645 300.209 582.197 300.949Z" fill="#263238"/>
<path d="M577.195 302.389C576.431 301.979 575.805 301.353 575.394 300.589C574.938 299.853 574.71 298.999 574.741 298.134C575.505 298.545 576.131 299.171 576.541 299.935C576.986 300.675 577.212 301.526 577.195 302.389Z" fill="#263238"/>
<path d="M573.58 306.137C572.711 306.168 571.853 305.94 571.113 305.484C570.355 305.069 569.735 304.443 569.325 303.683C570.19 303.651 571.045 303.879 571.78 304.337C572.541 304.751 573.166 305.376 573.58 306.137Z" fill="#263238"/>
<path d="M572.327 311.192C571.589 311.645 570.737 311.876 569.872 311.859C569.007 311.879 568.154 311.648 567.418 311.192C568.151 310.73 569.006 310.498 569.872 310.525C570.737 310.514 571.587 310.745 572.327 311.192Z" fill="#263238"/>
<path d="M573.767 316.194C573.349 316.956 572.725 317.585 571.966 318.008C571.227 318.454 570.375 318.676 569.512 318.648C569.921 317.888 570.542 317.263 571.299 316.848C572.044 316.403 572.899 316.176 573.767 316.194Z" fill="#263238"/>
<path d="M577.515 319.809C577.539 320.677 577.312 321.534 576.861 322.276C576.446 323.034 575.821 323.654 575.061 324.064C575.029 323.199 575.256 322.344 575.714 321.609C576.128 320.848 576.754 320.223 577.515 319.809Z" fill="#263238"/>
<path d="M582.57 321.062C583.007 321.809 583.238 322.658 583.238 323.523C583.238 324.388 583.007 325.238 582.57 325.984C582.11 325.245 581.878 324.387 581.903 323.517C581.893 322.653 582.124 321.803 582.57 321.062Z" fill="#263238"/>
<path d="M587.572 319.622C588.334 320.04 588.963 320.664 589.386 321.423C589.832 322.162 590.054 323.014 590.026 323.877C589.266 323.468 588.64 322.847 588.226 322.09C587.781 321.345 587.554 320.49 587.572 319.622Z" fill="#263238"/>
<path d="M591.187 315.874C592.054 315.856 592.909 316.083 593.654 316.528C594.411 316.943 595.032 317.568 595.441 318.328C594.576 318.36 593.722 318.133 592.987 317.675C592.226 317.261 591.601 316.635 591.187 315.874Z" fill="#263238"/>
<path d="M592.44 310.819C593.187 310.382 594.036 310.151 594.901 310.151C595.766 310.151 596.616 310.382 597.362 310.819C596.623 311.279 595.765 311.511 594.895 311.486C594.03 311.498 593.18 311.267 592.44 310.819Z" fill="#263238"/>
<path d="M591 305.817C591.414 305.056 592.039 304.43 592.801 304.016C593.536 303.56 594.39 303.332 595.255 303.363C594.846 304.123 594.225 304.749 593.467 305.163C592.722 305.608 591.867 305.835 591 305.817Z" fill="#263238"/>
<path d="M587.252 302.203C587.25 301.34 587.476 300.492 587.907 299.745C588.338 298.998 588.958 298.378 589.706 297.948C589.737 298.817 589.509 299.675 589.053 300.415C588.638 301.172 588.012 301.793 587.252 302.203Z" fill="#263238"/>
<path d="M486.002 385.152H582.637V311.019H486.002V385.152Z" fill="#EBEBEB"/>
<path opacity="0.6" d="M495.632 327.225C495.265 329.072 495.501 330.988 496.306 332.69C497.111 334.392 498.442 335.79 500.103 336.677C501.763 337.565 503.665 337.895 505.528 337.619C507.39 337.342 509.115 336.474 510.446 335.143C511.777 333.812 512.645 332.087 512.921 330.225C513.198 328.362 512.868 326.46 511.98 324.8C511.093 323.139 509.695 321.808 507.993 321.003C506.29 320.198 504.375 319.962 502.528 320.329C500.826 320.669 499.263 321.506 498.036 322.733C496.809 323.96 495.972 325.523 495.632 327.225Z" fill="white"/>
<path d="M517.88 369.173H582.637L550.252 329.266L517.88 369.173Z" fill="#C7C7C7"/>
<path d="M486.002 369.213H543.423L514.719 343.231L486.002 369.213Z" fill="#DBDBDB"/>
<path d="M582.637 369.173H486.002V385.152H582.637V369.173Z" fill="#DBDBDB"/>
<path d="M521.388 363.024V459.659H635.296V363.024H521.388Z" fill="#455A64"/>
<path opacity="0.6" d="M602.337 372.694C600.491 372.324 598.574 372.558 596.87 373.36C595.167 374.163 593.766 375.493 592.877 377.152C591.987 378.812 591.654 380.714 591.928 382.578C592.203 384.441 593.069 386.166 594.399 387.499C595.73 388.833 597.454 389.702 599.317 389.98C601.179 390.258 603.082 389.929 604.744 389.042C606.405 388.156 607.737 386.758 608.543 385.056C609.349 383.354 609.587 381.438 609.22 379.59C608.88 377.89 608.046 376.329 606.821 375.102C605.597 373.875 604.037 373.037 602.337 372.694Z" fill="white"/>
<path d="M560.402 394.916V459.673L600.31 427.288L560.402 394.916Z" fill="#263238"/>
<path d="M560.376 363.038V420.459L586.358 391.755L560.376 363.038Z" fill="#37474F"/>
<path d="M560.402 459.673V363.038H521.388V459.673H560.402Z" fill="#37474F"/>
<path d="M464.674 450.296H561.309V336.388H464.674V450.296Z" fill="#FFC727"/>
<path opacity="0.2" d="M464.674 450.296H561.309V336.388H464.674V450.296Z" fill="black"/>
<path opacity="0.6" d="M474.291 369.333C473.924 371.181 474.162 373.097 474.968 374.799C475.774 376.501 477.106 377.899 478.767 378.786C480.429 379.672 482.332 380.001 484.194 379.723C486.057 379.445 487.781 378.576 489.112 377.243C490.442 375.91 491.308 374.184 491.583 372.321C491.857 370.457 491.524 368.555 490.634 366.896C489.745 365.236 488.344 363.906 486.641 363.103C484.937 362.301 483.02 362.067 481.174 362.438C479.474 362.779 477.913 363.616 476.688 364.843C475.463 366.07 474.629 367.633 474.291 369.333Z" fill="white"/>
<path d="M496.566 411.282H561.309L528.938 371.374L496.566 411.282Z" fill="#FFC727"/>
<path opacity="0.4" d="M496.566 411.282H561.309L528.938 371.374L496.566 411.282Z" fill="black"/>
<path d="M464.688 411.322H522.108L493.391 385.339L464.688 411.322Z" fill="#FFC727"/>
<path opacity="0.3" d="M464.688 411.322H522.108L493.391 385.339L464.688 411.322Z" fill="black"/>
<path opacity="0.1" d="M561.323 411.282H464.688V450.296H561.323V411.282Z" fill="black"/>
<path d="M583.024 462.874H445.081L434.437 371.174H572.38L583.024 462.874Z" fill="#FFC727"/>
<path d="M482.081 361.677H433.33L434.437 371.174H485.975L482.081 361.677Z" fill="#FFC727"/>
<path d="M262.313 190.643C276.887 176.069 276.887 152.439 262.313 137.865C247.739 123.29 224.109 123.29 209.534 137.865C194.96 152.439 194.96 176.069 209.534 190.643C224.109 205.218 247.739 205.218 262.313 190.643Z" fill="#455A64"/>
<path d="M241.274 183.493L241.167 183.666L240.18 185.32C239.006 187.268 237.032 190.576 234.845 194.257L232.871 197.551L232.63 197.938L230.696 201.206C227.207 200.728 223.805 199.744 220.599 198.285C220.253 198.152 219.919 197.992 219.572 197.818C218.999 197.538 218.425 197.245 217.865 196.938L217.452 196.684C217.377 196.66 217.309 196.619 217.252 196.564C217.216 196.606 217.185 196.65 217.158 196.698C217.194 196.657 217.225 196.612 217.252 196.564C217.038 196.458 216.825 196.324 216.611 196.191C212.603 193.755 209.087 190.588 206.248 186.854C207.147 185.48 208.286 184.279 209.609 183.306C213.81 180.492 221.613 179.825 228.709 180.465C230.499 180.619 232.279 180.864 234.044 181.199C236.55 181.619 238.984 182.391 241.274 183.493Z" fill="#C7C7C7"/>
<path d="M252.678 197.605C247.588 200.192 241.968 201.562 236.258 201.606H235.325C233.775 201.595 232.229 201.475 230.696 201.246C227.207 200.768 223.805 199.784 220.599 198.325C220.253 198.192 219.919 198.032 219.572 197.858C218.999 197.578 218.425 197.285 217.865 196.978L217.452 196.724C218.425 195.391 219.492 193.897 220.679 192.443C222.899 189.756 225.292 187.216 227.842 184.84C228.11 184.588 228.4 184.36 228.709 184.16C230.715 182.956 233.047 182.411 235.378 182.599C237.352 182.681 239.303 183.054 241.167 183.706C242.668 184.193 244.096 184.884 245.408 185.76C246.176 186.264 246.864 186.88 247.449 187.588L247.663 187.855C249.709 190.898 251.392 194.17 252.678 197.605Z" fill="#C7C7C7"/>
<path d="M221.24 191.496C221.053 191.803 220.88 192.096 220.68 192.403C219.759 193.923 218.812 195.431 217.865 196.938L217.452 196.684C217.377 196.66 217.309 196.619 217.252 196.564C218.532 194.83 219.839 193.136 221.24 191.496Z" fill="#263238"/>
<path d="M218.065 193.07C218.005 194.051 217.799 195.017 217.452 195.937C217.372 196.137 217.305 196.351 217.212 196.551C216.998 196.444 216.785 196.311 216.572 196.177C216.572 196.004 216.692 195.844 216.745 195.671C217.061 194.746 217.505 193.87 218.065 193.07Z" fill="#263238"/>
<path d="M235.325 201.566C233.776 201.555 232.229 201.435 230.697 201.206C227.207 200.728 223.806 199.744 220.6 198.285C222.88 194.284 227.522 192.203 232.604 197.938C233.191 198.596 233.735 199.291 234.231 200.019L235.325 201.566Z" fill="#D3766A"/>
<path d="M236.259 201.566H235.325C233.776 201.555 232.229 201.434 230.697 201.206C227.207 200.728 223.806 199.744 220.6 198.285C220.253 198.152 219.919 197.991 219.573 197.818C221.347 191.976 226.015 190.429 232.911 197.551C234.106 198.821 235.224 200.162 236.259 201.566Z" fill="#C7C7C7"/>
<path d="M244.048 198.165C240.633 198.832 232.524 193.483 228.922 188.495C228.682 188.148 228.762 184.213 228.642 179.412C228.549 176.504 228.389 173.276 228.015 170.328C227.935 169.728 230.136 170.582 230.136 170.582L234.058 171.022L247.036 172.516C246.437 176.327 246.307 180.197 246.649 184.04C246.709 184.443 246.803 184.84 246.929 185.227C246.932 185.294 246.932 185.361 246.929 185.427C247.636 187.681 249.383 197.125 244.048 198.165Z" fill="#D3766A"/>
<path d="M246.929 185.227C246.932 185.293 246.932 185.36 246.929 185.427C246.313 185.592 245.684 185.704 245.049 185.76C232.577 187.094 229.043 171.422 229.043 171.422L233.978 171.022L246.956 172.516C246.357 176.327 246.227 180.197 246.569 184.04C246.656 184.445 246.776 184.842 246.929 185.227Z" fill="#263238"/>
<path d="M224.588 145.426C222.587 152.028 226.122 171.062 230.83 175.303C237.646 181.439 248.77 181.972 253.985 173.823C259.04 165.82 253.985 141.144 248.743 137.303C241.02 131.634 227.535 135.676 224.588 145.426Z" fill="#D3766A"/>
<path d="M241.901 156.523C241.901 156.523 241.821 156.603 241.834 156.657C242.167 157.924 242.327 159.418 241.274 160.111C242.661 159.658 242.421 157.67 241.901 156.523Z" fill="#263238"/>
<path d="M240.474 155.456C238.393 155.763 239.14 159.898 241.087 159.618C243.034 159.338 242.207 155.189 240.474 155.456Z" fill="#263238"/>
<path d="M249.517 154.896C249.517 154.896 249.623 154.896 249.637 154.989C249.837 156.323 250.277 157.724 251.517 157.937C250.063 158.071 249.49 156.15 249.517 154.896Z" fill="#263238"/>
<path d="M250.41 153.336C252.451 152.802 253.371 156.91 251.491 157.404C249.61 157.897 248.703 153.789 250.41 153.336Z" fill="#263238"/>
<path d="M238.486 153.856C238.999 153.597 239.497 153.312 239.98 153.002C240.546 152.775 241.016 152.36 241.314 151.828C241.385 151.645 241.391 151.443 241.33 151.255C241.269 151.068 241.146 150.908 240.98 150.801C240.627 150.629 240.235 150.554 239.843 150.584C239.451 150.615 239.075 150.75 238.753 150.975C238.03 151.334 237.465 151.946 237.166 152.695C237.103 152.874 237.095 153.067 237.142 153.25C237.19 153.433 237.291 153.597 237.433 153.722C237.576 153.847 237.752 153.926 237.939 153.95C238.127 153.974 238.317 153.941 238.486 153.856Z" fill="#263238"/>
<path d="M251.544 151.455C250.969 151.448 250.394 151.408 249.823 151.335C249.211 151.379 248.602 151.219 248.089 150.881C247.949 150.743 247.859 150.561 247.832 150.366C247.806 150.171 247.845 149.972 247.943 149.801C248.185 149.492 248.506 149.253 248.872 149.11C249.238 148.967 249.636 148.925 250.023 148.987C250.83 148.999 251.604 149.308 252.198 149.854C252.324 149.986 252.409 150.152 252.443 150.332C252.477 150.511 252.459 150.697 252.39 150.866C252.32 151.036 252.204 151.181 252.054 151.286C251.904 151.39 251.727 151.449 251.544 151.455Z" fill="#263238"/>
<path d="M243.634 164.619C244.056 165.065 244.565 165.419 245.13 165.66C245.694 165.901 246.302 166.024 246.916 166.02C247.448 166.028 247.979 165.956 248.49 165.806C248.59 165.785 248.689 165.754 248.783 165.713L249.063 165.62C249.128 165.594 249.183 165.547 249.22 165.487C249.256 165.427 249.271 165.356 249.263 165.286C249.267 165.242 249.267 165.197 249.263 165.153V165.033C249.116 164.046 248.743 162.565 248.743 162.565C249.13 162.672 251.131 163.166 250.997 162.645C250.06 158.217 248.675 153.895 246.862 149.747C246.852 149.717 246.83 149.693 246.801 149.679C246.772 149.665 246.739 149.663 246.709 149.674C246.679 149.685 246.654 149.707 246.64 149.735C246.627 149.764 246.625 149.797 246.636 149.827C247.476 153.922 249.036 157.83 249.943 161.952C249.234 161.766 248.502 161.685 247.769 161.712C247.636 161.712 248.543 164.566 248.583 165.006C247.788 165.239 246.954 165.309 246.132 165.213C245.309 165.116 244.514 164.856 243.795 164.446C243.621 164.393 243.541 164.499 243.634 164.619Z" fill="#263238"/>
<path d="M247.823 165.38C247.407 166.188 246.792 166.877 246.035 167.381C245.636 167.629 245.171 167.749 244.702 167.727C243.621 167.647 243.368 166.714 243.461 165.873C243.483 165.421 243.559 164.973 243.688 164.54C244.944 165.246 246.39 165.54 247.823 165.38Z" fill="#263238"/>
<path d="M246.035 167.381C245.636 167.629 245.171 167.75 244.702 167.727C243.621 167.647 243.368 166.714 243.461 165.873C243.997 165.802 244.541 165.912 245.007 166.185C245.473 166.458 245.835 166.879 246.035 167.381Z" fill="#FF9BBC"/>
<path d="M225.508 163.712C228.976 162.298 229.509 150.081 229.509 150.081C229.509 150.081 230.043 155.176 230.977 154.949C231.91 154.722 235.071 147.373 234.978 142.371C238.004 143.924 241.218 145.076 244.541 145.799C249.223 146.653 254.198 145.799 254.118 145.026C253.865 142.731 251.117 136.956 247.769 135.182C245.303 133.711 242.491 132.918 239.62 132.883C236.748 132.848 233.918 133.572 231.417 134.982C224.334 138.637 222.907 143.612 222.227 147.413C221.546 151.214 224.227 164.233 225.508 163.712Z" fill="#263238"/>
<path d="M245.822 156.257C245.781 156.084 245.727 155.915 245.662 155.75C245.621 155.631 245.572 155.515 245.515 155.403C244.898 153.972 243.757 152.832 242.327 152.214C240.896 151.597 239.284 151.549 237.819 152.082C237.687 152.127 237.558 152.181 237.432 152.242C236.417 152.688 235.543 153.401 234.901 154.306C234.26 155.21 233.876 156.272 233.791 157.377C233.771 157.648 233.771 157.92 233.791 158.191C233.816 158.783 233.933 159.368 234.138 159.925C234.607 161.201 235.485 162.287 236.637 163.011C237.788 163.735 239.147 164.057 240.5 163.926C241.005 163.874 241.502 163.762 241.981 163.593C243.16 163.157 244.177 162.369 244.892 161.336C245.608 160.303 245.989 159.074 245.982 157.817C246.001 157.292 245.947 156.767 245.822 156.257ZM241.714 162.819C240.485 163.209 239.156 163.141 237.973 162.627C236.79 162.113 235.833 161.188 235.28 160.023C234.727 158.857 234.614 157.531 234.963 156.29C235.312 155.048 236.1 153.975 237.179 153.269C237.47 153.09 237.778 152.943 238.099 152.829C238.531 152.681 238.979 152.586 239.433 152.549C240.605 152.438 241.781 152.718 242.778 153.345C243.774 153.972 244.535 154.912 244.942 156.017C245.413 157.347 245.338 158.809 244.733 160.084C244.128 161.359 243.042 162.343 241.714 162.819Z" fill="#FFC727"/>
<path d="M257.773 153.829C257.45 152.336 256.671 150.98 255.546 149.948C255.131 149.568 254.652 149.266 254.132 149.054C253.447 148.759 252.687 148.685 251.958 148.84C251.627 148.911 251.312 149.037 251.024 149.214C250.193 149.692 249.545 150.434 249.183 151.321C248.764 152.301 248.586 153.367 248.663 154.429C248.666 154.739 248.701 155.047 248.77 155.349C248.785 155.479 248.808 155.609 248.836 155.736C249.013 156.553 249.319 157.337 249.743 158.057C250.146 158.89 250.778 159.59 251.565 160.077C252.351 160.564 253.26 160.816 254.185 160.805L254.585 160.738C255.068 160.631 255.523 160.422 255.919 160.125C256.782 159.351 257.413 158.352 257.74 157.24C258.068 156.128 258.079 154.947 257.773 153.829ZM255.879 159.164C255.498 159.578 255 159.867 254.452 159.991C253.613 160.057 252.775 159.856 252.056 159.418C251.338 158.98 250.776 158.326 250.45 157.55C250.278 157.265 250.139 156.961 250.037 156.643C250.031 156.629 250.027 156.613 250.027 156.597C250.027 156.581 250.031 156.565 250.037 156.55C249.926 156.25 249.837 155.942 249.77 155.63C249.718 155.396 249.678 155.16 249.65 154.923C249.644 154.865 249.644 154.807 249.65 154.749V154.656C249.547 153.64 249.694 152.615 250.077 151.668C250.121 151.572 250.17 151.479 250.224 151.388C250.407 150.994 250.668 150.64 250.991 150.349C251.314 150.058 251.693 149.835 252.104 149.694H252.291H252.598C253.286 149.636 253.973 149.815 254.545 150.201C254.764 150.331 254.97 150.483 255.159 150.654C256.148 151.585 256.82 152.803 257.079 154.136C257.289 155.009 257.29 155.92 257.081 156.794C256.872 157.667 256.461 158.48 255.879 159.164Z" fill="#FFC727"/>
<path d="M245.609 156.483L244.968 155.976C245.702 155.016 247.636 153.536 249.383 154.776L248.916 155.456C247.302 154.336 245.689 156.39 245.609 156.483Z" fill="#FFC727"/>
<path d="M219.279 163.833L218.479 163.619C218.585 163.259 219.506 160.005 221.226 159.324C222.947 158.644 233.791 157.35 234.244 157.297L234.351 158.111C231.203 158.497 222.774 159.591 221.52 160.085C220.266 160.578 219.532 162.939 219.279 163.833Z" fill="#FFC727"/>
<path d="M228.696 160.938C228.696 160.938 224.254 154.883 221.493 156.483C218.732 158.084 222.173 166.927 225.495 168.074C225.909 168.25 226.354 168.341 226.804 168.341C227.254 168.341 227.699 168.249 228.113 168.072C228.527 167.895 228.9 167.636 229.211 167.311C229.522 166.986 229.764 166.601 229.923 166.18L228.696 160.938Z" fill="#D3766A"/>
<path d="M222.547 158.991C222.547 158.991 222.547 159.058 222.547 159.084C223.612 159.586 224.561 160.306 225.33 161.198C226.1 162.089 226.674 163.132 227.015 164.26C226.878 164.031 226.692 163.836 226.472 163.687C226.251 163.538 226 163.439 225.737 163.397C225.474 163.355 225.205 163.371 224.949 163.444C224.693 163.517 224.456 163.645 224.254 163.819C224.254 163.819 224.254 163.953 224.321 163.939C224.721 163.8 225.155 163.789 225.562 163.908C225.969 164.028 226.328 164.272 226.588 164.606C227.029 165.165 227.409 165.768 227.722 166.407C227.829 166.607 228.202 166.487 228.109 166.26C228.069 163.286 225.695 159.284 222.547 158.991Z" fill="#263238"/>
<path d="M243.608 134.008C241.137 132.865 238.513 132.087 235.818 131.701C232.804 131.314 223.294 132.061 221.013 133.968C218.732 135.876 218.132 144.839 218.065 146.146C217.999 147.453 218.599 155.389 221.48 157.297C224.361 159.204 224.614 145.746 229.136 141.291C233.658 136.836 243.608 134.008 243.608 134.008Z" fill="#FFC727"/>
<path opacity="0.1" d="M243.608 134.008C243.608 134.008 233.671 136.809 229.149 141.278C224.628 145.746 224.348 159.204 221.467 157.283C220.146 156.252 219.284 154.743 219.066 153.082C219.666 149.16 221.253 143.052 224.534 138.823C227.602 134.822 232.884 132.848 238.539 132.154C240.279 132.624 241.975 133.245 243.608 134.008Z" fill="black"/>
<path d="M222.267 165.286C222.52 161.699 226.162 152.095 229.99 146.613C233.818 141.131 245.062 137.877 246.636 137.97C250.45 138.183 251.744 139.304 252.344 138.997C252.945 138.69 249.023 135.796 247.943 135.142C246.862 134.489 243.941 132.995 242.314 133.035C240.687 133.075 230.416 134.102 226.708 138.463C223 142.825 217.732 155.069 218.706 158.204C218.946 158.951 219.946 159.431 220.266 160.498C220.68 161.899 220.973 163.513 221.4 164.5C221.827 165.487 222.2 165.607 222.267 165.286Z" fill="#FFC727"/>
<path d="M230.857 144.119C229.98 143.581 229.15 142.969 228.376 142.291C227.582 141.627 226.87 140.87 226.255 140.037C226.255 140.037 226.108 140.037 226.148 140.037C226.656 140.982 227.309 141.842 228.082 142.585C228.86 143.299 229.765 143.86 230.75 144.239C230.883 144.346 230.963 144.172 230.857 144.119Z" fill="#263238"/>
<path d="M222.2 161.712C222.085 161.456 221.955 161.207 221.813 160.965C221.665 160.686 221.548 160.39 221.466 160.085C221.4 159.489 221.266 158.903 221.066 158.337C220.829 157.913 220.548 157.515 220.226 157.15C219.824 156.766 219.573 156.25 219.519 155.696C219.519 155.616 219.399 155.616 219.399 155.696C219.551 156.71 219.965 157.666 220.6 158.471C220.817 159.078 220.982 159.703 221.093 160.338C221.24 160.925 221.572 161.449 222.04 161.832C222.2 161.872 222.267 161.792 222.2 161.712Z" fill="#263238"/>
<path d="M223.534 157.83C223.187 157.417 222.827 157.057 222.52 156.616C222.23 156.192 221.971 155.746 221.747 155.283C221.52 154.829 221.333 154.362 221.12 153.949C220.906 153.535 220.533 152.895 220.306 152.335C220.306 152.268 220.173 152.335 220.199 152.335C220.439 152.908 220.573 153.535 220.8 154.109C220.991 154.614 221.218 155.104 221.48 155.576C221.722 156.047 222.007 156.493 222.334 156.91C222.648 157.326 223.042 157.676 223.494 157.937C223.494 157.937 223.534 157.857 223.534 157.83Z" fill="#263238"/>
<path d="M224.761 154.322C224.009 153.687 223.353 152.945 222.814 152.122C222.294 151.308 221.813 150.468 221.347 149.627C221.347 149.627 221.213 149.627 221.24 149.627C221.536 150.566 221.953 151.463 222.48 152.295C222.738 152.707 223.042 153.087 223.387 153.429C223.794 153.78 224.242 154.08 224.721 154.322C224.721 154.322 224.868 154.362 224.761 154.322Z" fill="#263238"/>
<path d="M226.202 150.961C225.821 150.708 225.495 150.381 225.241 150.001C224.934 149.601 224.628 149.187 224.348 148.774C224.067 148.36 223.774 147.973 223.507 147.573C223.197 147.18 222.974 146.726 222.854 146.24C222.854 146.24 222.734 146.24 222.747 146.24C222.791 146.708 222.932 147.162 223.16 147.573C223.387 148.069 223.66 148.542 223.974 148.987C224.281 149.421 224.615 149.835 224.974 150.228C225.264 150.61 225.672 150.887 226.135 151.015C226.15 151.013 226.164 151.007 226.176 150.998C226.188 150.988 226.197 150.975 226.202 150.961Z" fill="#263238"/>
<path d="M233.618 142.078C233.257 141.638 232.911 141.198 232.524 140.744C232.137 140.291 231.683 139.944 231.19 139.584C230.334 138.854 229.399 138.224 228.402 137.703C228.402 137.703 228.269 137.703 228.322 137.796C230.03 139.25 231.79 140.637 233.471 142.105C233.577 142.211 233.658 142.131 233.618 142.078Z" fill="#263238"/>
<path d="M235.778 138.997C235.417 138.571 235.01 138.186 234.565 137.85C233.603 137.17 232.57 136.598 231.483 136.143L231.417 136.236C232.35 136.863 233.297 137.463 234.191 138.13C234.657 138.453 235.102 138.805 235.525 139.184C235.925 139.557 236.245 140.011 236.632 140.411H236.699C236.492 139.881 236.179 139.4 235.778 138.997Z" fill="#263238"/>
<path d="M238.766 137.596C238.431 137.175 238.056 136.786 237.646 136.436C236.847 135.782 235.945 135.264 234.978 134.902C234.911 134.902 234.871 134.982 234.978 135.009C235.854 135.534 236.683 136.132 237.459 136.796C237.846 137.13 238.219 137.49 238.579 137.836C238.94 138.183 239.273 138.623 239.673 138.93C239.42 138.454 239.116 138.007 238.766 137.596Z" fill="#263238"/>
<path d="M240.874 135.796C240.487 135.489 240.1 135.209 239.7 134.929C239.326 134.63 238.907 134.391 238.459 134.222V134.328L240.647 136.116C241.274 136.714 241.837 137.375 242.327 138.09C242.327 138.09 242.408 138.09 242.327 138.09C242.079 137.199 241.574 136.4 240.874 135.796Z" fill="#263238"/>
<path d="M243.621 135.275C242.923 134.629 242.108 134.122 241.22 133.782C241.22 133.782 241.114 133.862 241.22 133.888C242.028 134.321 242.766 134.874 243.408 135.529C244.054 136.179 244.63 136.894 245.128 137.663C245.128 137.663 245.222 137.663 245.128 137.663C244.819 136.76 244.303 135.943 243.621 135.275Z" fill="#263238"/>
<path d="M247.143 136.823C247.053 136.633 246.951 136.451 246.836 136.276C246.599 135.928 246.331 135.602 246.035 135.302C245.411 134.712 244.727 134.189 243.995 133.742C243.995 133.742 243.875 133.742 243.995 133.835C244.687 134.302 245.327 134.844 245.902 135.449C246.184 135.745 246.439 136.067 246.662 136.409C246.782 136.57 246.889 136.739 246.982 136.916C247.067 137.092 247.165 137.262 247.276 137.423H247.383C247.348 137.208 247.266 137.003 247.143 136.823Z" fill="#263238"/>
<path d="M774.52 436.998L794.527 476.839C798.408 484.428 801.663 491.151 803.023 494.792C803.443 495.619 803.662 496.532 803.663 497.46V497.526C802.183 500.194 742.415 532.952 739.947 533.392C737.479 533.833 736.026 526.83 737.279 523.709C738.533 520.588 755.873 497.806 755.873 497.806L736.199 457.792L774.52 436.998Z" fill="#D3766A"/>
<path d="M790.472 468.729L794.593 476.905C798.475 484.495 801.729 491.217 803.09 494.858C803.402 495.721 803.617 496.616 803.73 497.526V497.593C802.25 500.26 742.481 533.019 740.014 533.459C737.546 533.899 736.092 526.897 737.346 523.776C738.6 520.654 755.939 497.873 755.939 497.873L751.725 489.603L790.472 468.729Z" fill="white"/>
<path d="M752.285 499.767C755.98 497.099 761.262 495.232 765.77 496.606C765.943 496.606 765.863 496.913 765.77 496.939C761.275 497.576 756.861 498.693 752.605 500.274C752.572 500.295 752.535 500.309 752.496 500.316C752.457 500.322 752.417 500.321 752.379 500.313C752.341 500.304 752.304 500.288 752.272 500.265C752.24 500.243 752.213 500.214 752.192 500.18C752.171 500.147 752.156 500.11 752.15 500.071C752.143 500.032 752.144 499.993 752.153 499.954C752.161 499.916 752.177 499.88 752.2 499.847C752.223 499.815 752.252 499.788 752.285 499.767Z" fill="#263238"/>
<path d="M750.217 502.968C753.912 500.234 759.181 498.433 763.702 499.807C763.876 499.807 763.796 500.114 763.702 500.127C759.207 500.768 754.793 501.89 750.537 503.475C750.47 503.517 750.389 503.531 750.311 503.514C750.234 503.496 750.166 503.449 750.124 503.382C750.082 503.314 750.068 503.233 750.085 503.155C750.103 503.078 750.15 503.011 750.217 502.968Z" fill="#263238"/>
<path d="M748.15 506.169C751.845 503.421 757.113 501.621 761.635 503.008C761.808 503.008 761.728 503.301 761.635 503.328C757.139 503.969 752.726 505.091 748.47 506.676C748.437 506.697 748.4 506.711 748.361 506.718C748.322 506.725 748.283 506.724 748.244 506.715C748.206 506.706 748.169 506.69 748.137 506.667C748.105 506.645 748.078 506.616 748.057 506.583C748.036 506.549 748.021 506.512 748.015 506.473C748.008 506.435 748.009 506.395 748.018 506.357C748.026 506.318 748.043 506.282 748.065 506.25C748.088 506.217 748.117 506.19 748.15 506.169Z" fill="#263238"/>
<path d="M740.014 533.419C742.481 532.979 802.25 500.247 803.73 497.553C804.317 496.539 800.049 487.549 794.593 476.839L794.42 476.505L755.619 497.193L755.993 497.846C755.993 497.846 738.653 520.614 737.399 523.736C736.146 526.857 737.533 533.873 740.014 533.419Z" fill="#FFC727"/>
<path d="M739.414 530.738C749.351 524.963 789.992 502.648 800.262 497.699C800.342 497.699 800.369 497.699 800.262 497.699C790.539 503.635 749.724 525.616 739.48 530.831C739.294 531.005 739.2 530.858 739.414 530.738Z" fill="#263238"/>
<path d="M747.856 486.762C747.376 486.535 720.087 435.597 710.296 410.735C700.506 385.872 688.008 332.68 685.567 321.743C685.567 321.743 679.138 297.587 676.831 277.033H729.303C729.303 277.033 736.853 298.228 734.865 327.718C734.745 329.545 750.444 390.327 754.872 398.41C761.675 410.801 790.885 463.087 791.766 463.54L747.856 486.762Z" fill="#37474F"/>
<path d="M696.238 293.186C699.012 305.19 701.427 317.194 703.961 329.199C706.495 341.203 709.083 353.341 711.63 365.412C712.897 371.374 714.111 377.336 715.432 383.272C716.67 389.136 718.397 394.887 720.593 400.464C722.821 405.96 725.395 411.322 727.916 416.684C730.437 422.046 733.038 427.461 735.652 432.823C740.916 443.582 746.327 454.275 751.885 464.901C752.565 466.235 753.219 467.569 753.952 468.809C753.961 468.83 753.962 468.853 753.955 468.875C753.948 468.897 753.933 468.915 753.913 468.926C753.894 468.938 753.87 468.942 753.848 468.937C753.826 468.933 753.806 468.921 753.792 468.902C747.937 458.459 742.255 447.908 736.839 437.224C731.424 426.54 726.102 415.883 721.26 404.893C718.84 399.495 716.903 393.893 715.472 388.153C714.031 382.298 712.897 376.376 711.67 370.467C709.136 358.329 706.606 346.191 704.081 334.054C701.573 321.969 699.039 309.885 696.585 297.801C696.274 296.307 695.98 294.813 695.704 293.319C695.701 293.254 695.72 293.19 695.759 293.138C695.797 293.085 695.853 293.048 695.916 293.032C695.979 293.017 696.046 293.023 696.105 293.051C696.163 293.079 696.211 293.127 696.238 293.186Z" fill="#455A64"/>
<path d="M746.269 476.825C749.29 474.89 752.406 473.11 755.606 471.49C758.701 469.792 761.813 468.111 764.943 466.448C771.238 463.114 777.494 459.592 783.99 456.658C784.019 456.647 784.052 456.646 784.081 456.657C784.111 456.667 784.136 456.688 784.152 456.715C784.168 456.742 784.174 456.774 784.169 456.805C784.163 456.836 784.147 456.864 784.123 456.885C778.148 460.886 771.719 464.247 765.45 467.649C762.275 469.369 759.074 471.023 755.86 472.65C752.798 474.317 749.646 475.809 746.416 477.119C746.216 477.145 746.149 476.919 746.269 476.825Z" fill="#455A64"/>
<path d="M697.305 466.848C697.305 466.848 696.932 511.424 696.932 511.451C696.932 519.988 696.731 527.457 696.278 531.312C696.284 531.333 696.284 531.357 696.278 531.378C696.28 532.304 696.065 533.218 695.651 534.046C693.104 535.753 624.959 537.527 622.571 536.794C620.184 536.06 622.091 529.164 624.679 526.977C627.266 524.789 653.022 512.478 653.022 512.478L653.823 467.915L697.305 466.848Z" fill="#D3766A"/>
<path d="M697.038 502.301C697.038 502.301 696.958 511.425 696.958 511.451C696.958 519.988 696.758 527.457 696.305 531.312C696.311 531.334 696.311 531.357 696.305 531.378C696.209 532.291 695.999 533.187 695.678 534.046C693.13 535.753 624.986 537.527 622.598 536.794C620.21 536.06 622.118 529.164 624.705 526.977C627.293 524.789 653.022 512.478 653.022 512.478V503.142L697.038 502.301Z" fill="white"/>
<path d="M648.821 512.491C653.356 511.744 658.878 512.558 662.266 515.853C662.386 515.986 662.266 516.173 662.066 516.119C657.777 514.63 653.341 513.606 648.834 513.065C648.768 513.052 648.709 513.018 648.665 512.966C648.622 512.915 648.597 512.851 648.596 512.784C648.594 512.717 648.616 512.651 648.657 512.598C648.698 512.545 648.756 512.507 648.821 512.491Z" fill="#263238"/>
<path d="M645.526 514.399C650.061 513.652 655.57 514.399 658.958 517.747C659.091 517.88 658.958 518.067 658.758 518.014C654.468 516.53 650.032 515.506 645.526 514.959C645.452 514.959 645.381 514.93 645.328 514.877C645.276 514.825 645.246 514.753 645.246 514.679C645.246 514.605 645.276 514.533 645.328 514.481C645.381 514.428 645.452 514.399 645.526 514.399Z" fill="#263238"/>
<path d="M642.218 516.293C646.753 515.546 652.262 516.293 655.65 519.654C655.783 519.774 655.65 519.961 655.45 519.907C651.161 518.422 646.725 517.403 642.218 516.866C642.153 516.852 642.094 516.816 642.052 516.764C642.01 516.712 641.987 516.647 641.987 516.58C641.987 516.513 642.01 516.448 642.052 516.395C642.094 516.343 642.153 516.307 642.218 516.293Z" fill="#263238"/>
<path d="M622.505 536.753C624.906 537.487 693.037 535.726 695.584 534.006C696.571 533.366 696.918 523.429 696.918 511.331V510.958L652.902 511.611V512.358C652.902 512.358 627.133 524.696 624.519 526.883C621.905 529.071 620.104 536.073 622.505 536.753Z" fill="#FFC727"/>
<path d="M623.212 534.086C634.682 533.512 681.032 532.245 692.423 532.552C692.517 532.552 692.517 532.619 692.423 532.619C681.059 533.446 634.709 534.326 623.212 534.273C622.971 534.326 622.971 534.153 623.212 534.086Z" fill="#263238"/>
<path d="M705.375 324.223C705.375 324.223 697.865 397.957 697.745 399.704C697.745 400.384 698.852 498.713 698.852 498.713L652.169 498.873C652.169 498.873 651.769 407.96 652.529 397.503C652.622 396.289 657.144 319.422 671.602 276.98H726.809C726.809 276.98 726.329 301.922 714.991 319.942C711.71 321.193 708.5 322.622 705.375 324.223Z" fill="#37474F"/>
<path d="M664.426 407.96C664.64 394.315 665.2 380.697 666.281 367.106C667.361 353.514 668.948 340.256 671.202 326.931C673.308 313.524 676.235 300.259 679.965 287.21C680.459 285.57 680.939 283.942 681.446 282.315C681.453 282.293 681.464 282.273 681.479 282.255C681.494 282.238 681.512 282.223 681.533 282.213C681.553 282.202 681.575 282.196 681.598 282.194C681.621 282.192 681.644 282.195 681.666 282.202C681.688 282.209 681.708 282.22 681.726 282.235C681.743 282.25 681.758 282.268 681.768 282.288C681.779 282.309 681.785 282.331 681.787 282.354C681.789 282.377 681.786 282.4 681.779 282.422C678.271 295.48 675.23 308.658 672.936 321.983C670.642 335.308 669.122 348.899 667.974 362.437C666.827 375.976 666.174 389.634 665.827 403.265C665.48 416.897 665.454 430.475 665.587 444.08C665.72 457.685 666.254 462.98 666.294 476.572C666.294 478.279 666.294 479.973 666.294 481.68C666.294 481.705 666.284 481.729 666.267 481.746C666.249 481.764 666.225 481.774 666.2 481.774C666.176 481.774 666.152 481.764 666.134 481.746C666.117 481.729 666.107 481.705 666.107 481.68C665.867 474.851 665.44 468.035 665.227 461.206C665.013 454.377 664.8 455.871 664.64 448.989C664.373 435.384 664.213 421.632 664.426 407.96Z" fill="#455A64"/>
<path d="M697.999 327.611C700.666 326.131 703.494 324.797 706.335 323.61C709.176 322.423 712.097 321.302 714.938 320.022C715.045 320.022 715.138 320.142 715.031 320.195C712.244 321.636 709.509 323.17 706.682 324.53C703.914 325.869 701.058 327.015 698.132 327.958C698.086 327.976 698.035 327.975 697.99 327.955C697.945 327.935 697.91 327.897 697.892 327.851C697.874 327.805 697.875 327.754 697.895 327.709C697.915 327.664 697.953 327.629 697.999 327.611Z" fill="#455A64"/>
<path d="M701.44 357.022C702.12 350.06 702.867 343.11 703.721 336.175C703.961 334.227 704.228 332.266 704.481 330.306C704.667 328.421 704.975 326.549 705.401 324.704C705.408 324.686 705.42 324.672 705.436 324.661C705.451 324.651 705.469 324.645 705.488 324.645C705.507 324.645 705.525 324.651 705.54 324.661C705.556 324.672 705.568 324.686 705.575 324.704C705.566 326.487 705.451 328.269 705.228 330.039L704.748 335.067C704.414 338.522 704.107 341.963 703.761 345.418C703.054 352.314 702.427 359.236 701.733 366.132C701.333 370.053 700.973 373.988 700.399 377.896C700.399 378.176 699.933 378.19 699.933 377.896C700.079 370.92 700.746 363.945 701.44 357.022Z" fill="#455A64"/>
<path d="M654.036 486.989C657.628 486.747 661.229 486.684 664.827 486.802C668.384 486.802 671.914 486.838 675.417 486.909C682.54 487.016 689.729 486.909 696.825 487.549C696.86 487.549 696.894 487.563 696.919 487.588C696.944 487.613 696.958 487.647 696.958 487.683C696.958 487.718 696.944 487.752 696.919 487.777C696.894 487.802 696.86 487.816 696.825 487.816C689.662 488.403 682.406 488.243 675.231 488.176C671.674 488.176 668.072 488.092 664.427 487.923C660.94 487.894 657.458 487.672 653.996 487.256C653.836 487.229 653.889 487.002 654.036 486.989Z" fill="#455A64"/>
<path d="M701.88 225.161C696.865 231.723 676.711 249.623 663.76 248.116C652.142 246.782 632.922 211.61 629.721 196.471C628.587 191.135 652.022 194.097 655.983 197.018C659.385 199.525 669.508 222.867 671.202 222.867C674.043 222.867 681.793 219.986 694.277 215.638C706.015 211.556 705.415 220.546 701.88 225.161Z" fill="#D3766A"/>
<path d="M660.292 201.126L629.614 202.099C629.614 202.099 646.953 246.489 663.599 249.21C667.427 249.837 687.608 243.781 701.213 227.415C705.415 222.347 709.696 210.076 692.41 215.784C675.124 221.493 671.736 222.053 671.242 221.813C670.749 221.573 660.292 201.126 660.292 201.126Z" fill="#C7C7C7"/>
<path d="M633.602 208.062C635.976 207.661 638.43 207.595 640.831 207.435C643.232 207.275 645.58 207.128 647.954 206.995C652.742 206.741 657.557 206.368 662.346 206.421C662.363 206.428 662.378 206.44 662.388 206.455C662.399 206.471 662.404 206.489 662.404 206.508C662.404 206.526 662.399 206.545 662.388 206.56C662.378 206.576 662.363 206.588 662.346 206.594C657.557 207.328 652.689 207.568 647.86 207.862C645.446 208.008 643.019 208.115 640.591 208.208C638.25 208.342 635.903 208.342 633.562 208.208C633.482 208.248 633.495 208.088 633.602 208.062Z" fill="#263238"/>
<path d="M587.292 267.67H683.927V193.536H587.292V267.67Z" fill="#FFC727"/>
<path opacity="0.6" d="M596.909 209.742C596.542 211.59 596.779 213.506 597.585 215.208C598.391 216.91 599.723 218.308 601.385 219.194C603.047 220.081 604.949 220.41 606.812 220.132C608.675 219.854 610.399 218.984 611.729 217.651C613.06 216.318 613.926 214.593 614.2 212.73C614.474 210.866 614.142 208.964 613.252 207.304C612.362 205.645 610.962 204.315 609.258 203.512C607.555 202.71 605.638 202.476 603.791 202.846C602.091 203.187 600.53 204.024 599.305 205.252C598.08 206.479 597.246 208.042 596.909 209.742Z" fill="white"/>
<path d="M619.17 251.691H683.913L651.542 211.796L619.17 251.691Z" fill="#FFC727"/>
<path opacity="0.2" d="M619.17 251.691H683.913L651.542 211.796L619.17 251.691Z" fill="black"/>
<path d="M587.279 251.731H644.713L615.996 225.748L587.279 251.731Z" fill="#FFC727"/>
<path opacity="0.1" d="M587.279 251.731H644.713L615.996 225.748L587.279 251.731Z" fill="black"/>
<path d="M683.913 251.691H587.279V267.67H683.913V251.691Z" fill="#FFC727"/>
<path opacity="0.1" d="M683.913 251.691H587.279V267.67H683.913V251.691Z" fill="black"/>
<path d="M667.694 197.965C663.88 195.004 659.691 188.721 656.29 187.534C655.461 187.213 654.55 187.169 653.694 187.409C652.837 187.65 652.082 188.162 651.542 188.868C651.542 188.868 650.568 185 647.314 184.427C645.633 184.133 643.686 186.561 643.686 186.561C643.419 185.696 642.919 184.921 642.242 184.322C641.564 183.722 640.735 183.32 639.844 183.159C637.51 182.906 635.843 185.374 635.843 185.374C635.843 185.374 633.602 182.839 631.134 183.333C626.133 184.333 621.798 204.047 628.36 208.675C631.428 210.849 632.241 206.008 632.241 206.008C632.241 206.008 632.775 213.29 636.816 214.291C640.858 215.291 641.511 208.955 641.511 208.955C641.511 208.955 642.098 216.011 646.393 216.625C650.688 217.238 650.395 210.769 650.395 210.769C650.395 210.769 652.409 215.798 655.73 215.518C661.332 215.051 656.57 205.301 658.558 201.193L666.227 200.379L667.694 197.965Z" fill="#D3766A"/>
<path d="M662.359 192.696C666.227 195.19 672.589 191.122 676.631 192.976C682.099 195.484 675.044 200.712 666.387 200.299L659.718 198.805L662.359 192.696Z" fill="#D3766A"/>
<path d="M643.686 186.454C643.679 186.44 643.669 186.427 643.656 186.419C643.643 186.41 643.628 186.406 643.612 186.406C643.597 186.406 643.582 186.41 643.568 186.419C643.555 186.427 643.545 186.44 643.539 186.454C640.126 193.509 639.355 201.554 641.365 209.129C641.445 209.395 641.778 209.542 641.712 209.235C640.578 203.98 641.725 192.629 643.686 186.454Z" fill="#263238"/>
<path d="M650.835 211.196C648.941 203.767 649.621 196.524 651.395 189.121C651.395 189.028 651.288 189.001 651.248 189.121C649.394 192.483 648.754 197.311 648.581 201.126C648.348 204.643 649.038 208.16 650.581 211.329C650.635 211.383 650.875 211.303 650.835 211.196Z" fill="#263238"/>
<path d="M689.769 222.2C692.703 222.774 699.653 218.199 702.747 213.89C702.96 213.597 702.88 210.209 703 206.101C703 203.593 703.214 200.766 703.521 198.285C703.601 197.778 701.707 198.511 701.707 198.511L698.345 198.885L687.195 200.219C687.711 203.487 687.823 206.807 687.528 210.102C687.48 210.451 687.399 210.795 687.288 211.129V211.303C686.674 213.183 685.181 221.293 689.769 222.2Z" fill="#D3766A"/>
<path d="M687.288 211.089V211.263C687.816 211.405 688.357 211.499 688.902 211.543C699.573 212.637 702.627 199.232 702.627 199.232L698.385 198.885L687.235 200.219C687.751 203.487 687.863 206.807 687.568 210.102C687.504 210.439 687.41 210.769 687.288 211.089Z" fill="#263238"/>
<path d="M706.468 176.904C708.189 182.572 705.134 198.925 701.133 202.566C695.278 207.902 685.714 208.315 681.246 201.233C676.897 194.417 681.246 173.222 685.741 169.875C692.37 165.059 703.934 168.541 706.468 176.904Z" fill="#D3766A"/>
<path d="M689.555 186.307C689.555 186.307 689.635 186.387 689.622 186.427C689.342 187.507 689.195 188.801 690.102 189.388C690.102 189.388 690.102 189.468 690.102 189.455C688.915 189.001 689.115 187.294 689.555 186.307Z" fill="#263238"/>
<path d="M690.796 185.387C692.583 185.654 691.916 189.215 690.262 188.961C688.608 188.708 689.289 185.173 690.796 185.387Z" fill="#263238"/>
<path d="M683.7 185.04C683.7 185.04 683.607 185.04 683.607 185.12C683.433 186.227 683.06 187.468 681.993 187.641V187.708C683.26 187.761 683.7 186.107 683.7 185.04Z" fill="#263238"/>
<path d="M682.967 183.706C681.219 183.239 680.419 186.774 682.033 187.201C683.647 187.627 684.42 184.093 682.967 183.706Z" fill="#263238"/>
<path d="M692.49 184.026C692.036 183.813 691.636 183.546 691.156 183.293C690.665 183.092 690.252 182.736 689.982 182.279C689.927 182.121 689.926 181.948 689.979 181.789C690.032 181.63 690.137 181.492 690.276 181.399C690.578 181.252 690.914 181.188 691.249 181.214C691.585 181.239 691.907 181.354 692.183 181.545C692.795 181.858 693.27 182.385 693.517 183.026C693.558 183.167 693.559 183.317 693.521 183.459C693.484 183.601 693.408 183.731 693.303 183.833C693.197 183.936 693.066 184.008 692.923 184.042C692.78 184.076 692.63 184.071 692.49 184.026Z" fill="#263238"/>
<path d="M681.98 182.092C682.475 182.083 682.969 182.048 683.46 181.986C683.988 182.019 684.513 181.878 684.954 181.585C685.079 181.461 685.155 181.296 685.17 181.12C685.184 180.944 685.136 180.769 685.034 180.625C684.826 180.36 684.55 180.155 684.235 180.033C683.921 179.911 683.579 179.876 683.247 179.931C682.554 179.933 681.888 180.195 681.379 180.665C681.257 180.781 681.173 180.931 681.138 181.095C681.104 181.26 681.12 181.431 681.185 181.586C681.25 181.742 681.361 181.873 681.503 181.963C681.645 182.054 681.811 182.099 681.98 182.092Z" fill="#263238"/>
<path d="M689.329 196.871C689.022 197.084 688.689 197.391 688.288 197.351C687.88 197.268 687.494 197.1 687.155 196.858C687.155 196.858 687.075 196.858 687.088 196.858C687.21 197.11 687.399 197.325 687.634 197.478C687.869 197.63 688.141 197.716 688.422 197.725C688.656 197.707 688.88 197.621 689.066 197.476C689.251 197.331 689.389 197.134 689.462 196.911C689.462 196.884 689.382 196.844 689.329 196.871Z" fill="#263238"/>
<path d="M688.782 193.363C688.421 193.748 687.985 194.054 687.501 194.263C687.017 194.471 686.495 194.578 685.968 194.577C685.516 194.573 685.067 194.506 684.634 194.377L684.38 194.31L684.154 194.23C684.098 194.205 684.051 194.164 684.02 194.111C683.989 194.058 683.975 193.997 683.98 193.936C683.974 193.901 683.974 193.865 683.98 193.83V193.736C684.114 192.883 684.434 191.616 684.434 191.616C684.087 191.709 682.38 192.123 682.486 191.696C683.289 187.888 684.482 184.174 686.048 180.612C686.056 180.587 686.075 180.567 686.099 180.555C686.122 180.544 686.15 180.543 686.174 180.552C686.199 180.561 686.219 180.579 686.231 180.603C686.242 180.626 686.243 180.654 686.234 180.678C685.514 184.2 684.18 187.561 683.393 191.082C684.003 190.928 684.632 190.86 685.261 190.882C685.381 190.882 684.594 193.336 684.567 193.723C685.25 193.919 685.966 193.976 686.671 193.891C687.376 193.806 688.058 193.581 688.675 193.23C688.795 193.203 688.862 193.283 688.782 193.363Z" fill="#263238"/>
<path d="M685.194 194.043C685.543 194.736 686.067 195.324 686.715 195.751C687.071 195.979 687.492 196.087 687.915 196.057C688.835 196.057 689.009 195.19 688.982 194.47C688.961 194.086 688.894 193.705 688.782 193.336C687.692 193.948 686.435 194.196 685.194 194.043Z" fill="#263238"/>
<path d="M686.715 195.751C687.071 195.979 687.492 196.087 687.915 196.057C688.835 196.057 689.009 195.19 688.982 194.47C688.515 194.399 688.038 194.486 687.627 194.718C687.216 194.95 686.894 195.314 686.715 195.751Z" fill="#FF9BBC"/>
<path d="M705.681 192.629C702.707 191.416 702.28 180.932 702.28 180.932C702.28 180.932 701.827 185.307 701.013 185.12C700.199 184.933 697.505 178.611 697.598 174.303C695 175.639 692.238 176.63 689.382 177.25C685.381 177.984 681.086 177.25 681.153 176.584C681.379 174.61 683.74 169.661 686.621 168.141C688.738 166.879 691.15 166.198 693.614 166.168C696.078 166.137 698.506 166.758 700.653 167.967C702.776 168.916 704.618 170.397 706.002 172.266C707.385 174.135 708.262 176.33 708.549 178.638C709.149 181.959 706.775 193.056 705.681 192.629Z" fill="#263238"/>
<path d="M690.369 192.629C689.041 192.219 687.926 191.306 687.261 190.085C686.595 188.864 686.433 187.432 686.808 186.094C687.086 185.147 687.624 184.298 688.361 183.642C689.098 182.986 690.004 182.55 690.977 182.385C691.949 182.219 692.949 182.329 693.862 182.703C694.774 183.078 695.564 183.7 696.14 184.501C696.716 185.302 697.056 186.249 697.12 187.233C697.185 188.218 696.972 189.2 696.505 190.07C696.039 190.939 695.337 191.66 694.481 192.15C693.625 192.64 692.649 192.88 691.663 192.843C691.224 192.83 690.789 192.759 690.369 192.629ZM687.488 186.294C687.232 187.159 687.239 188.08 687.507 188.942C687.775 189.803 688.292 190.566 688.994 191.133C689.695 191.701 690.549 192.047 691.447 192.13C692.346 192.212 693.248 192.026 694.041 191.595C694.834 191.164 695.481 190.508 695.901 189.709C696.32 188.911 696.494 188.005 696.399 187.108C696.304 186.211 695.946 185.362 695.369 184.669C694.792 183.975 694.022 183.469 693.157 183.213C692.791 183.112 692.415 183.049 692.036 183.026C691.014 182.974 690.004 183.266 689.167 183.856C688.33 184.446 687.716 185.3 687.421 186.28L687.488 186.294Z" fill="#FFC727"/>
<path d="M679.325 190.882C677.191 190.549 675.817 187.934 676.271 185.067C676.451 183.769 677.034 182.561 677.938 181.612C678.3 181.179 678.767 180.847 679.295 180.649C679.823 180.45 680.394 180.392 680.951 180.479C681.508 180.567 682.033 180.797 682.475 181.147C682.917 181.497 683.261 181.956 683.473 182.479C684.047 183.658 684.234 184.989 684.007 186.28C683.593 188.948 681.686 190.989 679.672 190.909L679.325 190.882ZM678.432 182.106C677.63 182.952 677.117 184.031 676.964 185.187C676.578 187.668 677.685 189.908 679.432 190.175C681.179 190.442 682.927 188.655 683.313 186.174C683.519 185.029 683.36 183.849 682.86 182.799C682.677 182.388 682.399 182.026 682.049 181.743C681.699 181.46 681.286 181.264 680.846 181.172H680.579C680.176 181.17 679.777 181.252 679.407 181.413C679.037 181.574 678.705 181.81 678.432 182.106Z" fill="#FFC727"/>
<path d="M686.821 186.707L687.355 186.254C686.674 185.467 684.994 184.293 683.5 185.454L683.94 186C685.261 184.96 686.768 186.641 686.821 186.707Z" fill="#FFC727"/>
<path d="M709.79 191.669L710.456 191.442C710.35 191.136 709.389 188.388 707.882 187.894C706.375 187.401 697.012 186.854 696.611 186.827V187.534C699.279 187.694 706.615 188.201 707.709 188.561C708.803 188.921 709.536 190.909 709.79 191.669Z" fill="#FFC727"/>
<path d="M702.947 190.229C702.947 190.229 706.762 185.027 709.123 186.4C711.483 187.774 708.549 195.377 705.708 196.364C705.351 196.515 704.968 196.592 704.581 196.592C704.194 196.591 703.811 196.513 703.455 196.361C703.099 196.209 702.777 195.987 702.509 195.708C702.241 195.429 702.031 195.099 701.893 194.737L702.947 190.229Z" fill="#D3766A"/>
<path d="M690.142 167.1C692.259 166.122 694.505 165.453 696.811 165.113C699.412 164.793 707.575 165.433 709.536 167.074C711.497 168.714 712.004 176.41 712.057 177.531C712.11 178.651 711.603 185.467 709.136 187.107C706.668 188.748 706.468 177.184 702.547 173.342C698.625 169.501 690.142 167.1 690.142 167.1Z" fill="#FFC727"/>
<path opacity="0.1" d="M690.142 167.113C690.142 167.113 698.679 169.501 702.56 173.342C706.442 177.184 706.682 188.748 709.149 187.107C710.289 186.223 711.033 184.924 711.217 183.493C710.696 180.118 709.336 174.876 706.522 171.248C703.854 167.847 699.346 166.113 694.517 165.566C693.015 165.95 691.551 166.467 690.142 167.113Z" fill="black"/>
<path d="M708.469 193.963C708.242 190.882 705.121 182.639 701.8 177.958C698.479 173.276 688.862 170.462 687.501 170.542C684.22 170.715 683.113 171.715 682.593 171.422C682.073 171.128 685.447 168.661 686.381 168.114C687.844 167.175 689.49 166.557 691.21 166.3C692.637 166.3 701.427 167.207 704.614 170.955C707.802 174.703 712.324 185.214 711.497 187.908C711.297 188.548 710.43 188.975 710.163 189.882C709.803 191.082 709.549 192.469 709.176 193.31C708.802 194.15 708.482 194.23 708.469 193.963Z" fill="#FFC727"/>
<path d="M707.442 187.561C707.735 187.201 708.042 186.894 708.309 186.507C708.555 186.142 708.774 185.758 708.962 185.36C709.163 184.973 709.323 184.56 709.509 184.173C709.696 183.786 710.016 183.266 710.203 182.839C710.203 182.773 710.323 182.839 710.296 182.839C710.096 183.333 709.976 183.853 709.789 184.36C709.616 184.79 709.416 185.209 709.189 185.614C708.987 186.006 708.746 186.377 708.469 186.721C708.202 187.082 707.861 187.382 707.469 187.601C707.469 187.601 707.415 187.588 707.442 187.561Z" fill="#263238"/>
<path d="M706.375 184.546C707.024 184 707.59 183.362 708.056 182.652C708.496 181.959 708.909 181.238 709.309 180.518C709.309 180.518 709.416 180.518 709.403 180.518C709.149 181.343 708.79 182.132 708.336 182.866C708.112 183.219 707.848 183.546 707.549 183.839C707.208 184.132 706.837 184.387 706.442 184.6C706.442 184.6 706.268 184.626 706.375 184.546Z" fill="#263238"/>
<path d="M698.719 174.023C699.026 173.649 699.319 173.276 699.666 172.929C700.013 172.582 700.373 172.249 700.76 171.929C701.497 171.312 702.297 170.776 703.147 170.328C703.147 170.328 703.267 170.328 703.147 170.408C701.693 171.649 700.173 172.836 698.732 174.103L698.719 174.023Z" fill="#263238"/>
<path d="M696.865 171.395C697.171 171.022 697.52 170.686 697.905 170.395C698.739 169.811 699.634 169.319 700.573 168.927C700.573 168.927 700.693 168.928 700.573 169.021C699.773 169.554 698.972 170.061 698.199 170.648C697.817 170.924 697.451 171.222 697.105 171.542C696.758 171.875 696.491 172.262 696.158 172.595C696.158 172.595 696.078 172.595 696.091 172.595C696.261 172.145 696.525 171.736 696.865 171.395Z" fill="#263238"/>
<path d="M694.371 170.181C694.653 169.817 694.975 169.486 695.331 169.194C695.997 168.619 696.76 168.167 697.585 167.86C697.585 167.86 697.678 167.927 697.585 167.954C696.832 168.398 696.122 168.911 695.464 169.488L694.491 170.381C694.171 170.675 693.904 171.048 693.557 171.315C693.788 170.91 694.061 170.53 694.371 170.181Z" fill="#263238"/>
<path d="M692.45 168.621C692.77 168.354 693.103 168.114 693.45 167.86C693.773 167.607 694.133 167.404 694.517 167.26C694.517 167.26 694.597 167.327 694.517 167.354C693.89 167.86 693.264 168.367 692.65 168.887C692.106 169.398 691.618 169.966 691.196 170.581C691.411 169.818 691.847 169.136 692.45 168.621Z" fill="#263238"/>
<path d="M690.129 168.14C690.733 167.576 691.433 167.124 692.196 166.807C692.196 166.807 692.29 166.807 692.196 166.9C691.502 167.274 690.868 167.75 690.316 168.314C689.766 168.871 689.274 169.483 688.849 170.141C688.769 170.141 688.849 170.141 688.849 170.141C689.12 169.387 689.557 168.703 690.129 168.14Z" fill="#263238"/>
<path d="M687.101 169.528C687.181 169.354 687.275 169.208 687.368 169.048C687.573 168.751 687.806 168.474 688.062 168.221C688.594 167.714 689.18 167.267 689.809 166.887C689.809 166.887 689.916 166.887 689.809 166.967C689.215 167.35 688.665 167.797 688.168 168.301C687.932 168.56 687.709 168.831 687.501 169.114C687.408 169.261 687.315 169.408 687.235 169.554C687.166 169.71 687.081 169.857 686.981 169.995H686.888C686.928 169.827 687.001 169.668 687.101 169.528Z" fill="#263238"/>
<path d="M685.247 169.688C685.423 169.444 685.615 169.213 685.821 168.994C686.021 168.776 686.235 168.571 686.461 168.381L687.155 167.794C687.155 167.794 687.275 167.794 687.155 167.874C686.918 168.067 686.699 168.281 686.501 168.514L685.928 169.154L685.341 169.808C685.154 170.021 684.981 170.275 684.767 170.475H684.701C684.855 170.194 685.038 169.931 685.247 169.688Z" fill="#263238"/>
<path d="M736.092 299.868C735.932 300.055 665.187 301.415 664.533 300.695C663.626 299.695 675.204 228.789 686.421 213.33C689.235 209.462 699.266 206.821 703.441 210.743C715.552 222.107 718.113 231.657 721.247 239.46C724.313 247.893 726.887 256.497 728.956 265.229C733.171 281.888 736.653 299.201 736.092 299.868Z" fill="#C7C7C7"/>
<path d="M696.065 222.787C694.944 232.59 686.301 270.177 674.43 275.579C660.038 282.128 640.445 285.663 630.174 285.996C624.732 286.183 629.427 256.452 634.349 256.479C642.112 256.479 656.077 253.185 658.838 252.478C661.599 251.771 675.23 230.163 683.113 218.839C690.209 208.635 696.718 216.998 696.065 222.787Z" fill="#D3766A"/>
<path d="M636.51 285.316C625.652 286.45 612.194 288.504 600.99 283.382C599.732 282.851 598.689 281.911 598.029 280.714C592.974 278.514 592.494 275.459 592.494 275.459C588.399 271.951 588.346 268.79 588.346 268.79C588.346 268.79 582.423 266.122 583.437 262.294C584.558 257.986 592.654 262.561 598.629 262.294C612.354 261.828 633.735 257.239 637.683 256.706L636.51 285.316Z" fill="#D3766A"/>
<path d="M613.341 271.898C609.338 272.075 605.328 271.986 601.337 271.631C596.978 270.964 592.676 269.97 588.466 268.657C588.439 268.646 588.41 268.647 588.383 268.658C588.357 268.669 588.336 268.69 588.326 268.717C588.315 268.743 588.315 268.773 588.327 268.799C588.338 268.826 588.359 268.846 588.386 268.857C596.252 272.197 604.884 273.313 613.341 272.085C613.528 272.045 613.542 271.898 613.341 271.898Z" fill="#263238"/>
<path d="M614.822 280.128C610.887 279.968 603.978 279.648 592.521 275.299C592.521 275.299 592.441 275.299 592.521 275.366C599.358 279.06 607.091 280.773 614.849 280.314C615.062 280.314 615.089 280.141 614.822 280.128Z" fill="#263238"/>
<path d="M615.542 284.569C609.557 284.075 603.669 282.76 598.043 280.661C598.043 280.661 598.043 280.661 598.043 280.728C605.365 284.036 608.393 284.396 615.582 284.809C615.796 284.823 615.796 284.663 615.542 284.569Z" fill="#263238"/>
<path d="M615.129 260.654C616.889 259.894 616.463 258.96 613.195 258.093C609.927 257.226 596.069 256.626 596.682 251.824C597.296 247.022 616.556 249.063 622.185 250.01C628.083 251.106 633.651 253.543 638.457 257.133C634.616 257.72 622.638 259.547 615.129 260.654Z" fill="#D3766A"/>
<path d="M640.044 254.692L639.271 286.17C639.271 286.17 667.694 282.902 676.911 275.326C686.128 267.75 693.277 242.221 695.851 227.802C698.425 213.383 691.503 204.287 678.952 223.6C666.401 242.914 659.878 250.89 658.758 251.611C657.637 252.331 640.044 254.692 640.044 254.692Z" fill="#C7C7C7"/>
<path d="M667.401 279.874C667.494 279.714 678.285 274.406 680.352 270.978C681.966 268.31 690.356 250.09 695.598 230.07C695.598 230.07 695.704 230.07 695.691 230.07C695.155 233.336 694.452 236.572 693.584 239.766L693.864 239.3C694.711 237.975 695.49 236.609 696.198 235.205C696.198 235.098 696.398 235.205 696.345 235.298C695.638 236.632 695.011 238.126 694.397 239.526C694.064 240.207 693.744 240.86 693.357 241.54C693.224 241.78 693.064 242.047 692.903 242.301C692.623 243.288 692.343 244.275 692.036 245.262C691.29 247.743 684.18 267.496 680.472 272.205C678.125 275.166 668.468 279.808 667.374 280.021C667.254 280.074 667.334 279.981 667.401 279.874Z" fill="#263238"/>
<path d="M645.3 284.182C645.146 281.762 645.119 279.336 645.22 276.913C645.22 274.539 645.26 272.165 645.34 269.791C645.446 265.002 645.446 260.16 645.86 255.385C645.86 255.279 646.033 255.265 646.033 255.385C646.407 260.2 646.273 265.082 646.193 269.924C646.193 272.338 646.073 274.766 645.967 277.18C645.942 279.526 645.778 281.869 645.473 284.196C645.46 284.316 645.3 284.276 645.3 284.182Z" fill="#263238"/>
<path d="M689.435 210.876C695.037 207.862 710.456 206.541 716.659 210.716C724.501 215.971 731.717 246.449 728.516 248.249C722.821 251.464 703.067 233.764 698.759 226.495C694.451 219.226 689.435 210.876 689.435 210.876Z" fill="#C7C7C7"/>
<path d="M693.424 219.986C694.424 221.04 695.464 222.08 696.465 223.147C695.131 221.04 693.797 218.946 692.463 216.798C692.463 216.718 692.463 216.638 692.583 216.705C694.334 218.893 695.968 221.173 697.478 223.534C699.106 225.881 700.733 228.229 702.48 230.496C704.188 232.778 706.06 234.931 708.082 236.939C710.261 238.998 712.593 240.888 715.058 242.594C716.392 243.581 717.832 244.541 719.246 245.462C720.771 246.454 722.372 247.324 724.035 248.063C724.341 248.183 724.141 248.276 724.035 248.249C722.613 247.721 721.243 247.065 719.94 246.289C718.606 245.515 717.272 244.728 715.872 243.928C713.273 242.432 710.805 240.719 708.496 238.806C704.186 234.882 700.538 230.288 697.692 225.201L697.505 224.921C696.905 224.281 696.331 223.587 695.771 222.934C694.958 221.96 694.117 221.026 693.224 220.106C693.21 220.026 693.344 219.906 693.424 219.986Z" fill="#263238"/>
</svg>
