<svg width="272" height="280" viewBox="0 0 272 280" fill="none" xmlns="http://www.w3.org/2000/svg">
<path d="M43.7542 279.097H44.4232V222.283L66.5144 192.137V165.51H65.8454V191.916L43.7542 222.069V279.097Z" fill="#EBEBEB"/>
<path d="M66.1396 165.905C66.5951 165.906 67.0407 165.772 67.4201 165.52C67.7994 165.268 68.0954 164.909 68.2707 164.489C68.4459 164.068 68.4924 163.605 68.4043 163.158C68.3163 162.711 68.0976 162.301 67.776 161.978C67.4545 161.656 67.0444 161.436 66.5978 161.346C66.1511 161.257 65.6881 161.302 65.2671 161.476C64.8462 161.65 64.4864 161.945 64.2332 162.324C63.98 162.702 63.8449 163.148 63.8449 163.603C63.8449 164.212 64.0864 164.797 64.5166 165.228C64.9467 165.66 65.5304 165.903 66.1396 165.905ZM66.1396 161.977C66.4631 161.976 66.7796 162.071 67.0491 162.25C67.3185 162.429 67.5288 162.684 67.6532 162.982C67.7776 163.281 67.8105 163.609 67.7477 163.927C67.6849 164.244 67.5293 164.535 67.3006 164.764C67.0719 164.993 66.7804 165.148 66.4631 165.211C66.1459 165.274 65.8171 165.241 65.5185 165.117C65.22 164.992 64.9651 164.782 64.7862 164.513C64.6074 164.243 64.5126 163.927 64.5139 163.603C64.5104 163.387 64.5498 163.173 64.6299 162.973C64.71 162.772 64.8292 162.59 64.9805 162.436C65.1318 162.282 65.3122 162.16 65.5113 162.077C65.7103 161.994 65.9239 161.951 66.1396 161.951V161.977Z" fill="#EBEBEB"/>
<path d="M49.4407 279.097H50.1098V225.929L72.2009 195.776V181.004H71.5319V195.556L49.4407 225.709V279.097Z" fill="#EBEBEB"/>
<path d="M71.8664 181.372C72.3219 181.374 72.7675 181.24 73.1468 180.988C73.5262 180.736 73.8222 180.377 73.9974 179.956C74.1727 179.536 74.2192 179.073 74.1312 178.626C74.0431 178.179 73.8244 177.769 73.5028 177.446C73.1812 177.123 72.7712 176.904 72.3246 176.814C71.878 176.725 71.4149 176.77 70.9939 176.944C70.573 177.118 70.2132 177.413 69.96 177.792C69.7068 178.17 69.5717 178.615 69.5717 179.071C69.5717 179.68 69.8132 180.265 70.2434 180.696C70.6735 181.127 71.2572 181.371 71.8664 181.372ZM71.8664 177.445C72.1898 177.444 72.5064 177.539 72.7759 177.718C73.0453 177.896 73.2556 178.151 73.38 178.45C73.5044 178.748 73.5373 179.077 73.4745 179.394C73.4117 179.712 73.2561 180.003 73.0274 180.232C72.7987 180.461 72.5072 180.616 72.1899 180.679C71.8726 180.742 71.5439 180.709 71.2453 180.585C70.9468 180.46 70.6919 180.25 70.513 179.98C70.3342 179.711 70.2394 179.394 70.2407 179.071C70.2407 178.64 70.412 178.226 70.7169 177.921C71.0217 177.617 71.4352 177.445 71.8664 177.445Z" fill="#EBEBEB"/>
<path d="M38.268 188.498H38.937V279.097H38.268V188.498Z" fill="#EBEBEB"/>
<path d="M38.6027 188.832C39.0566 188.832 39.5002 188.698 39.8776 188.445C40.255 188.193 40.5491 187.835 40.7228 187.416C40.8965 186.996 40.9419 186.535 40.8534 186.09C40.7648 185.645 40.5463 185.236 40.2253 184.915C39.9044 184.594 39.4955 184.375 39.0504 184.287C38.6052 184.198 38.1439 184.244 37.7245 184.417C37.3052 184.591 36.9468 184.885 36.6947 185.263C36.4425 185.64 36.308 186.084 36.308 186.537C36.3097 187.145 36.5521 187.728 36.982 188.158C37.412 188.588 37.9946 188.83 38.6027 188.832ZM38.6027 184.912C38.9242 184.912 39.2386 185.007 39.5059 185.186C39.7733 185.364 39.9816 185.618 40.1047 185.915C40.2277 186.212 40.2599 186.539 40.1972 186.855C40.1345 187.17 39.9796 187.46 39.7523 187.687C39.5249 187.914 39.2352 188.069 38.9199 188.132C38.6045 188.195 38.2776 188.162 37.9806 188.039C37.6835 187.916 37.4296 187.708 37.251 187.441C37.0723 187.173 36.977 186.859 36.977 186.537C36.9787 186.107 37.1506 185.694 37.4551 185.39C37.7596 185.085 38.1721 184.913 38.6027 184.912Z" fill="#EBEBEB"/>
<path d="M32.9897 278.602H33.6587V231.255L18.6659 202.969V144.958H17.9968V203.136L32.9897 231.422V278.602Z" fill="#EBEBEB"/>
<path d="M18.3311 145.292C18.7866 145.292 19.2318 145.157 19.6105 144.904C19.9891 144.651 20.284 144.291 20.458 143.87C20.632 143.449 20.6772 142.986 20.5879 142.539C20.4985 142.093 20.2787 141.683 19.9561 141.361C19.6336 141.039 19.2229 140.821 18.776 140.733C18.3291 140.645 17.8662 140.691 17.4458 140.866C17.0253 141.042 16.6664 141.338 16.4143 141.717C16.1622 142.096 16.0284 142.542 16.0297 142.997C16.0315 143.607 16.2747 144.19 16.7061 144.62C17.1375 145.051 17.7219 145.292 18.3311 145.292ZM18.3311 141.365C18.654 141.365 18.9696 141.461 19.2381 141.64C19.5065 141.819 19.7158 142.074 19.8393 142.373C19.9629 142.671 19.9952 142.999 19.9322 143.316C19.8692 143.632 19.7137 143.923 19.4854 144.152C19.2571 144.38 18.9663 144.535 18.6496 144.598C18.3329 144.661 18.0047 144.629 17.7064 144.505C17.4082 144.382 17.1532 144.173 16.9738 143.904C16.7944 143.636 16.6987 143.32 16.6987 142.997C16.6987 142.564 16.8707 142.149 17.1768 141.843C17.483 141.537 17.8982 141.365 18.3311 141.365Z" fill="#EBEBEB"/>
<path d="M27.7441 278.702H28.4131V234.272L28.3729 234.199L10.7308 203.002V169.685H10.0618V203.176L10.1086 203.25L27.7441 234.446V278.702Z" fill="#EBEBEB"/>
<path d="M10.3966 170.019C10.8505 170.019 11.2942 169.885 11.6715 169.632C12.0489 169.38 12.343 169.022 12.5167 168.603C12.6904 168.183 12.7359 167.722 12.6473 167.277C12.5588 166.832 12.3402 166.423 12.0193 166.102C11.6984 165.781 11.2895 165.562 10.8443 165.474C10.3992 165.385 9.9378 165.431 9.51849 165.604C9.09918 165.778 8.74079 166.072 8.48864 166.45C8.23649 166.827 8.1019 167.271 8.1019 167.724C8.10366 168.333 8.346 168.915 8.77597 169.345C9.20593 169.775 9.78858 170.017 10.3966 170.019ZM10.3966 166.099C10.7182 166.099 11.0325 166.194 11.2999 166.373C11.5672 166.551 11.7756 166.805 11.8986 167.102C12.0217 167.399 12.0539 167.726 11.9911 168.042C11.9284 168.357 11.7736 168.647 11.5462 168.874C11.3188 169.101 11.0292 169.256 10.7138 169.319C10.3985 169.382 10.0716 169.349 9.77452 169.226C9.47746 169.103 9.22354 168.895 9.0449 168.628C8.86626 168.36 8.77092 168.046 8.77092 167.724C8.77268 167.294 8.94452 166.881 9.24903 166.577C9.55353 166.272 9.96602 166.1 10.3966 166.099Z" fill="#EBEBEB"/>
<path d="M227.02 279.097H227.689V163.041L205.591 132.888V106.482H204.922V133.109L227.02 163.262V279.097Z" fill="#EBEBEB"/>
<path d="M205.257 106.85C205.712 106.851 206.158 106.717 206.538 106.465C206.917 106.212 207.213 105.853 207.388 105.432C207.563 105.011 207.609 104.548 207.521 104.101C207.432 103.654 207.213 103.243 206.891 102.921C206.568 102.599 206.158 102.379 205.711 102.291C205.264 102.202 204.8 102.248 204.379 102.423C203.959 102.598 203.599 102.894 203.347 103.274C203.095 103.653 202.96 104.099 202.962 104.555C202.964 105.163 203.206 105.746 203.636 106.176C204.066 106.606 204.649 106.848 205.257 106.85ZM205.257 102.923C205.58 102.921 205.896 103.016 206.165 103.194C206.435 103.373 206.645 103.627 206.769 103.926C206.894 104.224 206.927 104.552 206.865 104.869C206.803 105.186 206.648 105.478 206.42 105.707C206.192 105.936 205.901 106.092 205.584 106.155C205.267 106.219 204.939 106.187 204.64 106.064C204.341 105.94 204.086 105.731 203.906 105.463C203.727 105.194 203.631 104.878 203.631 104.555C203.631 104.123 203.802 103.709 204.107 103.403C204.411 103.097 204.825 102.924 205.257 102.923Z" fill="#EBEBEB"/>
<path d="M221.327 279.097H221.996V166.687L221.929 166.594L199.904 136.535V121.977H199.235V136.755L221.327 166.902V279.097Z" fill="#EBEBEB"/>
<path d="M199.57 122.345C200.026 122.346 200.471 122.212 200.851 121.96C201.23 121.707 201.526 121.348 201.701 120.927C201.876 120.506 201.923 120.043 201.834 119.596C201.745 119.149 201.526 118.738 201.204 118.416C200.882 118.094 200.471 117.874 200.024 117.786C199.577 117.697 199.113 117.743 198.693 117.918C198.272 118.093 197.913 118.389 197.66 118.769C197.408 119.148 197.274 119.594 197.275 120.05C197.277 120.658 197.519 121.241 197.949 121.671C198.379 122.1 198.962 122.343 199.57 122.345ZM199.57 118.417C199.893 118.416 200.209 118.511 200.479 118.689C200.748 118.868 200.958 119.122 201.083 119.42C201.207 119.719 201.241 120.047 201.178 120.364C201.116 120.681 200.961 120.973 200.733 121.202C200.505 121.431 200.214 121.587 199.897 121.65C199.581 121.714 199.252 121.682 198.953 121.559C198.655 121.435 198.399 121.226 198.22 120.957C198.04 120.689 197.944 120.373 197.944 120.05C197.942 119.835 197.983 119.622 198.064 119.423C198.145 119.223 198.264 119.042 198.415 118.889C198.566 118.736 198.746 118.615 198.944 118.531C199.142 118.448 199.355 118.405 199.57 118.404V118.417Z" fill="#EBEBEB"/>
<path d="M232.499 99.9656H233.168V279.103H232.499V99.9656Z" fill="#EBEBEB"/>
<path d="M232.834 100.3C233.289 100.3 233.734 100.165 234.112 99.9123C234.491 99.6594 234.786 99.3 234.96 98.8794C235.134 98.4589 235.18 97.9962 235.091 97.5497C235.002 97.1033 234.783 96.6932 234.461 96.3713C234.139 96.0495 233.729 95.8303 233.283 95.7415C232.836 95.6527 232.373 95.6983 231.953 95.8725C231.532 96.0466 231.173 96.3416 230.92 96.7201C230.667 97.0986 230.532 97.5435 230.532 97.9987C230.532 98.6091 230.775 99.1945 231.206 99.6261C231.638 100.058 232.223 100.3 232.834 100.3ZM232.834 96.373C233.157 96.373 233.473 96.4689 233.741 96.6486C234.01 96.8282 234.219 97.0836 234.342 97.3823C234.466 97.6809 234.498 98.0095 234.434 98.3263C234.371 98.6432 234.214 98.934 233.985 99.1621C233.757 99.3901 233.465 99.545 233.148 99.6073C232.831 99.6695 232.502 99.6362 232.204 99.5116C231.906 99.387 231.652 99.1768 231.473 98.9074C231.294 98.6381 231.2 98.3219 231.201 97.9987C231.201 97.7847 231.243 97.5727 231.326 97.375C231.408 97.1773 231.528 96.9978 231.68 96.8468C231.831 96.6957 232.011 96.5761 232.209 96.4948C232.407 96.4135 232.62 96.3721 232.834 96.373Z" fill="#EBEBEB"/>
<path d="M237.778 278.602H238.447V172.394L253.44 144.108V78.5569H252.771V143.941L237.778 172.234V278.602Z" fill="#EBEBEB"/>
<path d="M253.105 78.8914C253.56 78.8888 254.003 78.7516 254.38 78.4971C254.757 78.2426 255.05 77.8822 255.222 77.4615C255.394 77.0407 255.438 76.5784 255.347 76.1328C255.257 75.6873 255.037 75.2785 254.715 74.9579C254.392 74.6374 253.982 74.4196 253.536 74.3318C253.09 74.2441 252.628 74.2905 252.208 74.465C251.788 74.6396 251.43 74.9346 251.177 75.3128C250.925 75.6909 250.79 76.1354 250.79 76.59C250.79 76.8933 250.85 77.1937 250.967 77.4738C251.083 77.7539 251.254 78.0082 251.469 78.2221C251.684 78.436 251.94 78.6052 252.22 78.7201C252.501 78.835 252.802 78.8932 253.105 78.8914ZM253.105 74.9643C253.428 74.9669 253.742 75.065 254.009 75.2463C254.276 75.4276 254.483 75.6839 254.604 75.9827C254.726 76.2816 254.756 76.6098 254.691 76.9257C254.626 77.2417 254.469 77.5313 254.239 77.758C254.01 77.9847 253.718 78.1383 253.401 78.1994C253.085 78.2606 252.757 78.2265 252.459 78.1016C252.162 77.9766 251.908 77.7663 251.73 77.4973C251.552 77.2283 251.458 76.9126 251.459 76.59C251.459 76.3748 251.502 76.1617 251.585 75.9632C251.668 75.7646 251.79 75.5845 251.943 75.4333C252.096 75.282 252.277 75.1627 252.477 75.0822C252.677 75.0017 252.89 74.9616 253.105 74.9643Z" fill="#EBEBEB"/>
<path d="M243.023 278.702H243.692V175.425L261.374 144.155V103.284H260.705V143.974L243.023 175.251V278.702Z" fill="#EBEBEB"/>
<path d="M261.04 103.618C261.495 103.618 261.94 103.483 262.319 103.23C262.698 102.977 262.993 102.617 263.167 102.196C263.341 101.775 263.386 101.312 263.296 100.865C263.207 100.419 262.987 100.009 262.665 99.6871C262.342 99.3655 261.931 99.1468 261.485 99.0588C261.038 98.9707 260.575 99.0173 260.154 99.1925C259.734 99.3677 259.375 99.6637 259.123 100.043C258.871 100.422 258.737 100.868 258.738 101.324C258.74 101.933 258.983 102.516 259.415 102.947C259.846 103.377 260.43 103.618 261.04 103.618ZM261.04 99.6911C261.362 99.6911 261.678 99.7868 261.947 99.9662C262.215 100.146 262.424 100.401 262.548 100.699C262.671 100.997 262.704 101.325 262.641 101.642C262.578 101.959 262.422 102.25 262.194 102.478C261.966 102.706 261.675 102.862 261.358 102.925C261.041 102.988 260.713 102.955 260.415 102.832C260.117 102.708 259.862 102.499 259.682 102.23C259.503 101.962 259.407 101.646 259.407 101.324C259.404 101.107 259.443 100.892 259.524 100.692C259.604 100.491 259.724 100.308 259.876 100.154C260.028 100 260.209 99.8783 260.409 99.7953C260.609 99.7124 260.823 99.6701 261.04 99.671V99.6911Z" fill="#EBEBEB"/>
<g opacity="0.5">
<path d="M234.225 45.2059C237.666 45.2059 241.029 46.2261 243.889 48.1374C246.75 50.0488 248.979 52.7654 250.296 55.9439C251.612 59.1223 251.957 62.6198 251.286 65.9941C250.615 69.3683 248.958 72.4677 246.525 74.9004C244.093 77.3331 240.993 78.9897 237.619 79.6609C234.245 80.3321 230.747 79.9876 227.569 78.6711C224.39 77.3545 221.674 75.125 219.762 72.2645C217.851 69.4039 216.831 66.0409 216.831 62.6005C216.841 57.9904 218.677 53.5722 221.937 50.3124C225.197 47.0525 229.615 45.2165 234.225 45.2059ZM234.225 76.3222C236.937 76.3249 239.589 75.523 241.846 74.018C244.102 72.513 245.861 70.3726 246.9 67.8676C247.94 65.3626 248.213 62.6055 247.685 59.9453C247.157 57.2851 245.852 54.8413 243.934 52.923C242.017 51.0048 239.574 49.6984 236.914 49.1692C234.254 48.6399 231.497 48.9115 228.991 49.9497C226.486 50.9879 224.344 52.746 222.838 55.0015C221.332 57.2569 220.529 59.9085 220.53 62.6206C220.532 66.2528 221.975 69.7358 224.543 72.3048C227.111 74.8738 230.593 76.3187 234.225 76.3222ZM234.225 45.2059C237.666 45.2059 241.029 46.2261 243.889 48.1374C246.75 50.0488 248.979 52.7654 250.296 55.9439C251.612 59.1223 251.957 62.6198 251.286 65.9941C250.615 69.3683 248.958 72.4677 246.525 74.9004C244.093 77.3331 240.993 78.9897 237.619 79.6609C234.245 80.3321 230.747 79.9876 227.569 78.6711C224.39 77.3545 221.674 75.125 219.762 72.2645C217.851 69.4039 216.831 66.0409 216.831 62.6005C216.841 57.9904 218.677 53.5722 221.937 50.3124C225.197 47.0525 229.615 45.2165 234.225 45.2059ZM234.225 76.3222C236.937 76.3249 239.589 75.523 241.846 74.018C244.102 72.513 245.861 70.3726 246.9 67.8676C247.94 65.3626 248.213 62.6055 247.685 59.9453C247.157 57.2851 245.852 54.8413 243.934 52.923C242.017 51.0048 239.574 49.6984 236.914 49.1692C234.254 48.6399 231.497 48.9115 228.991 49.9497C226.486 50.9879 224.344 52.746 222.838 55.0015C221.332 57.2569 220.529 59.9085 220.53 62.6206C220.532 66.2528 221.975 69.7358 224.543 72.3048C227.111 74.8738 230.593 76.3187 234.225 76.3222ZM234.225 33.2705C240.031 33.2679 245.707 34.987 250.535 38.2104C255.363 41.4338 259.127 46.0167 261.351 51.3795C263.574 56.7423 264.157 62.6441 263.027 68.3383C261.896 74.0326 259.101 79.2635 254.997 83.3695C250.893 87.4755 245.663 90.2722 239.97 91.4058C234.276 92.5393 228.374 91.9589 223.01 89.7378C217.646 87.5168 213.062 83.7549 209.836 78.928C206.61 74.1011 204.889 68.4261 204.889 62.6206C204.889 54.8388 207.979 47.3755 213.48 41.8717C218.982 36.3679 226.444 33.2741 234.225 33.2705ZM234.225 81.6945C238 81.6971 241.691 80.5802 244.83 78.4849C247.97 76.3896 250.418 73.4101 251.864 69.9235C253.31 66.4368 253.689 62.5995 252.954 58.8972C252.219 55.1949 250.402 51.7938 247.733 49.1243C245.065 46.4547 241.664 44.6367 237.962 43.9001C234.26 43.1636 230.423 43.5416 226.935 44.9864C223.448 46.4312 220.468 48.8778 218.372 52.0168C216.275 55.1557 215.157 58.846 215.158 62.6206C215.165 67.676 217.176 72.5224 220.75 76.0977C224.324 79.673 229.17 81.6856 234.225 81.6945ZM234.225 45.2059C237.666 45.2059 241.029 46.2261 243.889 48.1374C246.75 50.0488 248.979 52.7654 250.296 55.9439C251.612 59.1223 251.957 62.6198 251.286 65.9941C250.615 69.3683 248.958 72.4677 246.525 74.9004C244.093 77.3331 240.993 78.9897 237.619 79.6609C234.245 80.3321 230.747 79.9876 227.569 78.6711C224.39 77.3545 221.674 75.125 219.762 72.2645C217.851 69.4039 216.831 66.0409 216.831 62.6005C216.841 57.9904 218.677 53.5722 221.937 50.3124C225.197 47.0525 229.615 45.2165 234.225 45.2059ZM234.225 76.3222C236.937 76.3249 239.589 75.523 241.846 74.018C244.102 72.513 245.861 70.3726 246.9 67.8676C247.94 65.3626 248.213 62.6055 247.685 59.9453C247.157 57.2851 245.852 54.8413 243.934 52.923C242.017 51.0048 239.574 49.6984 236.914 49.1692C234.254 48.6399 231.497 48.9115 228.991 49.9497C226.486 50.9879 224.344 52.746 222.838 55.0015C221.332 57.2569 220.529 59.9085 220.53 62.6206C220.532 66.2528 221.975 69.7358 224.543 72.3048C227.111 74.8738 230.593 76.3187 234.225 76.3222Z" fill="#EBEBEB"/>
<path d="M230.786 33.7993H237.51L236.841 27.0957H231.455L230.786 33.7993Z" fill="#EBEBEB"/>
<path d="M245.659 35.9399L251.479 39.2984L254.249 33.1568L249.593 30.4673L245.659 35.9399Z" fill="#EBEBEB"/>
<path d="M257.467 45.2259L260.825 51.0397L266.298 47.1126L263.609 42.4495L257.467 45.2259Z" fill="#EBEBEB"/>
<path d="M263.053 59.1687V65.8924L269.757 65.2234V59.8377L263.053 59.1687Z" fill="#EBEBEB"/>
<path d="M260.913 74.0408L257.554 79.8613L263.696 82.631L266.385 77.9746L260.913 74.0408Z" fill="#EBEBEB"/>
<path d="M251.626 85.8491L245.806 89.2076L249.74 94.6802L254.403 91.9908L251.626 85.8491Z" fill="#EBEBEB"/>
<path d="M237.684 91.4358H230.96L231.629 98.1394H237.015L237.684 91.4358Z" fill="#EBEBEB"/>
<path d="M222.812 89.2948L216.991 85.9363L214.221 92.0779L218.878 94.7674L222.812 89.2948Z" fill="#EBEBEB"/>
<path d="M211.003 80.0087L207.645 74.1882L202.166 78.1221L204.862 82.7852L211.003 80.0087Z" fill="#EBEBEB"/>
<path d="M205.417 66.0595V59.3425L198.713 60.0116V65.3905L205.417 66.0595Z" fill="#EBEBEB"/>
<path d="M207.558 51.1939L210.916 45.3734L204.775 42.5969L202.078 47.26L207.558 51.1939Z" fill="#EBEBEB"/>
<path d="M216.844 39.3856L222.658 36.0271L218.731 30.5544L214.067 33.2439L216.844 39.3856Z" fill="#EBEBEB"/>
<path d="M243.672 65.4172L236.527 72.1877L227.093 69.3912L224.792 59.8242L231.937 53.0403L241.377 55.8368L243.672 65.4172ZM237.356 62.6943C237.372 62.0766 237.204 61.4682 236.874 60.9459C236.544 60.4236 236.066 60.0109 235.502 59.76C234.937 59.5091 234.311 59.4312 233.702 59.5362C233.093 59.6411 232.529 59.9243 232.081 60.3498C231.633 60.7753 231.321 61.3241 231.185 61.9268C231.049 62.5294 231.095 63.1589 231.316 63.7357C231.538 64.3124 231.926 64.8105 232.43 65.167C232.935 65.5234 233.534 65.7223 234.152 65.7384C234.562 65.749 234.97 65.6788 235.354 65.5315C235.737 65.3843 236.087 65.163 236.385 64.8803C236.682 64.5976 236.921 64.2591 237.088 63.884C237.255 63.5089 237.346 63.1046 237.356 62.6943Z" fill="#EBEBEB"/>
</g>
<path d="M22.7536 108.569C26.132 108.653 29.4097 109.736 32.1721 111.683C34.9344 113.63 37.0572 116.352 38.2718 119.506C39.4864 122.659 39.7382 126.102 38.9953 129.399C38.2525 132.696 36.5484 135.698 34.0987 138.026C31.649 140.354 28.5638 141.903 25.2335 142.476C21.9033 143.05 18.4776 142.623 15.39 141.25C12.3024 139.876 9.6917 137.617 7.88825 134.759C6.0848 131.902 5.16966 128.573 5.25864 125.195C5.37779 120.671 7.28697 116.38 10.5671 113.263C13.8472 110.146 18.2301 108.458 22.7536 108.569ZM21.9842 136.735C24.1776 136.793 26.3388 136.199 28.1944 135.028C30.0499 133.857 31.5166 132.162 32.4089 130.157C33.3011 128.153 33.5788 125.929 33.2068 123.766C32.8349 121.604 31.83 119.6 30.3193 118.009C28.8086 116.418 26.8599 115.311 24.7198 114.827C22.5796 114.343 20.3441 114.505 18.296 115.292C16.2479 116.08 14.4792 117.456 13.2136 119.249C11.9481 121.041 11.2425 123.168 11.1862 125.362C11.1479 126.818 11.3969 128.267 11.919 129.627C12.441 130.986 13.2258 132.23 14.2286 133.286C15.2314 134.342 16.4325 135.191 17.7632 135.782C19.094 136.374 20.5283 136.698 21.9842 136.735Z" fill="#EBEBEB"/>
<path d="M19.4552 109.192L26.0183 109.365L25.7775 104.709L19.9369 104.555L19.4552 109.192Z" fill="#EBEBEB"/>
<path d="M31.8922 111.734L36.4081 116.497L39.5325 113.038L35.5116 108.797L31.8922 111.734Z" fill="#EBEBEB"/>
<path d="M38.8903 122.331L38.7163 128.894L43.3727 128.653L43.5266 122.813L38.8903 122.331Z" fill="#EBEBEB"/>
<path d="M36.3479 134.768L31.5845 139.284L35.0433 142.408L39.2849 138.387L36.3479 134.768Z" fill="#EBEBEB"/>
<path d="M25.7576 141.766L19.1877 141.592L19.4286 146.249L25.2692 146.403L25.7576 141.766Z" fill="#EBEBEB"/>
<path d="M13.3135 139.224L8.79756 134.46L5.67321 137.919L9.69405 142.161L13.3135 139.224Z" fill="#EBEBEB"/>
<path d="M6.31555 128.627L6.4895 122.063L1.8331 122.304L1.67922 128.145L6.31555 128.627Z" fill="#EBEBEB"/>
<path d="M8.85789 116.19L13.6213 111.674L10.1625 108.549L5.92087 112.57L8.85789 116.19Z" fill="#EBEBEB"/>
<path d="M193.716 4.00066C197.092 4.08907 200.367 5.17661 203.125 7.12578C205.884 9.07495 208.002 11.7982 209.213 14.9513C210.424 18.1045 210.673 21.5458 209.929 24.8404C209.184 28.1349 207.479 31.1347 205.03 33.4606C202.581 35.7864 199.497 37.3339 196.168 37.9073C192.84 38.4807 189.416 38.0543 186.329 36.682C183.243 35.3097 180.633 33.0532 178.829 30.1977C177.025 27.3421 176.108 24.0158 176.194 20.6393C176.25 18.3958 176.749 16.1854 177.66 14.1346C178.571 12.0838 179.878 10.2327 181.505 8.68737C183.133 7.14202 185.049 5.93265 187.144 5.12846C189.239 4.32427 191.472 3.94103 193.716 4.00066ZM192.973 32.1599C195.167 32.2187 197.329 31.6256 199.185 30.4555C201.041 29.2855 202.509 27.5911 203.402 25.5867C204.296 23.5824 204.574 21.3581 204.203 19.1953C203.832 17.0325 202.828 15.0284 201.317 13.4365C199.807 11.8447 197.858 10.7365 195.718 10.2524C193.578 9.76822 191.342 9.92978 189.293 10.7166C187.245 11.5034 185.476 12.8802 184.21 14.6726C182.944 16.4651 182.238 18.5928 182.182 20.7865C182.104 23.727 183.198 26.578 185.221 28.7131C187.244 30.8482 190.033 32.0927 192.973 32.1733V32.1599Z" fill="#EBEBEB"/>
<path d="M190.418 4.63634L196.988 4.81028L196.747 0.147186L190.906 0L190.418 4.63634Z" fill="#EBEBEB"/>
<path d="M202.855 7.17871L207.377 11.9422L210.502 8.47662L206.481 4.2417L202.855 7.17871Z" fill="#EBEBEB"/>
<path d="M209.853 17.7693L209.685 24.3324L214.342 24.0983L214.496 18.2577L209.853 17.7693Z" fill="#EBEBEB"/>
<path d="M207.311 30.2065L202.547 34.7291L206.013 37.8535L210.248 33.8327L207.311 30.2065Z" fill="#EBEBEB"/>
<path d="M196.72 37.2045L190.157 37.0305L190.397 41.6936L196.238 41.8475L196.72 37.2045Z" fill="#EBEBEB"/>
<path d="M184.283 34.6621L179.76 29.8987L176.636 33.3642L180.657 37.5991L184.283 34.6621Z" fill="#EBEBEB"/>
<path d="M177.285 24.0714L177.458 17.5083L172.802 17.7491L172.648 23.583L177.285 24.0714Z" fill="#EBEBEB"/>
<path d="M179.827 11.6342L184.59 7.11165L181.125 3.9873L176.89 8.00814L179.827 11.6342Z" fill="#EBEBEB"/>
<path d="M271.43 278.769L237.503 278.602L203.577 278.548L135.718 278.435L67.8591 278.542L33.9328 278.602L-3.05176e-05 278.769L33.9328 278.93L67.8591 278.99L135.718 279.104L203.577 278.99L237.503 278.93L271.43 278.769Z" fill="#263238"/>
<path d="M125.81 204.521L126.439 204.28C123.274 195.924 119.748 166.534 136.507 145.781C141.264 139.886 147.586 134.24 153.701 128.787C161.469 121.856 168.801 115.306 173.163 108.308C177.699 101.009 178.85 92.1248 176.16 85.1067C175.269 82.6443 173.807 80.428 171.894 78.6395C169.981 76.851 167.672 75.5411 165.155 74.8171L164.974 75.4862C167.394 76.1811 169.615 77.4396 171.455 79.1583C173.294 80.8771 174.701 83.0073 175.558 85.3743C178.181 92.1984 177.05 100.862 172.621 107.981C168.313 114.898 161.014 121.415 153.28 128.312C147.145 133.792 140.803 139.452 136.012 145.386C119.073 166.34 122.612 196.064 125.81 204.521Z" fill="#263238"/>
<path d="M124.017 197.349H124.686C124.218 184.162 125.455 159.964 138.95 146.108C140.709 144.309 142.723 142.335 144.85 140.248C155.836 129.496 170.869 114.778 173.204 100.595C175.973 83.7887 165.316 77.2122 165.209 77.1787L164.868 77.7541C164.968 77.8143 175.237 84.1834 172.548 100.501C170.246 114.463 155.3 129.095 144.382 139.786C142.248 141.873 140.234 143.847 138.474 145.653C124.8 159.636 123.549 184.035 124.017 197.349Z" fill="#263238"/>
<path d="M205.865 256.558C206.293 255.347 216.436 226.672 216.436 212.576C216.544 204.961 213.687 197.603 208.468 192.057C202.313 185.574 193.18 181.714 181.312 180.57L181.185 181.908C212.629 184.925 215.098 206.147 215.098 212.576C215.098 226.445 204.708 255.815 204.601 256.109L205.865 256.558Z" fill="#263238"/>
<path d="M210.1 258.15C210.314 256.879 215.171 226.913 213.338 212.957C211.204 196.687 201.349 187.842 181.366 184.276L181.131 185.614C200.707 189.086 209.94 197.349 211.987 213.131C213.793 226.893 208.809 257.621 208.755 257.956L210.1 258.15Z" fill="#263238"/>
<path d="M56.887 256.892L58.0712 256.223C57.9709 256.042 48.3302 237.704 51.2204 222.029C52.6588 214.242 59.2487 201.336 87.4146 202.213L87.4614 200.875C58.292 199.938 51.4211 213.586 49.9091 221.788C46.9253 237.945 56.4789 256.109 56.887 256.892Z" fill="#263238"/>
<path d="M53.7157 259.782L55.0537 259.595C55.0136 259.334 51.3607 233.081 54.2576 222.799C57.6027 210.984 67.4307 205.685 87.1736 205.076L87.1267 203.738C66.7014 204.367 56.4855 209.96 52.9664 222.437C49.9825 232.994 53.5618 258.698 53.7157 259.782Z" fill="#263238"/>
<path d="M121.22 67.6853L128.473 51.8762L168.407 68.4948C169.696 69.0098 170.867 69.7812 171.849 70.7622C172.832 71.7433 173.605 72.9136 174.121 74.2022C174.638 75.4907 174.888 76.8708 174.855 78.2588C174.823 79.6467 174.509 81.0136 173.933 82.2767C173.354 83.5393 172.524 84.6709 171.494 85.6027C170.463 86.5346 169.255 87.2471 167.94 87.6971C166.626 88.147 165.234 88.325 163.849 88.2201C162.464 88.1152 161.115 87.7297 159.883 87.087L121.22 67.6853Z" fill="#FFC727"/>
<path d="M67.7119 64.5678L66.6816 57.3222L57.7903 57.2085L55.9237 63.5709L67.7119 64.5678Z" fill="#FFC727"/>
<path d="M74.6428 55.1477L66.6948 57.3354L69.6988 64.3066L92.2783 60.4731L74.6428 55.1477Z" fill="#FFC727"/>
<path d="M57.79 57.2083L54.4182 63.176L46.5504 57.7703L48.6177 54.7129L57.79 57.2083Z" fill="#FFC727"/>
<path d="M66.6815 57.322L69.5449 63.9521L67.6583 64.1795L66.6815 57.322Z" fill="#37474F"/>
<path d="M57.79 57.2085L56.0372 63.1695L54.6657 62.7547L57.79 57.2085Z" fill="#37474F"/>
<path opacity="0.1" d="M70.9765 62.6676C71.2819 62.8232 71.6275 62.882 71.9672 62.8363C72.3068 62.7905 72.6245 62.6423 72.8778 62.4114C73.1311 62.1805 73.308 61.8779 73.385 61.5439C73.4619 61.2099 73.4352 60.8604 73.3084 60.5419C73.1817 60.2235 72.9609 59.9512 72.6754 59.7615C72.39 59.5717 72.0535 59.4734 71.7108 59.4798C71.3682 59.4861 71.0355 59.5968 70.7573 59.7969C70.4791 59.9971 70.2685 60.2774 70.1536 60.6003C70.0134 60.9858 70.0197 61.4094 70.1715 61.7906C70.3232 62.1718 70.6097 62.4839 70.9765 62.6676ZM71.9868 59.9246C72.1997 60.0423 72.3744 60.2187 72.4901 60.4329C72.6058 60.647 72.6575 60.8898 72.6393 61.1325C72.621 61.3752 72.5334 61.6075 72.387 61.8019C72.2406 61.9962 72.0414 62.1445 71.8132 62.229C71.585 62.3135 71.3373 62.3308 71.0996 62.2787C70.8619 62.2266 70.6441 62.1073 70.4721 61.9351C70.3002 61.7629 70.1813 61.5449 70.1296 61.3071C70.0779 61.0693 70.0955 60.8217 70.1804 60.5936C70.2433 60.4215 70.3427 60.2651 70.472 60.1353C70.6012 60.0054 70.7572 59.9052 70.929 59.8416C71.1008 59.778 71.2843 59.7524 71.467 59.7668C71.6496 59.7811 71.827 59.8349 71.9868 59.9246Z" fill="black"/>
<path opacity="0.1" d="M58.3387 63.3234C58.6193 63.5175 58.9524 63.6216 59.2936 63.6217C59.6348 63.6218 59.9679 63.518 60.2486 63.3241C60.5293 63.1301 60.7443 62.8553 60.8649 62.5361C60.9856 62.217 61.0061 61.8687 60.9238 61.5375C60.8416 61.2064 60.6604 60.9082 60.4044 60.6826C60.1485 60.457 59.8299 60.3148 59.491 60.2748C59.1522 60.2348 58.8092 60.2989 58.5077 60.4587C58.2063 60.6185 57.9606 60.8663 57.8035 61.1692C57.6154 61.5319 57.5659 61.9508 57.6644 62.3473C57.763 62.7439 58.0027 63.0909 58.3387 63.3234ZM59.6768 60.7276C59.8739 60.8705 60.0259 61.067 60.1145 61.2938C60.2032 61.5205 60.2249 61.7679 60.177 62.0067C60.1292 62.2454 60.0138 62.4653 59.8445 62.6404C59.6753 62.8154 59.4593 62.9381 59.2224 62.994C58.9854 63.0499 58.7373 63.0365 58.5077 62.9555C58.2781 62.8745 58.0766 62.7292 57.9272 62.537C57.7778 62.3448 57.6866 62.1137 57.6647 61.8712C57.6428 61.6287 57.691 61.3851 57.8035 61.1692C57.888 61.0072 58.0063 60.8653 58.1505 60.7532C58.2947 60.6411 58.4613 60.5614 58.6391 60.5195C58.8168 60.4776 59.0015 60.4745 59.1806 60.5104C59.3597 60.5463 59.5289 60.6204 59.6768 60.7276Z" fill="black"/>
<path d="M73.4519 17.8831L70.0466 24.5399L59.6366 21.643L60.3859 15.207L73.4519 17.8831Z" fill="#FFC727"/>
<path d="M84.7249 37.1243L70.0466 24.5399L75.1044 18.8733L92.6328 30.3537L84.7249 37.1243Z" fill="#FFC727"/>
<path d="M59.6367 21.6431L58.8807 14.9863L47.601 17.7628L48.8052 21.4491L59.6367 21.6431Z" fill="#FFC727"/>
<path d="M70.0468 24.5397L74.7166 19.308L73.1979 18.3713L70.0468 24.5397Z" fill="#37474F"/>
<path d="M59.6364 21.643L60.3389 15.6151L58.9473 15.4612L59.6364 21.643Z" fill="#37474F"/>
<path opacity="0.1" d="M74.6361 23.4025C74.8158 23.6807 75.0759 23.8977 75.3818 24.0247C75.6877 24.1516 76.025 24.1825 76.3489 24.1133C76.6728 24.044 76.968 23.8778 77.1952 23.6368C77.4224 23.3958 77.5709 23.0914 77.6211 22.764C77.6712 22.4366 77.6206 22.1017 77.4759 21.8038C77.3312 21.5058 77.0993 21.259 76.8109 21.0959C76.5226 20.9329 76.1915 20.8615 75.8616 20.8911C75.5318 20.9206 75.2187 21.0499 74.964 21.2616C74.6595 21.5184 74.4585 21.8769 74.3983 22.2705C74.338 22.6642 74.4225 23.0664 74.6361 23.4025ZM74.6361 23.4025C74.5148 23.2043 74.4523 22.9757 74.4561 22.7433C74.4599 22.5109 74.5297 22.2844 74.6574 22.0903C74.7852 21.8961 74.9655 21.7423 75.1774 21.6469C75.3893 21.5514 75.624 21.5183 75.854 21.5512C76.0841 21.5842 76.3 21.682 76.4765 21.8331C76.653 21.9843 76.7829 22.1825 76.8509 22.4048C76.919 22.627 76.9224 22.864 76.8607 23.088C76.799 23.3121 76.6749 23.514 76.5027 23.6701C76.3683 23.7889 76.2097 23.877 76.0379 23.9284C75.866 23.9798 75.6851 23.9932 75.5076 23.9677C75.33 23.9423 75.1602 23.8786 75.0097 23.781C74.8592 23.6834 74.7318 23.5542 74.6361 23.4025Z" fill="black"/>
<path opacity="0.1" d="M61.4965 18.7794C61.6762 19.0577 61.9362 19.2747 62.2421 19.4016C62.5481 19.5286 62.8854 19.5595 63.2093 19.4902C63.5331 19.4209 63.8283 19.2548 64.0555 19.0138C64.2828 18.7728 64.4313 18.4684 64.4814 18.141C64.5316 17.8136 64.4809 17.4787 64.3362 17.1807C64.1915 16.8828 63.9596 16.6359 63.6713 16.4729C63.383 16.3099 63.0519 16.2384 62.722 16.268C62.3921 16.2976 62.079 16.4268 61.8243 16.6386C61.5174 16.8937 61.3146 17.2523 61.2542 17.6468C61.1938 18.0413 61.28 18.4442 61.4965 18.7794ZM61.4965 18.7794C61.3741 18.5813 61.3109 18.3524 61.314 18.1196C61.3172 17.8868 61.3867 17.6597 61.5143 17.465C61.642 17.2703 61.8225 17.116 62.0347 17.0202C62.247 16.9245 62.4821 16.8912 62.7126 16.9244C62.9431 16.9576 63.1593 17.0558 63.3359 17.2075C63.5125 17.3592 63.6423 17.5581 63.7098 17.7809C63.7774 18.0037 63.78 18.2412 63.7174 18.4654C63.6548 18.6897 63.5296 18.8915 63.3564 19.0471C63.2221 19.1646 63.0639 19.2517 62.8928 19.3024C62.7216 19.3531 62.5416 19.3662 62.3649 19.3408C62.1882 19.3154 62.0191 19.2521 61.8692 19.1552C61.7193 19.0583 61.5922 18.9301 61.4965 18.7794Z" fill="black"/>
<path opacity="0.1" d="M48.4238 20.2916L48.7984 21.449L59.6366 21.643L70.0467 24.5399L84.725 37.1242L92.178 30.7618L90.9537 29.8252L76.8439 23.9779L76.4024 23.7906L74.4689 22.9944L72.2411 22.0645L71.4717 21.7434L68.0128 20.3116L59.8173 20.1042H59.4694L48.4238 20.2916Z" fill="black"/>
<path d="M58.8271 30.7217L57.4155 38.0676L45.7009 37.5926L44.6305 31.2034L58.8271 30.7217Z" fill="#FFC727"/>
<path d="M75.0107 46.0624L57.4153 38.0676L60.6935 31.2168L80.7241 37.3651L75.0107 46.0624Z" fill="#FFC727"/>
<path d="M45.7009 37.5927L43.1252 31.4109L32.3004 35.1909L34.4747 38.3955L45.7009 37.5927Z" fill="#FFC727"/>
<path d="M57.4155 38.0676L60.4395 31.7454L58.7201 31.2637L57.4155 38.0676Z" fill="#37474F"/>
<path d="M45.7009 37.5925L44.6974 31.6047L43.3125 31.8456L45.7009 37.5925Z" fill="#37474F"/>
<path opacity="0.1" d="M61.3225 35.2711C61.5029 35.5485 61.7633 35.7645 62.0692 35.8905C62.375 36.0166 62.712 36.0467 63.0354 35.9769C63.3588 35.9071 63.6534 35.7407 63.8801 35.4997C64.1067 35.2587 64.2549 34.9546 64.3048 34.6275C64.3547 34.3005 64.3041 33.966 64.1596 33.6683C64.0151 33.3707 63.7836 33.124 63.4958 32.9609C63.2079 32.7978 62.8773 32.726 62.5478 32.7551C62.2182 32.7841 61.9053 32.9126 61.6504 33.1235C61.3466 33.3823 61.1463 33.7418 61.0861 34.1362C61.0259 34.5306 61.1098 34.9335 61.3225 35.2711ZM61.3225 35.2711C61.1988 35.072 61.1346 34.8418 61.1372 34.6075C61.1399 34.3731 61.2094 34.1444 61.3375 33.9482C61.4657 33.752 61.6472 33.5965 61.8607 33.4999C62.0742 33.4033 62.3109 33.3696 62.5428 33.4029C62.7748 33.4362 62.9925 33.5349 63.1703 33.6876C63.348 33.8403 63.4785 34.0406 63.5464 34.2649C63.6143 34.4892 63.6167 34.7282 63.5534 34.9539C63.4901 35.1795 63.3637 35.3824 63.1891 35.5387C63.0538 35.6553 62.895 35.7416 62.7235 35.7917C62.552 35.8418 62.3718 35.8546 62.195 35.8293C62.0181 35.8039 61.8488 35.741 61.6983 35.6447C61.5478 35.5484 61.4197 35.421 61.3225 35.2711Z" fill="black"/>
<path opacity="0.1" d="M46.3966 34.2407C46.5748 34.5198 46.8336 34.7381 47.1387 34.8667C47.4438 34.9953 47.7808 35.028 48.105 34.9606C48.4291 34.8932 48.7251 34.7288 48.9537 34.4893C49.1823 34.2497 49.3326 33.9463 49.3847 33.6193C49.4368 33.2923 49.3882 32.9573 49.2455 32.6585C49.1027 32.3598 48.8725 32.1115 48.5853 31.9467C48.2982 31.7818 47.9677 31.7082 47.6377 31.7356C47.3078 31.7629 46.9939 31.89 46.7378 32.0999C46.4313 32.3548 46.2277 32.7124 46.1649 33.1062C46.1022 33.4999 46.1845 33.9031 46.3966 34.2407ZM46.3966 34.2407C46.2729 34.0417 46.2087 33.8115 46.2113 33.5771C46.214 33.3428 46.2835 33.1141 46.4116 32.9179C46.5398 32.7217 46.7213 32.5661 46.9348 32.4695C47.1483 32.3729 47.385 32.3393 47.6169 32.3725C47.8489 32.4058 48.0666 32.5046 48.2444 32.6573C48.4221 32.81 48.5526 33.0102 48.6205 33.2345C48.6883 33.4589 48.6908 33.6979 48.6275 33.9235C48.5642 34.1492 48.4378 34.352 48.2632 34.5083C48.1283 34.626 47.9696 34.7132 47.798 34.7639C47.6263 34.8147 47.4457 34.8278 47.2686 34.8024C47.0914 34.777 46.9218 34.7137 46.7713 34.6167C46.6208 34.5198 46.493 34.3916 46.3966 34.2407Z" fill="black"/>
<path opacity="0.1" d="M62.4801 40.3689L75.0109 46.0623L76.7437 43.4263L62.4801 40.3689Z" fill="black"/>
<path d="M55.1007 42.1084L55.2612 49.5814L43.7072 51.5751L41.3188 45.5472L55.1007 42.1084Z" fill="#FFC727"/>
<path d="M72.6289 53.843L55.261 49.5813L57.0273 42.1953L76.3955 44.1422L72.6289 53.843Z" fill="#FFC727"/>
<path d="M43.7073 51.5749L39.8938 46.0688L30.8486 51.5749L32.9025 54.7126L43.7073 51.5749Z" fill="#FFC727"/>
<path d="M55.2611 49.5814L56.8936 42.764L55.1139 42.657L55.2611 49.5814Z" fill="#37474F"/>
<path d="M43.7073 51.5753L41.4727 45.9287L40.1748 46.4572L43.7073 51.5753Z" fill="#37474F"/>
<path opacity="0.1" d="M58.4457 45.7145C58.6254 45.9927 58.8854 46.2098 59.1914 46.3367C59.4973 46.4637 59.8346 46.4945 60.1585 46.4253C60.4824 46.356 60.7775 46.1898 61.0048 45.9488C61.232 45.7078 61.3805 45.4034 61.4307 45.076C61.4808 44.7486 61.4301 44.4137 61.2854 44.1158C61.1407 43.8179 60.9088 43.571 60.6205 43.408C60.3322 43.2449 60.0011 43.1735 59.6712 43.2031C59.3413 43.2327 59.0282 43.3619 58.7735 43.5736C58.4691 43.8304 58.2681 44.1889 58.2078 44.5825C58.1475 44.9762 58.2321 45.3784 58.4457 45.7145ZM58.4457 45.7145C58.322 45.5154 58.2577 45.2852 58.2604 45.0509C58.263 44.8165 58.3325 44.5878 58.4607 44.3916C58.5888 44.1954 58.7703 44.0399 58.9839 43.9433C59.1974 43.8467 59.434 43.813 59.666 43.8463C59.898 43.8796 60.1157 43.9783 60.2934 44.131C60.4712 44.2837 60.6017 44.484 60.6696 44.7083C60.7374 44.9326 60.7399 45.1716 60.6766 45.3973C60.6133 45.6229 60.4869 45.8258 60.3123 45.9821C60.1779 46.1009 60.0192 46.189 59.8474 46.2404C59.6756 46.2918 59.4947 46.3052 59.3171 46.2797C59.1396 46.2543 58.9697 46.1906 58.8192 46.093C58.6688 45.9954 58.5413 45.8662 58.4457 45.7145Z" fill="black"/>
<path opacity="0.1" d="M43.3927 47.715C43.5724 47.9932 43.8325 48.2102 44.1384 48.3372C44.4443 48.4641 44.7816 48.495 45.1055 48.4257C45.4294 48.3565 45.7246 48.1903 45.9518 47.9493C46.179 47.7083 46.3275 47.4039 46.3777 47.0765C46.4278 46.7491 46.3772 46.4142 46.2325 46.1163C46.0878 45.8183 45.8559 45.5715 45.5675 45.4084C45.2792 45.2454 44.9481 45.174 44.6182 45.2036C44.2883 45.2331 43.9752 45.3624 43.7205 45.5741C43.4149 45.8301 43.213 46.1886 43.1526 46.5827C43.0923 46.9768 43.1777 47.3793 43.3927 47.715ZM43.3927 47.715C43.269 47.5159 43.2048 47.2857 43.2074 47.0514C43.2101 46.817 43.2795 46.5883 43.4077 46.3921C43.5359 46.1959 43.7174 46.0404 43.9309 45.9438C44.1444 45.8472 44.3811 45.8135 44.613 45.8468C44.845 45.88 45.0627 45.9788 45.2405 46.1315C45.4182 46.2842 45.5487 46.4845 45.6166 46.7088C45.6844 46.9331 45.6869 47.1721 45.6236 47.3978C45.5603 47.6234 45.4339 47.8263 45.2593 47.9826C45.1249 48.1013 44.9663 48.1895 44.7944 48.2409C44.6226 48.2922 44.4417 48.3057 44.2642 48.2802C44.0866 48.2548 43.9167 48.191 43.7663 48.0934C43.6158 47.9958 43.4883 47.8667 43.3927 47.715Z" fill="black"/>
<path d="M61.7373 21.9908L60.0915 29.2832L49.2734 28.1592L48.4103 21.7366L61.7373 21.9908Z" fill="#FFC727"/>
<path d="M77.4195 37.8467L60.0917 29.2832L63.584 22.5461L83.4072 29.3367L77.4195 37.8467Z" fill="#FFC727"/>
<path d="M49.2734 28.1593L46.8984 21.8972L36.2007 26.092L38.2747 29.3702L49.2734 28.1593Z" fill="#FFC727"/>
<path d="M60.0915 29.2834L63.3162 23.0615L61.6168 22.533L60.0915 29.2834Z" fill="#37474F"/>
<path d="M49.2734 28.1595L48.4639 22.145L47.079 22.339L49.2734 28.1595Z" fill="#37474F"/>
<path opacity="0.1" d="M63.7711 26.3462C63.953 26.6209 64.2142 26.8339 64.5199 26.9568C64.8256 27.0798 65.1615 27.1069 65.483 27.0346C65.8045 26.9624 66.0965 26.7941 66.3202 26.5522C66.5439 26.3102 66.6888 26.006 66.7357 25.6798C66.7825 25.3536 66.7292 25.0209 66.5827 24.7257C66.4362 24.4306 66.2035 24.1869 65.9154 24.027C65.6272 23.8671 65.2973 23.7985 64.9693 23.8304C64.6414 23.8622 64.3308 23.993 64.0788 24.2053C63.7764 24.464 63.5783 24.8239 63.5217 25.2178C63.4651 25.6117 63.5537 26.0128 63.7711 26.3462ZM63.7711 26.3462C63.648 26.1489 63.5837 25.9207 63.5856 25.6881C63.5876 25.4556 63.6557 25.2285 63.782 25.0333C63.9083 24.838 64.0876 24.6828 64.2989 24.5858C64.5102 24.4887 64.7447 24.4538 64.9751 24.4852C65.2055 24.5166 65.4222 24.6129 65.5999 24.763C65.7775 24.913 65.9088 25.1105 65.9783 25.3324C66.0478 25.5543 66.0526 25.7914 65.9923 26.0159C65.932 26.2405 65.809 26.4432 65.6376 26.6004C65.5036 26.7187 65.3457 26.8068 65.1746 26.8586C65.0035 26.9104 64.8233 26.9247 64.6462 26.9006C64.4691 26.8764 64.2992 26.8144 64.1482 26.7188C63.9972 26.6231 63.8686 26.496 63.7711 26.3462Z" fill="black"/>
<path opacity="0.1" d="M49.9159 24.8677C50.0978 25.1442 50.3594 25.3589 50.6661 25.4833C50.9727 25.6077 51.31 25.6359 51.6331 25.5643C51.9562 25.4926 52.2499 25.3244 52.4753 25.0821C52.7006 24.8397 52.8469 24.5345 52.8949 24.207C52.9428 23.8796 52.8901 23.5453 52.7437 23.2485C52.5973 22.9517 52.3642 22.7063 52.0752 22.5451C51.7862 22.3838 51.455 22.3142 51.1255 22.3454C50.796 22.3767 50.4838 22.5074 50.2303 22.7201C49.9275 22.9798 49.7289 23.3403 49.6711 23.735C49.6133 24.1297 49.7002 24.532 49.9159 24.8677ZM49.9159 24.8677C49.8153 24.7327 49.7435 24.5785 49.7049 24.4147C49.6663 24.2508 49.6617 24.0808 49.6914 23.9151C49.721 23.7494 49.7844 23.5916 49.8775 23.4514C49.9706 23.3111 50.0915 23.1915 50.2327 23.0998C50.3738 23.0082 50.5323 22.9464 50.6983 22.9184C50.8643 22.8904 51.0342 22.8967 51.1977 22.937C51.3611 22.9773 51.5145 23.0507 51.6485 23.1526C51.7824 23.2545 51.8941 23.3828 51.9765 23.5296C52.1388 23.7731 52.2091 24.0663 52.1747 24.3569C52.1404 24.6475 52.0037 24.9163 51.7891 25.1152C51.655 25.2339 51.4969 25.3225 51.3256 25.3749C51.1542 25.4272 50.9737 25.4422 50.7961 25.4187C50.6185 25.3952 50.448 25.3339 50.2961 25.2388C50.1443 25.1437 50.0146 25.0172 49.9159 24.8677Z" fill="black"/>
<path opacity="0.1" d="M63.0822 30.7617L77.4194 37.8467L79.2793 35.204L63.0822 30.7617Z" fill="black"/>
<path d="M105.98 37.6394L83.0525 22.5596L68.9027 53.2678L95.4629 60.152L105.98 37.6394Z" fill="#FFC727"/>
<path opacity="0.1" d="M105.98 37.6394L83.0525 22.5596L68.9027 53.2678L95.4629 60.152L105.98 37.6394Z" fill="black"/>
<path d="M107.539 38.1011L89.154 25.1755L74.6429 55.1478L96.4598 61.731L107.539 38.1011Z" fill="#FFC727"/>
<path opacity="0.1" d="M89.1875 31.7184C89.3678 31.9935 89.6274 32.2075 89.9319 32.332C90.2364 32.4565 90.5715 32.4856 90.893 32.4157C91.2144 32.3457 91.5071 32.1798 91.7323 31.94C91.9575 31.7002 92.1046 31.3977 92.1542 31.0725C92.2039 30.7473 92.1537 30.4146 92.0103 30.1186C91.8669 29.8225 91.6371 29.5769 91.3512 29.4142C91.0652 29.2515 90.7367 29.1793 90.4089 29.2073C90.0811 29.2353 89.7695 29.362 89.5153 29.5708C89.2067 29.8262 89.0027 30.1862 88.9423 30.5822C88.8818 30.9782 88.9691 31.3826 89.1875 31.7184ZM89.1875 31.7184C89.0628 31.5194 88.9977 31.289 88.9997 31.0542C89.0018 30.8194 89.0709 30.5901 89.199 30.3933C89.3271 30.1966 89.5088 30.0405 89.7227 29.9436C89.9365 29.8467 90.1736 29.813 90.406 29.8464C90.6384 29.8799 90.8564 29.9791 91.0343 30.1323C91.2121 30.2856 91.3425 30.4865 91.4099 30.7114C91.4773 30.9363 91.479 31.1758 91.4147 31.4017C91.3505 31.6275 91.223 31.8303 91.0474 31.986C90.9126 32.1025 90.7544 32.1887 90.5834 32.2388C90.4124 32.2888 90.2327 32.3016 90.0564 32.2763C89.8801 32.2509 89.7112 32.188 89.5613 32.0917C89.4114 31.9955 89.2839 31.8682 89.1875 31.7184Z" fill="black"/>
<path opacity="0.1" d="M85.4275 39.0576C85.6072 39.3336 85.8665 39.5485 86.171 39.6739C86.4756 39.7993 86.811 39.8293 87.133 39.7598C87.4549 39.6903 87.7482 39.5247 87.9739 39.2849C88.1996 39.045 88.3472 38.7423 88.397 38.4167C88.4469 38.0912 88.3967 37.7581 88.2531 37.4618C88.1094 37.1654 87.8792 36.9196 87.5928 36.7569C87.3064 36.5943 86.9774 36.5225 86.6492 36.551C86.3211 36.5796 86.0094 36.7071 85.7554 36.9167C85.4509 37.1735 85.25 37.5319 85.1897 37.9256C85.1294 38.3193 85.2139 38.7214 85.4275 39.0576ZM85.4275 39.0576C85.3052 38.8594 85.2419 38.6306 85.2451 38.3977C85.2482 38.1649 85.3177 37.9378 85.4454 37.7431C85.573 37.5484 85.7536 37.3941 85.9658 37.2983C86.178 37.2026 86.4132 37.1694 86.6437 37.2025C86.8741 37.2357 87.0903 37.3339 87.267 37.4856C87.4436 37.6373 87.5733 37.8362 87.6409 38.059C87.7085 38.2818 87.7111 38.5193 87.6485 38.7436C87.5859 38.9678 87.4606 39.1696 87.2874 39.3252C87.1531 39.4427 86.995 39.5299 86.8239 39.5806C86.6527 39.6313 86.4726 39.6444 86.296 39.6189C86.1193 39.5935 85.9502 39.5302 85.8003 39.4333C85.6504 39.3364 85.5232 39.2082 85.4275 39.0576Z" fill="black"/>
<path opacity="0.1" d="M81.6608 46.3971C81.8405 46.6754 82.1005 46.8924 82.4065 47.0193C82.7124 47.1463 83.0497 47.1772 83.3736 47.1079C83.6975 47.0386 83.9926 46.8724 84.2198 46.6314C84.4471 46.3905 84.5956 46.0861 84.6457 45.7587C84.6959 45.4313 84.6452 45.0963 84.5005 44.7984C84.3558 44.5005 84.1239 44.2536 83.8356 44.0906C83.5473 43.9276 83.2162 43.8561 82.8863 43.8857C82.5564 43.9153 82.2433 44.0445 81.9886 44.2562C81.6842 44.513 81.4832 44.8715 81.4229 45.2652C81.3626 45.6588 81.4472 46.061 81.6608 46.3971ZM81.6608 46.3971C81.5371 46.1981 81.4728 45.9678 81.4755 45.7335C81.4781 45.4992 81.5476 45.2705 81.6758 45.0743C81.8039 44.8781 81.9855 44.7225 82.199 44.6259C82.4125 44.5293 82.6491 44.4957 82.8811 44.5289C83.1131 44.5622 83.3307 44.661 83.5085 44.8137C83.6863 44.9664 83.8168 45.1666 83.8847 45.3909C83.9525 45.6152 83.9549 45.8543 83.8917 46.0799C83.8284 46.3056 83.702 46.5084 83.5274 46.6647C83.3925 46.7824 83.2338 46.8696 83.0622 46.9203C82.8905 46.9711 82.7099 46.9842 82.5327 46.9588C82.3555 46.9334 82.1859 46.8701 82.0354 46.7731C81.885 46.6762 81.7572 46.5479 81.6608 46.3971Z" fill="black"/>
<path opacity="0.1" d="M77.9009 53.7428C78.0812 54.0201 78.3416 54.2361 78.6475 54.3622C78.9534 54.4882 79.2904 54.5184 79.6138 54.4486C79.9372 54.3788 80.2317 54.2124 80.4584 53.9714C80.6851 53.7304 80.8332 53.4263 80.8832 53.0992C80.9331 52.7722 80.8825 52.4377 80.738 52.14C80.5935 51.8424 80.362 51.5957 80.0742 51.4326C79.7863 51.2695 79.4557 51.1977 79.1261 51.2268C78.7966 51.2558 78.4836 51.3843 78.2287 51.5952C77.9213 51.8515 77.7183 52.2113 77.6579 52.6069C77.5975 53.0025 77.684 53.4065 77.9009 53.7428ZM77.9009 53.7428C77.7772 53.5437 77.7129 53.3135 77.7156 53.0792C77.7182 52.8448 77.7877 52.6161 77.9159 52.4199C78.0441 52.2237 78.2256 52.0682 78.4391 51.9716C78.6526 51.875 78.8892 51.8413 79.1212 51.8746C79.3532 51.9078 79.5709 52.0066 79.7486 52.1593C79.9264 52.312 80.0569 52.5123 80.1248 52.7366C80.1926 52.9609 80.1951 53.1999 80.1318 53.4256C80.0685 53.6512 79.9421 53.8541 79.7675 54.0104C79.6321 54.127 79.4734 54.2133 79.3019 54.2634C79.1304 54.3135 78.9502 54.3263 78.7734 54.301C78.5965 54.2756 78.4271 54.2127 78.2766 54.1164C78.1262 54.0201 77.998 53.8927 77.9009 53.7428Z" fill="black"/>
<path d="M114.396 67.9815L124.245 46.5093L129.772 49.0447L119.923 70.5169L114.396 67.9815Z" fill="#455A64"/>
<path d="M105.489 60.294L112.604 44.7812L122.869 49.4895L115.754 65.0023L105.489 60.294Z" fill="#37474F"/>
<path d="M91.0953 63.0242L105.379 31.8831L116.252 36.8703L101.968 68.0114L91.0953 63.0242Z" fill="#455A64"/>
<path d="M106.83 43.092C106.299 42.8493 105.851 42.4546 105.545 41.9578C105.238 41.461 105.086 40.8844 105.107 40.301C105.129 39.7176 105.322 39.1536 105.664 38.6804C106.006 38.2072 106.481 37.8461 107.028 37.6428C107.575 37.4394 108.171 37.403 108.739 37.5381C109.306 37.6732 109.822 37.9738 110.219 38.4018C110.616 38.8297 110.877 39.3659 110.969 39.9424C111.061 40.5188 110.98 41.1097 110.737 41.6402C110.576 41.9924 110.347 42.3094 110.064 42.573C109.78 42.8367 109.447 43.0418 109.084 43.1766C108.721 43.3115 108.335 43.3734 107.949 43.3589C107.562 43.3444 107.181 43.2537 106.83 43.092Z" fill="#37474F"/>
<path d="M98.0721 62.2059C97.5419 61.9623 97.0959 61.5671 96.7903 61.0701C96.4848 60.5731 96.3335 59.9966 96.3555 59.4136C96.3775 58.8306 96.5718 58.2672 96.9139 57.7946C97.2561 57.3221 97.7307 56.9615 98.2777 56.7586C98.8247 56.5557 99.4195 56.5196 99.9871 56.6547C100.555 56.7898 101.069 57.0902 101.466 57.5178C101.863 57.9454 102.124 58.4811 102.217 59.0571C102.309 59.6332 102.229 60.2237 101.986 60.7541C101.824 61.1065 101.595 61.4237 101.311 61.6874C101.027 61.9511 100.693 62.1562 100.33 62.2911C99.9664 62.4259 99.5799 62.4878 99.1925 62.4732C98.8051 62.4585 98.4244 62.3677 98.0721 62.2059Z" fill="#37474F"/>
<path d="M153.681 73.1378L124.839 143.272C124.234 144.744 123.925 146.32 123.929 147.912C123.933 149.504 124.251 151.079 124.864 152.548C125.478 154.016 126.374 155.35 127.503 156.472C128.632 157.594 129.97 158.483 131.443 159.087C134.411 160.312 137.743 160.309 140.709 159.078C143.674 157.848 146.03 155.49 147.258 152.524L176.1 82.357C176.705 80.885 177.015 79.3081 177.01 77.7166C177.006 76.125 176.688 74.5498 176.075 73.0811C175.462 71.6123 174.565 70.2788 173.437 69.1567C172.308 68.0346 170.969 67.1458 169.497 66.5413C168.025 65.9358 166.449 65.6261 164.857 65.6299C163.266 65.6337 161.691 65.951 160.223 66.5636C158.754 67.1761 157.42 68.072 156.298 69.2C155.176 70.3281 154.286 71.6661 153.681 73.1378Z" fill="#37474F"/>
<path d="M140.481 145.834C140.169 144.997 139.615 144.271 138.891 143.749C138.166 143.226 137.303 142.929 136.41 142.897C135.517 142.864 134.634 143.097 133.874 143.565C133.113 144.034 132.508 144.717 132.135 145.529C131.762 146.341 131.638 147.245 131.778 148.128C131.919 149.01 132.318 149.831 132.924 150.487C133.531 151.143 134.318 151.605 135.187 151.814C136.056 152.023 136.967 151.97 137.805 151.661C138.365 151.456 138.878 151.141 139.315 150.737C139.753 150.332 140.106 149.845 140.355 149.304C140.603 148.762 140.743 148.177 140.764 147.582C140.786 146.986 140.69 146.392 140.481 145.834Z" fill="#263238"/>
<path d="M169.276 75.8005C168.964 74.9612 168.411 74.2333 167.685 73.7086C166.959 73.184 166.095 72.8861 165.2 72.8528C164.305 72.8194 163.42 73.052 162.658 73.5211C161.895 73.9903 161.289 74.675 160.915 75.4887C160.541 76.3024 160.417 77.2085 160.558 78.0927C160.699 78.9769 161.099 79.7995 161.708 80.4564C162.316 81.1134 163.106 81.5753 163.977 81.7837C164.847 81.9922 165.76 81.9379 166.6 81.6277C167.159 81.4213 167.672 81.1068 168.109 80.7021C168.546 80.2974 168.898 79.8104 169.147 79.2692C169.396 78.7279 169.535 78.1429 169.557 77.5477C169.579 76.9525 169.484 76.3587 169.276 75.8005Z" fill="#263238"/>
<path d="M52.3776 258.036H212.187C217.7 258.036 222.169 262.505 222.169 268.018V268.807C222.169 274.32 217.7 278.789 212.187 278.789H52.3776C46.8648 278.789 42.3958 274.32 42.3958 268.807V268.018C42.3958 262.505 46.8648 258.036 52.3776 258.036Z" fill="#455A64"/>
<path d="M172.875 194.974H82.5573C79.6041 194.976 76.7725 196.15 74.6849 198.239C72.5974 200.328 71.4247 203.16 71.4247 206.113V256.337H172.875V194.974Z" fill="#263238"/>
<path d="M55.1206 223.053V258.036H209.444V204.567L196.659 192.351H107.973V210.836H67.9056L55.1206 223.053Z" fill="#455A64"/>
<path d="M55.1206 223.053V258.036H209.444V204.567L204.627 199.965L196.659 192.351H107.98V210.836H67.9056L55.1206 223.053Z" fill="#455A64"/>
<path d="M55.1206 258.036V254.45L209.444 249.974V258.036H55.1206Z" fill="#37474F"/>
<path d="M181.252 241.371H202.687V243.578H181.252V241.371Z" fill="#263238"/>
<path d="M181.252 246.194H202.687V248.402H181.252V246.194Z" fill="#263238"/>
<path d="M181.252 251.025H202.687V253.232H181.252V251.025Z" fill="#263238"/>
<path d="M62.0906 235.897C61.3063 226.148 68.5735 217.609 78.3224 216.824C88.0714 216.04 96.6103 223.307 97.3947 233.056C98.1791 242.805 90.9119 251.344 81.1629 252.128C71.414 252.913 62.875 245.646 62.0906 235.897Z" fill="#263238"/>
<path d="M79.7207 250.403H79.9749C84.2648 250.369 88.3666 248.637 91.3823 245.586C94.3979 242.534 96.0816 238.412 96.0648 234.122C96.048 229.832 94.332 225.724 91.2925 222.696C88.2531 219.669 84.1378 217.969 79.8478 217.969C75.5577 217.969 71.4425 219.669 68.403 222.696C65.3636 225.724 63.6476 229.832 63.6308 234.122C63.614 238.412 65.2977 242.534 68.3133 245.586C71.329 248.637 75.4308 250.369 79.7207 250.403ZM79.9548 249.064H79.7207C75.8965 249.034 72.2405 247.489 69.5528 244.768C66.8651 242.048 65.3648 238.373 65.3803 234.549C65.3958 230.725 66.9258 227.062 69.6354 224.364C72.345 221.665 76.0135 220.15 79.8378 220.15C83.662 220.15 87.3305 221.665 90.0401 224.364C92.7497 227.062 94.2798 230.725 94.2952 234.549C94.3107 238.373 92.8104 242.048 90.1227 244.768C87.4351 247.489 83.779 249.034 79.9548 249.064Z" fill="#455A64"/>
<path d="M75.7668 246.636C75.7559 246.272 75.6462 245.918 75.4493 245.611C75.2525 245.305 74.976 245.058 74.6495 244.896C74.2753 244.716 73.9112 244.515 73.559 244.294C73.2511 244.1 72.8961 243.992 72.5319 243.984C72.1677 243.976 71.8081 244.067 71.4917 244.247L69.3107 245.586L65.0557 238.467L67.2434 237.162C67.5537 236.968 67.8049 236.693 67.97 236.366C68.1351 236.04 68.2077 235.674 68.1801 235.309C68.1801 235.115 68.1801 234.908 68.1801 234.707C68.1801 234.506 68.1801 234.292 68.1801 234.092C68.1942 233.727 68.1089 233.366 67.9333 233.047C67.7577 232.727 67.4984 232.462 67.1832 232.279L64.9621 231.041L68.9762 223.795L71.2041 225.033C71.5264 225.204 71.8893 225.283 72.2535 225.263C72.6177 225.243 72.9696 225.124 73.2713 224.919C73.6117 224.69 73.9646 224.48 74.3284 224.29C74.6499 224.119 74.9187 223.864 75.1061 223.552C75.2935 223.239 75.3924 222.882 75.3921 222.518L75.352 219.982L83.6412 219.848L83.6814 222.384C83.6953 222.746 83.8071 223.098 84.005 223.402C84.2029 223.706 84.4795 223.951 84.8053 224.11C85.1733 224.29 85.5346 224.491 85.8824 224.705C86.1903 224.9 86.5454 225.007 86.9096 225.015C87.2738 225.024 87.6333 224.933 87.9497 224.752L90.1374 223.441L94.3924 230.553L92.198 231.891C91.8909 232.083 91.6417 232.355 91.4768 232.678C91.3119 233.001 91.2374 233.362 91.2614 233.724C91.2747 233.929 91.2747 234.134 91.2614 234.339C91.2714 234.54 91.2714 234.741 91.2614 234.941C91.2454 235.308 91.3306 235.673 91.5075 235.995C91.6845 236.317 91.9465 236.584 92.2649 236.768L94.4861 238.005L90.4719 245.251L88.2508 244.013C87.9303 243.837 87.5671 243.754 87.2019 243.773C86.8367 243.792 86.4841 243.912 86.1835 244.12C85.8356 244.348 85.481 244.555 85.1197 244.749C84.796 244.92 84.5251 245.176 84.3365 245.49C84.1478 245.803 84.0485 246.163 84.0493 246.529L84.0894 249.064L75.8002 249.192L75.7668 246.636ZM85.0595 234.413C85.0461 233.353 84.7181 232.32 84.1171 231.447C83.5162 230.574 82.6693 229.898 81.684 229.507C80.6988 229.115 79.6194 229.025 78.5829 229.248C77.5463 229.471 76.5993 229.997 75.862 230.758C75.1246 231.52 74.6301 232.484 74.4412 233.527C74.2523 234.57 74.3775 235.646 74.8009 236.618C75.2243 237.59 75.9268 238.415 76.8194 238.987C77.712 239.559 78.7544 239.853 79.8144 239.832C81.2269 239.804 82.571 239.218 83.5536 238.203C84.5361 237.188 85.0775 235.825 85.0595 234.413Z" fill="#455A64"/>
<path d="M79.7208 244.528H79.8814C82.5838 244.507 85.1677 243.416 87.0673 241.494C88.967 239.572 90.0276 236.975 90.017 234.273C90.0064 231.57 88.9254 228.982 87.0107 227.075C85.096 225.168 82.5036 224.097 79.8011 224.097C77.0986 224.097 74.5062 225.168 72.5915 227.075C70.6768 228.982 69.5958 231.57 69.5852 234.273C69.5746 236.975 70.6352 239.572 72.5348 241.494C74.4345 243.416 77.0184 244.507 79.7208 244.528ZM79.8479 242.521C78.2601 242.546 76.7005 242.1 75.3664 241.238C74.0324 240.377 72.9838 239.139 72.3533 237.681C71.7228 236.224 71.5387 234.612 71.8244 233.05C72.11 231.488 72.8525 230.045 73.958 228.905C75.0635 227.765 76.4822 226.979 78.0348 226.645C79.5874 226.311 81.2041 226.446 82.6804 227.031C84.1567 227.616 85.4262 228.626 86.3285 229.933C87.2307 231.24 87.7251 232.785 87.7491 234.373C87.7813 236.501 86.9671 238.555 85.4855 240.083C84.0038 241.611 81.9761 242.488 79.8479 242.521Z" fill="#263238"/>
<path d="M152.444 226.659C156.459 232.679 162.547 237.013 169.55 238.837C176.553 240.661 183.982 239.848 190.424 236.553C196.867 233.257 201.873 227.709 204.492 220.963C207.111 214.217 207.159 206.744 204.627 199.965L196.659 192.351H153.588C149.841 197.235 147.716 203.169 147.511 209.321C147.306 215.473 149.031 221.536 152.444 226.659Z" fill="#263238"/>
<path d="M110.87 208.488H113.212V210.83H110.87V208.488Z" fill="#263238"/>
<path d="M110.87 203.986H113.212V206.327H110.87V203.986Z" fill="#263238"/>
<path d="M110.87 199.483H113.212V201.825H110.87V199.483Z" fill="#FFC727"/>
<path d="M110.87 194.974H113.212V197.315H110.87V194.974Z" fill="#263238"/>
<path d="M126.318 134.159C129.84 131.82 134.117 130.901 138.289 131.587C142.46 132.274 146.218 134.514 148.804 137.859L195.562 195.81C197.54 198.368 198.969 201.307 199.762 204.442C200.554 207.578 200.692 210.843 200.168 214.034C199.643 217.225 198.467 220.273 196.712 222.99C194.957 225.707 192.662 228.033 189.969 229.823C187.278 231.611 184.248 232.826 181.067 233.393C177.887 233.96 174.623 233.866 171.48 233.119C168.337 232.371 165.382 230.984 162.797 229.045C160.213 227.106 158.055 224.657 156.458 221.848L121.066 156.331C118.978 152.655 118.359 148.326 119.333 144.212C120.307 140.099 122.803 136.507 126.318 134.159Z" fill="#FFC727"/>
<path d="M203.483 214.576C202.583 220.071 200.001 225.152 196.092 229.118C192.183 233.084 187.14 235.74 181.658 236.719C176.177 237.699 170.526 236.955 165.486 234.588C160.445 232.222 156.262 228.351 153.514 223.508L152.845 222.223L127.335 174.983L118.116 157.93C115.646 153.514 114.935 148.328 116.125 143.411C117.316 138.493 120.319 134.206 124.535 131.409C128.751 128.611 133.868 127.509 138.862 128.323C143.856 129.137 148.358 131.807 151.467 135.799L197.268 192.619L198.151 193.703C200.424 196.63 202.07 199.994 202.987 203.585C203.904 207.176 204.073 210.917 203.483 214.576ZM138.106 135.022C137.695 134.913 137.274 134.851 136.849 134.835C136.468 134.781 136.083 134.756 135.698 134.762C134.775 134.739 133.853 134.819 132.948 135.002C132.564 135.072 132.184 135.163 131.811 135.277C131.394 135.394 130.983 135.532 130.58 135.692C130.513 135.692 130.439 135.758 130.352 135.792C130.018 135.932 129.683 136.093 129.369 136.253C128.972 136.456 128.585 136.679 128.212 136.923C127.88 137.139 127.563 137.376 127.262 137.632C127.098 137.741 126.947 137.869 126.813 138.013C126.591 138.183 126.385 138.374 126.198 138.582C126.094 138.674 125.997 138.774 125.91 138.883C125.681 139.104 125.471 139.343 125.281 139.599C125.057 139.853 124.851 140.124 124.666 140.408C124.654 140.414 124.643 140.422 124.635 140.433C124.627 140.443 124.622 140.455 124.619 140.468C124.527 140.59 124.442 140.718 124.365 140.85C124.236 141.045 124.12 141.249 124.017 141.458C123.898 141.647 123.793 141.844 123.702 142.047C123.559 142.32 123.434 142.601 123.328 142.89C123.154 143.275 123.013 143.673 122.906 144.081C122.758 144.479 122.655 144.892 122.598 145.312C122.504 145.726 122.439 146.147 122.404 146.57C122.079 149.348 122.641 152.158 124.01 154.598L131.617 168.648L158.465 218.483L159.421 220.243L159.595 220.504C159.783 220.831 159.977 221.173 160.204 221.501C160.709 222.261 161.264 222.987 161.863 223.675L162.412 224.257C162.76 224.625 163.128 224.966 163.496 225.301L163.596 225.381C167.218 228.581 171.868 230.376 176.7 230.44C181.533 230.503 186.228 228.831 189.933 225.727C193.637 222.623 196.106 218.294 196.89 213.525C197.673 208.755 196.721 203.863 194.204 199.737C194.182 199.682 194.153 199.631 194.117 199.583L194.077 199.51C193.729 198.948 193.341 198.412 192.926 197.864C192.726 197.596 192.532 197.349 192.317 197.115L191.709 196.359L146.215 139.96C144.488 137.722 142.085 136.101 139.364 135.337C138.954 135.198 138.534 135.093 138.106 135.022Z" fill="#FFC727"/>
<path opacity="0.1" d="M203.483 214.576C202.583 220.071 200.001 225.152 196.092 229.118C192.183 233.084 187.14 235.74 181.658 236.719C176.177 237.699 170.526 236.955 165.486 234.588C160.445 232.222 156.262 228.351 153.514 223.508L152.845 222.223L127.335 174.983L118.116 157.93C115.646 153.514 114.935 148.328 116.125 143.411C117.316 138.493 120.319 134.206 124.535 131.409C128.751 128.611 133.868 127.509 138.862 128.323C143.856 129.137 148.358 131.807 151.467 135.799L197.268 192.619L198.151 193.703C200.424 196.63 202.07 199.994 202.987 203.585C203.904 207.176 204.073 210.917 203.483 214.576ZM138.106 135.022C137.695 134.913 137.274 134.851 136.849 134.835C136.468 134.781 136.083 134.756 135.698 134.762C134.775 134.739 133.853 134.819 132.948 135.002C132.564 135.072 132.184 135.163 131.811 135.277C131.394 135.394 130.983 135.532 130.58 135.692C130.513 135.692 130.439 135.758 130.352 135.792C130.018 135.932 129.683 136.093 129.369 136.253C128.972 136.456 128.585 136.679 128.212 136.923C127.88 137.139 127.563 137.376 127.262 137.632C127.098 137.741 126.947 137.869 126.813 138.013C126.591 138.183 126.385 138.374 126.198 138.582C126.094 138.674 125.997 138.774 125.91 138.883C125.681 139.104 125.471 139.343 125.281 139.599C125.057 139.853 124.851 140.124 124.666 140.408C124.654 140.414 124.643 140.422 124.635 140.433C124.627 140.443 124.622 140.455 124.619 140.468C124.527 140.59 124.442 140.718 124.365 140.85C124.236 141.045 124.12 141.249 124.017 141.458C123.898 141.647 123.793 141.844 123.702 142.047C123.559 142.32 123.434 142.601 123.328 142.89C123.154 143.275 123.013 143.673 122.906 144.081C122.758 144.479 122.655 144.892 122.598 145.312C122.504 145.726 122.439 146.147 122.404 146.57C122.079 149.348 122.641 152.158 124.01 154.598L131.617 168.648L158.465 218.483L159.421 220.243L159.595 220.504C159.783 220.831 159.977 221.173 160.204 221.501C160.709 222.261 161.264 222.987 161.863 223.675L162.412 224.257C162.76 224.625 163.128 224.966 163.496 225.301L163.596 225.381C167.218 228.581 171.868 230.376 176.7 230.44C181.533 230.503 186.228 228.831 189.933 225.727C193.637 222.623 196.106 218.294 196.89 213.525C197.673 208.755 196.721 203.863 194.204 199.737C194.182 199.682 194.153 199.631 194.117 199.583L194.077 199.51C193.729 198.948 193.341 198.412 192.926 197.864C192.726 197.596 192.532 197.349 192.317 197.115L191.709 196.359L146.215 139.96C144.488 137.722 142.085 136.101 139.364 135.337C138.954 135.198 138.534 135.093 138.106 135.022Z" fill="black"/>
<path d="M160.178 221.507C157.966 218.181 156.79 214.273 156.799 210.279C156.808 206.284 158.001 202.382 160.227 199.065C162.454 195.749 165.614 193.167 169.308 191.646C173.001 190.126 177.063 189.734 180.979 190.522C184.896 191.31 188.49 193.241 191.309 196.072C194.127 198.902 196.043 202.505 196.814 206.425C197.586 210.344 197.177 214.404 195.641 218.092C194.104 221.779 191.509 224.928 188.183 227.14C185.974 228.61 183.498 229.629 180.895 230.141C178.292 230.653 175.614 230.648 173.014 230.125C170.413 229.601 167.941 228.571 165.738 227.093C163.536 225.614 161.647 223.716 160.178 221.507Z" fill="#263238"/>
<path d="M177.03 229.167C181.229 229.16 185.305 227.75 188.611 225.163C191.918 222.575 194.266 218.957 195.282 214.884C196.299 210.81 195.926 206.513 194.222 202.676C192.519 198.838 189.583 195.679 185.88 193.7C182.177 191.721 177.919 191.035 173.782 191.751C169.645 192.467 165.865 194.544 163.043 197.653C160.22 200.761 158.517 204.724 158.203 208.91C157.889 213.097 158.981 217.269 161.308 220.764C162.675 222.827 164.437 224.599 166.493 225.977C168.548 227.355 170.856 228.312 173.284 228.793C174.517 229.04 175.772 229.165 177.03 229.167ZM176.963 192.157C180.106 192.151 183.197 192.96 185.933 194.505C188.67 196.051 190.959 198.279 192.576 200.974C194.194 203.668 195.085 206.736 195.163 209.878C195.241 213.02 194.503 216.128 193.02 218.899C191.538 221.67 189.362 224.009 186.705 225.688C184.049 227.367 181.002 228.328 177.863 228.478C174.724 228.627 171.599 227.96 168.795 226.541C165.991 225.123 163.603 223.001 161.863 220.383C160.042 217.649 158.996 214.472 158.837 211.191C158.678 207.909 159.413 204.646 160.963 201.749C162.513 198.853 164.819 196.43 167.637 194.741C170.455 193.052 173.678 192.159 176.963 192.157Z" fill="#455A64"/>
<path d="M163.289 213.914C163.626 213.688 163.895 213.372 164.064 213.002C164.233 212.633 164.295 212.223 164.245 211.82C164.184 211.365 164.153 210.907 164.152 210.448C164.151 210.043 164.038 209.646 163.825 209.302C163.613 208.957 163.309 208.678 162.947 208.495L160.418 207.237L164.486 199.001L167.022 200.253C167.388 200.427 167.796 200.497 168.2 200.455C168.604 200.412 168.988 200.259 169.31 200.012L169.858 199.624L170.434 199.262C170.784 199.062 171.072 198.768 171.266 198.414C171.459 198.059 171.551 197.658 171.531 197.255L171.35 194.439L180.543 193.843L180.723 196.667C180.755 197.07 180.897 197.457 181.132 197.786C181.368 198.115 181.689 198.373 182.061 198.533C182.48 198.712 182.888 198.913 183.286 199.135C183.637 199.337 184.037 199.438 184.443 199.426C184.848 199.414 185.241 199.29 185.58 199.068L187.929 197.51L193.02 205.17L190.678 206.729C190.343 206.957 190.077 207.273 189.909 207.642C189.742 208.012 189.679 208.42 189.728 208.823C189.775 209.278 189.809 209.733 189.815 210.161C189.817 210.566 189.929 210.963 190.14 211.308C190.351 211.654 190.653 211.935 191.013 212.121L193.569 213.406L189.481 221.648L186.939 220.397C186.575 220.221 186.171 220.15 185.769 220.19C185.368 220.23 184.985 220.38 184.664 220.624C184.484 220.763 184.296 220.893 184.102 221.012C183.915 221.139 183.727 221.267 183.533 221.374C183.184 221.575 182.897 221.869 182.703 222.223C182.51 222.577 182.417 222.978 182.436 223.381L182.617 226.197L173.431 226.786L173.257 223.969C173.227 223.565 173.086 223.178 172.85 222.848C172.614 222.519 172.292 222.261 171.919 222.103C171.498 221.921 171.087 221.715 170.688 221.487C170.336 221.286 169.935 221.187 169.53 221.2C169.125 221.213 168.732 221.338 168.393 221.561L166.052 223.12L160.954 215.459L163.289 213.914ZM180.275 215.252C181.25 214.602 182.009 213.678 182.459 212.597C182.908 211.515 183.026 210.325 182.799 209.176C182.571 208.027 182.008 206.971 181.181 206.142C180.353 205.314 179.299 204.749 178.15 204.519C177.002 204.29 175.811 204.407 174.728 204.854C173.646 205.301 172.721 206.06 172.07 207.033C171.418 208.007 171.07 209.151 171.07 210.323C171.069 211.494 171.416 212.639 172.066 213.613C172.497 214.26 173.051 214.816 173.698 215.249C174.344 215.681 175.069 215.982 175.832 216.134C176.594 216.285 177.379 216.285 178.142 216.132C178.904 215.98 179.629 215.679 180.275 215.245V215.252Z" fill="#455A64"/>
<path d="M124.499 155.287C123.05 153.111 122.279 150.553 122.284 147.939C122.289 145.324 123.068 142.77 124.525 140.598C125.981 138.427 128.049 136.736 130.466 135.74C132.884 134.744 135.542 134.487 138.105 135.001C140.669 135.516 143.022 136.779 144.868 138.631C146.713 140.483 147.968 142.841 148.474 145.406C148.98 147.971 148.713 150.629 147.709 153.042C146.704 155.456 145.006 157.518 142.83 158.967C141.385 159.929 139.764 160.597 138.061 160.933C136.357 161.269 134.604 161.266 132.902 160.924C131.2 160.582 129.581 159.909 128.14 158.941C126.698 157.974 125.46 156.733 124.499 155.287Z" fill="#263238"/>
<path d="M135.524 160.419C138.298 160.413 140.99 159.482 143.174 157.772C145.358 156.062 146.909 153.672 147.58 150.981C148.251 148.29 148.004 145.452 146.879 142.917C145.754 140.382 143.814 138.295 141.368 136.987C138.922 135.68 136.109 135.227 133.376 135.7C130.643 136.173 128.146 137.545 126.282 139.598C124.417 141.652 123.292 144.269 123.084 147.035C122.876 149.801 123.598 152.557 125.134 154.866C126.273 156.577 127.818 157.979 129.631 158.948C131.444 159.917 133.469 160.422 135.524 160.419ZM135.484 136.173C136.27 136.175 137.054 136.253 137.826 136.407C140.772 137.005 143.376 138.713 145.1 141.177C146.823 143.641 147.533 146.673 147.084 149.645C146.635 152.618 145.06 155.305 142.686 157.15C140.312 158.995 137.32 159.857 134.328 159.558C131.336 159.258 128.574 157.821 126.612 155.543C124.65 153.264 123.639 150.319 123.787 147.316C123.936 144.313 125.233 141.482 127.41 139.408C129.587 137.334 132.477 136.176 135.484 136.173Z" fill="#455A64"/>
<path d="M126.593 150.303C126.808 150.158 126.981 149.957 127.09 149.721C127.2 149.485 127.243 149.224 127.215 148.965C127.181 148.664 127.161 148.37 127.155 148.075C127.155 147.813 127.083 147.555 126.946 147.33C126.809 147.106 126.612 146.924 126.378 146.804L124.733 145.988L127.409 140.636L129.028 141.419C129.265 141.533 129.53 141.579 129.792 141.552C130.054 141.525 130.304 141.425 130.513 141.265L130.874 141.011L131.249 140.776C131.481 140.643 131.671 140.446 131.796 140.209C131.921 139.973 131.978 139.705 131.958 139.438L131.844 137.612L137.812 137.224L137.933 139.064C137.952 139.326 138.044 139.578 138.197 139.791C138.351 140.005 138.56 140.172 138.802 140.275C139.076 140.389 139.342 140.52 139.598 140.669C139.829 140.799 140.09 140.863 140.354 140.854C140.618 140.846 140.875 140.766 141.097 140.623L142.616 139.612L145.961 144.59L144.435 145.6C144.221 145.747 144.05 145.948 143.941 146.184C143.831 146.419 143.787 146.68 143.813 146.938C143.849 147.232 143.869 147.527 143.873 147.821C143.871 148.084 143.943 148.343 144.08 148.567C144.217 148.792 144.415 148.974 144.65 149.092L146.302 149.915L143.626 155.267L141.973 154.451C141.738 154.336 141.474 154.289 141.213 154.315C140.952 154.341 140.703 154.439 140.495 154.598C140.38 154.691 140.259 154.776 140.134 154.853C140.013 154.933 139.886 155.02 139.766 155.087C139.533 155.22 139.342 155.417 139.216 155.653C139.089 155.89 139.032 156.157 139.05 156.425L139.164 158.258L133.196 158.639L133.082 156.806C133.062 156.544 132.971 156.292 132.817 156.079C132.664 155.865 132.455 155.698 132.212 155.595C131.936 155.475 131.668 155.341 131.41 155.194C131.181 155.063 130.92 154.998 130.657 155.006C130.394 155.015 130.138 155.096 129.918 155.241L128.392 156.258L125.047 151.273L126.593 150.303ZM137.638 151.186C138.269 150.762 138.759 150.161 139.048 149.458C139.337 148.755 139.412 147.983 139.262 147.238C139.113 146.493 138.746 145.809 138.208 145.272C137.671 144.735 136.986 144.37 136.241 144.222C135.495 144.073 134.723 144.149 134.021 144.44C133.319 144.73 132.718 145.222 132.295 145.853C131.872 146.484 131.645 147.227 131.644 147.987C131.642 148.746 131.866 149.49 132.286 150.123C132.566 150.545 132.928 150.908 133.349 151.19C133.77 151.473 134.243 151.669 134.741 151.768C135.238 151.867 135.75 151.866 136.248 151.766C136.745 151.667 137.217 151.47 137.638 151.186Z" fill="#455A64"/>
<path d="M135.464 146.704L135.691 146.456L135.196 146.001L134.969 146.249L135.464 146.704Z" fill="#FFC727"/>
<path d="M133.985 145.339L134.206 145.098L133.216 144.188L132.995 144.436L133.985 145.339ZM131.978 143.526L132.206 143.278L131.216 142.368L130.988 142.616L131.978 143.526ZM129.971 141.706L130.199 141.459L129.208 140.549L128.981 140.796L129.971 141.706ZM127.964 139.886L128.192 139.639L127.201 138.736L126.974 138.976L127.964 139.886ZM125.957 138.073L126.184 137.826L125.194 136.916L124.967 137.163L125.957 138.073ZM123.95 136.254L124.177 136.006L123.187 135.096L122.96 135.344L123.95 136.254ZM96.2055 135.384H97.5435V135.049H96.2055V135.384ZM98.8816 135.384H100.22V135.049H98.8816V135.384ZM101.558 135.384H102.896V135.049H101.558V135.384ZM104.234 135.384H105.572V135.049H104.234V135.384ZM106.91 135.384H108.248V135.049H106.91V135.384ZM109.586 135.384H110.924V135.049H109.586V135.384ZM112.262 135.384H113.6V135.049H112.262V135.384ZM114.938 135.384H116.276V135.049H114.938V135.384ZM117.614 135.384H118.952V135.049H117.614V135.384ZM120.29 135.384H121.628V135.049H120.29V135.384Z" fill="#FFC727"/>
<path d="M94.3258 135.049H94.9949V135.384H94.3258V135.049Z" fill="#FFC727"/>
<path d="M94.3793 136.22C93.825 136.22 93.3757 135.771 93.3757 135.216C93.3757 134.662 93.825 134.213 94.3793 134.213C94.9335 134.213 95.3828 134.662 95.3828 135.216C95.3828 135.771 94.9335 136.22 94.3793 136.22Z" fill="#FFC727"/>
<path d="M84.0697 133.925H89.1074V136.173H84.0697V133.925Z" fill="#FFC727"/>
<path d="M78.8177 141.077H83.8555V143.325H78.8177V141.077Z" fill="#FFC727"/>
<path d="M72.6962 133.925H82.2432V136.173H72.6962V133.925Z" fill="#FFC727"/>
<path d="M69.3245 133.925H70.9302V136.173H69.3245V133.925Z" fill="#FFC727"/>
<path d="M66.7618 133.925H68.3674V136.173H66.7618V133.925Z" fill="#FFC727"/>
<path d="M64.1995 133.925H65.8052V136.173H64.1995V133.925Z" fill="#FFC727"/>
<path d="M79.5605 137.471H89.1074V139.719H79.5605V137.471Z" fill="#FFC727"/>
<path d="M76.1954 137.471H77.801V139.719H76.1954V137.471Z" fill="#FFC727"/>
<path d="M73.626 137.471H75.2317V139.719H73.626V137.471Z" fill="#FFC727"/>
<path d="M71.064 137.471H72.6697V139.719H71.064V137.471Z" fill="#FFC727"/>
<path d="M87.5018 141.077H89.1074V143.325H87.5018V141.077Z" fill="#FFC727"/>
<path d="M84.9393 141.077H86.5449V143.325H84.9393V141.077Z" fill="#FFC727"/>
<path d="M83.5485 232.779L84.0408 233.232L83.8143 233.479L83.322 233.026L83.5485 232.779Z" fill="#FFC727"/>
<path d="M82.3299 232.138L82.5574 231.891L81.5672 230.981L81.3397 231.228L82.3299 232.138ZM80.3228 230.318L80.5503 230.071L79.5601 229.161L79.3327 229.408L80.3228 230.318ZM78.3492 228.499L78.57 228.251L77.5798 227.341L77.359 227.589L78.3492 228.499ZM76.3421 226.679L76.5696 226.431L75.5794 225.528L75.352 225.776L76.3421 226.679ZM74.3351 224.866L74.5625 224.618L73.5724 223.708L73.3449 223.956L74.3351 224.866ZM72.328 223.046L72.5555 222.799L71.5653 221.889L71.3378 222.136L72.328 223.046ZM44.5836 222.176H45.9216V221.842H44.5836V222.176ZM47.2597 222.176H48.5977V221.842H47.2597V222.176ZM49.9358 222.176H51.2738V221.842H49.9358V222.176ZM52.6119 222.176H53.9499V221.842H52.6119V222.176ZM55.2879 222.176H56.626V221.842H55.2879V222.176ZM57.964 222.176H59.3021V221.842H57.964V222.176ZM60.6401 222.176H61.9782V221.842H60.6401V222.176ZM63.3162 222.176H64.6543V221.842H63.3162V222.176ZM65.9923 222.176H67.3304V221.842H65.9923V222.176ZM68.6684 222.176H70.0065V221.842H68.6684V222.176Z" fill="#FFC727"/>
<path d="M42.6769 221.815H43.3459V222.149H42.6769V221.815Z" fill="#FFC727"/>
<path d="M42.724 222.986C42.1698 222.986 41.7205 222.537 41.7205 221.982C41.7205 221.428 42.1698 220.979 42.724 220.979C43.2782 220.979 43.7275 221.428 43.7275 221.982C43.7275 222.537 43.2782 222.986 42.724 222.986Z" fill="#FFC727"/>
<path d="M32.421 220.691H37.4587V222.939H32.421V220.691Z" fill="#FFC727"/>
<path d="M27.1693 227.843H32.207V230.091H27.1693V227.843Z" fill="#FFC727"/>
<path d="M21.0409 220.691H30.5879V222.939H21.0409V220.691Z" fill="#FFC727"/>
<path d="M17.6758 220.691H19.2815V222.939H17.6758V220.691Z" fill="#FFC727"/>
<path d="M15.1067 220.691H16.7124V222.939H15.1067V220.691Z" fill="#FFC727"/>
<path d="M12.5442 220.691H14.1499V222.939H12.5442V220.691Z" fill="#FFC727"/>
<path d="M27.9118 224.237H37.4587V226.485H27.9118V224.237Z" fill="#FFC727"/>
<path d="M24.5399 224.237H26.1455V226.485H24.5399V224.237Z" fill="#FFC727"/>
<path d="M21.9773 224.237H23.583V226.485H21.9773V224.237Z" fill="#FFC727"/>
<path d="M19.4149 224.237H21.0205V226.485H19.4149V224.237Z" fill="#FFC727"/>
<path d="M35.8531 227.843H37.4587V230.091H35.8531V227.843Z" fill="#FFC727"/>
<path d="M33.2908 227.843H34.8965V230.091H33.2908V227.843Z" fill="#FFC727"/>
<path d="M179.624 210.134L180.17 210.521L179.977 210.794L179.431 210.407L179.624 210.134Z" fill="#FFC727"/>
<path d="M199.516 224.612H199.724V224.277H199.623L198.7 223.608L198.506 223.882L199.516 224.612ZM201.062 224.612H202.4V224.277H201.062V224.612ZM203.738 224.612H205.076V224.277H203.738V224.612ZM206.414 224.612H207.752V224.277H206.414V224.612ZM209.09 224.612H210.428V224.277H209.09V224.612ZM211.766 224.612H213.104V224.277H211.766V224.612ZM214.442 224.612H215.78V224.277H214.442V224.612ZM217.118 224.612H218.456V224.277H217.118V224.612ZM219.794 224.612H221.132V224.277H219.794V224.612ZM222.47 224.612H223.809V224.277H222.47V224.612ZM225.147 224.612H226.485V224.277H225.147V224.612ZM197.456 223.126L197.65 222.852L196.559 222.083L196.365 222.357L197.456 223.126ZM195.275 221.581L195.469 221.313L194.378 220.537L194.184 220.812L195.275 221.581ZM193.094 220.042L193.288 219.768L192.197 218.992L192.003 219.266L193.094 220.042ZM190.913 218.497L191.107 218.223L190.016 217.453L189.822 217.727L190.913 218.497ZM188.732 216.951L188.926 216.677L187.835 215.908L187.641 216.182L188.732 216.951ZM186.551 215.406L186.745 215.132L185.654 214.362L185.46 214.637L186.551 215.406ZM184.37 213.867L184.564 213.593L183.473 212.817L183.279 213.091L184.37 213.867ZM182.189 212.322L182.383 212.047L181.292 211.278L181.098 211.546L182.189 212.322Z" fill="#FFC727"/>
<path d="M227.783 224.277H228.452V224.612H227.783V224.277Z" fill="#FFC727"/>
<path d="M228.398 223.441C228.598 223.439 228.794 223.497 228.961 223.608C229.128 223.718 229.259 223.875 229.336 224.06C229.414 224.244 229.435 224.447 229.396 224.644C229.358 224.84 229.263 225.021 229.122 225.163C228.981 225.305 228.801 225.402 228.604 225.441C228.408 225.481 228.205 225.461 228.02 225.385C227.835 225.309 227.677 225.179 227.565 225.013C227.454 224.847 227.395 224.651 227.395 224.451C227.394 224.319 227.419 224.187 227.469 224.065C227.519 223.942 227.593 223.831 227.686 223.737C227.779 223.643 227.89 223.569 228.013 223.518C228.135 223.467 228.266 223.441 228.398 223.441Z" fill="#FFC727"/>
<path d="M253.848 223.32H258.885V225.568H253.848V223.32Z" fill="#FFC727"/>
<path d="M248.596 230.472H253.634V232.72H248.596V230.472Z" fill="#FFC727"/>
<path d="M242.474 223.32H252.021V225.568H242.474V223.32Z" fill="#FFC727"/>
<path d="M239.103 223.32H240.708V225.568H239.103V223.32Z" fill="#FFC727"/>
<path d="M236.54 223.32H238.146V225.568H236.54V223.32Z" fill="#FFC727"/>
<path d="M233.978 223.32H235.583V225.568H233.978V223.32Z" fill="#FFC727"/>
<path d="M249.339 226.866H258.885V229.114H249.339V226.866Z" fill="#FFC727"/>
<path d="M245.973 226.866H247.579V229.114H245.973V226.866Z" fill="#FFC727"/>
<path d="M243.404 226.866H245.01V229.114H243.404V226.866Z" fill="#FFC727"/>
<path d="M240.842 226.866H242.448V229.114H240.842V226.866Z" fill="#FFC727"/>
<path d="M257.28 230.472H258.885V232.72H257.28V230.472Z" fill="#FFC727"/>
<path d="M254.717 230.472H256.323V232.72H254.717V230.472Z" fill="#FFC727"/>
<path d="M96.3111 35.3613L96.5374 35.6077L96.0446 36.0603L95.8184 35.8139L96.3111 35.3613Z" fill="#FFC727"/>
<path d="M97.5237 34.689L98.5071 33.7859L98.2863 33.5383L97.3029 34.4415L97.5237 34.689ZM99.4906 32.8827L100.474 31.9795L100.253 31.732L99.2698 32.6351L99.4906 32.8827ZM101.458 31.0763L102.441 30.1731L102.22 29.9256L101.237 30.8288L101.458 31.0763ZM103.431 29.27L104.415 28.3601L104.187 28.1192L103.204 29.0224L103.431 29.27ZM105.398 27.4569L106.382 26.5537L106.154 26.3129L105.171 27.216L105.398 27.4569ZM107.365 25.6505L108.348 24.7407L108.121 24.4931L107.138 25.4097L107.365 25.6505ZM109.332 23.8442L110.295 22.941L110.068 22.6934L109.084 23.5966L109.332 23.8442ZM111.299 22.0646L112.302 21.1346L112.075 20.8871L111.091 21.7903L111.299 22.0646ZM113.266 20.2582L114.249 19.355L114.022 19.1075L113.038 20.0107L113.266 20.2582ZM115.233 18.4518L116.049 17.6958H116.143V17.3613H115.922L114.978 18.1775L115.233 18.4518ZM117.481 17.6958H118.819V17.3613H117.481V17.6958ZM120.157 17.6958H121.495V17.3613H120.157V17.6958ZM122.833 17.6958H124.171V17.3613H122.833V17.6958ZM125.509 17.6958H126.847V17.3613H125.509V17.6958ZM128.185 17.6958H129.523V17.3613H128.185V17.6958ZM130.861 17.6958H132.199V17.3613H130.861V17.6958ZM133.537 17.6958H134.875V17.3613H133.537V17.6958ZM136.213 17.6958H137.551V17.3613H136.213V17.6958ZM138.889 17.6958H140.227V17.3613H138.889V17.6958ZM141.566 17.6958H142.904V17.3613H141.566V17.6958Z" fill="#FFC727"/>
<path d="M144.195 17.3345H144.864V17.669H144.195V17.3345Z" fill="#FFC727"/>
<path d="M144.81 16.4983C145.011 16.497 145.207 16.5553 145.374 16.6658C145.541 16.7763 145.672 16.934 145.749 17.1188C145.826 17.3037 145.847 17.5074 145.808 17.704C145.769 17.9006 145.673 18.0812 145.531 18.2229C145.39 18.3645 145.209 18.4609 145.012 18.4997C144.816 18.5384 144.612 18.5179 144.427 18.4406C144.242 18.3633 144.085 18.2328 143.974 18.0656C143.864 17.8985 143.805 17.7022 143.807 17.5018C143.808 17.2362 143.915 16.982 144.103 16.7942C144.29 16.6064 144.545 16.5001 144.81 16.4983Z" fill="#FFC727"/>
<path d="M152.564 16.5586H157.602V18.8065H152.564V16.5586Z" fill="#FFC727"/>
<path d="M169.457 20.1042H174.495V22.3522H169.457V20.1042Z" fill="#FFC727"/>
<path d="M164.995 16.5586H174.542V18.8065H164.995V16.5586Z" fill="#FFC727"/>
<path d="M161.629 16.5586H163.235V18.8065H161.629V16.5586Z" fill="#FFC727"/>
<path d="M159.06 16.5586H160.666V18.8065H159.06V16.5586Z" fill="#FFC727"/>
<path d="M149.627 16.5586H151.233V18.8065H149.627V16.5586Z" fill="#FFC727"/>
<path d="M158.82 20.1042H168.367V22.3522H158.82V20.1042Z" fill="#FFC727"/>
<path d="M155.996 20.1042H157.602V22.3522H155.996V20.1042Z" fill="#FFC727"/>
<path d="M172.936 23.7102H174.542V25.9581H172.936V23.7102Z" fill="#FFC727"/>
<path d="M170.374 23.7102H171.979V25.9581H170.374V23.7102Z" fill="#FFC727"/>
</svg>
