<svg width="1626" height="1117" viewBox="0 0 1626 1117" fill="none" xmlns="http://www.w3.org/2000/svg">
<g clip-path="url(#clip0_336_98)">
<rect width="1626" height="1117" fill="white"/>
<g filter="url(#filter0_d_336_98)">
<path d="M1683 -106C1683 8.25037 1660.5 121.382 1616.78 226.935C1573.05 332.488 1508.97 428.396 1428.18 509.183C1347.4 589.97 1251.49 654.054 1145.93 697.775C1040.38 741.497 927.25 764 813 764C698.75 764 585.619 741.497 480.065 697.775C374.512 654.054 278.604 589.97 197.817 509.183C117.03 428.396 52.9464 332.488 9.22482 226.935C-34.4968 121.381 -56.9999 8.24994 -56.9999 -106L813 -106L1683 -106Z" fill="#21201D"/>
</g>
</g>
<defs>
<filter id="filter0_d_336_98" x="-102" y="-143" width="1830" height="960" filterUnits="userSpaceOnUse" color-interpolation-filters="sRGB">
<feFlood flood-opacity="0" result="BackgroundImageFix"/>
<feColorMatrix in="SourceAlpha" type="matrix" values="0 0 0 0 0 0 0 0 0 0 0 0 0 0 0 0 0 0 127 0" result="hardAlpha"/>
<feMorphology radius="15" operator="dilate" in="SourceAlpha" result="effect1_dropShadow_336_98"/>
<feOffset dy="8"/>
<feGaussianBlur stdDeviation="15"/>
<feComposite in2="hardAlpha" operator="out"/>
<feColorMatrix type="matrix" values="0 0 0 0 0 0 0 0 0 0 0 0 0 0 0 0 0 0 0.25 0"/>
<feBlend mode="normal" in2="BackgroundImageFix" result="effect1_dropShadow_336_98"/>
<feBlend mode="normal" in="SourceGraphic" in2="effect1_dropShadow_336_98" result="shape"/>
</filter>
<clipPath id="clip0_336_98">
<rect width="1626" height="1117" fill="white"/>
</clipPath>
</defs>
</svg>
